<svg xmlns="http://www.w3.org/2000/svg" xmlns:xlink="http://www.w3.org/1999/xlink" xmlns:inkscape="http://www.inkscape.org/namespaces/inkscape" version="1.1" width="263" height="166" viewBox="0 0 263 166">
<defs>
<clipPath id="clip_1">
<path transform="matrix(1.00005,0,0,-1.00003,74.99249,152.23909)" d="M-187.0891 0V150.23816H300.47633V0ZM300.47633 150.23816"/>
</clipPath>
<path id="font_2_1" d="M.36698915 .3996582H.45298768C.47299195 .3996582 .48298646 .3996582 .48298646 .41966249 .48298646 .43066407 .47299195 .43066407 .45599366 .43066407H.37298585L.3939972 .5449524C.397995 .5660095 .4119873 .6370239 .41799928 .6490326 .4269867 .66804507 .44400025 .68307498 .46499635 .68307498 .46899415 .68307498 .49499513 .68307498 .5139923 .66503909 .46998597 .661026 .45999146 .6260376 .45999146 .6110382 .45999146 .58802798 .47799684 .57603457 .49699403 .57603457 .522995 .57603457 .5519867 .5980377 .5519867 .6360321 .5519867 .6820679 .5059967 .7050781 .46499635 .7050781 .43099977 .7050781 .36799623 .68707278 .33799745 .58802798 .33198548 .56700137 .32899476 .5569763 .30499269 .43066407H.23599243C.21699524 .43066407 .20599365 .43066407 .20599365 .4116516 .20599365 .3996582 .21499634 .3996582 .23399353 .3996582H.2999878L.22499085 .0048828127C.20698548-.09207153 .18998719-.18309021 .13798523-.18309021 .13398743-.18309021 .10899353-.18309021 .08999634-.16506958 .13598633-.1620636 .14498902-.12606812 .14498902-.111068729 .14498902-.08807373 .1269989-.07606506 .10798645-.07606506 .08198547-.07606506 .052993776-.09806824 .052993776-.13606262 .052993776-.18109131 .09700012-.20507813 .13798523-.20507813 .19299317-.20507813 .23298645-.14607239 .25099183-.108062747 .2829895-.04508972 .30599977 .07583618 .30699159 .082839969L.36698915 .3996582Z"/>
<path id="font_3_1" d="M.33099366-.2400055C.33099366-.23701477 .33099366-.23500061 .31399537-.21800232 .18899536-.0920105 .15699768 .09700012 .15699768 .25 .15699768 .42399598 .19499207 .59799197 .31799317 .72299197 .33099366 .73498538 .33099366 .7369995 .33099366 .73999026 .33099366 .746994 .32699586 .75 .32099916 .75 .31098939 .75 .22099304 .6819916 .1619873 .5549927 .11099243 .44499208 .09899902 .33399964 .09899902 .25 .09899902 .17199707 .10998535 .050994874 .16499329-.06201172 .22499085-.18501282 .31098939-.25 .32099916-.25 .32699586-.25 .33099366-.24700928 .33099366-.2400055Z"/>
<path id="font_2_2" d="M.33399964 .30233766C.33999635 .32835389 .36299134 .42037965 .43299867 .42037965 .43798829 .42037965 .46199037 .42037965 .48298646 .40734864 .45498658 .402359 .43499757 .37734986 .43499757 .35334779 .43499757 .33735658 .44599916 .31835938 .47299195 .31835938 .49499513 .31835938 .5269928 .3363495 .5269928 .37635804 .5269928 .42837525 .46798707 .4423828 .43399049 .4423828 .37599183 .4423828 .34098817 .38935853 .32899476 .36634828 .3039856 .43237306 .25 .4423828 .22099304 .4423828 .116989139 .4423828 .05999756 .3133545 .05999756 .28834535 .05999756 .27833558 .069992069 .27833558 .07199097 .27833558 .07998657 .27833558 .08299255 .28033448 .084991458 .28933717 .11898804 .39535523 .18499756 .42037965 .21899414 .42037965 .23799134 .42037965 .272995 .4113617 .272995 .35334779 .272995 .32235719 .2559967 .25532533 .21899414 .11528015 .20298767 .053268434 .16799927 .011245728 .12399292 .011245728 .117996219 .011245728 .09498596 .011245728 .07398987 .024276734 .09899902 .029266358 .12098694 .05027771 .12098694 .07827759 .12098694 .105270389 .09899902 .11328125 .083999637 .11328125 .053985597 .11328125 .0289917 .08728027 .0289917 .055267335 .0289917 .009246826 .07899475-.0107421879 .12298584-.0107421879 .18899536-.0107421879 .22499085 .059280397 .22799683 .0652771 .23999024 .028274537 .27598573-.0107421879 .33599855-.0107421879 .43899537-.0107421879 .49598695 .118270877 .49598695 .14328003 .49598695 .1532898 .4869995 .1532898 .48399354 .1532898 .47499085 .1532898 .47299195 .14929199 .47099305 .14228821 .43798829 .03527832 .36999513 .011245728 .33799745 .011245728 .29899598 .011245728 .2829895 .043273927 .2829895 .07727051 .2829895 .09927368 .2889862 .121276859 .2999878 .16529846L.33399964 .30233766Z"/>
<path id="font_3_2" d="M.2889862 .25C.2889862 .32798768 .27799989 .44898988 .22299195 .56199648 .16299439 .68499758 .07699585 .75 .066986087 .75 .06098938 .75 .056991579 .74598696 .056991579 .73999026 .056991579 .7369995 .056991579 .73498538 .07598877 .71699526 .17399597 .6179962 .23098755 .45899964 .23098755 .25 .23098755 .07899475 .19400025-.09700012 .069992069-.2230072 .056991579-.23500061 .056991579-.23701477 .056991579-.2400055 .056991579-.2460022 .06098938-.25 .066986087-.25 .07699585-.25 .16699219-.18200684 .22599793-.055007936 .2769928 .054992677 .2889862 .16600037 .2889862 .25Z"/>
<path id="font_3_3" d="M.68699648 .32714845C.70199587 .32714845 .72099307 .32714845 .72099307 .34713746 .72099307 .36714173 .70199587 .36714173 .6879883 .36714173H.08898926C.07499695 .36714173 .055999757 .36714173 .055999757 .34713746 .055999757 .32714845 .07499695 .32714845 .08999634 .32714845H.68699648M.6879883 .13284302C.70199587 .13284302 .72099307 .13284302 .72099307 .15284729 .72099307 .17285156 .70199587 .17285156 .68699648 .17285156H.08999634C.07499695 .17285156 .055999757 .17285156 .055999757 .15284729 .055999757 .13284302 .07499695 .13284302 .08898926 .13284302H.6879883Z"/>
<path id="font_4_1" d="M.5049896 .18203736H.47099305C.46798707 .16001892 .45799256 .100997928 .44499208 .09098816 .43699647 .084991458 .3600006 .084991458 .34599305 .084991458H.1619873C.2669983 .17803955 .3019867 .20603943 .3619995 .25306703 .43598939 .312088 .5049896 .374115 .5049896 .46914674 .5049896 .5900879 .39898683 .6640625 .2709961 .6640625 .14698792 .6640625 .06298828 .57710269 .06298828 .4851532 .06298828 .43414308 .10598755 .42915345 .115997318 .42915345 .13999939 .42915345 .16899109 .44615174 .16899109 .48214723 .16899109 .5001526 .1619873 .53515627 .10998535 .53515627 .14099121 .6060791 .20899964 .62805178 .2559967 .62805178 .35598756 .62805178 .4079895 .5501404 .4079895 .46914674 .4079895 .38212586 .34599305 .3130951 .31399537 .27708436L.07299805 .038986207C.06298828 .02999878 .06298828 .027999878 .06298828 0H.47499085L.5049896 .18203736Z"/>
<path id="font_5_64" d="M.2849884 .1850586V.24707031H.010986328V.1850586H.2849884Z"/>
<path id="font_5_82" d="M.43199159 0V.0309906H.3999939C.30699159 .0309906 .3039856 .042999269 .3039856 .08001709V.63912966C.3039856 .6640167 .30299378 .6660156 .27799989 .6660156 .21598816 .60227969 .12399292 .60227969 .09298706 .60227969V.57128909C.11199951 .57128909 .17298889 .57128909 .22698975 .5972748V.08001709C.22698975 .042999269 .22399903 .0309906 .1309967 .0309906H.09899902V0C.1349945 .0029907227 .22399903 .0029907227 .2649994 .0029907227 .30599977 .0029907227 .3959961 .0029907227 .43199159 0Z"/>
<path id="font_5_107" d="M.46199037 .17704773H.43399049C.43199159 .16404724 .42399598 .10501099 .41099549 .08900452 .40499879 .07998657 .33599855 .07998657 .31599427 .07998657H.13798523L.23699951 .17404175C.40098573 .3161316 .46199037 .36915589 .46199037 .4711914 .46199037 .5860901 .36698915 .6660156 .24398804 .6660156 .1289978 .6660156 .050994874 .575119 .050994874 .4841919 .050994874 .43418885 .09399414 .42919923 .102996829 .42919923 .125 .42919923 .15499878 .44519044 .15499878 .48120118 .15499878 .51119998 .13398743 .5332031 .102996829 .5332031 .09799194 .5332031 .09498596 .5332031 .09098816 .53219607 .114990238 .6030731 .1789856 .63500979 .23298645 .63500979 .33499146 .63500979 .36999513 .5401764 .36999513 .4711914 .36999513 .36915589 .29299928 .28611756 .24499512 .23408509L.06199646 .035995485C.050994874 .024993897 .050994874 .022994996 .050994874 0H.43399049L.46199037 .17704773Z"/>
<path id="font_5_106" d="M.46998597 .17008972C.46998597 .25709535 .40098573 .33110047 .30499269 .35209657 .397995 .38710023 .44198609 .46009828 .44198609 .5290985 .44198609 .60606387 .35699464 .6660156 .25299073 .6660156 .14898682 .6660156 .070999149 .60705569 .070999149 .5310974 .070999149 .49809266 .09298706 .47909547 .12199402 .47909547 .15098572 .47909547 .17199707 .50009158 .17199707 .5290985 .17199707 .5640869 .147995 .57910159 .11399841 .57910159 .13999939 .6210327 .20098877 .64100649 .25 .64100649 .33299256 .64100649 .34899903 .5750885 .34899903 .52809146 .34899903 .49809266 .34298707 .45005799 .31799317 .41201783 .2869873 .36695863 .2519989 .36495973 .22299195 .36296083 .19799805 .36094667 .19599915 .36094667 .18798828 .36094667 .1789856 .35995484 .17098999 .35894776 .17098999 .34794618 .17098999 .33496095 .1789856 .33496095 .19599915 .33496095H.24299622C.32998658 .33496095 .36799623 .2646637 .36799623 .16937256 .36799623 .04145813 .2999878 .0055389406 .24899292 .0055389406 .22999573 .0055389406 .1329956 .010528564 .08799744 .0843811 .12399292 .07939148 .1519928 .10437012 .1519928 .13838196 .1519928 .17137146 .1269989 .19238281 .09799194 .19238281 .07299805 .19238281 .042999269 .17736817 .042999269 .13537598 .042999269 .046447755 .13598633-.022460938 .2519989-.022460938 .3769989-.022460938 .46998597 .06741333 .46998597 .16937256V.17008972Z"/>
<path id="font_5_57" d="M.48399354 .16503906V.19602967H.38198854V.649765C.38198854 .669754 .38198854 .6767578 .36299134 .6767578 .35099793 .6767578 .34999085 .67575076 .34098817 .6617584L.0289917 .19602967V.16503906H.3019867V.07901001C.3019867 .041992189 .29899598 .0309906 .22399903 .0309906H.20199585V0C.2649994 .0029907227 .33499146 .0029907227 .34199525 .0029907227 .34700013 .0029907227 .4189911 .0029907227 .48199464 0V.0309906H.45999146C.3849945 .0309906 .38198854 .041992189 .38198854 .07901001V.16503906H.48399354M.30799867 .19602967H.06098938L.30799867 .56581118V.19602967Z"/>
<path id="font_5_56" d="M.46199037 .19992066C.46199037 .3209076 .37599183 .41992188 .2669983 .41992188 .21899414 .41992188 .16999817 .4039154 .1349945 .36791993V.5647888C.16499329 .55578616 .19599915 .55078127 .22698975 .55078127 .34999085 .55078127 .42199708 .63983157 .42199708 .6529236 .42199708 .6619873 .41600038 .6660156 .41099549 .6660156 .41099549 .6660156 .40699769 .6660156 .397995 .6609802 .35099793 .6418457 .30499269 .63378909 .2630005 .63378909 .21998596 .63378909 .1749878 .6418457 .1289978 .6609802 .11898804 .6660156 .115997318 .6660156 .115997318 .6660156 .10398865 .6660156 .10398865 .6559448 .10398865 .63882449V.34490968C.10398865 .32699586 .10398865 .31599427 .117996219 .31599427 .12599182 .31562806 .1289978 .3196411 .1349945 .32867433 .16499329 .37083436 .21299744 .39491273 .2649994 .39491273 .37199403 .39491273 .37199403 .24035645 .37199403 .20422364 .37199403 .17321778 .37199403 .11122131 .34399415 .06636047 .31698609 .024475098 .2749939 .0055389406 .23599243 .0055389406 .1769867 .0055389406 .10998535 .042419435 .085998538 .11621094 .085998538 .116882327 .09298706 .11488342 .099990848 .11488342 .11999512 .11488342 .14898682 .12788391 .14898682 .1638794 .14898682 .19488526 .1269989 .21289063 .099990848 .21289063 .07899475 .21289063 .050994874 .20088196 .050994874 .16088867 .050994874 .069732669 .1269989-.022460938 .23799134-.022460938 .35899354-.02279663 .46199037 .07521057 .46199037 .19921875V.19992066Z"/>
</defs>
<path transform="matrix(1.00005,0,0,-1.00003,74.99249,152.23909)" d="M0 0C0 0 3.41324 .08757 4.72415 .19678 6.03508 .306 8.1374 .56876 9.44832 .7872 10.75925 1.00563 12.8616 1.44356 14.17252 1.77122 15.48344 2.09888 17.58577 2.7119 18.89668 3.14885 20.20761 3.5858 22.30997 4.3743 23.62088 4.92053 24.93181 5.46678 27.03413 6.43042 28.34505 7.08582 29.65598 7.74123 31.75833 8.87965 33.06924 9.64427 34.38017 10.4089 36.4825 11.72287 37.79341 12.59679 39.10434 13.4707 41.20665 14.95976 42.51758 15.9429 43.8285 16.92604 45.93085 18.59027 47.24178 19.68263 48.5527 20.775 50.65501 22.6143 51.96594 23.81596 53.27687 25.01761 55.37921 27.03246 56.69014 28.34334 58.00107 29.65422 60.10338 31.84384 61.4143 33.26389 62.72523 34.68393 64.82758 37.04872 66.1385 38.57805 67.44943 40.10739 69.55174 42.64766 70.86267 44.28625 72.1736 45.92487 74.27591 48.64023 75.58684 50.38806 76.89777 52.1359 79.0001 55.02643 80.31104 56.88348 81.62196 58.74054 83.72427 61.80623 85.0352 63.77252 86.34613 65.7388 88.44847 68.97966 89.7594 71.05516 91.07033 73.13068 93.17264 76.54668 94.48357 78.73141 95.7945 80.91615 97.89684 84.50732 99.20776 86.80128 100.51869 89.09525 102.621 92.8615 103.93193 95.26474 105.24286 97.66798 107.34517 101.60973 108.6561 104.12227 109.96703 106.6348 113.3803 113.37338 113.3803 113.37338L113.38724 0H0" fill="#ccccff"/>
<path transform="matrix(1.00005,0,0,-1.00003,74.99249,152.23909)" stroke-width=".79701" stroke-linecap="butt" stroke-miterlimit="10" stroke-linejoin="miter" fill="none" stroke="#000000" d="M-73.70186 0H186.38173"/>
<path transform="matrix(1.00005,0,0,-1.00003,261.38356,152.23909)" stroke-width=".6376" stroke-linecap="round" stroke-linejoin="round" fill="none" stroke="#000000" d="M-1.55415 2.0722C-1.42464 1.29512 0 .1295 .38852 0 0-.1295-1.42464-1.29512-1.55415-2.0722"/>
<path transform="matrix(1.00005,0,0,-1.00003,74.99249,152.23909)" stroke-width=".79701" stroke-linecap="butt" stroke-miterlimit="10" stroke-linejoin="miter" fill="none" stroke="#000000" d="M0-8.50412V149.5308"/>
<path transform="matrix(0,-1.00003,-1.00005,-0,74.99249,2.7037965)" stroke-width=".6376" stroke-linecap="round" stroke-linejoin="round" fill="none" stroke="#000000" d="M-1.55415 2.0722C-1.42464 1.29512 0 .1295 .38852 0 0-.1295-1.42464-1.29512-1.55415-2.0722"/>
<g clip-path="url(#clip_1)">
<path transform="matrix(1.00005,0,0,-1.00003,74.99249,152.23909)" stroke-width="1.19553" stroke-linecap="butt" stroke-miterlimit="10" stroke-linejoin="miter" fill="none" stroke="#000000" d="M-56.69362 28.3468C-56.69362 28.3468-49.86713 21.87064-47.24525 19.68565-44.62337 17.50067-40.41876 14.34691-37.79689 12.59895-35.175 10.851-30.9704 8.39854-28.34853 7.08755-25.72664 5.77657-21.52203 4.02426-18.90016 3.15016-16.27827 2.27606-12.07368 1.22472-9.4518 .78764-6.82991 .35057-2.62529 .00015-.00343 0 2.61841-.00015 6.82303 .34958 9.44489 .78635 12.06674 1.22311 16.27136 2.27422 18.89322 3.14801 21.51508 4.0218 25.7197 5.7734 28.34158 7.0841 30.96347 8.3948 35.16806 10.84703 37.78995 12.59462 40.41183 14.34221 44.61642 17.49498 47.23831 19.6796 49.8602 21.86421 54.06479 25.71829 56.68668 28.33987 59.30856 30.96146 63.51315 35.51569 66.13504 38.57416 68.75693 41.63263 72.96155 46.8878 75.5834 50.3833 78.20526 53.8788 82.40988 59.83493 85.03174 63.76733 87.6536 67.69974 91.85822 74.356 94.4801 78.72536 97.10199 83.09471 101.30658 90.45232 103.92847 95.2587 106.55035 100.06506 110.75494 108.12318 113.37683 113.36647 115.99872 118.60976 120.20331 127.36847 122.8252 133.04866 125.44708 138.72885 129.65167 148.18811 132.27356 154.30532 134.89545 160.42252 139.10004 170.58312 141.72193 177.13727 144.34381 183.69144 148.54843 194.55216 151.17029 201.54323 153.79215 208.5343 157.99677 220.09597 160.61862 227.52405 163.24048 234.95214 170.06699 255.07975 170.06699 255.07975"/>
</g>
<path transform="matrix(1.00005,0,0,-1.00003,74.99249,152.23909)" stroke-width=".3985" stroke-linecap="butt" stroke-miterlimit="10" stroke-linejoin="miter" fill="none" stroke="#000000" d="M153.07257 136.06476"/>
<use data-text="f" xlink:href="#font_2_1" transform="matrix(9.963098,0,0,-9.962899,206.65207,18.980088)"/>
<use data-text="(" xlink:href="#font_3_1" transform="matrix(9.963098,0,0,-9.962899,212.60239,18.980088)"/>
<use data-text="x" xlink:href="#font_2_2" transform="matrix(9.963098,0,0,-9.962899,216.47757,18.980088)"/>
<use data-text=")" xlink:href="#font_3_2" transform="matrix(9.963098,0,0,-9.962899,222.17185,18.980088)"/>
<use data-text="=" xlink:href="#font_3_3" transform="matrix(9.963098,0,0,-9.962899,228.7973,18.980088)"/>
<use data-text="x" xlink:href="#font_2_2" transform="matrix(9.963098,0,0,-9.962899,239.32971,18.980088)"/>
<use data-text="2" xlink:href="#font_4_1" transform="matrix(6.9741489,0,0,-6.9740097,245.02402,15.363983)"/>
<path transform="matrix(1.00005,0,0,-1.00003,74.99249,152.23909)" stroke-width=".3985" stroke-linecap="butt" stroke-miterlimit="10" stroke-linejoin="miter" fill="none" stroke="#000000" d="M-56.69362 1.99255V-1.99255"/>
<use data-text="-" xlink:href="#font_5_64" transform="matrix(8.966848,0,0,-8.966669,14.453461,163.72344)"/>
<use data-text="1" xlink:href="#font_5_82" transform="matrix(8.966848,0,0,-8.966669,17.529084,163.72344)"/>
<path transform="matrix(1.00005,0,0,-1.00003,74.99249,152.23909)" stroke-width=".3985" stroke-linecap="butt" stroke-miterlimit="10" stroke-linejoin="miter" fill="none" stroke="#000000" d="M56.69362 1.99255V-1.99255"/>
<use data-text="1" xlink:href="#font_5_82" transform="matrix(8.966848,0,0,-8.966669,129.38422,163.72344)"/>
<path transform="matrix(1.00005,0,0,-1.00003,74.99249,152.23909)" stroke-width=".3985" stroke-linecap="butt" stroke-miterlimit="10" stroke-linejoin="miter" fill="none" stroke="#000000" d="M113.38724 1.99255V-1.99255"/>
<use data-text="2" xlink:href="#font_5_107" transform="matrix(8.966848,0,0,-8.966669,186.08104,163.72344)"/>
<path transform="matrix(1.00005,0,0,-1.00003,74.99249,152.23909)" stroke-width=".3985" stroke-linecap="butt" stroke-miterlimit="10" stroke-linejoin="miter" fill="none" stroke="#000000" d="M170.08086 1.99255V-1.99255"/>
<use data-text="3" xlink:href="#font_5_106" transform="matrix(8.966848,0,0,-8.966669,242.77687,163.72344)"/>
<path transform="matrix(1.00005,0,0,-1.00003,74.99249,152.23909)" stroke-width=".3985" stroke-linecap="butt" stroke-miterlimit="10" stroke-linejoin="miter" fill="none" stroke="#000000" d="M3.9851 28.3468H-3.9851"/>
<use data-text="1" xlink:href="#font_5_82" transform="matrix(8.966848,0,0,-8.966669,62.877885,126.87733)"/>
<path transform="matrix(1.00005,0,0,-1.00003,74.99249,152.23909)" stroke-width=".3985" stroke-linecap="butt" stroke-miterlimit="10" stroke-linejoin="miter" fill="none" stroke="#000000" d="M3.9851 56.69362H-3.9851"/>
<use data-text="2" xlink:href="#font_5_107" transform="matrix(8.966848,0,0,-8.966669,62.877885,98.52948)"/>
<path transform="matrix(1.00005,0,0,-1.00003,74.99249,152.23909)" stroke-width=".3985" stroke-linecap="butt" stroke-miterlimit="10" stroke-linejoin="miter" fill="none" stroke="#000000" d="M3.9851 85.04042H-3.9851"/>
<use data-text="3" xlink:href="#font_5_106" transform="matrix(8.966848,0,0,-8.966669,62.877885,70.083629)"/>
<path transform="matrix(1.00005,0,0,-1.00003,74.99249,152.23909)" stroke-width=".3985" stroke-linecap="butt" stroke-miterlimit="10" stroke-linejoin="miter" fill="none" stroke="#000000" d="M3.9851 113.38724H-3.9851"/>
<use data-text="4" xlink:href="#font_5_57" transform="matrix(8.966848,0,0,-8.966669,62.877885,41.883775)"/>
<path transform="matrix(1.00005,0,0,-1.00003,74.99249,152.23909)" stroke-width=".3985" stroke-linecap="butt" stroke-miterlimit="10" stroke-linejoin="miter" fill="none" stroke="#000000" d="M3.9851 141.73404H-3.9851"/>
<use data-text="5" xlink:href="#font_5_56" transform="matrix(8.966848,0,0,-8.966669,62.877885,13.387924)"/>
</svg>
