<svg xmlns="http://www.w3.org/2000/svg" xmlns:xlink="http://www.w3.org/1999/xlink" xmlns:inkscape="http://www.inkscape.org/namespaces/inkscape" version="1.1" width="310" height="230" viewBox="0 0 310 230">
<defs>
<path id="font_1_3" d="M.20599365 .3996582H.2999878C.31999208 .3996582 .32998658 .3996582 .32998658 .41966249 .32998658 .43066407 .31999208 .43066407 .3019867 .43066407H.21398926C.25 .5724945 .25498963 .59246829 .25498963 .59846499 .25498963 .61546328 .24299622 .62545779 .22599793 .62545779 .22299195 .62545779 .19499207 .62446597 .18598938 .58947756L.14698792 .43066407H.052993776C.032989503 .43066407 .022994996 .43066407 .022994996 .4116516 .022994996 .3996582 .0309906 .3996582 .050994874 .3996582H.13899231C.066986087 .11608887 .06298828 .099121097 .06298828 .08114624 .06298828 .02722168 .100997928-.0107421879 .15499878-.0107421879 .25698854-.0107421879 .31399537 .13505554 .31399537 .14305115 .31399537 .1530304 .30599977 .1530304 .3019867 .1530304 .29299928 .1530304 .2919922 .15003968 .2869873 .13905335 .24398804 .035217287 .19099427 .011245728 .15699768 .011245728 .13598633 .011245728 .12599182 .024230957 .12599182 .057174684 .12599182 .08114624 .12799073 .088134769 .13198853 .10510254L.20599365 .3996582Z"/>
<path id="font_2_27" d="M.71699526 0V.0309906H.69898989C.6389923 .0309906 .625 .037979127 .6139984 .07095337L.397995 .6958008C.3929901 .7088165 .3909912 .7158203 .375 .7158203 .35899354 .7158203 .35598756 .70980837 .35099793 .6958008L.14399719 .09791565C.12599182 .04698181 .085998538 .03199768 .03199768 .0309906V0L.13398743 .0029907227 .24899292 0V.0309906C.19898987 .0309906 .17399597 .05596924 .17399597 .0819397 .17399597 .08493042 .1749878 .09492493 .17599488 .09692383L.22200012 .2277832H.46899415L.5219879 .07495117C.522995 .07095337 .5249939 .064956668 .5249939 .060958864 .5249939 .0309906 .46899415 .0309906 .44198609 .0309906V0C.47799684 .0029907227 .5479889 .0029907227 .58599856 .0029907227L.71699526 0M.45799256 .25878907H.23298645L.34498597 .58380129 .45799256 .25878907Z"/>
<path id="font_2_96" d="M.3639984 .38137818C.3639984 .41337586 .33299256 .4423828 .2899933 .4423828 .21699524 .4423828 .18099976 .37538148 .16699219 .3323822V.4423828L.027999878 .43066407V.3996582C.09799194 .3996582 .10598755 .39266969 .10598755 .34370423V.07595825C.10598755 .0309906 .09498596 .0309906 .027999878 .0309906V0L.14199829 .0029907227C.18199158 .0029907227 .22898865 .0029907227 .2689972 0V.0309906H.24798584C.17399597 .0309906 .17199707 .04197693 .17199707 .07795715V.23181153C.17199707 .33137513 .21398926 .42037965 .2899933 .42037965 .29699708 .42037965 .29899598 .42037965 .30099488 .41937257 .2979889 .41838075 .27799989 .40637208 .27799989 .3803711 .27799989 .35237123 .29899598 .33737184 .32099916 .33737184 .33898927 .33737184 .3639984 .3493805 .3639984 .38137818Z"/>
<path id="font_2_50" d="M.4149933 .11933899C.4149933 .12934876 .40699769 .13134766 .4019928 .13134766 .3929901 .13134766 .3909912 .12535095 .3889923 .11734009 .35398866 .014251709 .2639923 .014251709 .2539978 .014251709 .20399475 .014251709 .1639862 .044281007 .14099121 .08131409 .11099243 .12934876 .11099243 .19540406 .11099243 .23144531H.3899994C.4119873 .23144531 .4149933 .23144531 .4149933 .2524414 .4149933 .35131837 .36099244 .4482422 .23599243 .4482422 .11999512 .4482422 .027999878 .34532167 .027999878 .22042847 .027999878 .08631897 .1329956-.0107421879 .24798584-.0107421879 .36999513-.0107421879 .4149933 .10032654 .4149933 .11933899M.34899903 .2524414H.11199951C.117996219 .40126039 .20199585 .426239 .23599243 .426239 .33898927 .426239 .34899903 .2913971 .34899903 .2524414Z"/>
<path id="font_2_28" d="M.48298646 .08912659V.14511109H.45799256V.08912659C.45799256 .03112793 .43299867 .025131226 .42199708 .025131226 .3889923 .025131226 .3849945 .070129398 .3849945 .07511902V.27508546C.3849945 .31707765 .3849945 .3560791 .34899903 .39312745 .30999757 .43223573 .2599945 .4482422 .21199036 .4482422 .12998963 .4482422 .06098938 .40115357 .06098938 .335083 .06098938 .30508424 .08099365 .28808595 .10699463 .28808595 .1349945 .28808595 .15299988 .30807496 .15299988 .33407594 .15299988 .3460846 .147995 .37908937 .101989749 .38008119 .1289978 .41519166 .17799378 .426239 .20999146 .426239 .25898744 .426239 .31599427 .38710023 .31599427 .29808045V.26107789C.2649994 .25808717 .19499207 .25508119 .13198853 .22509766 .056991579 .19110108 .03199768 .13911438 .03199768 .09512329 .03199768 .014251709 .1289978-.0107421879 .19198609-.0107421879 .2579956-.0107421879 .3039856 .029251099 .32299806 .07624817 .32699586 .036132814 .35398866-.005859375 .40098573-.005859375 .42199708-.005859375 .48298646 .008132935 .48298646 .08912659M.31599427 .14013672C.31599427 .04525757 .24398804 .011245728 .19898987 .011245728 .1499939 .011245728 .10899353 .04624939 .10899353 .09625244 .10899353 .15124512 .15098572 .23425293 .31599427 .24024964V.14013672Z"/>
<path id="font_2_52" d="M.72099307 .34713746C.72099307 .36714173 .70199587 .36714173 .6879883 .36714173H.08898926C.07499695 .36714173 .055999757 .36714173 .055999757 .34713746 .055999757 .32714845 .07499695 .32714845 .08999634 .32714845H.68699648C.70199587 .32714845 .72099307 .32714845 .72099307 .34713746M.72099307 .15284729C.72099307 .17285156 .70199587 .17285156 .68699648 .17285156H.08999634C.07499695 .17285156 .055999757 .17285156 .055999757 .15284729 .055999757 .13284302 .07499695 .13284302 .08898926 .13284302H.6879883C.70199587 .13284302 .72099307 .13284302 .72099307 .15284729Z"/>
<path id="font_2_121" d="M.45999146 .31976319C.45999146 .39982606 .45498658 .47988893 .41999818 .5539398 .37399293 .65000918 .2919922 .6660156 .25 .6660156 .18998719 .6660156 .116989139 .64001467 .07598877 .54693606 .04399109 .47789 .038986207 .39982606 .038986207 .31976319 .038986207 .24472046 .042999269 .15464783 .083999637 .07859802 .1269989-.0024719239 .19999695-.022460938 .24899292-.022460938 .30299378-.022460938 .3789978-.0014648438 .4229889 .09359741 .45498658 .16265869 .45999146 .2407074 .45999146 .31976319M.3769989 .3317871C.3769989 .25672914 .3769989 .18867493 .3659973 .12461853 .35099793 .029556275 .2939911-.00047302247 .24899292-.00047302247 .20999146-.00047302247 .15098572 .024551392 .1329956 .12062073 .12199402 .18066406 .12199402 .2727356 .12199402 .3317871 .12199402 .39582826 .12199402 .46188355 .12998963 .5159149 .14898682 .63500979 .22399903 .64401248 .24899292 .64401248 .28199769 .64401248 .34799195 .6259918 .36698915 .52693179 .3769989 .47088624 .3769989 .39482118 .3769989 .3317871Z"/>
<path id="font_2_88" d="M.19198609 .052993776C.19198609 .08198547 .16799927 .10598755 .13899231 .10598755 .10998535 .10598755 .085998538 .08198547 .085998538 .052993776 .085998538 .023986817 .10998535 0 .13899231 0 .16799927 0 .19198609 .023986817 .19198609 .052993776Z"/>
<path id="font_2_106" d="M.45700074 .17037964C.45700074 .252594 .3939972 .33088685 .2899933 .35191346 .37199403 .37893678 .42999269 .4490509 .42999269 .52809146 .42999269 .6100464 .34199525 .6660156 .24598694 .6660156 .14498902 .6660156 .068984989 .60606387 .068984989 .53009036 .068984989 .49710084 .09098816 .47808839 .11999512 .47808839 .15098572 .47808839 .17098999 .50009158 .17098999 .5290985 .17098999 .57910159 .12399292 .57910159 .10899353 .57910159 .13999939 .62802127 .20599365 .64100649 .24198914 .64100649 .2829895 .64100649 .33799745 .6190338 .33799745 .5290985 .33799745 .51708987 .33599855 .45906068 .30999757 .4149933 .27999879 .36691285 .24598694 .36390687 .22099304 .36291505 .21299744 .36190797 .18899536 .35990907 .18199158 .35990907 .17399597 .35890199 .16699219 .35791017 .16699219 .3479004 .16699219 .33691407 .17399597 .33691407 .19099427 .33691407H.23498535C.31698609 .33691407 .35398866 .2686615 .35398866 .17037964 .35398866 .034469606 .2849884 .0055389406 .24099732 .0055389406 .19799805 .0055389406 .12298584 .022491456 .08799744 .08137512 .12298584 .07637024 .1539917 .09837341 .1539917 .1363678 .1539917 .17237854 .1269989 .19238281 .09799194 .19238281 .07398987 .19238281 .041992189 .17837525 .041992189 .1343689 .041992189 .043441774 .1349945-.022460938 .24398804-.022460938 .3659973-.022460938 .45700074 .06838989 .45700074 .17037964Z"/>
<path id="font_3_1" d="M.6589966 .23046875C.6759949 .23046875 .69400027 .23046875 .69400027 .25045777 .69400027 .27046205 .6759949 .27046205 .6589966 .27046205H.117996219C.100997928 .27046205 .08299255 .27046205 .08299255 .25045777 .08299255 .23046875 .100997928 .23046875 .117996219 .23046875H.6589966Z"/>
<path id="font_4_3" d="M.1269989 .07699585 .23298645 .18003845C.3889923 .31811524 .44898988 .3721466 .44898988 .47216798 .44898988 .5860901 .35899354 .6660156 .23699951 .6660156 .12399292 .6660156 .049987794 .57411196 .049987794 .48516847 .049987794 .4291687 .099990848 .4291687 .102996829 .4291687 .11999512 .4291687 .15499878 .44117738 .15499878 .48217774 .15499878 .5081787 .13699341 .5341797 .101989749 .5341797 .09399414 .5341797 .09199524 .5341797 .08898926 .5331726 .11199951 .59806826 .1659851 .63500979 .22399903 .63500979 .31498719 .63500979 .35798646 .5541382 .35798646 .47216798 .35798646 .39215089 .30799867 .31311036 .25299073 .25108338L.06098938 .036987306C.049987794 .025985718 .049987794 .023986817 .049987794 0H.42099L.44898988 .17404175H.42399598C.4189911 .14402771 .4119873 .1000061 .4019928 .084991458 .394989 .07699585 .32899476 .07699585 .30699159 .07699585H.1269989Z"/>
<path id="font_1_1" d="M.19198609 .052993776C.19198609 .08198547 .16799927 .10598755 .13899231 .10598755 .10998535 .10598755 .085998538 .08198547 .085998538 .052993776 .085998538 .023986817 .10998535 0 .13899231 0 .16799927 0 .19198609 .023986817 .19198609 .052993776Z"/>
<path id="font_4_5" d="M.44898988 .20022583C.44898988 .3193512 .36698915 .41944886 .25898744 .41944886 .21099854 .41944886 .16799927 .40345765 .13198853 .36842347V.5637665C.1519928 .5577698 .18499756 .55078127 .21699524 .55078127 .33999635 .55078127 .4099884 .6417694 .4099884 .6547699 .4099884 .6607666 .40699769 .6657715 .3999939 .6657715 .39898683 .6657715 .39698792 .6657715 .3919983 .66278079 .37199403 .6537781 .32299806 .6337738 .2559967 .6337738 .21598816 .6337738 .16999817 .6407776 .12298584 .6617737 .114990238 .66477969 .11299133 .66477969 .11099243 .66477969 .100997928 .66477969 .100997928 .6567688 .100997928 .6407776V.34439088C.100997928 .32637025 .100997928 .31835938 .114990238 .31835938 .12199402 .31835938 .12399292 .32136537 .12799073 .32736207 .13899231 .3433838 .17599488 .39746095 .25698854 .39746095 .30899049 .39746095 .33399964 .35139466 .34199525 .33337403 .35798646 .29632569 .3600006 .25727845 .3600006 .20722962 .3600006 .17222595 .3600006 .11222839 .33599855 .07035828 .31199647 .031463624 .2749939 .0055389406 .22898865 .0055389406 .1559906 .0055389406 .09899902 .058380128 .08198547 .11723328 .084991458 .1162262 .08799744 .115234378 .09899902 .115234378 .13198853 .115234378 .14898682 .14022827 .14898682 .16423035 .14898682 .18823242 .13198853 .21322632 .09899902 .21322632 .084991458 .21322632 .049987794 .20622254 .049987794 .16023255 .049987794 .07434082 .11898804-.022460938 .23098755-.022460938 .34700013-.022460938 .44898988 .073349 .44898988 .20022583Z"/>
<path id="font_4_4" d="M.2899933 .35191346C.37199403 .37893678 .42999269 .4490509 .42999269 .52809146 .42999269 .6100464 .34199525 .6660156 .24598694 .6660156 .14498902 .6660156 .068984989 .60606387 .068984989 .53009036 .068984989 .49710084 .09098816 .47808839 .11999512 .47808839 .15098572 .47808839 .17098999 .50009158 .17098999 .5290985 .17098999 .57910159 .12399292 .57910159 .10899353 .57910159 .13999939 .62802127 .20599365 .64100649 .24198914 .64100649 .2829895 .64100649 .33799745 .6190338 .33799745 .5290985 .33799745 .51708987 .33599855 .45906068 .30999757 .4149933 .27999879 .36691285 .24598694 .36390687 .22099304 .36291505 .21299744 .36190797 .18899536 .35990907 .18199158 .35990907 .17399597 .35890199 .16699219 .35791017 .16699219 .3479004 .16699219 .33691407 .17399597 .33691407 .19099427 .33691407H.23498535C.31698609 .33691407 .35398866 .2686615 .35398866 .17037964 .35398866 .034469606 .2849884 .0055389406 .24099732 .0055389406 .19799805 .0055389406 .12298584 .022491456 .08799744 .08137512 .12298584 .07637024 .1539917 .09837341 .1539917 .1363678 .1539917 .17237854 .1269989 .19238281 .09799194 .19238281 .07398987 .19238281 .041992189 .17837525 .041992189 .1343689 .041992189 .043441774 .1349945-.022460938 .24398804-.022460938 .3659973-.022460938 .45700074 .06838989 .45700074 .17037964 .45700074 .252594 .3939972 .33088685 .2899933 .35191346Z"/>
<path id="font_1_2" d="M.47099305 .3773346C.47200013 .3833313 .47399903 .38833619 .47399903 .39535523 .47399903 .41236878 .46199037 .42237855 .44499208 .42237855 .43499757 .42237855 .4079895 .41537477 .4039917 .3793335 .38598634 .41636659 .35099793 .4423828 .31098939 .4423828 .19699097 .4423828 .07299805 .30226136 .07299805 .15812683 .07299805 .059020997 .13398743 0 .20599365 0 .2649994 0 .31199647 .04701233 .32199098 .058029176L.32299806 .057022096C.3019867-.031982423 .2899933-.07295227 .2899933-.07495117 .28599549-.08395386 .2519989-.18309021 .1459961-.18309021 .1269989-.18309021 .09399414-.18206787 .06599426-.17297364 .09599304-.16394043 .10699463-.13793946 .10699463-.12094116 .10699463-.10494995 .09599304-.0859375 .068984989-.0859375 .04699707-.0859375 .01499939-.10394287 .01499939-.14395142 .01499939-.18508911 .051986696-.20507813 .147995-.20507813 .272995-.20507813 .34498597-.12693787 .3600006-.06695557L.47099305 .3773346M.34098817 .12809754C.33499146 .10206604 .31199647 .077041629 .2899933 .058029176 .2689972 .040008546 .23799134 .021987915 .20899964 .021987915 .15899658 .021987915 .14399719 .074035648 .14399719 .11407471 .14399719 .16212464 .17298889 .28024293 .19999695 .33128358 .22698975 .38034059 .269989 .42037965 .31199647 .42037965 .37799073 .42037965 .3919983 .33929444 .3919983 .33428956 .3919983 .32928468 .3899994 .3232727 .3889923 .3192749L.34098817 .12809754Z"/>
<path id="font_4_1" d="M.33099366-.2400055C.33099366-.23701477 .33099366-.23500061 .31399537-.21800232 .18899536-.0920105 .15699768 .09700012 .15699768 .25 .15699768 .42399598 .19499207 .59799197 .31799317 .72299197 .33099366 .73498538 .33099366 .7369995 .33099366 .73999026 .33099366 .746994 .32699586 .75 .32099916 .75 .31098939 .75 .22099304 .6819916 .1619873 .5549927 .11099243 .44499208 .09899902 .33399964 .09899902 .25 .09899902 .17199707 .10998535 .050994874 .16499329-.06201172 .22499085-.18501282 .31098939-.25 .32099916-.25 .32699586-.25 .33099366-.24700928 .33099366-.2400055Z"/>
<path id="font_4_2" d="M.2889862 .25C.2889862 .32798768 .27799989 .44898988 .22299195 .56199648 .16299439 .68499758 .07699585 .75 .066986087 .75 .06098938 .75 .056991579 .74598696 .056991579 .73999026 .056991579 .7369995 .056991579 .73498538 .07598877 .71699526 .17399597 .6179962 .23098755 .45899964 .23098755 .25 .23098755 .07899475 .19400025-.09700012 .069992069-.2230072 .056991579-.23500061 .056991579-.23701477 .056991579-.2400055 .056991579-.2460022 .06098938-.25 .066986087-.25 .07699585-.25 .16699219-.18200684 .22599793-.055007936 .2769928 .054992677 .2889862 .16600037 .2889862 .25Z"/>
</defs>
<path transform="matrix(1.00002,0,0,-1,9.798843,143.731)" d="M0 0C0 0 1.7063 .85336 2.36162 1.17822 3.01695 1.50307 4.06795 2.02277 4.72328 2.34131 5.3786 2.65985 6.42961 3.16597 7.08493 3.47414 7.74026 3.78229 8.79126 4.26875 9.4466 4.5624 10.10191 4.85603 11.15292 5.31538 11.80826 5.59053 12.46358 5.86569 13.51459 6.2927 14.1699 6.54558 14.82524 6.79846 15.87624 7.18628 16.53157 7.41325 17.18689 7.64021 18.2379 7.98393 18.89322 8.18144 19.54855 8.37894 20.59955 8.67201 21.25488 8.83673 21.9102 9.00146 22.96121 9.23975 23.61655 9.36876 24.27187 9.49777 25.32288 9.67613 25.9782 9.7667 26.63353 9.85724 27.68452 9.97195 28.33986 10.02145 28.99518 10.07095 30.04619 10.11737 30.7015 10.12354 31.35684 10.12971 32.40784 10.10484 33.06317 10.06601 33.71849 10.02719 34.7695 9.92908 35.42484 9.84369 36.08015 9.7583 37.13116 9.58383 37.78648 9.4505 38.44182 9.31717 39.49281 9.06453 40.14815 8.88258 40.80347 8.70064 41.85448 8.36998 42.5098 8.13905 43.16513 7.90814 44.21613 7.49832 44.87146 7.21819 45.52678 6.93803 46.57779 6.44919 47.23312 6.11996 47.88844 5.79073 48.93945 5.22269 49.59477 4.84528 50.2501 4.46785 51.3011 3.82414 51.95644 3.39973 52.61176 2.97533 53.66277 2.25656 54.31808 1.78636 54.97342 1.31616 56.67975 .0108 56.67975 .0108" fill="#ccccff"/>
<path transform="matrix(1.00002,0,0,-1,9.798843,143.731)" d="M56.69362 0C56.69362 0 60.10686-2.81966 61.41779-4.00702 62.7287-5.19438 64.83102-7.23271 66.14195-8.55775 67.45287-9.88278 69.55522-12.12276 70.86615-13.55702 72.17706-14.99129 74.27939-17.38467 75.59032-18.89497 76.90123-20.40527 79.00359-22.89285 80.31451-24.44228 81.62543-25.99171 83.72775-28.5137 85.03868-30.06224 86.3496-31.61078 88.45195-34.09769 89.76288-35.60306 91.07379-37.10843 93.17612-39.49373 94.48705-40.91203 95.79796-42.33032 97.90028-44.53732 99.2112-45.82521 100.52213-47.11311 102.62448-49.0793 103.9354-50.19429 105.24632-51.30928 107.34865-52.95995 108.65956-53.86134 109.97049-54.76274 112.07285-56.04082 113.38376-56.69101 114.69469-57.3412 116.79701-58.18211 118.10793-58.54747 119.41885-58.91281 121.52121-59.2721 122.83212-59.3243 124.14305-59.3765 126.24538-59.20697 127.55629-58.92377 128.86722-58.64058 130.96955-57.91774 132.28046-57.28316 133.59139-56.64859 135.69373-55.34454 137.00466-54.35013 138.31558-53.3557 140.4179-51.47087 141.72882-50.116 143.03975-48.76114 145.14209-46.29318 146.45302-44.58513 147.76395-42.87708 149.86626-39.85104 151.17719-37.80553 152.48812-35.76003 154.59046-32.20183 155.90139-29.84251 157.21231-27.4832 159.31462-23.44212 160.62555-20.80116 161.93648-18.1602 164.03879-13.69173 165.34972-10.80824 166.66065-7.92477 170.07392-.01901 170.07392-.01901" fill="#ffcccc"/>
<path transform="matrix(1.00002,0,0,-1,9.798843,143.731)" d="M170.08086-.00258C170.08086-.00258 171.78716 4.0511 172.44248 5.63336 173.09781 7.2156 174.1488 9.78653 174.80414 11.40125 175.45946 13.01598 176.51047 15.63124 177.16579 17.27124 177.82112 18.91122 178.87213 21.56303 179.52745 23.2212 180.18279 24.87938 181.23378 27.55472 181.88912 29.22226 182.54444 30.88979 183.59545 33.57056 184.25077 35.23972 184.9061 36.90887 185.95709 39.58916 186.61243 41.25243 187.26775 42.91571 188.31876 45.57918 188.97409 47.22751 189.62941 48.87584 190.68042 51.50766 191.33574 53.13252 191.99108 54.75739 193.04207 57.34517 193.6974 58.93848 194.35272 60.53178 195.40373 63.06282 196.05905 64.61597 196.71439 66.16913 197.76538 68.6282 198.42072 70.13255 199.07604 71.63692 200.12705 74.01135 200.78238 75.4584 201.4377 76.90544 202.48871 79.18022 203.14403 80.56192 203.79936 81.94362 204.85036 84.10854 205.50569 85.41672 206.16101 86.7249 207.21202 88.76419 207.86734 89.99039 208.52268 91.21657 209.57367 93.11732 210.229 94.25433 210.88433 95.39136 211.93534 97.14442 212.59067 98.18524 213.24599 99.22606 214.297 100.8185 214.95232 101.75584 215.60765 102.6932 216.65865 104.11438 217.31398 104.94106 217.9693 105.76775 219.02031 107.00409 219.67563 107.71405 220.33097 108.42401 221.38196 109.4701 222.0373 110.05798 222.69261 110.64587 223.74362 111.49048 224.39896 111.95119 225.05428 112.4119 226.7606 113.37857 226.7606 113.37857L226.77448 0" fill="#ccffcc"/>
<path transform="matrix(1.00002,0,0,-1,9.798843,143.731)" stroke-width=".3985" stroke-linecap="butt" stroke-miterlimit="10" stroke-linejoin="miter" fill="none" stroke="#000000" d="M0-85.04042H283.4681M0-56.69362H283.4681M0-28.3468H283.4681M0 0H283.4681M0 28.3468H283.4681M0 56.69362H283.4681M0 85.04042H283.4681M0 113.38724H283.4681M0 141.72409H283.4681M0-85.04042V141.73404M56.69362-85.04042V141.73404M113.38724-85.04042V141.73404M170.08086-85.04042V141.73404M226.77448-85.04042V141.73404M283.44819-85.04042V141.73404M283.4681 141.73404"/>
<path transform="matrix(1.00002,0,0,-1,9.798843,143.731)" stroke-width=".79701" stroke-linecap="butt" stroke-miterlimit="10" stroke-linejoin="miter" fill="none" stroke="#000000" d="M-8.50368 0H291.2644"/>
<path transform="matrix(1.00002,0,0,-1,301.0691,143.731)" stroke-width=".6376" stroke-linecap="round" stroke-linejoin="round" fill="none" stroke="#000000" d="M-1.55415 2.0722C-1.42464 1.29512 0 .1295 .38852 0 0-.1295-1.42464-1.29512-1.55415-2.0722"/>
<use data-text="t" xlink:href="#font_1_3" transform="matrix(9.962799,0,0,-9.9626,305.4958,146.795)"/>
<path transform="matrix(1.00002,0,0,-1,9.798843,143.731)" stroke-width=".79701" stroke-linecap="butt" stroke-miterlimit="10" stroke-linejoin="miter" fill="none" stroke="#000000" d="M0-85.04042V141.02667"/>
<path transform="matrix(0,-1,-1.00002,-0,9.798843,2.7043305)" stroke-width=".6376" stroke-linecap="round" stroke-linejoin="round" fill="none" stroke="#000000" d="M-1.55415 2.0722C-1.42464 1.29512 0 .1295 .38852 0 0-.1295-1.42464-1.29512-1.55415-2.0722"/>
<path transform="matrix(1.00002,0,0,-1,9.798843,143.731)" stroke-width="1.19553" stroke-linecap="butt" stroke-miterlimit="10" stroke-linejoin="miter" fill="none" stroke="#000000" d="M0 0C0 0 8.53342 4.29182 11.81087 5.59184 15.08832 6.89186 20.34428 8.77988 23.62173 9.36963 26.8992 9.95937 32.15515 10.29398 35.43262 9.84239 38.71007 9.39081 43.96606 7.74799 47.24352 6.11478 50.52097 4.48157 55.77693 .80055 59.05438-1.92867 62.33185-4.65791 67.5878-10.04214 70.86526-13.55573 74.14272-17.06929 79.39871-23.45642 82.67616-27.25204 85.95361-31.04768 91.20958-37.46112 94.48705-40.91203 97.7645-44.36293 103.02046-49.67714 106.29791-52.12384 109.57536-54.57054 114.83136-57.69464 118.10881-58.54617 121.38628-59.39769 126.64223-59.43095 129.9197-58.26112 133.19715-57.09128 138.45311-53.48615 141.73056-50.1147 145.00801-46.74326 150.26398-39.41653 153.54143-33.962 156.8189-28.50748 162.07488-17.9101 165.35234-10.80219 168.62979-3.69427 173.88576 9.2154 177.16321 17.2669 180.44066 25.31842 185.69663 39.15294 188.97409 47.22751 192.25154 55.30206 197.50754 68.39142 200.78499 75.46272 204.06244 82.53403 209.3184 93.12912 212.59586 98.1926 215.87332 103.25607 221.12928 109.75137 224.40674 111.95682 227.68419 114.16226 232.94019 115.31335 236.21764 114.08794 239.49509 112.86252 244.75106 107.9782 248.0285 103.12483 251.30597 98.27147 256.56193 87.35483 259.8394 79.10815 263.11686 70.86148 268.37284 54.65985 271.65028 43.68849 274.92774 32.71713 283.46119 .03415 283.46119 .03415"/>
<path transform="matrix(1.00002,0,0,-1,9.798843,143.731)" stroke-width=".3985" stroke-linecap="butt" stroke-miterlimit="10" stroke-linejoin="miter" fill="none" stroke="#000000" d="M28.34679 42.5202"/>
<use data-text="A" xlink:href="#font_2_27" transform="matrix(9.962799,0,0,-9.9626,14.194931,104.668)"/>
<use data-text="r" xlink:href="#font_2_96" transform="matrix(9.962799,0,0,-9.9626,21.66703,104.668)"/>
<use data-text="e" xlink:href="#font_2_50" transform="matrix(9.962799,0,0,-9.9626,25.572449,104.668)"/>
<use data-text="a" xlink:href="#font_2_28" transform="matrix(9.962799,0,0,-9.9626,29.995926,104.668)"/>
<use data-text="=" xlink:href="#font_2_52" transform="matrix(9.962799,0,0,-9.9626,38.28498,104.668)"/>
<use data-text="0" xlink:href="#font_2_121" transform="matrix(9.962799,0,0,-9.9626,49.353647,104.668)"/>
<use data-text="." xlink:href="#font_2_88" transform="matrix(9.962799,0,0,-9.9626,54.335039,104.668)"/>
<use data-text="3" xlink:href="#font_2_106" transform="matrix(9.962799,0,0,-9.9626,57.104707,104.668)"/>
<path transform="matrix(1.00002,0,0,-1,9.798843,143.731)" stroke-width=".3985" stroke-linecap="butt" stroke-miterlimit="10" stroke-linejoin="miter" fill="none" stroke="#000000" d="M113.38724-17.00824"/>
<use data-text="A" xlink:href="#font_2_27" transform="matrix(9.962799,0,0,-9.9626,95.36356,163.891)"/>
<use data-text="r" xlink:href="#font_2_96" transform="matrix(9.962799,0,0,-9.9626,102.83566,163.891)"/>
<use data-text="e" xlink:href="#font_2_50" transform="matrix(9.962799,0,0,-9.9626,106.74108,163.891)"/>
<use data-text="a" xlink:href="#font_2_28" transform="matrix(9.962799,0,0,-9.9626,111.16456,163.891)"/>
<use data-text="=" xlink:href="#font_2_52" transform="matrix(9.962799,0,0,-9.9626,119.45361,163.891)"/>
<use data-text="&#x2212;" xlink:href="#font_3_1" transform="matrix(9.962799,0,0,-9.9626,130.53226,163.891)"/>
<use data-text="2" xlink:href="#font_4_3" transform="matrix(9.962799,0,0,-9.9626,138.28144,163.891)"/>
<use data-text="." xlink:href="#font_1_1" transform="matrix(9.962799,0,0,-9.9626,143.26251,163.891)"/>
<use data-text="5" xlink:href="#font_4_5" transform="matrix(9.962799,0,0,-9.9626,146.02957,163.891)"/>
<path transform="matrix(1.00002,0,0,-1,9.798843,143.731)" stroke-width="1.19553" stroke-linecap="butt" stroke-dasharray="2.98883,2.98883" stroke-miterlimit="10" stroke-linejoin="miter" fill="none" stroke="#000000" d="M226.77448 0V113.38724"/>
<path transform="matrix(1.00002,0,0,-1,9.798843,143.731)" stroke-width=".3985" stroke-linecap="butt" stroke-miterlimit="10" stroke-linejoin="miter" fill="none" stroke="#000000" d="M200.12839 11.33855"/>
<use data-text="A" xlink:href="#font_2_27" transform="matrix(9.962799,0,0,-9.9626,185.98137,135.904)"/>
<use data-text="r" xlink:href="#font_2_96" transform="matrix(9.962799,0,0,-9.9626,193.45346,135.904)"/>
<use data-text="e" xlink:href="#font_2_50" transform="matrix(9.962799,0,0,-9.9626,197.35889,135.904)"/>
<use data-text="a" xlink:href="#font_2_28" transform="matrix(9.962799,0,0,-9.9626,201.78237,135.904)"/>
<use data-text="=" xlink:href="#font_2_52" transform="matrix(9.962799,0,0,-9.9626,210.07141,135.904)"/>
<use data-text="2" xlink:href="#font_4_3" transform="matrix(9.962799,0,0,-9.9626,221.15007,135.904)"/>
<use data-text="." xlink:href="#font_1_1" transform="matrix(9.962799,0,0,-9.9626,226.13117,135.904)"/>
<use data-text="3" xlink:href="#font_4_4" transform="matrix(9.962799,0,0,-9.9626,228.89923,135.904)"/>
<path transform="matrix(1.00002,0,0,-1,9.798843,143.731)" stroke-width=".3985" stroke-linecap="butt" stroke-miterlimit="10" stroke-linejoin="miter" fill="none" stroke="#000000" d="M28.34679 34.01608V17.46652"/>
<path transform="matrix(0,1,1.00002,0,38.146203,126.26448)" stroke-width=".31879" stroke-linecap="round" stroke-linejoin="round" fill="none" stroke="#000000" d="M-1.19551 1.59401C-1.09587 .99626 0 .09961 .29886 0 0-.09961-1.09587-.99626-1.19551-1.59401"/>
<path transform="matrix(1.00002,0,0,-1,9.798843,143.731)" stroke-width=".3985" stroke-linecap="butt" stroke-miterlimit="10" stroke-linejoin="miter" fill="none" stroke="#000000" d="M209.76619 124.72578"/>
<use data-text="g" xlink:href="#font_1_2" transform="matrix(9.962799,0,0,-9.9626,211.34088,21.496003)"/>
<use data-text="(" xlink:href="#font_4_1" transform="matrix(9.962799,0,0,-9.9626,216.44998,21.496003)"/>
<use data-text="t" xlink:href="#font_1_3" transform="matrix(9.962799,0,0,-9.9626,220.32407,21.496003)"/>
<use data-text=")" xlink:href="#font_4_2" transform="matrix(9.962799,0,0,-9.9626,223.92214,21.496003)"/>
</svg>
