<svg xmlns="http://www.w3.org/2000/svg" xmlns:xlink="http://www.w3.org/1999/xlink" xmlns:inkscape="http://www.inkscape.org/namespaces/inkscape" version="1.1" width="253" height="201" viewBox="0 0 253 201">
<defs>
<path id="font_1_2" d="M.20599365 .3996582H.2999878C.31999208 .3996582 .32998658 .3996582 .32998658 .41966249 .32998658 .43066407 .31999208 .43066407 .3019867 .43066407H.21398926C.25 .5724945 .25498963 .59246829 .25498963 .59846499 .25498963 .61546328 .24299622 .62545779 .22599793 .62545779 .22299195 .62545779 .19499207 .62446597 .18598938 .58947756L.14698792 .43066407H.052993776C.032989503 .43066407 .022994996 .43066407 .022994996 .4116516 .022994996 .3996582 .0309906 .3996582 .050994874 .3996582H.13899231C.066986087 .11608887 .06298828 .099121097 .06298828 .08114624 .06298828 .02722168 .100997928-.0107421879 .15499878-.0107421879 .25698854-.0107421879 .31399537 .13505554 .31399537 .14305115 .31399537 .1530304 .30599977 .1530304 .3019867 .1530304 .29299928 .1530304 .2919922 .15003968 .2869873 .13905335 .24398804 .035217287 .19099427 .011245728 .15699768 .011245728 .13598633 .011245728 .12599182 .024230957 .12599182 .057174684 .12599182 .08114624 .12799073 .088134769 .13198853 .10510254L.20599365 .3996582Z"/>
<path id="font_2_27" d="M.71699526 0V.0309906H.69898989C.6389923 .0309906 .625 .037979127 .6139984 .07095337L.397995 .6958008C.3929901 .7088165 .3909912 .7158203 .375 .7158203 .35899354 .7158203 .35598756 .70980837 .35099793 .6958008L.14399719 .09791565C.12599182 .04698181 .085998538 .03199768 .03199768 .0309906V0L.13398743 .0029907227 .24899292 0V.0309906C.19898987 .0309906 .17399597 .05596924 .17399597 .0819397 .17399597 .08493042 .1749878 .09492493 .17599488 .09692383L.22200012 .2277832H.46899415L.5219879 .07495117C.522995 .07095337 .5249939 .064956668 .5249939 .060958864 .5249939 .0309906 .46899415 .0309906 .44198609 .0309906V0C.47799684 .0029907227 .5479889 .0029907227 .58599856 .0029907227L.71699526 0M.45799256 .25878907H.23298645L.34498597 .58380129 .45799256 .25878907Z"/>
<path id="font_2_96" d="M.3639984 .38137818C.3639984 .41337586 .33299256 .4423828 .2899933 .4423828 .21699524 .4423828 .18099976 .37538148 .16699219 .3323822V.4423828L.027999878 .43066407V.3996582C.09799194 .3996582 .10598755 .39266969 .10598755 .34370423V.07595825C.10598755 .0309906 .09498596 .0309906 .027999878 .0309906V0L.14199829 .0029907227C.18199158 .0029907227 .22898865 .0029907227 .2689972 0V.0309906H.24798584C.17399597 .0309906 .17199707 .04197693 .17199707 .07795715V.23181153C.17199707 .33137513 .21398926 .42037965 .2899933 .42037965 .29699708 .42037965 .29899598 .42037965 .30099488 .41937257 .2979889 .41838075 .27799989 .40637208 .27799989 .3803711 .27799989 .35237123 .29899598 .33737184 .32099916 .33737184 .33898927 .33737184 .3639984 .3493805 .3639984 .38137818Z"/>
<path id="font_2_50" d="M.4149933 .11933899C.4149933 .12934876 .40699769 .13134766 .4019928 .13134766 .3929901 .13134766 .3909912 .12535095 .3889923 .11734009 .35398866 .014251709 .2639923 .014251709 .2539978 .014251709 .20399475 .014251709 .1639862 .044281007 .14099121 .08131409 .11099243 .12934876 .11099243 .19540406 .11099243 .23144531H.3899994C.4119873 .23144531 .4149933 .23144531 .4149933 .2524414 .4149933 .35131837 .36099244 .4482422 .23599243 .4482422 .11999512 .4482422 .027999878 .34532167 .027999878 .22042847 .027999878 .08631897 .1329956-.0107421879 .24798584-.0107421879 .36999513-.0107421879 .4149933 .10032654 .4149933 .11933899M.34899903 .2524414H.11199951C.117996219 .40126039 .20199585 .426239 .23599243 .426239 .33898927 .426239 .34899903 .2913971 .34899903 .2524414Z"/>
<path id="font_2_28" d="M.48298646 .08912659V.14511109H.45799256V.08912659C.45799256 .03112793 .43299867 .025131226 .42199708 .025131226 .3889923 .025131226 .3849945 .070129398 .3849945 .07511902V.27508546C.3849945 .31707765 .3849945 .3560791 .34899903 .39312745 .30999757 .43223573 .2599945 .4482422 .21199036 .4482422 .12998963 .4482422 .06098938 .40115357 .06098938 .335083 .06098938 .30508424 .08099365 .28808595 .10699463 .28808595 .1349945 .28808595 .15299988 .30807496 .15299988 .33407594 .15299988 .3460846 .147995 .37908937 .101989749 .38008119 .1289978 .41519166 .17799378 .426239 .20999146 .426239 .25898744 .426239 .31599427 .38710023 .31599427 .29808045V.26107789C.2649994 .25808717 .19499207 .25508119 .13198853 .22509766 .056991579 .19110108 .03199768 .13911438 .03199768 .09512329 .03199768 .014251709 .1289978-.0107421879 .19198609-.0107421879 .2579956-.0107421879 .3039856 .029251099 .32299806 .07624817 .32699586 .036132814 .35398866-.005859375 .40098573-.005859375 .42199708-.005859375 .48298646 .008132935 .48298646 .08912659M.31599427 .14013672C.31599427 .04525757 .24398804 .011245728 .19898987 .011245728 .1499939 .011245728 .10899353 .04624939 .10899353 .09625244 .10899353 .15124512 .15098572 .23425293 .31599427 .24024964V.14013672Z"/>
<path id="font_2_52" d="M.72099307 .34713746C.72099307 .36714173 .70199587 .36714173 .6879883 .36714173H.08898926C.07499695 .36714173 .055999757 .36714173 .055999757 .34713746 .055999757 .32714845 .07499695 .32714845 .08999634 .32714845H.68699648C.70199587 .32714845 .72099307 .32714845 .72099307 .34713746M.72099307 .15284729C.72099307 .17285156 .70199587 .17285156 .68699648 .17285156H.08999634C.07499695 .17285156 .055999757 .17285156 .055999757 .15284729 .055999757 .13284302 .07499695 .13284302 .08898926 .13284302H.6879883C.70199587 .13284302 .72099307 .13284302 .72099307 .15284729Z"/>
<path id="font_2_56" d="M.44898988 .20091248C.44898988 .31991578 .36698915 .41992188 .25898744 .41992188 .21099854 .41992188 .16799927 .4039154 .13198853 .36891175V.5641022C.1519928 .55778506 .18499756 .55078127 .21699524 .55078127 .33999635 .55078127 .4099884 .6418457 .4099884 .65493777 .4099884 .6609802 .40699769 .6660156 .3999939 .6660156 .3999939 .66607668 .39698792 .66607668 .3919983 .66308596 .37199403 .65408328 .32299806 .63378909 .2559967 .63378909 .21598816 .63409426 .16999817 .641098 .12298584 .6621094 .114990238 .6651001 .11099243 .6651001 .11099243 .6651001 .100997928 .66508486 .100997928 .657074 .100997928 .64108279V.3447113C.100997928 .3266449 .100997928 .31861878 .114990238 .31861878 .12199402 .31861878 .12399292 .32164 .12799073 .32765199 .13899231 .34371949 .17599488 .3979187 .25698854 .3979187 .30899049 .3979187 .33399964 .3517456 .34199525 .3336792 .35798646 .2965393 .3600006 .2574005 .3600006 .20721436 .3600006 .17218018 .3600006 .112197879 .33599855 .07032776 .31199647 .031448366 .2749939 .0055389406 .22898865 .0055389406 .1559906 .0055389406 .09899902 .05836487 .08198547 .1171875 .084991458 .11685181 .08799744 .115859989 .09899902 .115859989 .13198853 .115859989 .14898682 .14085388 .14898682 .16485596 .14898682 .18885803 .13198853 .21386719 .09899902 .21386719 .084991458 .21386719 .049987794 .2068634 .049987794 .16085816 .049987794 .07432556 .11898804-.022460938 .23098755-.022460938 .34700013-.022460938 .44898988 .07331848 .44898988 .20019531V.20091248Z"/>
<path id="font_3_1" d="M.6589966 .23046875C.6759949 .23046875 .69400027 .23046875 .69400027 .25045777 .69400027 .27046205 .6759949 .27046205 .6589966 .27046205H.117996219C.100997928 .27046205 .08299255 .27046205 .08299255 .25045777 .08299255 .23046875 .100997928 .23046875 .117996219 .23046875H.6589966Z"/>
<path id="font_4_3" d="M.2939911 .64004519C.2939911 .66400149 .2939911 .6660156 .2709961 .6660156 .20899964 .60227969 .12098694 .60227969 .08898926 .60227969V.57128909C.10899353 .57128909 .16799927 .57128909 .21998596 .5972748V.07902527C.21998596 .042999269 .21699524 .0309906 .1269989 .0309906H.09498596V0C.12998963 .0029907227 .21699524 .0029907227 .25698854 .0029907227 .29699708 .0029907227 .38398744 .0029907227 .4189911 0V.0309906H.3869934C.29699708 .0309906 .2939911 .041992189 .2939911 .07902527V.64004519Z"/>
<path id="font_4_4" d="M.1269989 .07699585 .23298645 .18003845C.3889923 .31811524 .44898988 .3721466 .44898988 .47216798 .44898988 .5860901 .35899354 .6660156 .23699951 .6660156 .12399292 .6660156 .049987794 .57411196 .049987794 .48516847 .049987794 .4291687 .099990848 .4291687 .102996829 .4291687 .11999512 .4291687 .15499878 .44117738 .15499878 .48217774 .15499878 .5081787 .13699341 .5341797 .101989749 .5341797 .09399414 .5341797 .09199524 .5341797 .08898926 .5331726 .11199951 .59806826 .1659851 .63500979 .22399903 .63500979 .31498719 .63500979 .35798646 .5541382 .35798646 .47216798 .35798646 .39215089 .30799867 .31311036 .25299073 .25108338L.06098938 .036987306C.049987794 .025985718 .049987794 .023986817 .049987794 0H.42099L.44898988 .17404175H.42399598C.4189911 .14402771 .4119873 .1000061 .4019928 .084991458 .394989 .07699585 .32899476 .07699585 .30699159 .07699585H.1269989Z"/>
<path id="font_1_1" d="M.36698915 .3996582H.45298768C.47299195 .3996582 .48298646 .3996582 .48298646 .41966249 .48298646 .43066407 .47299195 .43066407 .45599366 .43066407H.37298585L.3939972 .5449524C.397995 .5660095 .4119873 .6370239 .41799928 .6490326 .4269867 .66804507 .44400025 .68307498 .46499635 .68307498 .46899415 .68307498 .49499513 .68307498 .5139923 .66503909 .46998597 .661026 .45999146 .6260376 .45999146 .6110382 .45999146 .58802798 .47799684 .57603457 .49699403 .57603457 .522995 .57603457 .5519867 .5980377 .5519867 .6360321 .5519867 .6820679 .5059967 .7050781 .46499635 .7050781 .43099977 .7050781 .36799623 .68707278 .33799745 .58802798 .33198548 .56700137 .32899476 .5569763 .30499269 .43066407H.23599243C.21699524 .43066407 .20599365 .43066407 .20599365 .4116516 .20599365 .3996582 .21499634 .3996582 .23399353 .3996582H.2999878L.22499085 .0048828127C.20698548-.09207153 .18998719-.18309021 .13798523-.18309021 .13398743-.18309021 .10899353-.18309021 .08999634-.16506958 .13598633-.1620636 .14498902-.12606812 .14498902-.111068729 .14498902-.08807373 .1269989-.07606506 .10798645-.07606506 .08198547-.07606506 .052993776-.09806824 .052993776-.13606262 .052993776-.18109131 .09700012-.20507813 .13798523-.20507813 .19299317-.20507813 .23298645-.14607239 .25099183-.108062747 .2829895-.04508972 .30599977 .07583618 .30699159 .082839969L.36698915 .3996582Z"/>
<path id="font_4_1" d="M.33099366-.2400055C.33099366-.23701477 .33099366-.23500061 .31399537-.21800232 .18899536-.0920105 .15699768 .09700012 .15699768 .25 .15699768 .42399598 .19499207 .59799197 .31799317 .72299197 .33099366 .73498538 .33099366 .7369995 .33099366 .73999026 .33099366 .746994 .32699586 .75 .32099916 .75 .31098939 .75 .22099304 .6819916 .1619873 .5549927 .11099243 .44499208 .09899902 .33399964 .09899902 .25 .09899902 .17199707 .10998535 .050994874 .16499329-.06201172 .22499085-.18501282 .31098939-.25 .32099916-.25 .32699586-.25 .33099366-.24700928 .33099366-.2400055Z"/>
<path id="font_4_2" d="M.2889862 .25C.2889862 .32798768 .27799989 .44898988 .22299195 .56199648 .16299439 .68499758 .07699585 .75 .066986087 .75 .06098938 .75 .056991579 .74598696 .056991579 .73999026 .056991579 .7369995 .056991579 .73498538 .07598877 .71699526 .17399597 .6179962 .23098755 .45899964 .23098755 .25 .23098755 .07899475 .19400025-.09700012 .069992069-.2230072 .056991579-.23500061 .056991579-.23701477 .056991579-.2400055 .056991579-.2460022 .06098938-.25 .066986087-.25 .07699585-.25 .16699219-.18200684 .22599793-.055007936 .2769928 .054992677 .2889862 .16600037 .2889862 .25Z"/>
<path id="font_5_51" d="M.46998597 .16764832C.46998597 .26472474 .3959961 .3127594 .37098695 .32876588 .3600006 .33677674 .33099366 .35479737 .31900025 .36180116 .36898805 .38581849 .44198609 .43585206 .44198609 .51690676 .44198609 .6109772 .34799195 .6660156 .2579956 .6660156 .15299988 .6660156 .070999149 .5909729 .070999149 .49890138 .070999149 .46087647 .084991458 .42485047 .10899353 .39582826 .12599182 .3768158 .13198853 .37280274 .18998719 .3357849 .101989749 .29374696 .042999269 .23269654 .042999269 .15063477 .042999269 .044555665 .147995-.022460938 .2559967-.022460938 .37199403-.022460938 .46998597 .059570314 .46998597 .16764832M.3939972 .51690676C.3939972 .44685365 .33399964 .40083314 .2939911 .37780763L.17199707 .45387269C.14199829 .47288514 .11898804 .4998932 .11898804 .53692629 .11898804 .6019745 .18899536 .64100649 .25498963 .64100649 .33198548 .64100649 .3939972 .58695986 .3939972 .51690676M.41600038 .1326294C.41600038 .05357361 .33599855 .0055389406 .25698854 .0055389406 .16999817 .0055389406 .09700012 .06758118 .09700012 .15063477 .09700012 .22268677 .14698792 .28274537 .21699524 .31877137L.34298707 .2407074C.3659973 .22569275 .41600038 .19366455 .41600038 .1326294Z"/>
</defs>
<path transform="matrix(1.00002,0,0,-1,9.798843,86.038)" d="M0 0C0 0 2.56007 5.92311 3.54333 8.01794 4.5266 10.11278 6.10342 13.25958 7.08669 15.09816 8.06995 16.93672 9.64677 19.67676 10.63004 21.26917 11.6133 22.86157 13.19012 25.22055 14.17339 26.57512 15.15665 27.92969 16.73347 29.90794 17.71674 31.03198 18.70001 32.15604 20.27682 33.77232 21.2601 34.67656 22.24336 35.58078 23.82019 36.85374 24.80345 37.54904 25.78671 38.24435 27.36354 39.19408 28.3468 39.68793 29.33006 40.1818 30.90688 40.8076 31.89014 41.1084 32.8734 41.40918 34.45023 41.73802 35.43349 41.85583 36.41676 41.97363 37.99358 42.0126 38.97685 41.95747 39.96011 41.90233 41.53694 41.67761 42.5202 41.45833 43.50346 41.23904 45.08029 40.752 46.06355 40.37698 47.04681 40.00197 48.62364 39.27611 49.6069 38.75539 50.59016 38.23465 52.16699 37.2811 53.15025 36.62384 54.13353 35.96658 55.71034 34.8032 56.69362 34.01823 57.67688 33.23326 59.2537 31.86998 60.23695 30.96623 61.22021 30.0625 62.79704 28.51718 63.7803 27.50464 64.76357 26.4921 66.3404 24.78069 67.32365 23.66847 68.30692 22.55624 69.88374 20.69144 70.867 19.48842 71.85028 18.28539 73.4271 16.2824 74.41037 14.9978 75.39363 13.71323 76.97046 11.58655 77.95372 10.22993 78.93698 8.87332 80.51381 6.63966 81.49707 5.22029 82.48033 3.80092 85.04042 0 85.04042 0" fill="#ccffcc"/>
<path transform="matrix(1.00002,0,0,-1,9.798843,86.038)" stroke-width=".3985" stroke-linecap="butt" stroke-miterlimit="10" stroke-linejoin="miter" fill="none" stroke="#000000" d="M0 0C0 0 2.56007 5.92311 3.54333 8.01794 4.5266 10.11278 6.10342 13.25958 7.08669 15.09816 8.06995 16.93672 9.64677 19.67676 10.63004 21.26917 11.6133 22.86157 13.19012 25.22055 14.17339 26.57512 15.15665 27.92969 16.73347 29.90794 17.71674 31.03198 18.70001 32.15604 20.27682 33.77232 21.2601 34.67656 22.24336 35.58078 23.82019 36.85374 24.80345 37.54904 25.78671 38.24435 27.36354 39.19408 28.3468 39.68793 29.33006 40.1818 30.90688 40.8076 31.89014 41.1084 32.8734 41.40918 34.45023 41.73802 35.43349 41.85583 36.41676 41.97363 37.99358 42.0126 38.97685 41.95747 39.96011 41.90233 41.53694 41.67761 42.5202 41.45833 43.50346 41.23904 45.08029 40.752 46.06355 40.37698 47.04681 40.00197 48.62364 39.27611 49.6069 38.75539 50.59016 38.23465 52.16699 37.2811 53.15025 36.62384 54.13353 35.96658 55.71034 34.8032 56.69362 34.01823 57.67688 33.23326 59.2537 31.86998 60.23695 30.96623 61.22021 30.0625 62.79704 28.51718 63.7803 27.50464 64.76357 26.4921 66.3404 24.78069 67.32365 23.66847 68.30692 22.55624 69.88374 20.69144 70.867 19.48842 71.85028 18.28539 73.4271 16.2824 74.41037 14.9978 75.39363 13.71323 76.97046 11.58655 77.95372 10.22993 78.93698 8.87332 80.51381 6.63966 81.49707 5.22029 82.48033 3.80092 85.04042 0 85.04042 0"/>
<path transform="matrix(1.00002,0,0,-1,9.798843,86.038)" d="M85.04042 0C85.04042 0 89.30713-6.5116 90.94586-9.07765 92.58458-11.64372 95.21257-15.85545 96.85129-18.49445 98.49002-21.13344 101.11801-25.42879 102.75673-28.09766 104.39546-30.76653 107.02345-35.07417 108.66219-37.72984 110.3009-40.38551 112.9289-44.63737 114.56763-47.23788 116.20634-49.8384 118.83434-53.97002 120.47305-56.47258 122.11179-58.97514 124.73978-62.91312 126.37851-65.27472 128.01725-67.63632 130.64522-71.31543 132.28395-73.49338 133.92267-75.67134 136.55066-79.02037 138.18938-80.97197 139.82811-82.92355 142.4561-85.87589 144.09484-87.55908 145.73357-89.24228 148.36154-91.7318 150.00028-93.10335 151.63899-94.4749 154.26699-96.42744 155.9057-97.4443 157.54444-98.46117 160.17241-99.8118 161.81114-100.43227 163.44988-101.05273 166.07787-101.73532 167.7166-101.91632 169.35532-102.09732 171.9833-102.03807 173.62203-101.73682 175.26076-101.43556 177.88874-100.57112 179.52747-99.74498 181.1662-98.91882 183.79419-97.17654 185.43292-95.78249 187.07164-94.38844 189.69963-91.70164 191.33835-89.69756 192.97708-87.69345 195.60507-83.9953 197.24379-81.33832 198.88253-78.68134 201.51052-73.90039 203.14925-70.5478 204.78797-67.1952 207.41596-61.26591 209.05469-57.17502 210.6934-53.08412 213.3214-45.93544 214.96012-41.06342 216.59885-36.19138 219.22684-27.75627 220.86557-22.06073 222.5043-16.36517 226.77101-.01382 226.77101-.01382" fill="#ffcccc"/>
<path transform="matrix(1.00002,0,0,-1,9.798843,86.038)" stroke-width=".3985" stroke-linecap="butt" stroke-miterlimit="10" stroke-linejoin="miter" fill="none" stroke="#000000" d="M85.04042 0C85.04042 0 89.30713-6.5116 90.94586-9.07765 92.58458-11.64372 95.21257-15.85545 96.85129-18.49445 98.49002-21.13344 101.11801-25.42879 102.75673-28.09766 104.39546-30.76653 107.02345-35.07417 108.66219-37.72984 110.3009-40.38551 112.9289-44.63737 114.56763-47.23788 116.20634-49.8384 118.83434-53.97002 120.47305-56.47258 122.11179-58.97514 124.73978-62.91312 126.37851-65.27472 128.01725-67.63632 130.64522-71.31543 132.28395-73.49338 133.92267-75.67134 136.55066-79.02037 138.18938-80.97197 139.82811-82.92355 142.4561-85.87589 144.09484-87.55908 145.73357-89.24228 148.36154-91.7318 150.00028-93.10335 151.63899-94.4749 154.26699-96.42744 155.9057-97.4443 157.54444-98.46117 160.17241-99.8118 161.81114-100.43227 163.44988-101.05273 166.07787-101.73532 167.7166-101.91632 169.35532-102.09732 171.9833-102.03807 173.62203-101.73682 175.26076-101.43556 177.88874-100.57112 179.52747-99.74498 181.1662-98.91882 183.79419-97.17654 185.43292-95.78249 187.07164-94.38844 189.69963-91.70164 191.33835-89.69756 192.97708-87.69345 195.60507-83.9953 197.24379-81.33832 198.88253-78.68134 201.51052-73.90039 203.14925-70.5478 204.78797-67.1952 207.41596-61.26591 209.05469-57.17502 210.6934-53.08412 213.3214-45.93544 214.96012-41.06342 216.59885-36.19138 219.22684-27.75627 220.86557-22.06073 222.5043-16.36517 226.77101-.01382 226.77101-.01382"/>
<path transform="matrix(1.00002,0,0,-1,9.798843,86.038)" stroke-width=".79701" stroke-linecap="butt" stroke-miterlimit="10" stroke-linejoin="miter" fill="none" stroke="#000000" d="M-8.50412 0H234.57123"/>
<path transform="matrix(1.00002,0,0,-1,244.37477,86.038)" stroke-width=".6376" stroke-linecap="round" stroke-linejoin="round" fill="none" stroke="#000000" d="M-1.55415 2.0722C-1.42464 1.29512 0 .1295 .38852 0 0-.1295-1.42464-1.29512-1.55415-2.0722"/>
<use data-text="t" xlink:href="#font_1_2" transform="matrix(9.962799,0,0,-9.9626,248.80164,89.102008)"/>
<path transform="matrix(1.00002,0,0,-1,9.798843,86.038)" stroke-width=".79701" stroke-linecap="butt" stroke-miterlimit="10" stroke-linejoin="miter" fill="none" stroke="#000000" d="M0-113.38724V84.33305"/>
<path transform="matrix(0,-1,-1.00002,-0,9.798843,1.7049484)" stroke-width=".6376" stroke-linecap="round" stroke-linejoin="round" fill="none" stroke="#000000" d="M-1.55415 2.0722C-1.42464 1.29512 0 .1295 .38852 0 0-.1295-1.42464-1.29512-1.55415-2.0722"/>
<path transform="matrix(1.00002,0,0,-1,9.798843,86.038)" stroke-width="1.19553" stroke-linecap="butt" stroke-miterlimit="10" stroke-linejoin="miter" fill="none" stroke="#000000" d="M0 0C0 0 6.8268 14.8264 9.44878 19.3128 12.07077 23.7992 16.27557 29.50862 18.89757 32.3348 21.51956 35.16096 25.72437 38.34178 28.34636 39.68188 30.96835 41.02199 35.17316 41.96355 37.79515 41.99338 40.41714 42.02321 44.62195 41.00374 47.24394 39.89685 49.86594 38.78996 54.07076 36.08412 56.69275 34.01564 59.31474 31.94714 63.51955 27.84341 66.14154 24.98857 68.76352 22.13371 72.96834 16.90692 75.59033 13.4398 78.21231 9.97269 82.41713 3.90358 85.03911 0 87.6611-3.90358 91.8659-10.52893 94.4879-14.69461 97.1099-18.86028 101.31471-25.76953 103.9367-30.0233 106.5587-34.27708 110.7635-41.18643 113.3855-45.35289 116.00749-49.51935 120.2123-56.1482 122.83429-60.05226 125.45628-63.95633 129.66109-70.02367 132.28308-73.49078 134.90508-76.9579 139.10988-82.18521 141.73188-85.04085 144.35387-87.89648 148.55867-92.00351 151.18067-94.07224 153.80265-96.14096 158.00748-98.84355 160.62946-99.95085 163.25145-101.05817 167.45626-102.08151 170.07825-102.05301 172.70024-102.02449 176.90505-101.08527 179.52704-99.7454 182.14904-98.40555 186.35384-95.22179 188.97583-92.39616 191.59783-89.57054 195.80263-83.86644 198.42462-79.38022 201.04662-74.89401 205.25144-66.38431 207.87343-60.06264 210.49542-53.74098 214.70023-42.14963 217.32222-33.81796 219.94422-25.48631 226.77101-.01382 226.77101-.01382"/>
<path transform="matrix(1.00002,0,0,-1,9.798843,86.038)" stroke-width=".3985" stroke-linecap="butt" stroke-miterlimit="10" stroke-linejoin="miter" fill="none" stroke="#000000" d="M36.85092 17.00824"/>
<use data-text="A" xlink:href="#font_2_27" transform="matrix(9.962799,0,0,-9.9626,26.57518,72.487)"/>
<use data-text="r" xlink:href="#font_2_96" transform="matrix(9.962799,0,0,-9.9626,34.04728,72.487)"/>
<use data-text="e" xlink:href="#font_2_50" transform="matrix(9.962799,0,0,-9.9626,37.952699,72.487)"/>
<use data-text="a" xlink:href="#font_2_28" transform="matrix(9.962799,0,0,-9.9626,42.376176,72.487)"/>
<use data-text="=" xlink:href="#font_2_52" transform="matrix(9.962799,0,0,-9.9626,50.675188,72.487)"/>
<use data-text="5" xlink:href="#font_2_56" transform="matrix(9.962799,0,0,-9.9626,61.74385,72.487)"/>
<path transform="matrix(1.00002,0,0,-1,9.798843,86.038)" stroke-width=".3985" stroke-linecap="butt" stroke-miterlimit="10" stroke-linejoin="miter" fill="none" stroke="#000000" d="M161.5767-36.85092"/>
<use data-text="A" xlink:href="#font_2_27" transform="matrix(9.962799,0,0,-9.9626,144.93854,126.04)"/>
<use data-text="r" xlink:href="#font_2_96" transform="matrix(9.962799,0,0,-9.9626,152.41065,126.04)"/>
<use data-text="e" xlink:href="#font_2_50" transform="matrix(9.962799,0,0,-9.9626,156.31606,126.04)"/>
<use data-text="a" xlink:href="#font_2_28" transform="matrix(9.962799,0,0,-9.9626,160.73954,126.04)"/>
<use data-text="=" xlink:href="#font_2_52" transform="matrix(9.962799,0,0,-9.9626,169.03855,126.04)"/>
<use data-text="&#x2212;" xlink:href="#font_3_1" transform="matrix(9.962799,0,0,-9.9626,180.10724,126.04)"/>
<use data-text="1" xlink:href="#font_4_3" transform="matrix(9.962799,0,0,-9.9626,187.8564,126.04)"/>
<use data-text="2" xlink:href="#font_4_4" transform="matrix(9.962799,0,0,-9.9626,192.83779,126.04)"/>
<path transform="matrix(1.00002,0,0,-1,9.798843,86.038)" stroke-width=".3985" stroke-linecap="butt" stroke-miterlimit="10" stroke-linejoin="miter" fill="none" stroke="#000000" d="M70.867 42.5202"/>
<use data-text="f" xlink:href="#font_1_1" transform="matrix(9.962799,0,0,-9.9626,72.01909,46.008005)"/>
<use data-text="(" xlink:href="#font_4_1" transform="matrix(9.962799,0,0,-9.9626,77.96921,46.008005)"/>
<use data-text="t" xlink:href="#font_1_2" transform="matrix(9.962799,0,0,-9.9626,81.84329,46.008005)"/>
<use data-text=")" xlink:href="#font_4_2" transform="matrix(9.962799,0,0,-9.9626,85.44136,46.008005)"/>
<path transform="matrix(1.00002,0,0,-1,9.798843,86.038)" stroke-width=".3985" stroke-linecap="butt" stroke-miterlimit="10" stroke-linejoin="miter" fill="none" stroke="#000000" d="M226.77448-1.99255V1.99255"/>
<use data-text="8" xlink:href="#font_5_51" transform="matrix(8.966579,0,0,-8.9664,234.27335,80.328)"/>
</svg>
