<svg xmlns="http://www.w3.org/2000/svg" xmlns:xlink="http://www.w3.org/1999/xlink" xmlns:inkscape="http://www.inkscape.org/namespaces/inkscape" version="1.1" width="314" height="322" viewBox="0 0 314 322">
<defs>
<path id="font_1_65" d="M.33299256 0V.0309906H.30699159C.22799683 .0309906 .22499085 .041992189 .22499085 .07795715V.6046295C.22499085 .64060977 .22799683 .6516113 .30699159 .6516113H.33299256V.6826172C.2979889 .6796112 .21899414 .6796112 .18099976 .6796112 .14199829 .6796112 .06298828 .6796112 .027999878 .6826172V.6516113H.053985597C.1329956 .6516113 .13598633 .64060977 .13598633 .6046295V.07795715C.13598633 .041992189 .1329956 .0309906 .053985597 .0309906H.027999878V0C.06298828 .0029907227 .14199829 .0029907227 .17999268 .0029907227 .21899414 .0029907227 .2979889 .0029907227 .33299256 0Z"/>
<path id="font_1_76" d="M.71598818 .6516113V.6826172L.598999 .6796112 .48199464 .6826172V.6516113C.58499148 .6516113 .58499148 .6046295 .58499148 .577652V.15092469L.23199463 .6696167C.22299195 .6816101 .22200012 .6826172 .20298767 .6826172H.032989503V.6516113H.06199646C.07699585 .6516113 .09700012 .65060427 .11199951 .6496124 .1349945 .64660647 .13598633 .6456146 .13598633 .62661746V.10494995C.13598633 .07795715 .13598633 .0309906 .032989503 .0309906V0L.1499939 .0029907227 .2669983 0V.0309906C.1639862 .0309906 .1639862 .07795715 .1639862 .10494995V.62461856C.16899109 .6196289 .16999817 .6186218 .17399597 .6126251L.58200076 .0129852299C.59098818 .0009918213 .59199526 0 .598999 0 .61299136 0 .61299136 .0069885256 .61299136 .025985718V.577652C.61299136 .6046295 .61299136 .6516113 .71598818 .6516113Z"/>
<path id="font_1_42" d="M.6649933 .23271179C.6649933 .24272156 .6649933 .24972534 .6519928 .24972534 .6409912 .24972534 .6409912 .24372864 .6399994 .23371887 .6319885 .09059143 .5249939 .008529663 .41600038 .008529663 .35499574 .008529663 .15899658 .042556764 .15899658 .34080506 .15899658 .64004519 .35398866 .67407229 .4149933 .67407229 .5239868 .67407229 .61299136 .58299258 .6329956 .4368744 .6349945 .42286683 .6349945 .41986085 .6489868 .41986085 .6649933 .41986085 .6649933 .42286683 .6649933 .44387818V.68107607C.6649933 .69807437 .6649933 .7050781 .6539917 .7050781 .6499939 .7050781 .6459961 .7050781 .6380005 .69306948L.58799746 .61901858C.5509949 .6550598 .5 .7050781 .4039917 .7050781 .21699524 .7050781 .055999757 .5459595 .055999757 .34179688 .055999757 .1346283 .21798706-.022460938 .4039917-.022460938 .5669861-.022460938 .6649933 .116622928 .6649933 .23271179Z"/>
<path id="font_1_28" d="M.48298646 .08912659V.14511109H.45799256V.08912659C.45799256 .03112793 .43299867 .025131226 .42199708 .025131226 .3889923 .025131226 .3849945 .070129398 .3849945 .07511902V.27508546C.3849945 .31707765 .3849945 .3560791 .34899903 .39312745 .30999757 .43223573 .2599945 .4482422 .21199036 .4482422 .12998963 .4482422 .06098938 .40115357 .06098938 .335083 .06098938 .30508424 .08099365 .28808595 .10699463 .28808595 .1349945 .28808595 .15299988 .30807496 .15299988 .33407594 .15299988 .3460846 .147995 .37908937 .101989749 .38008119 .1289978 .41519166 .17799378 .426239 .20999146 .426239 .25898744 .426239 .31599427 .38710023 .31599427 .29808045V.26107789C.2649994 .25808717 .19499207 .25508119 .13198853 .22509766 .056991579 .19110108 .03199768 .13911438 .03199768 .09512329 .03199768 .014251709 .1289978-.0107421879 .19198609-.0107421879 .2579956-.0107421879 .3039856 .029251099 .32299806 .07624817 .32699586 .036132814 .35398866-.005859375 .40098573-.005859375 .42199708-.005859375 .48298646 .008132935 .48298646 .08912659M.31599427 .14013672C.31599427 .04525757 .24398804 .011245728 .19898987 .011245728 .1499939 .011245728 .10899353 .04624939 .10899353 .09625244 .10899353 .15124512 .15098572 .23425293 .31599427 .24024964V.14013672Z"/>
<path id="font_1_77" d="M.5349884 0V.0309906C.48298646 .0309906 .45799256 .0309906 .45700074 .061019899V.25221253C.45700074 .3383026 .45700074 .36932374 .42599488 .405365 .4119873 .42237855 .3789978 .4423828 .32099916 .4423828 .24798584 .4423828 .20098877 .39935304 .17298889 .33729554V.4423828L.03199768 .43066407V.3996582C.101989749 .3996582 .10998535 .39266969 .10998535 .34370423V.07595825C.10998535 .0309906 .09899902 .0309906 .03199768 .0309906V0L.14498902 .0029907227 .25698854 0V.0309906C.18998719 .0309906 .1789856 .0309906 .1789856 .07595825V.25978089C.1789856 .36431886 .25 .42037965 .31399537 .42037965 .3769989 .42037965 .3880005 .36631776 .3880005 .30926515V.076034549C.3880005 .0309906 .3769989 .0309906 .30999757 .0309906V0L.4229889 .0029907227 .5349884 0Z"/>
<path id="font_1_47" d="M.5269928 0V.0309906C.45700074 .0309906 .44898988 .038009645 .44898988 .0871582V.69433596L.30499269 .6826172V.6516113C.375 .6516113 .3829956 .64463809 .3829956 .59580996V.38035584C.35398866 .41636659 .31098939 .4423828 .25698854 .4423828 .13899231 .4423828 .033996583 .3443451 .033996583 .21531677 .033996583 .088272098 .13198853-.0107421879 .24598694-.0107421879 .30999757-.0107421879 .35499574 .023254395 .37998963 .055267335V-.0107421879L.5269928 0M.37998963 .117996219C.37998963 .099990848 .37998963 .09799194 .36898805 .08099365 .33898927 .033218385 .2939911 .011245728 .25099183 .011245728 .20599365 .011245728 .16999817 .037216188 .1459961 .075164798 .11999512 .1161499 .116989139 .17320252 .116989139 .21421814 .116989139 .25125123 .11898804 .31129457 .147995 .35632325 .16899109 .38734437 .20698548 .42037965 .26098634 .42037965 .29599 .42037965 .33799745 .405365 .36898805 .3603363 .37998963 .34332276 .37998963 .34132386 .37998963 .32330323V.117996219Z"/>
<path id="font_1_80" d="M.72099307 .3387909C.72099307 .5429535 .56999209 .7050781 .3880005 .7050781 .20899964 .7050781 .055999757 .5449524 .055999757 .3387909 .055999757 .13363648 .20999146-.022460938 .3880005-.022460938 .56999209-.022460938 .72099307 .13664246 .72099307 .3387909M.6179962 .35281373C.6179962 .08760071 .48098756 .0035247803 .3889923 .0035247803 .29299928 .0035247803 .15899658 .09159851 .15899658 .35281373 .15899658 .6120148 .30499269 .68006899 .3880005 .68006899 .47499085 .68006899 .6179962 .6090088 .6179962 .35281373Z"/>
<path id="font_2_3" d="M.269989 .6583252C.269989 .67633059 .269989 .69433596 .25 .69433596 .22999573 .69433596 .22999573 .67633059 .22999573 .6583252V-.054855348C.20599365-.016845704 .17799378 .011169434 .15299988 .030166626 .09199524 .076187137 .0309906 .08618164 .0289917 .08618164 .016998291 .08618164 .016998291 .07518005 .016998291 .06718445 .016998291 .05117798 .017990113 .0501709 .039993287 .043167116 .10798645 .024169922 .14698792-.01184082 .16999817-.036849977 .22099304-.09185791 .23298645-.15187073 .23899842-.18287659 .23999024-.18788147 .24299622-.19288635 .25-.19288635 .25898744-.19288635 .2599945-.18588257 .2619934-.17687989 .28399659-.06385803 .35598756 .014160156 .46598817 .045166017 .48098756 .0501709 .48298646 .0501709 .48298646 .06718445 .48298646 .07518005 .48298646 .08618164 .47099305 .08618164 .46798707 .08618164 .40899659 .07518005 .35198976 .03416443 .31900025 .009170532 .2919922-.020843506 .269989-.054855348V.6583252Z"/>
<path id="font_1_46" d="M.70700076 .33580018C.70700076 .52568057 .57199099 .6826172 .40098573 .6826172H.034988405V.6516113H.05899048C.13598633 .6516113 .13798523 .64060977 .13798523 .6046295V.07795715C.13798523 .041992189 .13598633 .0309906 .05899048 .0309906H.034988405V0H.40098573C.56900027 0 .70700076 .1479187 .70700076 .33580018M.6069946 .33580018C.6069946 .22486878 .58799746 .16490174 .5519867 .11593628 .5319977 .08895874 .47499085 .0309906 .37399293 .0309906H.272995C.22599793 .0309906 .22399903 .037994386 .22399903 .07096863V.6116333C.22399903 .64460757 .22599793 .6516113 .272995 .6516113H.37298585C.43499757 .6516113 .5039978 .6296234 .5549927 .55867007 .59799197 .49969483 .6069946 .41375733 .6069946 .33580018Z"/>
<path id="font_1_49" d="M.6519928 .2579193H.6269989C.60198977 .10397339 .57899478 .0309906 .40699769 .0309906H.27398683C.22698975 .0309906 .22499085 .037994386 .22499085 .07098389V.33789063H.31498719C.4119873 .33789063 .4229889 .30589295 .4229889 .220932H.44799806V.48606874H.4229889C.4229889 .39994813 .4119873 .36888124 .31498719 .36888124H.22499085V.6087799C.22499085 .6416931 .22698975 .64868167 .27398683 .64868167H.40299989C.55599978 .64868167 .58299258 .59381106 .598999 .45507813H.6239929L.59599307 .6796875H.032989503V.64868167H.056991579C.13398743 .64868167 .13598633 .6377106 .13598633 .6017914V.07797241C.13598633 .041992189 .13398743 .0309906 .056991579 .0309906H.032989503V0H.6100006L.6519928 .2579193Z"/>
<path id="font_2_2" d="M.269989 .55532839C.2939911 .5173187 .32199098 .4893036 .34700013 .4703064 .4079895 .4242859 .46899415 .41429139 .47099305 .41429139 .48298646 .41429139 .48298646 .42529298 .48298646 .43328858 .48298646 .44929505 .48199464 .45030213 .45999146 .4573059 .3919983 .4763031 .35299684 .51231387 .32998658 .537323 .2789917 .59233096 .2669983 .652359 .26098634 .6843567 .2599945 .6893463 .2559967 .6933594 .25 .6933594 .24099732 .6933594 .23999024 .6873474 .23799134 .675354 .21499634 .56433108 .14399719 .48631288 .033996583 .455307 .018997193 .45030213 .016998291 .45030213 .016998291 .43328858 .016998291 .42529298 .016998291 .41429139 .0289917 .41429139 .03199768 .41429139 .09098816 .42529298 .147995 .4663086 .18099976 .49131776 .20799256 .5213165 .22999573 .55532839V-.15785218C.22999573-.17585755 .22999573-.19386292 .25-.19386292 .269989-.19386292 .269989-.17585755 .269989-.15785218V.55532839Z"/>
<path id="font_1_54" d="M.6100006 .45477296 .58200076 .6796875H.032989503V.64868167H.056991579C.13398743 .64868167 .13598633 .63768008 .13598633 .6016998V.07797241C.13598633 .041992189 .13398743 .0309906 .056991579 .0309906H.032989503V0C.067993167 .0029907227 .1459961 .0029907227 .18499756 .0029907227 .22599793 .0029907227 .31698609 .0029907227 .35299684 0V.0309906H.31999208C.22499085 .031188965 .22499085 .044189454 .22499085 .079193118V.3251953H.31098939C.40699769 .3251953 .4169922 .29318238 .4169922 .20819092H.44198609V.4731903H.4169922C.4169922 .38919068 .40699769 .3561859 .31098939 .3561859H.22499085V.6091919C.22499085 .64167788 .22698975 .64868167 .27398683 .64868167H.3939972C.5439911 .64868167 .56900027 .5926819 .58499148 .4546814L.6100006 .45477296Z"/>
<path id="font_1_71" d="M.58200076 .2578125H.5569916C.54599 .15588379 .5319977 .0309906 .35598756 .0309906H.27398683C.22698975 .03060913 .22499085 .037612916 .22499085 .07060242V.6036072C.22499085 .63760378 .22499085 .6516113 .31999208 .6516113H.35299684V.6826172C.31698609 .6796112 .22599793 .6796112 .18499756 .6796112 .1459961 .6796112 .067993167 .6796112 .032989503 .6826172V.6516113H.056991579C.13398743 .6518097 .13598633 .6408081 .13598633 .6048126V.07795715C.13598633 .04197693 .13398743 .0309906 .056991579 .0309906H.032989503V0H.55400088L.58200076 .2578125Z"/>
<path id="font_1_104" d="M.68499758 .45214845 .66600039 .6767578H.054992677L.035995485 .45214845H.06098938C.07499695 .6128235 .08999634 .64575198 .24099732 .64575198 .25898744 .64575198 .2849884 .64575198 .29499818 .64375308 .31599427 .6397705 .31599427 .6287842 .31599427 .60583499V.07901001C.31599427 .04499817 .31599427 .0309906 .21099854 .0309906H.17098999V0C.21199036 .0029907227 .31399537 .0029907227 .3600006 .0029907227 .4059906 .0029907227 .5089874 .0029907227 .5499878 0V.0309906H.5099945C.40499879 .0309906 .40499879 .04499817 .40499879 .07901001V.60583499C.40499879 .62579348 .40499879 .6397705 .4229889 .64375308 .43399049 .64575198 .46099855 .64575198 .47999574 .64575198 .6309967 .64575198 .6459961 .6128235 .6599884 .45214845H.68499758Z"/>
<path id="font_1_83" d="M.6239929 .4967041C.6239929 .59465029 .5249939 .6826172 .3880005 .6826172H.034988405V.6516113H.05899048C.13598633 .6516113 .13798523 .64060977 .13798523 .6046295V.07795715C.13798523 .041992189 .13598633 .0309906 .05899048 .0309906H.034988405V0C.069992069 .0029907227 .14399719 .0029907227 .18199158 .0029907227 .21998596 .0029907227 .29499818 .0029907227 .32998658 0V.0309906H.30599977C.22898865 .0309906 .22698975 .041992189 .22698975 .07795715V.3157959H.3959961C.5159912 .3157959 .6239929 .39675904 .6239929 .4967041M.5209961 .4967041C.5209961 .4497223 .5209961 .34179688 .3619995 .34179688H.22399903V.6116333C.22399903 .64460757 .22599793 .6516113 .272995 .6516113H.3619995C.5209961 .6516113 .5209961 .54566958 .5209961 .4967041Z"/>
<path id="font_2_1" d="M.44400025 .24998474C.44400025 .35688783 .35499574 .44381715 .25 .44381715 .14199829 .44381715 .054992677 .35488893 .054992677 .24998474 .054992677 .14407349 .14199829 .056137086 .25 .056137086 .35499574 .056137086 .44400025 .14308167 .44400025 .24998474Z"/>
</defs>
<path transform="matrix(1.00006,0,0,-1,15.269829,72.665)" stroke-width=".3985" stroke-linecap="butt" stroke-miterlimit="10" stroke-linejoin="miter" fill="none" stroke="#000000" d="M-14.17339 0H127.10236"/>
<path transform="matrix(1.00006,0,0,-1,142.37982,72.665)" stroke-width=".31879" stroke-linecap="round" stroke-linejoin="round" fill="none" stroke="#000000" d="M-1.19551 1.59401C-1.09587 .99626 0 .09961 .29886 0 0-.09961-1.09587-.99626-1.19551-1.59401"/>
<path transform="matrix(1.00006,0,0,-1,15.269829,72.665)" stroke-width=".3985" stroke-linecap="butt" stroke-miterlimit="10" stroke-linejoin="miter" fill="none" stroke="#000000" d="M0-14.17339V70.40874"/>
<path transform="matrix(0,-1,-1.00006,-0,15.269829,2.2562638)" stroke-width=".31879" stroke-linecap="round" stroke-linejoin="round" fill="none" stroke="#000000" d="M-1.19551 1.59401C-1.09587 .99626 0 .09961 .29886 0 0-.09961-1.09587-.99626-1.19551-1.59401"/>
<path transform="matrix(1.00006,0,0,-1,15.269829,72.665)" stroke-width=".3985" stroke-linecap="butt" stroke-miterlimit="10" stroke-linejoin="miter" fill="none" stroke="#000000" d="M5.66927 12.68805C5.66927 12.68805 8.91188 15.90506 10.15727 16.97235 11.40266 18.03963 13.39989 19.50346 14.6453 20.38031 15.8907 21.25716 17.88792 22.52898 19.13332 23.29216 20.37871 24.05534 22.37592 25.19554 23.6213 25.88089 24.8667 26.56624 26.86392 27.60521 28.10933 28.23174 29.35474 28.85828 31.35196 29.81519 32.59735 30.39659 33.84274 30.978 35.83997 31.87694 37.08536 32.42216 38.33075 32.96738 40.32797 33.81136 41.57338 34.3262 42.81879 34.84105 44.81601 35.64368 46.0614 36.1329 47.3068 36.62213 49.304 37.38588 50.5494 37.85225 51.79478 38.31862 53.792 39.04695 55.03741 39.49417 56.28282 39.94138 58.28004 40.64523 59.52544 41.07553 60.77083 41.50581 62.76805 42.18083 64.01344 42.59546 65.25883 43.0101 67.25606 43.66322 68.50146 44.06393 69.74687 44.46465 71.7441 45.09529 72.98949 45.48352 74.23486 45.87175 76.23209 46.4852 77.47748 46.86201 78.72287 47.23885 80.7201 47.83324 81.9655 48.19943 83.2109 48.56563 85.20813 49.14488 86.45352 49.50136 87.69891 49.85783 89.69614 50.42099 90.94153 50.7687 92.18692 51.11641 94.18414 51.66805 95.42955 52.00748 96.67496 52.34691 98.67218 52.8837 99.91757 53.21513 101.16295 53.54659 103.16017 54.07204 104.40556 54.3964 105.65096 54.72076 107.64818 55.23549 108.89359 55.55301 110.13899 55.87053 113.3816 56.68495 113.3816 56.68495"/>
<path transform="matrix(1.00006,0,0,-1,15.269829,72.665)" stroke-width=".3985" stroke-linecap="butt" stroke-miterlimit="10" stroke-linejoin="miter" fill="none" stroke="#000000" d="M56.69362-14.17339"/>
<path transform="matrix(1.00006,0,0,-1,15.269829,72.665)" stroke-width=".3985" stroke-linecap="butt" stroke-miterlimit="10" stroke-linejoin="miter" fill="none" stroke="#000000" d="M19.19576-21.97443H94.19146V-6.3723804H19.19576Z"/>
<use data-text="I" xlink:href="#font_1_65" transform="matrix(9.963197,0,0,-9.9626,37.787179,89.382)"/>
<use data-text="N" xlink:href="#font_1_76" transform="matrix(9.963197,0,0,-9.9626,41.383897,89.382)"/>
<use data-text="C" xlink:href="#font_1_42" transform="matrix(9.963197,0,0,-9.9626,48.856294,89.382)"/>
<use data-text="a" xlink:href="#font_1_28" transform="matrix(9.963197,0,0,-9.9626,59.36747,89.382)"/>
<use data-text="n" xlink:href="#font_1_77" transform="matrix(9.963197,0,0,-9.9626,64.34907,89.382)"/>
<use data-text="d" xlink:href="#font_1_47" transform="matrix(9.963197,0,0,-9.9626,69.8886,89.382)"/>
<use data-text="C" xlink:href="#font_1_42" transform="matrix(9.963197,0,0,-9.9626,78.74589,89.382)"/>
<use data-text="O" xlink:href="#font_1_80" transform="matrix(9.963197,0,0,-9.9626,85.93931,89.382)"/>
<use data-text="N" xlink:href="#font_1_76" transform="matrix(9.963197,0,0,-9.9626,93.69068,89.382)"/>
<use data-text="&#x2193;" xlink:href="#font_2_3" transform="matrix(9.963197,0,0,-9.9626,101.16297,89.382)"/>
<path transform="matrix(1.00006,0,0,-1,15.269829,72.665)" stroke-width=".3985" stroke-linecap="butt" stroke-miterlimit="10" stroke-linejoin="miter" fill="none" stroke="#000000" d="M155.90752 0H297.18327"/>
<path transform="matrix(1.00006,0,0,-1,312.47093,72.665)" stroke-width=".31879" stroke-linecap="round" stroke-linejoin="round" fill="none" stroke="#000000" d="M-1.19551 1.59401C-1.09587 .99626 0 .09961 .29886 0 0-.09961-1.09587-.99626-1.19551-1.59401"/>
<path transform="matrix(1.00006,0,0,-1,15.269829,72.665)" stroke-width=".3985" stroke-linecap="butt" stroke-miterlimit="10" stroke-linejoin="miter" fill="none" stroke="#000000" d="M170.08092-14.17339V70.40874"/>
<path transform="matrix(0,-1,-1.00006,-0,185.36093,2.2562638)" stroke-width=".31879" stroke-linecap="round" stroke-linejoin="round" fill="none" stroke="#000000" d="M-1.19551 1.59401C-1.09587 .99626 0 .09961 .29886 0 0-.09961-1.09587-.99626-1.19551-1.59401"/>
<path transform="matrix(1.00006,0,0,-1,15.269829,72.665)" stroke-width=".3985" stroke-linecap="butt" stroke-miterlimit="10" stroke-linejoin="miter" fill="none" stroke="#000000" d="M283.46815 12.68805C283.46815 12.68805 280.22554 15.90506 278.98014 16.97235 277.73475 18.03963 275.73753 19.50346 274.4921 20.38031 273.2467 21.25716 271.24949 22.52898 270.0041 23.29216 268.7587 24.05534 266.76148 25.19554 265.51609 25.88089 264.2707 26.56624 262.27348 27.60521 261.02809 28.23174 259.78269 28.85828 257.78547 29.81519 256.54005 30.39659 255.29467 30.978 253.29744 31.87694 252.05205 32.42216 250.80666 32.96738 248.80944 33.81136 247.56403 34.3262 246.31862 34.84105 244.3214 35.64368 243.076 36.1329 241.83061 36.62213 239.83339 37.38588 238.588 37.85225 237.3426 38.31862 235.3454 39.04695 234.09999 39.49417 232.85459 39.94138 230.85736 40.64523 229.61197 41.07553 228.36658 41.50581 226.36936 42.18083 225.12397 42.59546 223.87857 43.0101 221.88135 43.66322 220.63594 44.06393 219.39054 44.46465 217.39331 45.09529 216.14792 45.48352 214.90253 45.87175 212.9053 46.4852 211.65991 46.86201 210.41452 47.23885 208.41732 47.83324 207.1719 48.19943 205.9265 48.56563 203.92928 49.14488 202.68389 49.50136 201.43849 49.85783 199.44127 50.42099 198.19588 50.7687 196.95049 51.11641 194.95326 51.66805 193.70786 52.00748 192.46245 52.34691 190.46523 52.8837 189.21984 53.21513 187.97444 53.54659 185.97722 54.07204 184.73183 54.3964 183.48644 54.72076 181.48923 55.23549 180.24382 55.55301 178.99842 55.87053 175.7558 56.68495 175.7558 56.68495"/>
<path transform="matrix(1.00006,0,0,-1,15.269829,72.665)" stroke-width=".3985" stroke-linecap="butt" stroke-miterlimit="10" stroke-linejoin="miter" fill="none" stroke="#000000" d="M226.77454-14.17339"/>
<path transform="matrix(1.00006,0,0,-1,15.269829,72.665)" stroke-width=".3985" stroke-linecap="butt" stroke-miterlimit="10" stroke-linejoin="miter" fill="none" stroke="#000000" d="M187.6129-21.97443H265.93617V-6.3723804H187.6129Z"/>
<use data-text="D" xlink:href="#font_1_46" transform="matrix(9.963197,0,0,-9.9626,206.21427,89.382)"/>
<use data-text="E" xlink:href="#font_1_49" transform="matrix(9.963197,0,0,-9.9626,213.82616,89.382)"/>
<use data-text="C" xlink:href="#font_1_42" transform="matrix(9.963197,0,0,-9.9626,220.6111,89.382)"/>
<use data-text="a" xlink:href="#font_1_28" transform="matrix(9.963197,0,0,-9.9626,231.12227,89.382)"/>
<use data-text="n" xlink:href="#font_1_77" transform="matrix(9.963197,0,0,-9.9626,236.10387,89.382)"/>
<use data-text="d" xlink:href="#font_1_47" transform="matrix(9.963197,0,0,-9.9626,241.6434,89.382)"/>
<use data-text="C" xlink:href="#font_1_42" transform="matrix(9.963197,0,0,-9.9626,250.50067,89.382)"/>
<use data-text="O" xlink:href="#font_1_80" transform="matrix(9.963197,0,0,-9.9626,257.69413,89.382)"/>
<use data-text="N" xlink:href="#font_1_76" transform="matrix(9.963197,0,0,-9.9626,265.44548,89.382)"/>
<use data-text="&#x2193;" xlink:href="#font_2_3" transform="matrix(9.963197,0,0,-9.9626,272.91828,89.382)"/>
<path transform="matrix(1.00006,0,0,-1,15.269829,72.665)" stroke-width=".3985" stroke-linecap="butt" stroke-miterlimit="10" stroke-linejoin="miter" fill="none" stroke="#000000" d="M-14.17339-113.38728H127.10236"/>
<path transform="matrix(1.00006,0,0,-1,142.37982,186.05228)" stroke-width=".31879" stroke-linecap="round" stroke-linejoin="round" fill="none" stroke="#000000" d="M-1.19551 1.59401C-1.09587 .99626 0 .09961 .29886 0 0-.09961-1.09587-.99626-1.19551-1.59401"/>
<path transform="matrix(1.00006,0,0,-1,15.269829,72.665)" stroke-width=".3985" stroke-linecap="butt" stroke-miterlimit="10" stroke-linejoin="miter" fill="none" stroke="#000000" d="M0-127.56067V-42.97855"/>
<path transform="matrix(0,-1,-1.00006,-0,15.269829,115.643558)" stroke-width=".31879" stroke-linecap="round" stroke-linejoin="round" fill="none" stroke="#000000" d="M-1.19551 1.59401C-1.09587 .99626 0 .09961 .29886 0 0-.09961-1.09587-.99626-1.19551-1.59401"/>
<path transform="matrix(1.00006,0,0,-1,15.269829,72.665)" stroke-width=".3985" stroke-linecap="butt" stroke-miterlimit="10" stroke-linejoin="miter" fill="none" stroke="#000000" d="M113.38724-55.20833C113.38724-55.20833 110.14462-58.42534 108.89922-59.49261 107.65381-60.55989 105.6566-62.02373 104.4112-62.90057 103.16579-63.77744 101.16856-65.04924 99.92317-65.81242 98.67778-66.5756 96.68056-67.71582 95.43517-68.40117 94.18977-69.08652 92.19255-70.12549 90.94714-70.75201 89.70174-71.37856 87.70453-72.33548 86.45914-72.91687 85.21375-73.49828 83.21652-74.39723 81.97113-74.94244 80.72574-75.48767 78.72852-76.33163 77.48311-76.84648 76.2377-77.36133 74.24048-78.16396 72.99509-78.65318 71.7497-79.14243 69.75247-79.90616 68.50708-80.37251 67.26169-80.83888 65.26447-81.56723 64.01906-82.01443 62.77365-82.46165 60.77644-83.1655 59.53105-83.5958 58.28566-84.0261 56.28844-84.7011 55.04305-85.11574 53.79765-85.53036 51.80043-86.18349 50.55502-86.5842 49.30962-86.98491 47.3124-87.61555 46.067-88.00378 44.82161-88.39201 42.82439-89.00546 41.579-89.3823 40.3336-89.75911 38.33638-90.3535 37.09097-90.7197 35.84557-91.08589 33.84836-91.66518 32.60297-92.02164 31.35757-92.37811 29.36035-92.94125 28.11496-93.28897 26.86957-93.63669 24.87234-94.18834 23.62694-94.52777 22.38153-94.86719 20.38431-95.40396 19.13892-95.73541 17.89352-96.06686 15.8963-96.5923 14.65091-96.91666 13.40552-97.24103 11.4083-97.75575 10.16289-98.07327 8.91748-98.3908 5.67488-99.20523 5.67488-99.20523"/>
<path transform="matrix(1.00006,0,0,-1,15.269829,72.665)" stroke-width=".3985" stroke-linecap="butt" stroke-miterlimit="10" stroke-linejoin="miter" fill="none" stroke="#000000" d="M56.69362-127.56067"/>
<path transform="matrix(1.00006,0,0,-1,15.269829,72.665)" stroke-width=".3985" stroke-linecap="butt" stroke-miterlimit="10" stroke-linejoin="miter" fill="none" stroke="#000000" d="M19.19576-135.36171H94.19146V-119.75966H19.19576Z"/>
<use data-text="I" xlink:href="#font_1_65" transform="matrix(9.963197,0,0,-9.9626,37.787179,202.76902)"/>
<use data-text="N" xlink:href="#font_1_76" transform="matrix(9.963197,0,0,-9.9626,41.383897,202.76902)"/>
<use data-text="C" xlink:href="#font_1_42" transform="matrix(9.963197,0,0,-9.9626,48.856294,202.76902)"/>
<use data-text="a" xlink:href="#font_1_28" transform="matrix(9.963197,0,0,-9.9626,59.36747,202.76902)"/>
<use data-text="n" xlink:href="#font_1_77" transform="matrix(9.963197,0,0,-9.9626,64.34907,202.76902)"/>
<use data-text="d" xlink:href="#font_1_47" transform="matrix(9.963197,0,0,-9.9626,69.8886,202.76902)"/>
<use data-text="C" xlink:href="#font_1_42" transform="matrix(9.963197,0,0,-9.9626,78.74589,202.76902)"/>
<use data-text="O" xlink:href="#font_1_80" transform="matrix(9.963197,0,0,-9.9626,85.93931,202.76902)"/>
<use data-text="N" xlink:href="#font_1_76" transform="matrix(9.963197,0,0,-9.9626,93.69068,202.76902)"/>
<use data-text="&#x2191;" xlink:href="#font_2_2" transform="matrix(9.963197,0,0,-9.9626,101.16297,202.76902)"/>
<path transform="matrix(1.00006,0,0,-1,15.269829,72.665)" stroke-width=".3985" stroke-linecap="butt" stroke-miterlimit="10" stroke-linejoin="miter" fill="none" stroke="#000000" d="M155.90752-113.38728H297.18327"/>
<path transform="matrix(1.00006,0,0,-1,312.47093,186.05228)" stroke-width=".31879" stroke-linecap="round" stroke-linejoin="round" fill="none" stroke="#000000" d="M-1.19551 1.59401C-1.09587 .99626 0 .09961 .29886 0 0-.09961-1.09587-.99626-1.19551-1.59401"/>
<path transform="matrix(1.00006,0,0,-1,15.269829,72.665)" stroke-width=".3985" stroke-linecap="butt" stroke-miterlimit="10" stroke-linejoin="miter" fill="none" stroke="#000000" d="M170.08092-127.56067V-42.97855"/>
<path transform="matrix(0,-1,-1.00006,-0,185.36093,115.643558)" stroke-width=".31879" stroke-linecap="round" stroke-linejoin="round" fill="none" stroke="#000000" d="M-1.19551 1.59401C-1.09587 .99626 0 .09961 .29886 0 0-.09961-1.09587-.99626-1.19551-1.59401"/>
<path transform="matrix(1.00006,0,0,-1,15.269829,72.665)" stroke-width=".3985" stroke-linecap="butt" stroke-miterlimit="10" stroke-linejoin="miter" fill="none" stroke="#000000" d="M175.75019-55.20833C175.75019-55.20833 178.9928-58.42534 180.23819-59.49261 181.48358-60.55989 183.4808-62.02373 184.72621-62.90057 185.97162-63.77744 187.96884-65.04924 189.21424-65.81242 190.45963-66.5756 192.45685-67.71582 193.70224-68.40117 194.94763-69.08652 196.94484-70.12549 198.19025-70.75201 199.43566-71.37856 201.43288-72.33548 202.67827-72.91687 203.92366-73.49828 205.92089-74.39723 207.16628-74.94244 208.41167-75.48767 210.40889-76.33163 211.6543-76.84648 212.8997-77.36133 214.89693-78.16396 216.14232-78.65318 217.38771-79.14243 219.38494-79.90616 220.63033-80.37251 221.87572-80.83888 223.87293-81.56723 225.11833-82.01443 226.36374-82.46165 228.36096-83.1655 229.60636-83.5958 230.85175-84.0261 232.84897-84.7011 234.09436-85.11574 235.33975-85.53036 237.33698-86.18349 238.58238-86.5842 239.82779-86.98491 241.82501-87.61555 243.0704-88.00378 244.3158-88.39201 246.31302-89.00546 247.55841-89.3823 248.8038-89.75911 250.80101-90.3535 252.04642-90.7197 253.29183-91.08589 255.28905-91.66518 256.53446-92.02164 257.77983-92.37811 259.77705-92.94125 261.02247-93.28897 262.26786-93.63669 264.26506-94.18834 265.51048-94.52777 266.75587-94.86719 268.7531-95.40396 269.9985-95.73541 271.24388-96.06686 273.2411-96.5923 274.4865-96.91666 275.73188-97.24103 277.7291-97.75575 278.9745-98.07327 280.2199-98.3908 283.46253-99.20523 283.46253-99.20523"/>
<path transform="matrix(1.00006,0,0,-1,15.269829,72.665)" stroke-width=".3985" stroke-linecap="butt" stroke-miterlimit="10" stroke-linejoin="miter" fill="none" stroke="#000000" d="M226.77454-127.56067"/>
<path transform="matrix(1.00006,0,0,-1,15.269829,72.665)" stroke-width=".3985" stroke-linecap="butt" stroke-miterlimit="10" stroke-linejoin="miter" fill="none" stroke="#000000" d="M187.6129-135.36171H265.93617V-119.75966H187.6129Z"/>
<use data-text="D" xlink:href="#font_1_46" transform="matrix(9.963197,0,0,-9.9626,206.21427,202.76902)"/>
<use data-text="E" xlink:href="#font_1_49" transform="matrix(9.963197,0,0,-9.9626,213.82616,202.76902)"/>
<use data-text="C" xlink:href="#font_1_42" transform="matrix(9.963197,0,0,-9.9626,220.6111,202.76902)"/>
<use data-text="a" xlink:href="#font_1_28" transform="matrix(9.963197,0,0,-9.9626,231.12227,202.76902)"/>
<use data-text="n" xlink:href="#font_1_77" transform="matrix(9.963197,0,0,-9.9626,236.10387,202.76902)"/>
<use data-text="d" xlink:href="#font_1_47" transform="matrix(9.963197,0,0,-9.9626,241.6434,202.76902)"/>
<use data-text="C" xlink:href="#font_1_42" transform="matrix(9.963197,0,0,-9.9626,250.50067,202.76902)"/>
<use data-text="O" xlink:href="#font_1_80" transform="matrix(9.963197,0,0,-9.9626,257.69413,202.76902)"/>
<use data-text="N" xlink:href="#font_1_76" transform="matrix(9.963197,0,0,-9.9626,265.44548,202.76902)"/>
<use data-text="&#x2191;" xlink:href="#font_2_2" transform="matrix(9.963197,0,0,-9.9626,272.91828,202.76902)"/>
<path transform="matrix(1.00006,0,0,-1,15.269829,72.665)" stroke-width=".3985" stroke-linecap="butt" stroke-miterlimit="10" stroke-linejoin="miter" fill="none" stroke="#000000" d="M-14.17339-226.77457H127.10236"/>
<path transform="matrix(1.00006,0,0,-1,142.37982,299.43959)" stroke-width=".31879" stroke-linecap="round" stroke-linejoin="round" fill="none" stroke="#000000" d="M-1.19551 1.59401C-1.09587 .99626 0 .09961 .29886 0 0-.09961-1.09587-.99626-1.19551-1.59401"/>
<path transform="matrix(1.00006,0,0,-1,15.269829,72.665)" stroke-width=".3985" stroke-linecap="butt" stroke-miterlimit="10" stroke-linejoin="miter" fill="none" stroke="#000000" d="M0-240.94795V-156.36583"/>
<path transform="matrix(0,-1,-1.00006,-0,15.269829,229.03083)" stroke-width=".31879" stroke-linecap="round" stroke-linejoin="round" fill="none" stroke="#000000" d="M-1.19551 1.59401C-1.09587 .99626 0 .09961 .29886 0 0-.09961-1.09587-.99626-1.19551-1.59401"/>
<path transform="matrix(1.00006,0,0,-1,15.269829,72.665)" stroke-width=".3985" stroke-linecap="butt" stroke-miterlimit="10" stroke-linejoin="miter" fill="none" stroke="#000000" d="M5.66927-223.22429C5.66927-223.22429 8.91188-218.75475 10.15727-217.2397 11.40266-215.72466 13.39989-213.54265 14.6453-212.30489 15.8907-211.06711 17.88792-209.30715 19.13332-208.3186 20.37871-207.33007 22.37592-205.9476 23.6213-205.1801 24.8667-204.4126 26.86392-203.36144 28.10933-202.78688 29.35474-202.21231 31.35196-201.44858 32.59735-201.039 33.84274-200.62941 35.83997-200.10762 37.08536-199.83481 38.33075-199.56198 40.32797-199.23682 41.57338-199.07268 42.81879-198.90854 44.81601-198.73529 46.0614-198.65181 47.3068-198.56835 49.304-198.50203 50.5494-198.47103 51.79478-198.44 53.792-198.43473 55.03741-198.42819 56.28282-198.42166 58.28004-198.43407 59.52544-198.42386 60.77083-198.41367 62.76805-198.39673 64.01344-198.35466 65.25883-198.31259 67.25606-198.22255 68.50146-198.12065 69.74687-198.01876 71.7441-197.81008 72.98949-197.62021 74.23486-197.43033 76.23209-197.05806 77.47748-196.75212 78.72287-196.44618 80.7201-195.86524 81.9655-195.41513 83.2109-194.96503 85.20813-194.13042 86.45352-193.50807 87.69891-192.88573 89.69614-191.75237 90.94153-190.92972 92.18692-190.10706 94.18414-188.62999 95.42955-187.57884 96.67496-186.52771 98.67218-184.6615 99.91757-183.3538 101.16295-182.04611 103.16017-179.74619 104.40556-178.15386 105.65096-176.56151 107.64818-173.78235 108.89359-171.87729 110.13899-169.97222 113.3816-164.42336 113.3816-164.42336"/>
<path transform="matrix(1.00006,0,0,-1,15.269829,72.665)" stroke-width=".3985" stroke-linecap="butt" stroke-miterlimit="10" stroke-linejoin="miter" fill="none" stroke="#000000" d="M56.69362-240.94795"/>
<path transform="matrix(1.00006,0,0,-1,15.269829,72.665)" stroke-width=".3985" stroke-linecap="butt" stroke-miterlimit="10" stroke-linejoin="miter" fill="none" stroke="#000000" d="M5.21802-247.88999H108.16922V-234.00594H5.21802Z"/>
<use data-text="I" xlink:href="#font_1_65" transform="matrix(9.963197,0,0,-9.9626,23.809342,317.015)"/>
<use data-text="N" xlink:href="#font_1_76" transform="matrix(9.963197,0,0,-9.9626,27.40606,317.015)"/>
<use data-text="F" xlink:href="#font_1_54" transform="matrix(9.963197,0,0,-9.9626,34.878458,317.015)"/>
<use data-text="L" xlink:href="#font_1_71" transform="matrix(9.963197,0,0,-9.9626,41.38443,317.015)"/>
<use data-text="E" xlink:href="#font_1_49" transform="matrix(9.963197,0,0,-9.9626,47.611429,317.015)"/>
<use data-text="C" xlink:href="#font_1_42" transform="matrix(9.963197,0,0,-9.9626,54.396364,317.015)"/>
<use data-text="T" xlink:href="#font_1_104" transform="matrix(9.963197,0,0,-9.9626,61.589799,317.015)"/>
<use data-text="O" xlink:href="#font_1_80" transform="matrix(9.963197,0,0,-9.9626,68.78322,317.015)"/>
<use data-text="N" xlink:href="#font_1_76" transform="matrix(9.963197,0,0,-9.9626,76.53458,317.015)"/>
<use data-text="P" xlink:href="#font_1_83" transform="matrix(9.963197,0,0,-9.9626,87.32474,317.015)"/>
<use data-text="O" xlink:href="#font_1_80" transform="matrix(9.963197,0,0,-9.9626,94.109668,317.015)"/>
<use data-text="I" xlink:href="#font_1_65" transform="matrix(9.963197,0,0,-9.9626,101.86104,317.015)"/>
<use data-text="N" xlink:href="#font_1_76" transform="matrix(9.963197,0,0,-9.9626,105.45775,317.015)"/>
<use data-text="T" xlink:href="#font_1_104" transform="matrix(9.963197,0,0,-9.9626,112.930149,317.015)"/>
<path transform="matrix(1.00006,0,0,-1,15.269829,72.665)" stroke-width=".3985" stroke-linecap="butt" stroke-miterlimit="10" stroke-linejoin="miter" fill="none" stroke="#000000" d="M56.69362-198.42775"/>
<use data-text="&#x2022;" xlink:href="#font_2_1" transform="matrix(9.963197,0,0,-9.9626,69.476078,273.307)"/>
<path transform="matrix(1.00006,0,0,-1,15.269829,72.665)" stroke-width=".3985" stroke-linecap="butt" stroke-miterlimit="10" stroke-linejoin="miter" fill="none" stroke="#000000" d="M155.90752-226.77457H297.18327"/>
<path transform="matrix(1.00006,0,0,-1,312.47093,299.43959)" stroke-width=".31879" stroke-linecap="round" stroke-linejoin="round" fill="none" stroke="#000000" d="M-1.19551 1.59401C-1.09587 .99626 0 .09961 .29886 0 0-.09961-1.09587-.99626-1.19551-1.59401"/>
<path transform="matrix(1.00006,0,0,-1,15.269829,72.665)" stroke-width=".3985" stroke-linecap="butt" stroke-miterlimit="10" stroke-linejoin="miter" fill="none" stroke="#000000" d="M170.08092-240.94795V-156.36583"/>
<path transform="matrix(0,-1,-1.00006,-0,185.36093,229.03083)" stroke-width=".31879" stroke-linecap="round" stroke-linejoin="round" fill="none" stroke="#000000" d="M-1.19551 1.59401C-1.09587 .99626 0 .09961 .29886 0 0-.09961-1.09587-.99626-1.19551-1.59401"/>
<path transform="matrix(1.00006,0,0,-1,15.269829,72.665)" stroke-width=".3985" stroke-linecap="butt" stroke-miterlimit="10" stroke-linejoin="miter" fill="none" stroke="#000000" d="M175.75019-162.29267C175.75019-162.29267 178.9928-166.76222 180.23819-168.27727 181.48358-169.79232 183.4808-171.97432 184.72621-173.2121 185.97162-174.44988 187.96884-176.20983 189.21424-177.19837 190.45963-178.18689 192.45685-179.56935 193.70224-180.33687 194.94763-181.10439 196.94484-182.15554 198.19025-182.7301 199.43566-183.30466 201.43288-184.06839 202.67827-184.47798 203.92366-184.88756 205.92089-185.40937 207.16628-185.68218 208.41167-185.95499 210.40889-186.28015 211.6543-186.44429 212.8997-186.60843 214.89693-186.78168 216.14232-186.86516 217.38771-186.94864 219.38494-187.01494 220.63033-187.04596 221.87572-187.07697 223.87293-187.08225 225.11833-187.08878 226.36374-187.09532 228.36096-187.0829 229.60636-187.0931 230.85175-187.1033 232.84897-187.12026 234.09436-187.16231 235.33975-187.20438 237.33698-187.29442 238.58238-187.39632 239.82779-187.49822 241.82501-187.7069 243.0704-187.89676 244.3158-188.08664 246.31302-188.45893 247.55841-188.76486 248.8038-189.0708 250.80101-189.65175 252.04642-190.10184 253.29183-190.55194 255.28905-191.38657 256.53446-192.0089 257.77983-192.63124 259.77705-193.7646 261.02247-194.58727 262.26786-195.40991 264.26506-196.887 265.51048-197.93813 266.75587-198.98928 268.7531-200.85547 269.9985-202.16315 271.24388-203.47084 273.2411-205.77079 274.4865-207.36313 275.73188-208.95548 277.7291-211.73462 278.9745-213.6397 280.2199-215.54476 283.46253-221.09362 283.46253-221.09362"/>
<path transform="matrix(1.00006,0,0,-1,15.269829,72.665)" stroke-width=".3985" stroke-linecap="butt" stroke-miterlimit="10" stroke-linejoin="miter" fill="none" stroke="#000000" d="M226.77454-240.94795"/>
<path transform="matrix(1.00006,0,0,-1,15.269829,72.665)" stroke-width=".3985" stroke-linecap="butt" stroke-miterlimit="10" stroke-linejoin="miter" fill="none" stroke="#000000" d="M175.29894-247.88999H278.25013V-234.00594H175.29894Z"/>
<use data-text="I" xlink:href="#font_1_65" transform="matrix(9.963197,0,0,-9.9626,193.89954,317.015)"/>
<use data-text="N" xlink:href="#font_1_76" transform="matrix(9.963197,0,0,-9.9626,197.49626,317.015)"/>
<use data-text="F" xlink:href="#font_1_54" transform="matrix(9.963197,0,0,-9.9626,204.96866,317.015)"/>
<use data-text="L" xlink:href="#font_1_71" transform="matrix(9.963197,0,0,-9.9626,211.47464,317.015)"/>
<use data-text="E" xlink:href="#font_1_49" transform="matrix(9.963197,0,0,-9.9626,217.70163,317.015)"/>
<use data-text="C" xlink:href="#font_1_42" transform="matrix(9.963197,0,0,-9.9626,224.48657,317.015)"/>
<use data-text="T" xlink:href="#font_1_104" transform="matrix(9.963197,0,0,-9.9626,231.68,317.015)"/>
<use data-text="O" xlink:href="#font_1_80" transform="matrix(9.963197,0,0,-9.9626,238.87342,317.015)"/>
<use data-text="N" xlink:href="#font_1_76" transform="matrix(9.963197,0,0,-9.9626,246.62479,317.015)"/>
<use data-text="P" xlink:href="#font_1_83" transform="matrix(9.963197,0,0,-9.9626,257.41496,317.015)"/>
<use data-text="O" xlink:href="#font_1_80" transform="matrix(9.963197,0,0,-9.9626,264.19987,317.015)"/>
<use data-text="I" xlink:href="#font_1_65" transform="matrix(9.963197,0,0,-9.9626,271.95124,317.015)"/>
<use data-text="N" xlink:href="#font_1_76" transform="matrix(9.963197,0,0,-9.9626,275.54795,317.015)"/>
<use data-text="T" xlink:href="#font_1_104" transform="matrix(9.963197,0,0,-9.9626,283.02037,317.015)"/>
<path transform="matrix(1.00006,0,0,-1,15.269829,72.665)" stroke-width=".3985" stroke-linecap="butt" stroke-miterlimit="10" stroke-linejoin="miter" fill="none" stroke="#000000" d="M226.77454-187.0892"/>
<use data-text="&#x2022;" xlink:href="#font_2_1" transform="matrix(9.963197,0,0,-9.9626,239.56728,261.968)"/>
</svg>
