<svg xmlns="http://www.w3.org/2000/svg" xmlns:xlink="http://www.w3.org/1999/xlink" xmlns:inkscape="http://www.inkscape.org/namespaces/inkscape" version="1.1" width="361" height="267" viewBox="0 0 361 267">
<defs>
<path id="font_1_1" d="M.33399964 .30233766C.33999635 .32835389 .36299134 .42037965 .43299867 .42037965 .43798829 .42037965 .46199037 .42037965 .48298646 .40734864 .45498658 .402359 .43499757 .37734986 .43499757 .35334779 .43499757 .33735658 .44599916 .31835938 .47299195 .31835938 .49499513 .31835938 .5269928 .3363495 .5269928 .37635804 .5269928 .42837525 .46798707 .4423828 .43399049 .4423828 .37599183 .4423828 .34098817 .38935853 .32899476 .36634828 .3039856 .43237306 .25 .4423828 .22099304 .4423828 .116989139 .4423828 .05999756 .3133545 .05999756 .28834535 .05999756 .27833558 .069992069 .27833558 .07199097 .27833558 .07998657 .27833558 .08299255 .28033448 .084991458 .28933717 .11898804 .39535523 .18499756 .42037965 .21899414 .42037965 .23799134 .42037965 .272995 .4113617 .272995 .35334779 .272995 .32235719 .2559967 .25532533 .21899414 .11528015 .20298767 .053268434 .16799927 .011245728 .12399292 .011245728 .117996219 .011245728 .09498596 .011245728 .07398987 .024276734 .09899902 .029266358 .12098694 .05027771 .12098694 .07827759 .12098694 .105270389 .09899902 .11328125 .083999637 .11328125 .053985597 .11328125 .0289917 .08728027 .0289917 .055267335 .0289917 .009246826 .07899475-.0107421879 .12298584-.0107421879 .18899536-.0107421879 .22499085 .059280397 .22799683 .0652771 .23999024 .028274537 .27598573-.0107421879 .33599855-.0107421879 .43899537-.0107421879 .49598695 .118270877 .49598695 .14328003 .49598695 .1532898 .4869995 .1532898 .48399354 .1532898 .47499085 .1532898 .47299195 .14929199 .47099305 .14228821 .43798829 .03527832 .36999513 .011245728 .33799745 .011245728 .29899598 .011245728 .2829895 .043273927 .2829895 .07727051 .2829895 .09927368 .2889862 .121276859 .2999878 .16529846L.33399964 .30233766Z"/>
<path id="font_1_2" d="M.48599244 .38136292C.48999024 .39537049 .48999024 .39736939 .48999024 .40437318 .48999024 .42237855 .47599793 .43138124 .46099855 .43138124 .45098878 .43138124 .43499757 .42536927 .42599488 .41036988 .42399598 .405365 .41600038 .37435914 .4119873 .35635377 .40499879 .33035279 .397995 .30334474 .3919983 .27633668L.34700013 .09628296C.34298707 .08126831 .2999878 .011245728 .23399353 .011245728 .18299866 .011245728 .17199707 .055267335 .17199707 .0922699 .17199707 .1382904 .18899536 .20030213 .22299195 .28833009 .23899842 .3293457 .24299622 .3403473 .24299622 .36035157 .24299622 .405365 .21099854 .4423828 .16099549 .4423828 .06599426 .4423828 .0289917 .29733277 .0289917 .28833009 .0289917 .27833558 .038986207 .27833558 .040985109 .27833558 .050994874 .27833558 .051986696 .28033448 .056991579 .29634095 .083999637 .3903656 .12399292 .42037965 .1579895 .42037965 .1659851 .42037965 .18299866 .42037965 .18299866 .3883667 .18299866 .36335755 .17298889 .3373413 .1659851 .31834413 .12599182 .21231079 .10798645 .1552887 .10798645 .10827637 .10798645 .019256592 .17098999-.0107421879 .22999573-.0107421879 .2689972-.0107421879 .30299378 .0062561037 .33099366 .03425598 .31799317-.017745972 .30599977-.06674194 .2659912-.11973572 .23999024-.15385437 .20199585-.18309021 .1559906-.18309021 .14199829-.18309021 .09700012-.18005371 .07998657-.14074707 .09599304-.14074707 .10899353-.14074707 .12298584-.1287384 .1329956-.11973572 .14299011-.10673523 .14299011-.08773804 .14299011-.056747438 .115997318-.052734376 .10598755-.052734376 .08299255-.052734376 .049987794-.068740848 .049987794-.11773682 .049987794-.16796875 .09399414-.20507813 .1559906-.20507813 .25898744-.20507813 .3619995-.11373901 .3899994-.00074768069L.48599244 .38136292Z"/>
<path id="font_2_64" d="M.2849884 .1850586V.24707031H.010986328V.1850586H.2849884Z"/>
<path id="font_2_101" d="M.46998597 .20277405C.46998597 .32977296 .37799073 .42578126 .2649994 .42578126 .20498657 .42578126 .1619873 .3907776 .13398743 .33078004 .13398743 .43276979 .14498902 .4897766 .17199707 .54177859 .19198609 .58277896 .24099732 .64100649 .31498719 .64100649 .33499146 .64100649 .3809967 .63697817 .4039917 .6007843 .36698915 .6007843 .35099793 .5817871 .35099793 .55477908 .35099793 .5287781 .36898805 .50878909 .39698792 .50878909 .4249878 .50878909 .44400025 .5267792 .44400025 .55677798 .44400025 .61299136 .4039917 .6660156 .31298829 .6660156 .18399048 .6660156 .042999269 .5389252 .042999269 .31576539 .042999269 .044555665 .16499329-.022460938 .25898744-.022460938 .36999513-.022460938 .46998597 .07052612 .46998597 .2025299V.20277405M.3789978 .20353699C.3789978 .15553284 .3789978 .106536868 .3600006 .0695343 .32899476 .012527466 .2849884 .0055389406 .2579956 .0055389406 .20098877 .0055389406 .16799927 .05253601 .1559906 .08152771 .13699341 .12652588 .13598633 .20953369 .13598633 .2255249 .13598633 .2927704 .16699219 .4007721 .2630005 .4007721 .2789917 .4007721 .32798768 .4007721 .3600006 .33877564 .3789978 .300766 .3789978 .25177003 .3789978 .20376587V.20353699Z"/>
<path id="font_2_56" d="M.46199037 .19992066C.46199037 .3209076 .37599183 .41992188 .2669983 .41992188 .21899414 .41992188 .16999817 .4039154 .1349945 .36791993V.5647888C.16499329 .55578616 .19599915 .55078127 .22698975 .55078127 .34999085 .55078127 .42199708 .63983157 .42199708 .6529236 .42199708 .6619873 .41600038 .6660156 .41099549 .6660156 .41099549 .6660156 .40699769 .6660156 .397995 .6609802 .35099793 .6418457 .30499269 .63378909 .2630005 .63378909 .21998596 .63378909 .1749878 .6418457 .1289978 .6609802 .11898804 .6660156 .115997318 .6660156 .115997318 .6660156 .10398865 .6660156 .10398865 .6559448 .10398865 .63882449V.34490968C.10398865 .32699586 .10398865 .31599427 .117996219 .31599427 .12599182 .31562806 .1289978 .3196411 .1349945 .32867433 .16499329 .37083436 .21299744 .39491273 .2649994 .39491273 .37199403 .39491273 .37199403 .24035645 .37199403 .20422364 .37199403 .17321778 .37199403 .11122131 .34399415 .06636047 .31698609 .024475098 .2749939 .0055389406 .23599243 .0055389406 .1769867 .0055389406 .10998535 .042419435 .085998538 .11621094 .085998538 .116882327 .09298706 .11488342 .099990848 .11488342 .11999512 .11488342 .14898682 .12788391 .14898682 .1638794 .14898682 .19488526 .1269989 .21289063 .099990848 .21289063 .07899475 .21289063 .050994874 .20088196 .050994874 .16088867 .050994874 .069732669 .1269989-.022460938 .23799134-.022460938 .35899354-.02279663 .46199037 .07521057 .46199037 .19921875V.19992066Z"/>
<path id="font_2_57" d="M.48399354 .16503906V.19602967H.38198854V.649765C.38198854 .669754 .38198854 .6767578 .36299134 .6767578 .35099793 .6767578 .34999085 .67575076 .34098817 .6617584L.0289917 .19602967V.16503906H.3019867V.07901001C.3019867 .041992189 .29899598 .0309906 .22399903 .0309906H.20199585V0C.2649994 .0029907227 .33499146 .0029907227 .34199525 .0029907227 .34700013 .0029907227 .4189911 .0029907227 .48199464 0V.0309906H.45999146C.3849945 .0309906 .38198854 .041992189 .38198854 .07901001V.16503906H.48399354M.30799867 .19602967H.06098938L.30799867 .56581118V.19602967Z"/>
<path id="font_2_106" d="M.46998597 .17008972C.46998597 .25709535 .40098573 .33110047 .30499269 .35209657 .397995 .38710023 .44198609 .46009828 .44198609 .5290985 .44198609 .60606387 .35699464 .6660156 .25299073 .6660156 .14898682 .6660156 .070999149 .60705569 .070999149 .5310974 .070999149 .49809266 .09298706 .47909547 .12199402 .47909547 .15098572 .47909547 .17199707 .50009158 .17199707 .5290985 .17199707 .5640869 .147995 .57910159 .11399841 .57910159 .13999939 .6210327 .20098877 .64100649 .25 .64100649 .33299256 .64100649 .34899903 .5750885 .34899903 .52809146 .34899903 .49809266 .34298707 .45005799 .31799317 .41201783 .2869873 .36695863 .2519989 .36495973 .22299195 .36296083 .19799805 .36094667 .19599915 .36094667 .18798828 .36094667 .1789856 .35995484 .17098999 .35894776 .17098999 .34794618 .17098999 .33496095 .1789856 .33496095 .19599915 .33496095H.24299622C.32998658 .33496095 .36799623 .2646637 .36799623 .16937256 .36799623 .04145813 .2999878 .0055389406 .24899292 .0055389406 .22999573 .0055389406 .1329956 .010528564 .08799744 .0843811 .12399292 .07939148 .1519928 .10437012 .1519928 .13838196 .1519928 .17137146 .1269989 .19238281 .09799194 .19238281 .07299805 .19238281 .042999269 .17736817 .042999269 .13537598 .042999269 .046447755 .13598633-.022460938 .2519989-.022460938 .3769989-.022460938 .46998597 .06741333 .46998597 .16937256V.17008972Z"/>
<path id="font_2_107" d="M.46199037 .17704773H.43399049C.43199159 .16404724 .42399598 .10501099 .41099549 .08900452 .40499879 .07998657 .33599855 .07998657 .31599427 .07998657H.13798523L.23699951 .17404175C.40098573 .3161316 .46199037 .36915589 .46199037 .4711914 .46199037 .5860901 .36698915 .6660156 .24398804 .6660156 .1289978 .6660156 .050994874 .575119 .050994874 .4841919 .050994874 .43418885 .09399414 .42919923 .102996829 .42919923 .125 .42919923 .15499878 .44519044 .15499878 .48120118 .15499878 .51119998 .13398743 .5332031 .102996829 .5332031 .09799194 .5332031 .09498596 .5332031 .09098816 .53219607 .114990238 .6030731 .1789856 .63500979 .23298645 .63500979 .33499146 .63500979 .36999513 .5401764 .36999513 .4711914 .36999513 .36915589 .29299928 .28611756 .24499512 .23408509L.06199646 .035995485C.050994874 .024993897 .050994874 .022994996 .050994874 0H.43399049L.46199037 .17704773Z"/>
<path id="font_2_82" d="M.43199159 0V.0309906H.3999939C.30699159 .0309906 .3039856 .042999269 .3039856 .08001709V.63912966C.3039856 .6640167 .30299378 .6660156 .27799989 .6660156 .21598816 .60227969 .12399292 .60227969 .09298706 .60227969V.57128909C.11199951 .57128909 .17298889 .57128909 .22698975 .5972748V.08001709C.22698975 .042999269 .22399903 .0309906 .1309967 .0309906H.09899902V0C.1349945 .0029907227 .22399903 .0029907227 .2649994 .0029907227 .30599977 .0029907227 .3959961 .0029907227 .43199159 0Z"/>
<path id="font_2_121" d="M.47299195 .31976319C.47299195 .38682557 .46998597 .47288514 .43499757 .5479431 .3909912 .64201357 .31498719 .6660156 .25698854 .6660156 .19699097 .6660156 .12098694 .64201357 .07699585 .5459442 .04499817 .47688294 .039993287 .39582826 .039993287 .31976319 .039993287 .25471498 .041992189 .15765381 .084991458 .07858276 .13198853-.0064697267 .20999146-.022460938 .2559967-.022460938 .32099916-.022460938 .394989 .0055389406 .43699647 .097595218 .46699525 .1646576 .47299195 .23971558 .47299195 .31976319M.3869934 .33177186C.3869934 .2697296 .3869934 .18566895 .3769989 .12661743 .35598756 .012542725 .28199769 .002532959 .25698854 .002532959 .22698975 .002532959 .15499878 .016540528 .13598633 .12962342 .12599182 .18867493 .12599182 .2747345 .12599182 .33177186 .12599182 .39982606 .12599182 .47888185 .13798523 .53393557 .1579895 .6230011 .22200012 .64100649 .2559967 .64100649 .2939911 .64100649 .35699464 .62098696 .37599183 .5279236 .3869934 .47288514 .3869934 .39482118 .3869934 .33177186Z"/>
<path id="font_2_100" d="M.49899293 .6435547H.25C.12399292 .6435547 .12098694 .6566467 .117996219 .67578127H.08999634L.056991579 .46655274H.084991458C.08898926 .48954774 .09700012 .5455475 .10998535 .55755618 .116989139 .56355288 .19599915 .56355288 .20999146 .56355288H.41999818L.32398988 .4325409C.19400025 .25354005 .18199158 .090530399 .18199158 .03353882 .18199158 .022537232 .18199158-.022460938 .22799683-.022460938 .2749939-.022460938 .2749939 .021530152 .2749939 .03453064V.08354187C.2749939 .23054505 .29699708 .34654237 .34999085 .41854859L.48999024 .60954287C.49899293 .62054446 .49899293 .62254336 .49899293 .6435547Z"/>
<path id="font_2_51" d="M.46998597 .16764832C.46998597 .26472474 .3959961 .3127594 .37098695 .32876588 .3600006 .33677674 .33099366 .35479737 .31900025 .36180116 .36898805 .38581849 .44198609 .43585206 .44198609 .51690676 .44198609 .6109772 .34799195 .6660156 .2579956 .6660156 .15299988 .6660156 .070999149 .5909729 .070999149 .49890138 .070999149 .46087647 .084991458 .42485047 .10899353 .39582826 .12599182 .3768158 .13198853 .37280274 .18998719 .3357849 .101989749 .29374696 .042999269 .23269654 .042999269 .15063477 .042999269 .044555665 .147995-.022460938 .2559967-.022460938 .37199403-.022460938 .46998597 .059570314 .46998597 .16764832M.3939972 .51690676C.3939972 .44685365 .33399964 .40083314 .2939911 .37780763L.17199707 .45387269C.14199829 .47288514 .11898804 .4998932 .11898804 .53692629 .11898804 .6019745 .18899536 .64100649 .25498963 .64100649 .33198548 .64100649 .3939972 .58695986 .3939972 .51690676M.41600038 .1326294C.41600038 .05357361 .33599855 .0055389406 .25698854 .0055389406 .16999817 .0055389406 .09700012 .06758118 .09700012 .15063477 .09700012 .22268677 .14698792 .28274537 .21699524 .31877137L.34298707 .2407074C.3659973 .22569275 .41600038 .19366455 .41600038 .1326294Z"/>
<path id="font_3_2" d="M.68699648 .32714845C.70199587 .32714845 .72099307 .32714845 .72099307 .34713746 .72099307 .36714173 .70199587 .36714173 .6879883 .36714173H.08898926C.07499695 .36714173 .055999757 .36714173 .055999757 .34713746 .055999757 .32714845 .07499695 .32714845 .08999634 .32714845H.68699648M.6879883 .13284302C.70199587 .13284302 .72099307 .13284302 .72099307 .15284729 .72099307 .17285156 .70199587 .17285156 .68699648 .17285156H.08999634C.07499695 .17285156 .055999757 .17285156 .055999757 .15284729 .055999757 .13284302 .07499695 .13284302 .08898926 .13284302H.6879883Z"/>
<path id="font_3_1" d="M.2939911 .64004519C.2939911 .66400149 .2939911 .6660156 .2709961 .6660156 .20899964 .60227969 .12098694 .60227969 .08898926 .60227969V.57128909C.10899353 .57128909 .16799927 .57128909 .21998596 .5972748V.07902527C.21998596 .042999269 .21699524 .0309906 .1269989 .0309906H.09498596V0C.12998963 .0029907227 .21699524 .0029907227 .25698854 .0029907227 .29699708 .0029907227 .38398744 .0029907227 .4189911 0V.0309906H.3869934C.29699708 .0309906 .2939911 .041992189 .2939911 .07902527V.64004519Z"/>
<path id="font_4_1" d="M.15899658 .71398928C.15899658 .7319946 .15899658 .75 .13899231 .75 .11898804 .75 .11898804 .7319946 .11898804 .71398928V-.21400452C.11898804-.23200989 .11898804-.25 .13899231-.25 .15899658-.25 .15899658-.23200989 .15899658-.21400452V.71398928Z"/>
</defs>
<path transform="matrix(1,0,0,-1.00006,175.138,237.48946)" stroke-width=".3985" stroke-linecap="butt" stroke-miterlimit="10" stroke-linejoin="miter" fill="none" stroke="#000000" d="M-170.08086 0H175.29184"/>
<path transform="matrix(1,0,0,-1.00006,350.42985,237.48946)" stroke-width=".31879" stroke-linecap="round" stroke-linejoin="round" fill="none" stroke="#000000" d="M-1.19551 1.59401C-1.09587 .99626 0 .09961 .29886 0 0-.09961-1.09587-.99626-1.19551-1.59401"/>
<use data-text="x" xlink:href="#font_1_1" transform="matrix(9.9626,0,0,-9.963197,354.40803,245.29892)"/>
<path transform="matrix(1,0,0,-1.00006,175.138,237.48946)" stroke-width=".3985" stroke-linecap="butt" stroke-miterlimit="10" stroke-linejoin="miter" fill="none" stroke="#000000" d="M0-28.3468V231.98548"/>
<path transform="matrix(0,-1.00006,-1,-0,175.138,5.4900667)" stroke-width=".31879" stroke-linecap="round" stroke-linejoin="round" fill="none" stroke="#000000" d="M-1.19551 1.59401C-1.09587 .99626 0 .09961 .29886 0 0-.09961-1.09587-.99626-1.19551-1.59401"/>
<use data-text="y" xlink:href="#font_1_2" transform="matrix(9.9626,0,0,-9.963197,178.65799,6.2075808)"/>
<path transform="matrix(1,0,0,-1.00006,175.138,237.48946)" stroke-width=".3985" stroke-linecap="butt" stroke-miterlimit="10" stroke-linejoin="miter" fill="none" stroke="#000000" d="M-170.08086 2.83484V-2.83484"/>
<use data-text="-" xlink:href="#font_2_64" transform="matrix(8.9664,0,0,-8.966938,1.2149963,249.8162)"/>
<use data-text="6" xlink:href="#font_2_101" transform="matrix(8.9664,0,0,-8.966938,4.2904665,249.8162)"/>
<path transform="matrix(1,0,0,-1.00006,175.138,237.48946)" stroke-width=".3985" stroke-linecap="butt" stroke-miterlimit="10" stroke-linejoin="miter" fill="none" stroke="#000000" d="M-141.73404 2.83484V-2.83484"/>
<use data-text="-" xlink:href="#font_2_64" transform="matrix(8.9664,0,0,-8.966938,29.561997,249.8162)"/>
<use data-text="5" xlink:href="#font_2_56" transform="matrix(8.9664,0,0,-8.966938,32.637468,249.8162)"/>
<path transform="matrix(1,0,0,-1.00006,175.138,237.48946)" stroke-width=".3985" stroke-linecap="butt" stroke-miterlimit="10" stroke-linejoin="miter" fill="none" stroke="#000000" d="M-113.38724 2.83484V-2.83484"/>
<use data-text="-" xlink:href="#font_2_64" transform="matrix(8.9664,0,0,-8.966938,57.908998,249.9152)"/>
<use data-text="4" xlink:href="#font_2_57" transform="matrix(8.9664,0,0,-8.966938,60.984468,249.9152)"/>
<path transform="matrix(1,0,0,-1.00006,175.138,237.48946)" stroke-width=".3985" stroke-linecap="butt" stroke-miterlimit="10" stroke-linejoin="miter" fill="none" stroke="#000000" d="M-85.04042 2.83484V-2.83484"/>
<use data-text="-" xlink:href="#font_2_64" transform="matrix(8.9664,0,0,-8.966938,86.255008,249.8162)"/>
<use data-text="3" xlink:href="#font_2_106" transform="matrix(8.9664,0,0,-8.966938,89.330478,249.8162)"/>
<path transform="matrix(1,0,0,-1.00006,175.138,237.48946)" stroke-width=".3985" stroke-linecap="butt" stroke-miterlimit="10" stroke-linejoin="miter" fill="none" stroke="#000000" d="M-56.69362 2.83484V-2.83484"/>
<use data-text="-" xlink:href="#font_2_64" transform="matrix(8.9664,0,0,-8.966938,114.602008,249.8162)"/>
<use data-text="2" xlink:href="#font_2_107" transform="matrix(8.9664,0,0,-8.966938,117.677478,249.8162)"/>
<path transform="matrix(1,0,0,-1.00006,175.138,237.48946)" stroke-width=".3985" stroke-linecap="butt" stroke-miterlimit="10" stroke-linejoin="miter" fill="none" stroke="#000000" d="M-28.3468 2.83484V-2.83484"/>
<use data-text="-" xlink:href="#font_2_64" transform="matrix(8.9664,0,0,-8.966938,142.949,249.8162)"/>
<use data-text="1" xlink:href="#font_2_82" transform="matrix(8.9664,0,0,-8.966938,146.02448,249.8162)"/>
<path transform="matrix(1,0,0,-1.00006,175.138,237.48946)" stroke-width=".3985" stroke-linecap="butt" stroke-miterlimit="10" stroke-linejoin="miter" fill="none" stroke="#000000" d="M28.3468 2.83484V-2.83484"/>
<use data-text="1" xlink:href="#font_2_82" transform="matrix(8.9664,0,0,-8.966938,201.18,249.8162)"/>
<path transform="matrix(1,0,0,-1.00006,175.138,237.48946)" stroke-width=".3985" stroke-linecap="butt" stroke-miterlimit="10" stroke-linejoin="miter" fill="none" stroke="#000000" d="M56.69362 2.83484V-2.83484"/>
<use data-text="2" xlink:href="#font_2_107" transform="matrix(8.9664,0,0,-8.966938,229.52701,249.8162)"/>
<path transform="matrix(1,0,0,-1.00006,175.138,237.48946)" stroke-width=".3985" stroke-linecap="butt" stroke-miterlimit="10" stroke-linejoin="miter" fill="none" stroke="#000000" d="M85.04042 2.83484V-2.83484"/>
<use data-text="3" xlink:href="#font_2_106" transform="matrix(8.9664,0,0,-8.966938,257.874,249.8162)"/>
<path transform="matrix(1,0,0,-1.00006,175.138,237.48946)" stroke-width=".3985" stroke-linecap="butt" stroke-miterlimit="10" stroke-linejoin="miter" fill="none" stroke="#000000" d="M113.38724 2.83484V-2.83484"/>
<use data-text="4" xlink:href="#font_2_57" transform="matrix(8.9664,0,0,-8.966938,286.221,249.9152)"/>
<path transform="matrix(1,0,0,-1.00006,175.138,237.48946)" stroke-width=".3985" stroke-linecap="butt" stroke-miterlimit="10" stroke-linejoin="miter" fill="none" stroke="#000000" d="M141.73404 2.83484V-2.83484"/>
<use data-text="5" xlink:href="#font_2_56" transform="matrix(8.9664,0,0,-8.966938,314.568,249.8162)"/>
<path transform="matrix(1,0,0,-1.00006,175.138,237.48946)" stroke-width=".3985" stroke-linecap="butt" stroke-miterlimit="10" stroke-linejoin="miter" fill="none" stroke="#000000" d="M170.08086 2.83484V-2.83484"/>
<use data-text="6" xlink:href="#font_2_101" transform="matrix(8.9664,0,0,-8.966938,342.914,249.8162)"/>
<path transform="matrix(1,0,0,-1.00006,175.138,237.48946)" stroke-width=".3985" stroke-linecap="butt" stroke-miterlimit="10" stroke-linejoin="miter" fill="none" stroke="#000000" d="M2.83484 0H-2.83484"/>
<use data-text="0" xlink:href="#font_2_121" transform="matrix(8.9664,0,0,-8.966938,164.175,240.37664)"/>
<path transform="matrix(1,0,0,-1.00006,175.138,237.48946)" stroke-width=".3985" stroke-linecap="butt" stroke-miterlimit="10" stroke-linejoin="miter" fill="none" stroke="#000000" d="M2.83484 28.3468H-2.83484"/>
<use data-text="1" xlink:href="#font_2_82" transform="matrix(8.9664,0,0,-8.966938,164.175,212.12694)"/>
<path transform="matrix(1,0,0,-1.00006,175.138,237.48946)" stroke-width=".3985" stroke-linecap="butt" stroke-miterlimit="10" stroke-linejoin="miter" fill="none" stroke="#000000" d="M2.83484 56.69362H-2.83484"/>
<use data-text="2" xlink:href="#font_2_107" transform="matrix(8.9664,0,0,-8.966938,164.175,183.77823)"/>
<path transform="matrix(1,0,0,-1.00006,175.138,237.48946)" stroke-width=".3985" stroke-linecap="butt" stroke-miterlimit="10" stroke-linejoin="miter" fill="none" stroke="#000000" d="M2.83484 85.04042H-2.83484"/>
<use data-text="3" xlink:href="#font_2_106" transform="matrix(8.9664,0,0,-8.966938,164.175,155.33153)"/>
<path transform="matrix(1,0,0,-1.00006,175.138,237.48946)" stroke-width=".3985" stroke-linecap="butt" stroke-miterlimit="10" stroke-linejoin="miter" fill="none" stroke="#000000" d="M2.83484 113.38724H-2.83484"/>
<use data-text="4" xlink:href="#font_2_57" transform="matrix(8.9664,0,0,-8.966938,164.175,127.130847)"/>
<path transform="matrix(1,0,0,-1.00006,175.138,237.48946)" stroke-width=".3985" stroke-linecap="butt" stroke-miterlimit="10" stroke-linejoin="miter" fill="none" stroke="#000000" d="M2.83484 141.73404H-2.83484"/>
<use data-text="5" xlink:href="#font_2_56" transform="matrix(8.9664,0,0,-8.966938,164.175,98.634128)"/>
<path transform="matrix(1,0,0,-1.00006,175.138,237.48946)" stroke-width=".3985" stroke-linecap="butt" stroke-miterlimit="10" stroke-linejoin="miter" fill="none" stroke="#000000" d="M2.83484 170.08086H-2.83484"/>
<use data-text="6" xlink:href="#font_2_101" transform="matrix(8.9664,0,0,-8.966938,164.175,70.28543)"/>
<path transform="matrix(1,0,0,-1.00006,175.138,237.48946)" stroke-width=".3985" stroke-linecap="butt" stroke-miterlimit="10" stroke-linejoin="miter" fill="none" stroke="#000000" d="M2.83484 198.42766H-2.83484"/>
<use data-text="7" xlink:href="#font_2_100" transform="matrix(8.9664,0,0,-8.966938,164.175,41.981737)"/>
<path transform="matrix(1,0,0,-1.00006,175.138,237.48946)" stroke-width=".3985" stroke-linecap="butt" stroke-miterlimit="10" stroke-linejoin="miter" fill="none" stroke="#000000" d="M2.83484 226.77448H-2.83484"/>
<use data-text="8" xlink:href="#font_2_51" transform="matrix(8.9664,0,0,-8.966938,164.175,13.589035)"/>
<path transform="matrix(1,0,0,-1.00006,175.138,237.48946)" stroke-width=".79701" stroke-linecap="butt" stroke-miterlimit="10" stroke-linejoin="miter" fill="none" stroke="#000000" d="M-170.08086 4.72415-169.52417 4.73975-168.96749 4.75531-168.41082 4.77087-167.85414 4.78645-167.29746 4.80244-166.74079 4.8189-166.18412 4.83488-165.62743 4.85132-165.07076 4.86777-164.51409 4.88376-163.9574 4.9002-163.40073 4.91707-162.84406 4.93394-162.28737 4.95125-161.7307 4.96812-161.17403 4.98543-160.61734 5.00314-160.06067 5.02045-159.504 5.03732-158.94731 5.05463-158.39064 5.07278-157.83397 5.09053-157.27729 5.10912-156.72061 5.12686-156.16393 5.14545-155.60726 5.16406-155.05059 5.18222-154.4939 5.2004-153.93723 5.21942-153.38056 5.23802-152.82387 5.25836-152.2672 5.27737-151.71053 5.29684-151.15384 5.31544-150.59717 5.33578-150.0405 5.3548-149.48381 5.3747-148.92714 5.39589-148.37047 5.41623-147.81378 5.43655-147.25711 5.45645-146.70044 5.47722-146.14376 5.49797-145.58708 5.51918-145.03041 5.54079-144.47373 5.56198-143.91706 5.58362-143.36038 5.60568-142.8037 5.62686-142.24703 5.6485-141.69036 5.67099-141.13367 5.69305-140.577 5.71599-140.02033 5.7389-139.46364 5.76181-138.90697 5.78519-138.3503 5.8081-137.79361 5.83102-137.23694 5.85524-136.68027 5.87904-136.12358 5.90283-135.56691 5.92749-135.01024 5.95215-134.45355 5.97636-133.89688 6.00102-133.34021 6.02611-132.78353 6.05118-132.22686 6.0767-131.67018 6.1031-131.1135 6.12862-130.55683 6.15457-130.00014 6.1814-129.44347 6.20776-128.8868 6.23416-128.33011 6.2614-127.77344 6.28908-127.21677 6.31635-126.66008 6.34445-126.10341 6.37213-125.54674 6.40025-124.99005 6.42836-124.43338 6.45691-123.87671 6.48676-123.32002 6.5153-122.76335 6.546-122.20668 6.57542-121.65 6.60527-121.09332 6.63554-120.53665 6.66583-119.97997 6.6974-119.4233 6.72812-118.86662 6.75969-118.30994 6.79256-117.75325 6.8237-117.1966 6.85614-116.63991 6.889-116.08322 6.92189-115.52657 6.9552-114.96988 6.9885-114.4132 7.0231-113.85654 7.05771-113.29985 7.09232-112.74316 7.12648-112.18651 7.16194-111.62982 7.19786-111.07314 7.23419-110.51648 7.26965-109.9598 7.30815-109.4031 7.34492-108.84645 7.38211-108.28976 7.42017-107.73308 7.45868-107.17642 7.49759-106.61974 7.53697-106.06305 7.57632-105.5064 7.61697-104.9497 7.65677-104.39302 7.69829-103.83635 7.73895-103.27968 7.78004-102.72299 7.82156-102.16632 7.86525-101.60965 7.90765-101.05296 7.9522-100.49629 7.99675-99.93962 8.04129-99.38293 8.08498-98.82626 8.12996-98.26959 8.17712-97.7129 8.22339-97.15623 8.27141-96.59956 8.31943-96.04288 8.36699-95.4862 8.41458-94.92953 8.4639-94.37285 8.51492-93.81618 8.56511-93.2595 8.61528-92.70282 8.6689-92.14615 8.72038-91.58946 8.77315-91.03279 8.8268-90.47612 8.88084-89.91943 8.93622-89.36276 8.99158-88.80609 9.04868-88.2494 9.10533-87.69275 9.1633-87.13606 9.22127-86.57938 9.28053-86.02272 9.34064-85.46603 9.40163-84.90935 9.46306-84.35269 9.52577-83.796 9.58936-83.23932 9.6538-82.68266 9.71825-82.12598 9.784-81.56929 9.8506-81.01263 9.9185-80.45595 9.98727-79.89926 10.05736-79.3426 10.12785-78.78592 10.1988-78.22923 10.27103-77.67256 10.34456-77.11589 10.4194-76.5592 10.49551-76.00253 10.57207-75.44586 10.65123-74.88918 10.73038-74.3325 10.81041-73.77583 10.89043-73.21915 10.97435-72.66248 11.05824-72.1058 11.14389-71.54912 11.23083-70.99245 11.3195-70.43578 11.40817-69.87909 11.49814-69.32242 11.59158-68.76575 11.685-68.20906 11.77974-67.65239 11.8779-67.09572 11.97523-66.53903 12.07645-65.98236 12.17679-65.42567 12.28104-64.869 12.38658-64.31233 12.49342-63.75565 12.60329-63.19897 12.714-62.6423 12.8269-62.08562 12.94022-61.52895 13.05917-60.97227 13.17856-60.41559 13.2975-59.85892 13.42207-59.30225 13.54967-58.74556 13.67728-58.18889 13.81049-57.63222 13.94373-57.07553 14.07693-56.51886 14.21577-55.96219 14.35765-55.4055 14.50212-54.84883 14.64658-54.29216 14.79971-53.73547 14.95282-53.1788 15.10896-52.62213 15.2677-52.06544 15.43207-51.50876 15.59903-50.9521 15.76945-50.39542 15.94203-49.83873 16.1237-49.28207 16.30493-48.72539 16.49222-48.1687 16.68211-47.61205 16.87503-47.05536 17.07614-46.49867 17.2803-45.94202 17.4901-45.38533 17.70549-44.82864 17.9235-44.27199 18.15057-43.7153 18.38025-43.15862 18.61511-42.60196 18.85909-42.04527 19.10866-41.48859 19.36644-40.93193 19.6303-40.37524 19.90236-39.81856 20.18004-39.26189 20.46638-38.70522 20.75836-38.14853 21.06155-37.59186 21.37341-37.03519 21.69653-36.4785 22.02829-35.92183 22.36826-35.36516 22.71991-34.80847 23.08585-34.2518 23.45695-33.69513 23.84537-33.13844 24.24763-32.58177 24.66158-32.0251 25.09238-31.46843 25.53487-30.91174 25.99422-30.35507 26.47044-29.7984 26.96613-29.24171 27.47955-28.68504 28.01245-28.12837 28.5648-27.57169 29.1431-27.01501 29.74173-26.45834 30.36804-25.90166 31.02335-25.34497 31.70372-24.78831 32.41525-24.23163 33.16095-23.67494 33.94081-23.11829 34.75745-22.5616 35.61647-22.00491 36.51527-21.44826 37.46513-20.89157 38.46298-20.33488 39.51796-19.77823 40.62958-19.22154 41.80609-18.66486 43.05351-18.1082 44.37796-17.55151 45.78412-16.99483 47.28418-16.43817 48.88586-15.88148 50.59871-15.3248 52.43874-14.76814 54.415-14.21146 56.54697-13.65477 58.84549-13.0981 61.34642-12.54143 64.07097-11.98474 67.04814-11.42807 70.31467-10.8714 73.91554-10.31471 77.90485-9.75804 82.35046-9.20137 87.32855-8.64468 92.95369-8.08801 99.3531-7.53134 106.69414-6.97466 115.20735-6.41798 125.202-5.86131 137.09636-5.30463 151.48172-4.74796 169.23957-4.19128 191.71727-3.6346 221.08184"/>
<path transform="matrix(1,0,0,-1.00006,175.138,237.48946)" stroke-width=".79701" stroke-linecap="butt" stroke-miterlimit="10" stroke-linejoin="miter" fill="none" stroke="#000000" d="M3.54333 226.77448 4.1 195.98728 4.6567 172.5502 5.21336 154.13578 5.77003 139.26555 6.32672 127.00829 6.88339 116.7355 7.44006 108.00386 7.99675 100.48721 8.55344 93.94594 9.11009 88.2014 9.66678 83.12773 10.22346 78.5995 10.78012 74.54185 11.3368 70.88171 11.8935 67.56155 12.45015 64.54158 13.00684 61.77724 13.56352 59.24255 14.12018 56.90599 14.67686 54.75238 15.23355 52.75362 15.7902 50.89326 16.3469 49.15836 16.90358 47.53938 17.46024 46.02505 18.01692 44.60158 18.57361 43.2633 19.13026 42.00461 19.68695 40.81644 20.24364 39.69356 20.8003 38.63342 21.35698 37.62387 21.91367 36.6684 22.47034 35.76093 23.02701 34.89629 23.5837 34.071 24.14037 33.28593 24.69704 32.5342 25.25372 31.81705 25.8104 31.13104 26.36707 30.47314 26.92375 29.8438 27.48042 29.23955 28.0371 28.65866 28.59378 28.10023 29.15045 27.56433 29.70712 27.04573 30.26381 26.54959 30.82048 26.07036 31.37715 25.6084 31.93384 25.16331 32.49051 24.72992 33.04718 24.31596 33.60387 23.91068 34.16054 23.51923 34.71722 23.1451 35.2739 22.7796 35.83057 22.42534 36.38725 22.08234 36.94391 21.7506 37.5006 21.42445 38.05728 21.11 38.61394 20.80939 39.17062 20.51181 39.72731 20.22546 40.28397 19.94777 40.84065 19.6757 41.39734 19.40883 41.954 19.15103 42.51068 18.90146 43.06737 18.65492 43.62402 18.41702 44.18071 18.18733 44.7374 17.9607 45.29405 17.73923 45.85074 17.52383 46.40742 17.31404 46.96408 17.1073 47.52077 16.90875 48.07745 16.71326 48.63412 16.52338 49.1908 16.33348 49.74748 16.15182 50.30415 15.9736 50.86082 15.79497 51.41751 15.62758 51.97418 15.46019 52.53085 15.29323 53.08754 15.13449 53.64421 14.97835 54.20088 14.82523 54.75757 14.6721 55.31424 14.52504 55.87091 14.38014 56.4276 14.2387 56.98427 14.09985 57.54094 13.96361 58.09763 13.83038 58.6543 13.69717 59.21097 13.56956 59.76765 13.44196 60.32433 13.3174 60.88101 13.19542 61.43768 13.07907 61.99435 12.96011 62.55104 12.84377 63.10771 12.73174 63.66438 12.621 64.22107 12.51071 64.77774 12.40344 65.33441 12.29832 65.8911 12.19496 66.44777 12.09288 67.00444 11.99167 67.56113 11.89305 68.1178 11.79659 68.67447 11.70013 69.23116 11.60628 69.78783 11.51372 70.3445 11.42288 70.90118 11.33379 71.45786 11.24425 72.01453 11.15773 72.57121 11.07123 73.12788 10.98732 73.68456 10.90599 74.24124 10.82382 74.79793 10.74379 75.35458 10.66335 75.91127 10.58463 76.46796 10.5072 77.02461 10.43195 77.5813 10.3571 78.13799 10.28357 78.69464 10.2109 79.25133 10.13997 79.80801 10.06903 80.36467 9.99811 80.92136 9.92976 81.47804 9.86229 82.0347 9.79437 82.59138 9.72864 83.14807 9.66463 83.70473 9.5993 84.26141 9.53572 84.8181 9.47386 85.37476 9.412 85.93144 9.35016 86.48813 9.29047 87.0448 9.23164 87.60147 9.17282 88.15816 9.11485 88.71483 9.05733 89.2715 9.0011 89.82819 8.94487 90.38486 8.88994 90.94153 8.83586 91.49821 8.78267 92.05489 8.72948 92.61156 8.6767 93.16823 8.62523 93.72491 8.57289 94.28159 8.5227 94.83826 8.47253 95.39494 8.42366 95.95161 8.37521 96.50829 8.32677 97.06497 8.27876 97.62164 8.23119 98.17831 8.18404 98.735 8.13861 99.29167 8.09235 99.84834 8.04822 100.40503 8.00323 100.96172 7.95955 101.51837 7.915 102.07506 7.87218 102.63174 7.82979 103.1884 7.78696 103.74509 7.74586 104.30177 7.70479 104.85843 7.6637 105.41512 7.62305 105.9718 7.58281 106.52846 7.54344 107.08514 7.50366 107.64183 7.46472 108.19849 7.42667 108.75517 7.38904 109.31186 7.35097 109.86852 7.31377 110.4252 7.27744 110.98189 7.2398 111.53854 7.2039 112.09523 7.16757 112.65192 7.13298 113.20859 7.09793 113.76526 7.0629 114.32195 7.02916 114.87862 6.99413 115.43529 6.96039 115.99197 6.92708 116.54865 6.89421 117.10532 6.86177 117.662 6.82933 118.21867 6.79776 118.77534 6.76445 119.33203 6.73329 119.8887 6.70216 120.44537 6.67102 121.00206 6.6403 121.55873 6.61003 122.1154 6.58018 122.67209 6.5499 123.22876 6.52051 123.78543 6.49152 124.34212 6.46167 124.89879 6.43312 125.45546 6.40501 126.01215 6.37689 126.56882 6.34834 127.1255 6.32109 127.68217 6.29341 128.23885 6.26573 128.79553 6.23848 129.3522 6.2121 129.90888 6.18571 130.46556 6.15846 131.02223 6.13293 131.5789 6.107 132.13559 6.0806 132.69226 6.05508 133.24893 6.03 133.80562 6.00534 134.36229 5.98026 134.91896 5.9556 135.47565 5.93138 136.03232 5.90672 136.58899 5.8825 137.14568 5.85915 137.70235 5.83534 138.25902 5.81157 138.8157 5.78821 139.37239 5.76572 139.92905 5.7428 140.48574 5.71944 141.04242 5.69695 141.59908 5.67488 142.15576 5.65195 142.71245 5.63075 143.2691 5.60915 143.82579 5.58664 144.38248 5.56544 144.93914 5.54427 145.49582 5.52263 146.0525 5.50143 146.60916 5.48067 147.16585 5.46034 147.72254 5.43958 148.27919 5.41925 148.83588 5.39935 149.39255 5.37946 149.94922 5.35826 150.5059 5.33836 151.06258 5.31978 151.61927 5.30074 152.17594 5.28084 152.7326 5.26094 153.28929 5.24236 153.84597 5.22244 154.40264 5.20341 154.95932 5.18483 155.51599 5.16666 156.07266 5.1485 156.62935 5.13031 157.18602 5.11214 157.74269 5.09312 158.29938 5.0758 158.85605 5.05809 159.41272 5.04034 159.9694 5.02304 160.52608 5.00533 161.08275 4.98845 161.63944 4.9707 162.1961 4.95427 162.75278 4.93697 163.30947 4.91968 163.86614 4.90324 164.4228 4.88681 164.97949 4.87036 165.53618 4.85393 166.09284 4.83792 166.64952 4.82149 167.2062 4.80505 167.76287 4.78905 168.31955 4.77434 168.87624 4.75833 169.43289 4.74232 169.98958 4.7272"/>
<use data-text="y" xlink:href="#font_1_2" transform="matrix(9.9626,0,0,-9.963197,235.351,207.63466)"/>
<use data-text="=" xlink:href="#font_3_2" transform="matrix(9.9626,0,0,-9.963197,243.36,207.63466)"/>
<use data-text="1" xlink:href="#font_3_1" transform="matrix(9.9626,0,0,-9.963197,258.195,200.89426)"/>
<path transform="matrix(1,0,0,-1.00006,-24.786999,-16.869791)" stroke-width=".3985" stroke-linecap="butt" stroke-miterlimit="10" stroke-linejoin="miter" fill="none" stroke="#000000" d="M279.859-222H291.088"/>
<use data-text="|" xlink:href="#font_4_1" transform="matrix(9.9626,0,0,-9.963197,255.072,214.46907)"/>
<use data-text="x" xlink:href="#font_1_1" transform="matrix(9.9626,0,0,-9.963197,257.83903,214.46907)"/>
<use data-text="|" xlink:href="#font_4_1" transform="matrix(9.9626,0,0,-9.963197,263.53303,214.46907)"/>
</svg>
