<svg xmlns="http://www.w3.org/2000/svg" xmlns:xlink="http://www.w3.org/1999/xlink" xmlns:inkscape="http://www.inkscape.org/namespaces/inkscape" version="1.1" width="204" height="219" viewBox="0 0 204 219">
<defs>
<path id="font_1_4" d="M.36698915 .3996582H.45298768C.47299195 .3996582 .48298646 .3996582 .48298646 .41966249 .48298646 .43066407 .47299195 .43066407 .45599366 .43066407H.37298585L.3939972 .5449524C.397995 .5660095 .4119873 .6370239 .41799928 .6490326 .4269867 .66804507 .44400025 .68307498 .46499635 .68307498 .46899415 .68307498 .49499513 .68307498 .5139923 .66503909 .46998597 .661026 .45999146 .6260376 .45999146 .6110382 .45999146 .58802798 .47799684 .57603457 .49699403 .57603457 .522995 .57603457 .5519867 .5980377 .5519867 .6360321 .5519867 .6820679 .5059967 .7050781 .46499635 .7050781 .43099977 .7050781 .36799623 .68707278 .33799745 .58802798 .33198548 .56700137 .32899476 .5569763 .30499269 .43066407H.23599243C.21699524 .43066407 .20599365 .43066407 .20599365 .4116516 .20599365 .3996582 .21499634 .3996582 .23399353 .3996582H.2999878L.22499085 .0048828127C.20698548-.09207153 .18998719-.18309021 .13798523-.18309021 .13398743-.18309021 .10899353-.18309021 .08999634-.16506958 .13598633-.1620636 .14498902-.12606812 .14498902-.111068729 .14498902-.08807373 .1269989-.07606506 .10798645-.07606506 .08198547-.07606506 .052993776-.09806824 .052993776-.13606262 .052993776-.18109131 .09700012-.20507813 .13798523-.20507813 .19299317-.20507813 .23298645-.14607239 .25099183-.108062747 .2829895-.04508972 .30599977 .07583618 .30699159 .082839969L.36698915 .3996582Z"/>
<path id="font_2_1" d="M.33099366-.2400055C.33099366-.23701477 .33099366-.23500061 .31399537-.21800232 .18899536-.0920105 .15699768 .09700012 .15699768 .25 .15699768 .42399598 .19499207 .59799197 .31799317 .72299197 .33099366 .73498538 .33099366 .7369995 .33099366 .73999026 .33099366 .746994 .32699586 .75 .32099916 .75 .31098939 .75 .22099304 .6819916 .1619873 .5549927 .11099243 .44499208 .09899902 .33399964 .09899902 .25 .09899902 .17199707 .10998535 .050994874 .16499329-.06201172 .22499085-.18501282 .31098939-.25 .32099916-.25 .32699586-.25 .33099366-.24700928 .33099366-.2400055Z"/>
<path id="font_1_6" d="M.33399964 .30233766C.33999635 .32835389 .36299134 .42037965 .43299867 .42037965 .43798829 .42037965 .46199037 .42037965 .48298646 .40734864 .45498658 .402359 .43499757 .37734986 .43499757 .35334779 .43499757 .33735658 .44599916 .31835938 .47299195 .31835938 .49499513 .31835938 .5269928 .3363495 .5269928 .37635804 .5269928 .42837525 .46798707 .4423828 .43399049 .4423828 .37599183 .4423828 .34098817 .38935853 .32899476 .36634828 .3039856 .43237306 .25 .4423828 .22099304 .4423828 .116989139 .4423828 .05999756 .3133545 .05999756 .28834535 .05999756 .27833558 .069992069 .27833558 .07199097 .27833558 .07998657 .27833558 .08299255 .28033448 .084991458 .28933717 .11898804 .39535523 .18499756 .42037965 .21899414 .42037965 .23799134 .42037965 .272995 .4113617 .272995 .35334779 .272995 .32235719 .2559967 .25532533 .21899414 .11528015 .20298767 .053268434 .16799927 .011245728 .12399292 .011245728 .117996219 .011245728 .09498596 .011245728 .07398987 .024276734 .09899902 .029266358 .12098694 .05027771 .12098694 .07827759 .12098694 .105270389 .09899902 .11328125 .083999637 .11328125 .053985597 .11328125 .0289917 .08728027 .0289917 .055267335 .0289917 .009246826 .07899475-.0107421879 .12298584-.0107421879 .18899536-.0107421879 .22499085 .059280397 .22799683 .0652771 .23999024 .028274537 .27598573-.0107421879 .33599855-.0107421879 .43899537-.0107421879 .49598695 .118270877 .49598695 .14328003 .49598695 .1532898 .4869995 .1532898 .48399354 .1532898 .47499085 .1532898 .47299195 .14929199 .47099305 .14228821 .43798829 .03527832 .36999513 .011245728 .33799745 .011245728 .29899598 .011245728 .2829895 .043273927 .2829895 .07727051 .2829895 .09927368 .2889862 .121276859 .2999878 .16529846L.33399964 .30233766Z"/>
<path id="font_2_2" d="M.2889862 .25C.2889862 .32798768 .27799989 .44898988 .22299195 .56199648 .16299439 .68499758 .07699585 .75 .066986087 .75 .06098938 .75 .056991579 .74598696 .056991579 .73999026 .056991579 .7369995 .056991579 .73498538 .07598877 .71699526 .17399597 .6179962 .23098755 .45899964 .23098755 .25 .23098755 .07899475 .19400025-.09700012 .069992069-.2230072 .056991579-.23500061 .056991579-.23701477 .056991579-.2400055 .056991579-.2460022 .06098938-.25 .066986087-.25 .07699585-.25 .16699219-.18200684 .22599793-.055007936 .2769928 .054992677 .2889862 .16600037 .2889862 .25Z"/>
<path id="font_3_1" d="M.44400025 .24998474C.44400025 .35688783 .35499574 .44381715 .25 .44381715 .14199829 .44381715 .054992677 .35488893 .054992677 .24998474 .054992677 .14407349 .14199829 .056137086 .25 .056137086 .35499574 .056137086 .44400025 .14308167 .44400025 .24998474Z"/>
<path id="font_1_1" d="M.37298585 .37835694C.35499574 .41537477 .32598878 .4423828 .2809906 .4423828 .1639862 .4423828 .039993287 .29533387 .039993287 .14929199 .039993287 .055267335 .09498596-.0107421879 .17298889-.0107421879 .19299317-.0107421879 .24299622-.0067443849 .30299378 .06427002 .31098939 .022247315 .34599305-.0107421879 .3939972-.0107421879 .42900086-.0107421879 .45199586 .012252808 .46798707 .044265748 .4850006 .08027649 .49798585 .14129639 .49798585 .14329529 .49798585 .1532898 .4889984 .1532898 .48599244 .1532898 .47599793 .1532898 .47499085 .14929199 .47200013 .13528443 .45498658 .07026672 .43699647 .011245728 .3959961 .011245728 .36898805 .011245728 .3659973 .037261964 .3659973 .057266237 .3659973 .07926941 .36799623 .08728027 .3789978 .13128662 .3899994 .17329407 .3919983 .18330384 .40098573 .22131348L.43699647 .36135865C.44400025 .38935853 .44400025 .39135743 .44400025 .39537049 .44400025 .41236878 .43199159 .42237855 .4149933 .42237855 .3909912 .42237855 .37599183 .4003601 .37298585 .37835694M.30799867 .119277957C.30299378 .10127258 .30299378 .09927368 .28799439 .08227539 .24398804 .027252198 .20298767 .011245728 .1749878 .011245728 .125 .011245728 .11099243 .06626892 .11099243 .105285648 .11099243 .1552887 .14299011 .27833558 .1659851 .32434083 .19699097 .38336183 .24198914 .42037965 .28199769 .42037965 .34700013 .42037965 .36099244 .3383484 .36099244 .33235169 .36099244 .32633973 .35899354 .32034303 .35798646 .31533814L.30799867 .119277957Z"/>
<path id="font_1_2" d="M.23899842 .68333438C.23899842 .6843262 .23899842 .69433596 .22599793 .69433596 .20298767 .69433596 .12998963 .6863251 .10398865 .6843262 .09599304 .68333438 .084991458 .6823273 .084991458 .6643219 .084991458 .6523285 .09399414 .6523285 .10899353 .6523285 .15699768 .6523285 .15899658 .6453247 .15899658 .6353302 .15899658 .6283264 .1499939 .5943451 .14498902 .573349L.06298828 .24731446C.050994874 .1973114 .04699707 .18130493 .04699707 .14628601 .04699707 .05126953 .099990848-.0107421879 .17399597-.0107421879 .2919922-.0107421879 .4149933 .1382904 .4149933 .28233338 .4149933 .37335206 .3619995 .4423828 .28199769 .4423828 .23599243 .4423828 .19499207 .41337586 .16499329 .38235475L.23899842 .68333438M.14498902 .30534364C.15098572 .3273468 .15098572 .3293457 .1599884 .3403473 .20899964 .405365 .2539978 .42037965 .27999879 .42037965 .31599427 .42037965 .34298707 .3903656 .34298707 .32633973 .34298707 .26733399 .30999757 .15229798 .2919922 .11428833 .25898744 .04725647 .21299744 .011245728 .17399597 .011245728 .13999939 .011245728 .10699463 .038253786 .10699463 .11227417 .10699463 .13128662 .10699463 .15029907 .12298584 .21331787L.14498902 .30534364Z"/>
<path id="font_1_3" d="M.3959961 .37998963C.37998963 .37998963 .3659973 .37998963 .35198976 .36598207 .33599855 .35098268 .33399964 .33398438 .33399964 .3269806 .33399964 .30297853 .35198976 .2919922 .37098695 .2919922 .3999939 .2919922 .4269867 .315979 .4269867 .35598756 .4269867 .40522767 .37998963 .4423828 .30899049 .4423828 .17399597 .4423828 .040985109 .2989807 .040985109 .15811157 .040985109 .06819153 .09899902-.0107421879 .20298767-.0107421879 .34599305-.0107421879 .42999269 .09516907 .42999269 .107162479 .42999269 .11315918 .42399598 .120147708 .41799928 .120147708 .41299439 .120147708 .41099549 .1181488 .40499879 .1101532 .32598878 .011245728 .21699524 .011245728 .20498657 .011245728 .14199829 .011245728 .114990238 .06021118 .114990238 .120147708 .114990238 .1611023 .1349945 .25801087 .16899109 .31999208 .19999695 .37698365 .25498963 .42037965 .30999757 .42037965 .34399415 .42037965 .38198854 .40724183 .3959961 .37998963Z"/>
<path id="font_1_7" d="M.48599244 .38136292C.48999024 .39537049 .48999024 .39736939 .48999024 .40437318 .48999024 .42237855 .47599793 .43138124 .46099855 .43138124 .45098878 .43138124 .43499757 .42536927 .42599488 .41036988 .42399598 .405365 .41600038 .37435914 .4119873 .35635377 .40499879 .33035279 .397995 .30334474 .3919983 .27633668L.34700013 .09628296C.34298707 .08126831 .2999878 .011245728 .23399353 .011245728 .18299866 .011245728 .17199707 .055267335 .17199707 .0922699 .17199707 .1382904 .18899536 .20030213 .22299195 .28833009 .23899842 .3293457 .24299622 .3403473 .24299622 .36035157 .24299622 .405365 .21099854 .4423828 .16099549 .4423828 .06599426 .4423828 .0289917 .29733277 .0289917 .28833009 .0289917 .27833558 .038986207 .27833558 .040985109 .27833558 .050994874 .27833558 .051986696 .28033448 .056991579 .29634095 .083999637 .3903656 .12399292 .42037965 .1579895 .42037965 .1659851 .42037965 .18299866 .42037965 .18299866 .3883667 .18299866 .36335755 .17298889 .3373413 .1659851 .31834413 .12599182 .21231079 .10798645 .1552887 .10798645 .10827637 .10798645 .019256592 .17098999-.0107421879 .22999573-.0107421879 .2689972-.0107421879 .30299378 .0062561037 .33099366 .03425598 .31799317-.017745972 .30599977-.06674194 .2659912-.11973572 .23999024-.15385437 .20199585-.18309021 .1559906-.18309021 .14199829-.18309021 .09700012-.18005371 .07998657-.14074707 .09599304-.14074707 .10899353-.14074707 .12298584-.1287384 .1329956-.11973572 .14299011-.10673523 .14299011-.08773804 .14299011-.056747438 .115997318-.052734376 .10598755-.052734376 .08299255-.052734376 .049987794-.068740848 .049987794-.11773682 .049987794-.16796875 .09399414-.20507813 .1559906-.20507813 .25898744-.20507813 .3619995-.11373901 .3899994-.00074768069L.48599244 .38136292Z"/>
<path id="font_2_3" d="M.68699648 .32714845C.70199587 .32714845 .72099307 .32714845 .72099307 .34713746 .72099307 .36714173 .70199587 .36714173 .6879883 .36714173H.08898926C.07499695 .36714173 .055999757 .36714173 .055999757 .34713746 .055999757 .32714845 .07499695 .32714845 .08999634 .32714845H.68699648M.6879883 .13284302C.70199587 .13284302 .72099307 .13284302 .72099307 .15284729 .72099307 .17285156 .70199587 .17285156 .68699648 .17285156H.08999634C.07499695 .17285156 .055999757 .17285156 .055999757 .15284729 .055999757 .13284302 .07499695 .13284302 .08898926 .13284302H.6879883Z"/>
<path id="font_1_5" d="M.08799744 .059265138C.084991458 .044265748 .07899475 .021255494 .07899475 .01625061 .07899475-.0017547608 .09298706-.0107421879 .10798645-.0107421879 .11999512-.0107421879 .13798523-.002746582 .14498902 .01725769 .14698792 .021255494 .18099976 .15730286 .18499756 .17530823 .19299317 .20831299 .21099854 .27833558 .21699524 .30534364 .22099304 .31835938 .24899292 .36535646 .272995 .38734437 .2809906 .39434815 .30999757 .42037965 .35299684 .42037965 .3789978 .42037965 .3939972 .4083557 .394989 .4083557 .36499024 .40335084 .34298707 .37934876 .34298707 .35334779 .34298707 .33735658 .35398866 .31835938 .3809967 .31835938 .4079895 .31835938 .43598939 .34135438 .43598939 .37734986 .43598939 .41235353 .4039917 .4423828 .35299684 .4423828 .28799439 .4423828 .24398804 .39335633 .22499085 .36535646 .21699524 .4103546 .18099976 .4423828 .13398743 .4423828 .08799744 .4423828 .068984989 .40335084 .05999756 .38534547 .041992189 .35134889 .0289917 .29133607 .0289917 .28834535 .0289917 .27833558 .038986207 .27833558 .040985109 .27833558 .050994874 .27833558 .051986696 .27934266 .057998659 .30134584 .07499695 .37234498 .09498596 .42037965 .1309967 .42037965 .147995 .42037965 .1619873 .41235353 .1619873 .37435914 .1619873 .35334779 .15899658 .3423462 .1459961 .29034425L.08799744 .059265138Z"/>
</defs>
<path transform="matrix(1.00002,0,0,-1.00003,29.934304,200.63263)" stroke-width=".79701" stroke-linecap="butt" stroke-miterlimit="10" stroke-linejoin="miter" fill="none" stroke="#0000ff" d="M8.50412 57.8774C8.50412 57.8774 8.99811 60.07475 9.18782 60.90826 9.37756 61.74178 9.68182 63.06715 9.87155 63.88475 10.06128 64.70236 10.36554 65.99997 10.55527 66.80106 10.745 67.60213 11.04926 68.87476 11.239 69.65842 11.42871 70.4421 11.73299 71.6841 11.9227 72.44923 12.11244 73.21436 12.4167 74.42674 12.60643 75.17296 12.79617 75.91917 13.10042 77.1011 13.29016 77.82751 13.47987 78.55394 13.78415 79.703 13.97388 80.4085 14.1636 81.11397 14.46786 82.22821 14.6576 82.91212 14.84732 83.59605 15.1516 84.67555 15.34131 85.33778 15.53104 86.00002 15.8353 87.04579 16.02504 87.68506 16.21475 88.32434 16.51903 89.32982 16.70874 89.94527 16.89848 90.56073 17.20274 91.529 17.39247 92.12086 17.58218 92.71274 17.88646 93.64381 18.07619 94.21109 18.26591 94.77837 18.57018 95.6675 18.7599 96.20944 18.94965 96.75136 19.2539 97.6005 19.44363 98.11694 19.63336 98.6334 19.93762 99.44093 20.12735 99.93167 20.31708 100.42242 20.62134 101.18976 20.81108 101.65388 21.0008 102.11803 21.30507 102.83981 21.49478 103.27684 21.68452 103.71385 21.98878 104.39333 22.17851 104.80362 22.36823 105.21391 22.6725 105.85118 22.86223 106.234 23.05196 106.6168 23.35622 107.2077 23.54594 107.56264 23.73567 107.91757 24.03995 108.46481 24.22966 108.79214 24.41939 109.11946 24.72365 109.62254 24.91339 109.92172 25.1031 110.22092 25.40738 110.67757 25.59709 110.94853 25.78683 111.2195 26.0911 111.63156 26.28082 111.87465 26.47057 112.11775 26.77481 112.48573 26.96455 112.70059 27.15427 112.91544 27.45854 113.23674 27.64827 113.42311 27.838 113.60947 28.14226 113.8854 28.33199 114.04376 28.52171 114.20212 28.82599 114.43375 29.0157 114.5645 29.20544 114.69524 29.50969 114.88371 29.69943 114.9861 29.88914 115.08849 30.19342 115.22795 30.38315 115.30247 30.57288 115.37697 30.87714 115.47552 31.06686 115.5232 31.25659 115.57085 31.56087 115.62576 31.75058 115.64594 31.9403 115.66612 32.24457 115.6757 32.43431 115.66866 32.62402 115.6616 32.9283 115.62839 33.11803 115.59508 33.30775 115.56177 33.61201 115.48785 33.80174 115.42859 33.99147 115.36932 34.29573 115.25313 34.48547 115.16791 34.67519 115.08267 34.97946 114.92474 35.16917 114.8143 35.35892 114.70384 35.66318 114.50671 35.8529 114.3718 36.04263 114.2369 36.3469 114.00111 36.53662 113.84184 36.72635 113.68259 37.03061 113.4069 37.22035 113.22392 37.41006 113.04094 37.71434 112.72874 37.90405 112.52307 38.0938 112.31741 38.39806 111.96976 38.58778 111.74165 38.7775 111.51353 39.08177 111.12892 39.2715 110.87898 39.46123 110.62904 39.76549 110.21088 39.95522 109.94028 40.14496 109.66968 40.44922 109.2193 40.63895 108.92865 40.82866 108.63799 41.13293 108.15573 41.32266 107.84538 41.51239 107.53505 41.81665 107.02081 42.00638 106.69193 42.1961 106.36305 42.50038 105.82129 42.6901 105.475 42.87984 105.12874 43.18408 104.55939 43.37383 104.19621 43.56354 103.83302 43.86781 103.23665 44.05754 102.85744 44.24727 102.47823 44.55153 101.85733 44.74126 101.46313 44.93098 101.06894 45.23526 100.42474 45.42497 100.01628 45.61472 99.60782 45.91896 98.9408 46.1087 98.51921 46.29842 98.09763 46.60269 97.41133 46.79242 96.97775 46.98215 96.54419 47.2864 95.8392 47.47614 95.39426 47.66586 94.94933 47.97012 94.22607 48.15987 93.77094 48.34958 93.31578 48.65385 92.57823 48.84357 92.11388 49.03331 91.64949 49.33757 90.89642 49.5273 90.4241 49.71703 89.95177 50.02129 89.18892 50.21101 88.70967 50.40074 88.23042 50.705 87.4554 50.89474 86.96996 51.08446 86.48448 51.38873 85.70125 51.57845 85.21088 51.76819 84.72049 52.07245 83.92987 52.26218 83.4356 52.4519 82.9413 52.75616 82.14532 52.94589 81.64838 53.13562 81.15143 53.43988 80.3525 53.62962 79.85388 53.81935 79.35527 54.12361 78.55423 54.31334 78.05472 54.50307 77.5552 54.80734 76.7529 54.99706 76.25375 55.18678 75.7546 55.49104 74.95482 55.68079 74.45718 55.8705 73.95953 56.17477 73.16223 56.36449 72.6671 56.55423 72.17197 56.85849 71.3802 57.04822 70.88858 57.23793 70.39694 57.5422 69.61089 57.73193 69.1238 57.92166 68.63672 58.22592 67.8594 58.41565 67.37798 58.60538 66.89655 58.90965 66.12848 59.09937 65.65395 59.28911 65.17943 59.59335 64.42479 59.7831 63.95795 59.97281 63.49112 60.27708 62.74762 60.46681 62.28934 60.65654 61.83104 60.9608 61.10344 61.15053 60.65497 61.34027 60.2065 61.64453 59.49496 61.83426 59.05707 62.02399 58.61917 62.32825 57.92532 62.51797 57.49887 62.7077 57.07243 63.01196 56.39723 63.20169 55.9835 63.39142 55.5698 63.6957 54.91719 63.8854 54.51707 64.07513 54.11694 64.3794 53.48581 64.56914 53.09967 64.75885 52.7135 65.06313 52.10493 65.25284 51.73392 65.44258 51.36288 65.74684 50.7803 65.93657 50.42552 66.1263 50.07074 66.43056 49.51498 66.62029 49.17682 66.81001 48.83864 67.11427 48.30896 67.30402 47.98819 67.49373 47.6674 67.798 47.16698 67.98772 46.86482 68.17746 46.56268 68.48174 46.09377 68.67145 45.8105 68.86119 45.52724 69.16545 45.08727 69.35518 44.82327 69.54489 44.55927 69.84917 44.15126 70.0389 43.90779 70.22862 43.66432 70.53288 43.29091 70.72261 43.0685 70.91234 42.84607 71.21661 42.50597 71.40633 42.30472 71.59605 42.10344 71.90031 41.79723 72.09006 41.61787 72.27977 41.43852 72.58405 41.16855 72.77376 41.01201 72.9635 40.85547 73.26776 40.62334 73.45749 40.48958 73.64722 40.35583 73.95148 40.1587 74.1412 40.04799 74.33093 39.93729 74.6352 39.77832 74.82494 39.69168 75.01466 39.60503 75.31892 39.48604 75.50865 39.42345 75.69838 39.36087 76.00266 39.2794 76.19237 39.24062 76.38211 39.20184 76.68636 39.15791 76.8761 39.14395 77.06581 39.12997 77.37009 39.12881 77.5598 39.13992 77.74954 39.15103 78.0538 39.18822 78.24353 39.22401 78.43324 39.2598 78.73752 39.33716 78.92725 39.39789 79.11697 39.45862 79.42123 39.57579 79.61096 39.6617 79.80069 39.74762 80.10497 39.90588 80.29468 40.01712 80.48442 40.12836 80.78867 40.32707 80.97841 40.46338 81.16812 40.59969 81.4724 40.83817 81.66212 40.99954 81.85185 41.16093 82.15611 41.44025 82.34584 41.62657 82.53558 41.81287 82.83984 42.13147 83.02957 42.34233 83.2193 42.5532 83.52356 42.91052 83.71329 43.14635 83.90302 43.38217 84.20728 43.7812 84.39702 44.04196 84.58673 44.30272 84.891 44.74126 85.08072 45.0257 85.27046 45.31015 85.57472 45.78383 85.76445 46.09209 85.95416 46.40034 86.25844 46.91505 86.44817 47.24736 86.6379 47.57968 86.94215 48.1319 87.13188 48.48712 87.32161 48.84233 87.62589 49.42995 87.8156 49.80759 88.00533 50.18523 88.30959 50.8087 88.49933 51.2089 88.68904 51.60909 88.99332 52.26997 89.18304 52.69196 89.37277 53.11392 89.67705 53.80748 89.86676 54.25027 90.0565 54.69305 90.36075 55.41966 90.55049 55.88321 90.7402 56.34677 91.04448 57.10732 91.2342 57.59128 91.42393 58.07523 91.7282 58.86826 91.91792 59.37123 92.10765 59.87419 92.41193 60.69473 92.60164 61.21632 92.79137 61.73792 93.09563 62.5907 93.28537 63.13058 93.47508 63.67046 93.77936 64.5505 93.96907 65.10739 94.15881 65.66426 94.46307 66.57089 94.6528 67.14413 94.84251 67.71738 95.14679 68.64978 95.33652 69.2389 95.52625 69.82802 95.8305 70.78625 96.02023 71.3901 96.20998 71.99394 96.51424 72.97343 96.70396 73.591 96.89369 74.20857 97.19795 75.21045 97.38768 75.8411 97.57741 76.47176 97.88167 77.49348 98.07141 78.13634 98.26112 78.7792 98.5654 79.82047 98.75511 80.47441 98.94485 81.12836 99.24911 82.18532 99.43884 82.8496 99.62857 83.51385 99.93283 84.58844 100.12256 85.26201 100.31229 85.93558 100.61655 87.0225 100.80629 87.70427 100.996 88.38605 101.30028 89.48654 101.48999 90.17572 101.67973 90.86493 101.984 91.97586 102.17372 92.67145 102.36343 93.36705 102.66771 94.4886 102.85744 95.18912 103.04716 95.88962 103.35144 97.01561 103.54115 97.72028 103.7309 98.42491 104.03516 99.55972 104.22488 100.26776 104.4146 100.9758 104.71887 102.11328 104.9086 102.82332 105.09833 103.53334 105.40259 104.67418 105.59232 105.38521 105.78204 106.09625 106.08632 107.23726 106.27603 107.94803 106.46577 108.6588 106.77002 109.79851 106.95976 110.508 107.14948 111.21748 107.45375 112.35411 107.64348 113.06158 107.8332 113.76907 108.13747 114.90273 108.3272 115.60701 108.51692 116.3113 108.8212 117.43777 109.01091 118.13765 109.20064 118.83752 109.5049 119.9567 109.69464 120.65129 109.88437 121.34586 110.18863 122.45564 110.37836 123.14375 110.56808 123.8319 110.87236 124.93027 111.06207 125.61081 111.2518 126.29135 111.55606 127.37668 111.7458 128.04866 111.93552 128.72064 112.23979 129.79143 112.4295 130.45395 112.61925 131.11647 112.92351 132.17176 113.11324 132.82367 113.30296 133.4756 113.60722 134.5125 113.79695 135.15253 113.98668 135.79256 114.29094 136.80904 114.48068 137.43662 114.6704 138.06417 114.97467 139.06147 115.16438 139.67552 115.35413 140.28961 115.65839 141.2629 115.84811 141.86243 116.03784 142.46198 116.3421 143.41259 116.53183 143.99663 116.72156 144.58068 117.02582 145.50402 117.21556 146.07181 117.40529 146.63959 117.70955 147.53823 117.89928 148.08884 118.089 148.63944 118.39328 149.50789 118.583 150.0402 118.77272 150.57253 119.07698 151.41173 119.26672 151.92539 119.45644 152.43906 119.76071 153.24832 119.95042 153.74233 120.14017 154.23633 120.44441 155.01251 120.63416 155.48583 120.82387 155.95914 121.12814 156.70143 121.31787 157.15367 121.5076 157.6059 121.81186 158.31478 122.00159 158.74521 122.19131 159.17563 122.49559 159.84828 122.6853 160.2559 122.87505 160.66352 123.17929 161.29865 123.36903 161.68303 123.55875 162.06742 123.86302 162.66577 124.05276 163.02632 124.24248 163.3869 124.54675 163.94567 124.73647 164.2818 124.92621 164.61792 125.23047 165.13762 125.4202 165.44887 125.60991 165.76013 125.91418 166.23923 126.10391 166.52513 126.29364 166.81104 126.5979 167.24956 126.78763 167.5095 126.97736 167.76946 127.28163 168.16504 127.47134 168.39865 127.66107 168.63224 127.96533 168.98593 128.15508 169.19318 128.34479 169.40042 128.64907 169.71248 128.83878 169.89235 129.02852 170.0722 129.33278 170.33725 129.5225 170.48952 129.71224 170.64177 130.01651 170.8646 130.20623 170.98975 130.39597 171.1149 130.70021 171.29434 130.88996 171.39162 131.07968 171.48889 131.38394 171.62194 131.57369 171.69084 131.7634 171.75977 132.06768 171.84716 132.25739 171.88835 132.44713 171.92955 132.75139 171.97444 132.94112 171.98775 133.13083 172.00106 133.4351 171.9997 133.62483 171.98426 133.81456 171.9688 134.11882 171.92009 134.30855 171.87642 134.49828 171.83274 134.80255 171.74059 134.99227 171.66945 135.18199 171.59828 135.48625 171.46312 135.676 171.3636 135.8657 171.26407 136.16999 171.07991 136.3597 170.9521 136.54944 170.82433 136.8537 170.59755 137.04343 170.44254 137.23316 170.28752 137.53742 170.01772 137.72714 169.83486 137.91687 169.652 138.22115 169.3349 138.41088 169.12454 138.6006 168.91416 138.90486 168.5557 139.09459 168.31858 139.28432 168.08145 139.5886 167.67926 139.7783 167.41556 139.96804 167.15186 140.2723 166.708 140.46204 166.41796 140.65175 166.1279 140.95603 165.64099 141.14574 165.32508 141.33548 165.00919 141.63974 164.48226 141.82947 164.14113 142.01918 163.8 142.32346 163.2327 142.51319 162.86647 142.70291 162.50025 143.00717 161.8923 143.1969 161.50162 143.38663 161.11093 143.6909 160.46463 143.88062 160.05062 144.07036 159.63661 144.56435 158.51773 144.56435 158.51773"/>
<path transform="matrix(1.00002,0,0,-1.00003,29.934304,200.63263)" stroke-width=".3985" stroke-linecap="butt" stroke-miterlimit="10" stroke-linejoin="miter" fill="none" stroke="#0000ff" d="M51.02477 51.02477"/>
<use data-text="f" xlink:href="#font_1_4" transform="matrix(9.962799,0,0,-9.962899,71.26313,152.09717)" fill="#0000ff"/>
<use data-text="(" xlink:href="#font_2_1" transform="matrix(9.962799,0,0,-9.962899,77.21324,152.09717)" fill="#0000ff"/>
<use data-text="x" xlink:href="#font_1_6" transform="matrix(9.962799,0,0,-9.962899,81.08732,152.09717)" fill="#0000ff"/>
<use data-text=")" xlink:href="#font_2_2" transform="matrix(9.962799,0,0,-9.962899,86.78143,152.09717)" fill="#0000ff"/>
<path transform="matrix(1.00002,0,0,-1.00003,29.934304,200.63263)" stroke-width=".3985" stroke-linecap="butt" stroke-dasharray="2.98883,2.98883" stroke-miterlimit="10" stroke-linejoin="miter" fill="none" stroke="#000000" d="M8.50412 57.8774V0"/>
<use data-text="&#x2022;" xlink:href="#font_3_1" transform="matrix(9.962799,0,0,-9.962899,35.947427,144.96796)" fill="#0000ff"/>
<use data-text="a" xlink:href="#font_1_1" transform="matrix(9.962799,0,0,-9.962899,35.80542,208.44187)"/>
<path transform="matrix(1.00002,0,0,-1.00003,29.934304,200.63263)" stroke-width=".3985" stroke-linecap="butt" stroke-dasharray="2.98883,2.98883" stroke-miterlimit="10" stroke-linejoin="miter" fill="none" stroke="#000000" d="M8.50412 57.8774H0"/>
<use data-text="f" xlink:href="#font_1_4" transform="matrix(9.962799,0,0,-9.962899,7.4488527,145.24396)"/>
<use data-text="(" xlink:href="#font_2_1" transform="matrix(9.962799,0,0,-9.962899,13.398964,145.24396)"/>
<use data-text="a" xlink:href="#font_1_1" transform="matrix(9.962799,0,0,-9.962899,17.27304,145.24396)"/>
<use data-text=")" xlink:href="#font_2_2" transform="matrix(9.962799,0,0,-9.962899,22.539162,145.24396)"/>
<path transform="matrix(1.00002,0,0,-1.00003,29.934304,200.63263)" stroke-width=".3985" stroke-linecap="butt" stroke-dasharray="2.98883,2.98883" stroke-miterlimit="10" stroke-linejoin="miter" fill="none" stroke="#000000" d="M144.57019 158.50476V0"/>
<use data-text="&#x2022;" xlink:href="#font_3_1" transform="matrix(9.962799,0,0,-9.962899,172.01615,44.33693)" fill="#0000ff"/>
<use data-text="b" xlink:href="#font_1_2" transform="matrix(9.962799,0,0,-9.962899,172.36917,211.07094)"/>
<path transform="matrix(1.00002,0,0,-1.00003,29.934304,200.63263)" stroke-width=".3985" stroke-linecap="butt" stroke-dasharray="2.98883,2.98883" stroke-miterlimit="10" stroke-linejoin="miter" fill="none" stroke="#000000" d="M144.57019 158.50476H0"/>
<use data-text="f" xlink:href="#font_1_4" transform="matrix(9.962799,0,0,-9.962899,8.439873,44.613939)"/>
<use data-text="(" xlink:href="#font_2_1" transform="matrix(9.962799,0,0,-9.962899,14.389984,44.613939)"/>
<use data-text="b" xlink:href="#font_1_2" transform="matrix(9.962799,0,0,-9.962899,18.264061,44.613939)"/>
<use data-text=")" xlink:href="#font_2_2" transform="matrix(9.962799,0,0,-9.962899,22.540146,44.613939)"/>
<path transform="matrix(1.00002,0,0,-1.00003,29.934304,200.63263)" stroke-width=".3985" stroke-linecap="butt" stroke-dasharray="2.98883,2.98883" stroke-miterlimit="10" stroke-linejoin="miter" fill="none" stroke="#000000" d="M111.57413 127.56192V0"/>
<use data-text="&#x2022;" xlink:href="#font_3_1" transform="matrix(9.962799,0,0,-9.962899,139.01949,75.28086)" fill="#ff0000"/>
<use data-text="c" xlink:href="#font_1_3" transform="matrix(9.962799,0,0,-9.962899,139.35449,208.44187)"/>
<path transform="matrix(1.00002,0,0,-1.00003,29.934304,200.63263)" stroke-width=".79701" stroke-linecap="butt" stroke-miterlimit="10" stroke-linejoin="miter" fill="none" stroke="#ff0000" d="M170.08257 127.56192H-1.70079"/>
<use data-text="y" xlink:href="#font_1_7" transform="matrix(9.962799,0,0,-9.962899,1.2167282,74.24283)" fill="#ff0000"/>
<use data-text="=" xlink:href="#font_2_3" transform="matrix(9.962799,0,0,-9.962899,9.225891,74.24283)" fill="#ff0000"/>
<use data-text="r" xlink:href="#font_1_5" transform="matrix(9.962799,0,0,-9.962899,19.742096,74.24283)" fill="#ff0000"/>
<path transform="matrix(1.00002,0,0,-1.00003,29.934304,200.63263)" stroke-width=".3985" stroke-linecap="butt" stroke-miterlimit="10" stroke-linejoin="miter" fill="none" stroke="#000000" d="M-17.00824 0H169.6243"/>
<path transform="matrix(1.00002,0,0,-1.00003,199.56201,200.63263)" stroke-width=".31879" stroke-linecap="round" stroke-linejoin="round" fill="none" stroke="#000000" d="M-1.19551 1.59401C-1.09587 .99626 0 .09961 .29886 0 0-.09961-1.09587-.99626-1.19551-1.59401"/>
<use data-text="x" xlink:href="#font_1_6" transform="matrix(9.962799,0,0,-9.962899,197.17365,197.11252)"/>
<path transform="matrix(1.00002,0,0,-1.00003,29.934304,200.63263)" stroke-width=".3985" stroke-linecap="butt" stroke-miterlimit="10" stroke-linejoin="miter" fill="none" stroke="#000000" d="M0-17.00824V195.13668"/>
<path transform="matrix(0,-1.00003,-1.00002,-0,29.934304,5.490097)" stroke-width=".31879" stroke-linecap="round" stroke-linejoin="round" fill="none" stroke="#000000" d="M-1.19551 1.59401C-1.09587 .99626 0 .09961 .29886 0 0-.09961-1.09587-.99626-1.19551-1.59401"/>
<use data-text="y" xlink:href="#font_1_7" transform="matrix(9.962799,0,0,-9.962899,33.454378,6.207779)"/>
</svg>
