<svg xmlns="http://www.w3.org/2000/svg" xmlns:xlink="http://www.w3.org/1999/xlink" xmlns:inkscape="http://www.inkscape.org/namespaces/inkscape" version="1.1" width="197" height="218" viewBox="0 0 197 218">
<defs>
<path id="font_1_82" d="M.43199159 0V.0309906H.3999939C.30699159 .0309906 .3039856 .042999269 .3039856 .08001709V.63912966C.3039856 .6640167 .30299378 .6660156 .27799989 .6660156 .21598816 .60227969 .12399292 .60227969 .09298706 .60227969V.57128909C.11199951 .57128909 .17298889 .57128909 .22698975 .5972748V.08001709C.22698975 .042999269 .22399903 .0309906 .1309967 .0309906H.09899902V0C.1349945 .0029907227 .22399903 .0029907227 .2649994 .0029907227 .30599977 .0029907227 .3959961 .0029907227 .43199159 0Z"/>
<path id="font_1_107" d="M.46199037 .17704773H.43399049C.43199159 .16404724 .42399598 .10501099 .41099549 .08900452 .40499879 .07998657 .33599855 .07998657 .31599427 .07998657H.13798523L.23699951 .17404175C.40098573 .3161316 .46199037 .36915589 .46199037 .4711914 .46199037 .5860901 .36698915 .6660156 .24398804 .6660156 .1289978 .6660156 .050994874 .575119 .050994874 .4841919 .050994874 .43418885 .09399414 .42919923 .102996829 .42919923 .125 .42919923 .15499878 .44519044 .15499878 .48120118 .15499878 .51119998 .13398743 .5332031 .102996829 .5332031 .09799194 .5332031 .09498596 .5332031 .09098816 .53219607 .114990238 .6030731 .1789856 .63500979 .23298645 .63500979 .33499146 .63500979 .36999513 .5401764 .36999513 .4711914 .36999513 .36915589 .29299928 .28611756 .24499512 .23408509L.06199646 .035995485C.050994874 .024993897 .050994874 .022994996 .050994874 0H.43399049L.46199037 .17704773Z"/>
<path id="font_1_106" d="M.46998597 .17008972C.46998597 .25709535 .40098573 .33110047 .30499269 .35209657 .397995 .38710023 .44198609 .46009828 .44198609 .5290985 .44198609 .60606387 .35699464 .6660156 .25299073 .6660156 .14898682 .6660156 .070999149 .60705569 .070999149 .5310974 .070999149 .49809266 .09298706 .47909547 .12199402 .47909547 .15098572 .47909547 .17199707 .50009158 .17199707 .5290985 .17199707 .5640869 .147995 .57910159 .11399841 .57910159 .13999939 .6210327 .20098877 .64100649 .25 .64100649 .33299256 .64100649 .34899903 .5750885 .34899903 .52809146 .34899903 .49809266 .34298707 .45005799 .31799317 .41201783 .2869873 .36695863 .2519989 .36495973 .22299195 .36296083 .19799805 .36094667 .19599915 .36094667 .18798828 .36094667 .1789856 .35995484 .17098999 .35894776 .17098999 .34794618 .17098999 .33496095 .1789856 .33496095 .19599915 .33496095H.24299622C.32998658 .33496095 .36799623 .2646637 .36799623 .16937256 .36799623 .04145813 .2999878 .0055389406 .24899292 .0055389406 .22999573 .0055389406 .1329956 .010528564 .08799744 .0843811 .12399292 .07939148 .1519928 .10437012 .1519928 .13838196 .1519928 .17137146 .1269989 .19238281 .09799194 .19238281 .07299805 .19238281 .042999269 .17736817 .042999269 .13537598 .042999269 .046447755 .13598633-.022460938 .2519989-.022460938 .3769989-.022460938 .46998597 .06741333 .46998597 .16937256V.17008972Z"/>
<path id="font_1_57" d="M.48399354 .16503906V.19602967H.38198854V.649765C.38198854 .669754 .38198854 .6767578 .36299134 .6767578 .35099793 .6767578 .34999085 .67575076 .34098817 .6617584L.0289917 .19602967V.16503906H.3019867V.07901001C.3019867 .041992189 .29899598 .0309906 .22399903 .0309906H.20199585V0C.2649994 .0029907227 .33499146 .0029907227 .34199525 .0029907227 .34700013 .0029907227 .4189911 .0029907227 .48199464 0V.0309906H.45999146C.3849945 .0309906 .38198854 .041992189 .38198854 .07901001V.16503906H.48399354M.30799867 .19602967H.06098938L.30799867 .56581118V.19602967Z"/>
<path id="font_1_56" d="M.46199037 .19992066C.46199037 .3209076 .37599183 .41992188 .2669983 .41992188 .21899414 .41992188 .16999817 .4039154 .1349945 .36791993V.5647888C.16499329 .55578616 .19599915 .55078127 .22698975 .55078127 .34999085 .55078127 .42199708 .63983157 .42199708 .6529236 .42199708 .6619873 .41600038 .6660156 .41099549 .6660156 .41099549 .6660156 .40699769 .6660156 .397995 .6609802 .35099793 .6418457 .30499269 .63378909 .2630005 .63378909 .21998596 .63378909 .1749878 .6418457 .1289978 .6609802 .11898804 .6660156 .115997318 .6660156 .115997318 .6660156 .10398865 .6660156 .10398865 .6559448 .10398865 .63882449V.34490968C.10398865 .32699586 .10398865 .31599427 .117996219 .31599427 .12599182 .31562806 .1289978 .3196411 .1349945 .32867433 .16499329 .37083436 .21299744 .39491273 .2649994 .39491273 .37199403 .39491273 .37199403 .24035645 .37199403 .20422364 .37199403 .17321778 .37199403 .11122131 .34399415 .06636047 .31698609 .024475098 .2749939 .0055389406 .23599243 .0055389406 .1769867 .0055389406 .10998535 .042419435 .085998538 .11621094 .085998538 .116882327 .09298706 .11488342 .099990848 .11488342 .11999512 .11488342 .14898682 .12788391 .14898682 .1638794 .14898682 .19488526 .1269989 .21289063 .099990848 .21289063 .07899475 .21289063 .050994874 .20088196 .050994874 .16088867 .050994874 .069732669 .1269989-.022460938 .23799134-.022460938 .35899354-.02279663 .46199037 .07521057 .46199037 .19921875V.19992066Z"/>
<path id="font_1_101" d="M.46998597 .20277405C.46998597 .32977296 .37799073 .42578126 .2649994 .42578126 .20498657 .42578126 .1619873 .3907776 .13398743 .33078004 .13398743 .43276979 .14498902 .4897766 .17199707 .54177859 .19198609 .58277896 .24099732 .64100649 .31498719 .64100649 .33499146 .64100649 .3809967 .63697817 .4039917 .6007843 .36698915 .6007843 .35099793 .5817871 .35099793 .55477908 .35099793 .5287781 .36898805 .50878909 .39698792 .50878909 .4249878 .50878909 .44400025 .5267792 .44400025 .55677798 .44400025 .61299136 .4039917 .6660156 .31298829 .6660156 .18399048 .6660156 .042999269 .5389252 .042999269 .31576539 .042999269 .044555665 .16499329-.022460938 .25898744-.022460938 .36999513-.022460938 .46998597 .07052612 .46998597 .2025299V.20277405M.3789978 .20353699C.3789978 .15553284 .3789978 .106536868 .3600006 .0695343 .32899476 .012527466 .2849884 .0055389406 .2579956 .0055389406 .20098877 .0055389406 .16799927 .05253601 .1559906 .08152771 .13699341 .12652588 .13598633 .20953369 .13598633 .2255249 .13598633 .2927704 .16699219 .4007721 .2630005 .4007721 .2789917 .4007721 .32798768 .4007721 .3600006 .33877564 .3789978 .300766 .3789978 .25177003 .3789978 .20376587V.20353699Z"/>
<path id="font_2_1" d="M.37399293 .3996582H.46398927C.48399354 .3996582 .49398805 .3996582 .49398805 .41766358 .49398805 .43066407 .48399354 .43066407 .46499635 .43066407H.37998963C.3909912 .49082948 .40499879 .5730438 .41799928 .62705996 .4269867 .6660614 .45098878 .68006899 .47099305 .68006899 .47698976 .68006899 .5 .67807009 .5169983 .6660614 .49699403 .66204836 .46798707 .6440582 .46798707 .61105349 .46798707 .5860596 .4869995 .575058 .5059967 .575058 .5329895 .575058 .5609894 .59706118 .5609894 .63505557 .5609894 .68006899 .5169983 .7050781 .46998597 .7050781 .4249878 .7050781 .37998963 .6730652 .35899354 .63204959 .33699037 .5890503 .32998658 .5499878 .30899049 .43066407H.23699951C.21798706 .43066407 .20599365 .43066407 .20599365 .4126587 .20599365 .3996582 .21699524 .3996582 .23498535 .3996582H.30299378C.2749939 .25474549 .23999024 .054855348 .21798706-.049087526 .20599365-.10406494 .18998719-.18008423 .14199829-.18008423 .1269989-.18008423 .10699463-.17407227 .09700012-.16607666 .12199402-.1620636 .14698792-.1410675 .14698792-.111068729 .14698792-.08607483 .12799073-.07507324 .10899353-.07507324 .08198547-.07507324 .053985597-.097076419 .053985597-.1350708 .053985597-.18109131 .099990848-.20507813 .14199829-.20507813 .24398804-.20507813 .29100038-.039093019 .30699159 .04685974L.37399293 .3996582Z"/>
<path id="font_3_1" d="M.34098817-.23803711C.34098817-.23303223 .33799745-.23002625 .33198548-.22303772 .20298767-.105026248 .1639862 .07498169 .1639862 .24996948 .1639862 .40498353 .19400025 .59298709 .33499146 .72698977 .33898927 .73098757 .34098817 .73399356 .34098817 .7389984 .34098817 .74598696 .33599855 .75 .32899476 .75 .31698609 .75 .22698975 .6779785 .17298889 .568985 .125 .47297669 .100997928 .36997987 .100997928 .25097657 .100997928 .17897034 .10998535 .064971927 .16499329-.053024293 .22399903-.17602539 .31698609-.24902344 .32899476-.24902344 .33599855-.24902344 .34098817-.24502564 .34098817-.23803711Z"/>
<path id="font_2_2" d="M.49198915 .40434266C.45498658 .39733888 .44400025 .3653412 .44400025 .3503418 .44400025 .33132936 .45799256 .31433106 .48298646 .31433106 .5109863 .31433106 .5379944 .33833314 .5379944 .3733368 .5379944 .41937257 .48799134 .4423828 .44099427 .4423828 .3809967 .4423828 .34599305 .38934327 .33399964 .3683319 .31498719 .41737367 .2709961 .4423828 .22299195 .4423828 .115997318 .4423828 .057998659 .31433106 .057998659 .28833009 .057998659 .2793274 .06498718 .2763214 .07199097 .2763214 .08099365 .2763214 .083999637 .2813263 .085998538 .287323 .116989139 .38633729 .18299866 .41737367 .22099304 .41737367 .25 .41737367 .27598573 .3983307 .27598573 .35133363 .27598573 .31533814 .23298645 .15530396 .21998596 .107284549 .21199036 .076293949 .18199158 .014251709 .1269989 .014251709 .10699463 .014251709 .085998538 .021270752 .07598877 .027282715 .102996829 .032287599 .12298584 .055282594 .12298584 .08128357 .12298584 .106292728 .10398865 .11729431 .084991458 .11729431 .055999757 .11729431 .02999878 .092285159 .02999878 .058288576 .02999878 .009246826 .083999637-.0107421879 .12599182-.0107421879 .18399048-.0107421879 .21798706 .03729248 .23298645 .06428528 .2579956-.0017547608 .31698609-.0107421879 .34399415-.0107421879 .45199586-.0107421879 .5089874 .11929321 .5089874 .14329529 .5089874 .14830017 .5059967 .15530396 .49598695 .15530396 .4850006 .15530396 .48399354 .1512909 .47898866 .1362915 .45700074 .06428528 .39898683 .014251709 .34700013 .014251709 .31799317 .014251709 .29100038 .032287599 .29100038 .08029175 .29100038 .10229492 .30499269 .15730286 .31399537 .1953125 .31799317 .21331787 .34498597 .32133485 .34700013 .32833863 .35899354 .3643341 .3889923 .41737367 .43998719 .41737367 .45799256 .41737367 .47698976 .41436769 .49198915 .40434266Z"/>
<path id="font_3_2" d="M.2979889 .25097657C.2979889 .3329773 .28599549 .4429779 .23399353 .5539856 .1749878 .6769867 .08198547 .75 .069992069 .75 .05999756 .75 .057998659 .74198916 .057998659 .7389984 .057998659 .73399356 .05999756 .73098757 .066986087 .72398379 .125 .6719818 .23498535 .5359802 .23498535 .25097657 .23498535 .10797119 .20899964-.091033939 .06399536-.22602844 .06199646-.22903443 .057998659-.23303223 .057998659-.23803711 .057998659-.24102783 .05999756-.24902344 .069992069-.24902344 .08198547-.24902344 .17199707-.17703247 .22599793-.06802368 .27398683 .02796936 .2979889 .13098145 .2979889 .25097657Z"/>
<path id="font_3_8" d="M.70799258 .3310089C.7220001 .3310089 .7409973 .3310089 .7409973 .35202027 .7409973 .37402345 .71899417 .37402345 .70399478 .37402345H.09399414C.07899475 .37402345 .056991579 .37402345 .056991579 .35202027 .056991579 .3310089 .07699585 .3310089 .08999634 .3310089H.70799258M.70399478 .12695313C.71899417 .12695313 .7409973 .12695313 .7409973 .14894104 .7409973 .1699524 .7220001 .1699524 .70799258 .1699524H.08999634C.07699585 .1699524 .056991579 .1699524 .056991579 .14894104 .056991579 .12695313 .07899475 .12695313 .09399414 .12695313H.70399478Z"/>
<path id="font_3_5" d="M.46199037 .17704773H.43399049C.43199159 .16404724 .42399598 .10501099 .41099549 .08900452 .40499879 .07998657 .33599855 .07998657 .31599427 .07998657H.13798523L.23699951 .17404175C.40098573 .3161316 .46199037 .36915589 .46199037 .4711914 .46199037 .5860901 .36698915 .6660156 .24398804 .6660156 .1289978 .6660156 .050994874 .575119 .050994874 .4841919 .050994874 .43418885 .09399414 .42919923 .102996829 .42919923 .125 .42919923 .15499878 .44519044 .15499878 .48120118 .15499878 .51119998 .13398743 .5332031 .102996829 .5332031 .09799194 .5332031 .09498596 .5332031 .09098816 .53219607 .114990238 .6030731 .1789856 .63500979 .23298645 .63500979 .33499146 .63500979 .36999513 .5401764 .36999513 .4711914 .36999513 .36915589 .29299928 .28611756 .24499512 .23408509L.06199646 .035995485C.050994874 .024993897 .050994874 .022994996 .050994874 0H.43399049L.46199037 .17704773Z"/>
<path id="font_4_1" d="M.6749878 .22944641C.69299319 .22944641 .71199038 .22944641 .71199038 .25144959 .71199038 .27246095 .69200137 .27246095 .6749878 .27246095H.12298584C.10598755 .27246095 .085998538 .27246095 .085998538 .25144959 .085998538 .22944641 .10499573 .22944641 .12298584 .22944641H.6749878Z"/>
<path id="font_3_7" d="M.0289917 .19602967V.16503906H.3019867V.07901001C.3019867 .041992189 .29899598 .0309906 .22399903 .0309906H.20199585V0C.2649994 .0029907227 .33499146 .0029907227 .34199525 .0029907227 .34700013 .0029907227 .4189911 .0029907227 .48199464 0V.0309906H.45999146C.3849945 .0309906 .38198854 .041992189 .38198854 .07901001V.16503906H.48399354V.19602967H.38198854V.64974978C.38198854 .669754 .38198854 .6767578 .36299134 .6767578 .35099793 .6767578 .34999085 .67575076 .34098817 .66174319L.0289917 .19602967M.06098938 .19602967 .30799867 .56581118V.19602967H.06098938Z"/>
<path id="font_3_6" d="M.30499269 .35195924C.397995 .38697816 .44198609 .46006776 .44198609 .5290985 .44198609 .60606387 .35699464 .6660156 .25299073 .6660156 .14898682 .6660156 .070999149 .60705569 .070999149 .5310974 .070999149 .49809266 .09298706 .47909547 .12199402 .47909547 .15098572 .47909547 .17199707 .50009158 .17199707 .5290985 .17199707 .5640869 .147995 .57910159 .11399841 .57910159 .13999939 .6210327 .20098877 .64100649 .25 .64100649 .33299256 .64100649 .34899903 .5750885 .34899903 .52809146 .34899903 .49809266 .34298707 .45005799 .31799317 .41201783 .2869873 .36695863 .2519989 .36495973 .22299195 .36296083 .19799805 .36094667 .19599915 .36094667 .18798828 .36094667 .1789856 .35995484 .17098999 .35894776 .17098999 .34794618 .17098999 .33496095 .1789856 .33496095 .19599915 .33496095H.24299622C.32998658 .33496095 .36799623 .2646637 .36799623 .16937256 .36799623 .04145813 .2999878 .0055389406 .24899292 .0055389406 .22999573 .0055389406 .1329956 .010528564 .08799744 .0843811 .12399292 .07939148 .1519928 .10437012 .1519928 .13838196 .1519928 .17137146 .1269989 .19238281 .09799194 .19238281 .07299805 .19238281 .042999269 .17736817 .042999269 .13537598 .042999269 .046447755 .13598633-.022460938 .2519989-.022460938 .3769989-.022460938 .46998597 .06741333 .46998597 .16937256 .46998597 .25663758 .40098573 .33093263 .30499269 .35195924Z"/>
<path id="font_3_4" d="M.3039856 .6392822C.3039856 .6642761 .30299378 .666275 .27799989 .666275 .21598816 .60227969 .12399292 .60227969 .09298706 .60227969V.57128909C.11199951 .57128909 .17298889 .57128909 .22698975 .5972748V.08001709C.22698975 .042999269 .22399903 .0309906 .1309967 .0309906H.09899902V0C.1349945 .0029907227 .22399903 .0029907227 .2649994 .0029907227 .30599977 .0029907227 .3959961 .0029907227 .43199159 0V.0309906H.3999939C.30699159 .0309906 .3039856 .042999269 .3039856 .08001709V.6392822Z"/>
<path id="font_3_3" d="M.47299195 .31976319C.47299195 .38682557 .46998597 .47288514 .43499757 .5479431 .3909912 .64201357 .31498719 .6660156 .25698854 .6660156 .19699097 .6660156 .12098694 .64201357 .07699585 .5459442 .04499817 .47688294 .039993287 .39582826 .039993287 .31976319 .039993287 .25471498 .041992189 .15765381 .084991458 .07858276 .13198853-.0064697267 .20999146-.022460938 .2559967-.022460938 .32099916-.022460938 .394989 .0055389406 .43699647 .097595218 .46699525 .1646576 .47299195 .23971558 .47299195 .31976319M.25698854 .002532959C.22698975 .002532959 .15499878 .016540528 .13598633 .12962342 .12599182 .18867493 .12599182 .2747345 .12599182 .33177186 .12599182 .39982606 .12599182 .47888185 .13798523 .53393557 .1579895 .6230011 .22200012 .64100649 .2559967 .64100649 .2939911 .64100649 .35699464 .62098696 .37599183 .5279236 .3869934 .47288514 .3869934 .39482118 .3869934 .33177186 .3869934 .2697296 .3869934 .18566895 .3769989 .12661743 .35598756 .012542725 .28199769 .002532959 .25698854 .002532959Z"/>
</defs>
<path transform="matrix(1.00005,0,0,-1.00003,17.506173,94.54439)" d="M0-113.38724V85.04042H170.08086V-113.38724ZM170.08086 85.04042" fill="#ffffff"/>
<path transform="matrix(1.00005,0,0,-1.00003,17.506173,94.54439)" stroke-width=".3985" stroke-linecap="butt" stroke-miterlimit="10" stroke-linejoin="miter" fill="none" stroke="#000000" d="M0-113.38724V85.04042H170.08086V-113.38724ZM170.08086 85.04042"/>
<path transform="matrix(1.00005,0,0,-1.00003,17.506173,94.54439)" d="M28.3468 28.3468 56.69362 0H28.3468Z" fill="#ccffcc"/>
<path transform="matrix(1.00005,0,0,-1.00003,17.506173,94.54439)" d="M56.69362 0H141.73404V-85.04042Z" fill="#ffcccc"/>
<path transform="matrix(1.00005,0,0,-1.00003,17.506173,94.54439)" stroke-width=".3985" stroke-linecap="butt" stroke-miterlimit="10" stroke-linejoin="miter" fill="none" stroke="#000000" d="M0-113.38724H170.08086M0-85.04042H170.08086M0-56.69362H170.08086M0-28.3468H170.08086M0 0H170.08086M0 28.3468H170.08086M0 56.69362H170.08086M0 85.03047H170.08086M0-113.38724V85.04042M28.3468-113.38724V85.04042M56.69362-113.38724V85.04042M85.04042-113.38724V85.04042M113.38724-113.38724V85.04042M141.73404-113.38724V85.04042M170.07089-113.38724V85.04042M170.08086 85.04042"/>
<path transform="matrix(1.00005,0,0,-1.00003,17.506173,94.54439)" stroke-width=".3985" stroke-linecap="butt" stroke-miterlimit="10" stroke-linejoin="miter" fill="none" stroke="#000000" d="M28.3468 1.99255V-1.99255"/>
<path transform="matrix(1.00005,0,0,-1.00003,17.506173,94.54439)" d="M22.72185-16.79716H33.97176V-4.1843597H22.72185Z" fill="#ffffff"/>
<use data-text="1" xlink:href="#font_1_82" transform="matrix(8.966848,0,0,-8.966669,43.549474,108.02179)"/>
<path transform="matrix(1.00005,0,0,-1.00003,17.506173,94.54439)" stroke-width=".3985" stroke-linecap="butt" stroke-miterlimit="10" stroke-linejoin="miter" fill="none" stroke="#000000" d="M56.69362 1.99255V-1.99255"/>
<path transform="matrix(1.00005,0,0,-1.00003,17.506173,94.54439)" d="M51.06865-16.79716H62.318559V-4.1843597H51.06865Z" fill="#ffffff"/>
<use data-text="2" xlink:href="#font_1_107" transform="matrix(8.966848,0,0,-8.966669,71.89789,108.02179)"/>
<path transform="matrix(1.00005,0,0,-1.00003,17.506173,94.54439)" stroke-width=".3985" stroke-linecap="butt" stroke-miterlimit="10" stroke-linejoin="miter" fill="none" stroke="#000000" d="M85.04042-1.99255V1.99255"/>
<path transform="matrix(1.00005,0,0,-1.00003,17.506173,94.54439)" d="M79.41547 4.18436H90.665378V16.99442H79.41547Z" fill="#ffffff"/>
<use data-text="3" xlink:href="#font_1_106" transform="matrix(8.966848,0,0,-8.966669,100.24631,86.842159)"/>
<path transform="matrix(1.00005,0,0,-1.00003,17.506173,94.54439)" stroke-width=".3985" stroke-linecap="butt" stroke-miterlimit="10" stroke-linejoin="miter" fill="none" stroke="#000000" d="M113.38724-1.99255V1.99255"/>
<path transform="matrix(1.00005,0,0,-1.00003,17.506173,94.54439)" d="M107.76227 4.18436H119.01218V16.89579H107.76227Z" fill="#ffffff"/>
<use data-text="4" xlink:href="#font_1_57" transform="matrix(8.966848,0,0,-8.966669,128.59473,87.03916)"/>
<path transform="matrix(1.00005,0,0,-1.00003,17.506173,94.54439)" stroke-width=".3985" stroke-linecap="butt" stroke-miterlimit="10" stroke-linejoin="miter" fill="none" stroke="#000000" d="M141.73404-1.99255V1.99255"/>
<path transform="matrix(1.00005,0,0,-1.00003,17.506173,94.54439)" d="M136.10909 4.18436H147.359V16.99442H136.10909Z" fill="#ffffff"/>
<use data-text="5" xlink:href="#font_1_56" transform="matrix(8.966848,0,0,-8.966669,156.94312,86.842159)"/>
<path transform="matrix(1.00005,0,0,-1.00003,17.506173,94.54439)" stroke-width=".3985" stroke-linecap="butt" stroke-miterlimit="10" stroke-linejoin="miter" fill="none" stroke="#000000" d="M170.08086-1.99255V1.99255"/>
<path transform="matrix(1.00005,0,0,-1.00003,17.506173,94.54439)" d="M164.45589 4.18436H175.7058V16.99442H164.45589Z" fill="#ffffff"/>
<use data-text="6" xlink:href="#font_1_101" transform="matrix(8.966848,0,0,-8.966669,185.29056,86.842159)"/>
<path transform="matrix(1.00005,0,0,-1.00003,17.506173,94.54439)" stroke-width=".79701" stroke-linecap="butt" stroke-miterlimit="10" stroke-linejoin="miter" fill="none" stroke="#000000" d="M0 0H177.87761"/>
<path transform="matrix(1.00005,0,0,-1.00003,195.39267,94.54439)" stroke-width=".6376" stroke-linecap="round" stroke-linejoin="round" fill="none" stroke="#000000" d="M-1.55415 2.0722C-1.42464 1.29512 0 .1295 .38852 0 0-.1295-1.42464-1.29512-1.55415-2.0722"/>
<path transform="matrix(1.00005,0,0,-1.00003,17.506173,94.54439)" stroke-width=".79701" stroke-linecap="butt" stroke-miterlimit="10" stroke-linejoin="miter" fill="none" stroke="#000000" d="M0-121.89136V92.83719"/>
<path transform="matrix(0,-1.00003,-1.00005,-0,17.506173,1.7044067)" stroke-width=".6376" stroke-linecap="round" stroke-linejoin="round" fill="none" stroke="#000000" d="M-1.55415 2.0722C-1.42464 1.29512 0 .1295 .38852 0 0-.1295-1.42464-1.29512-1.55415-2.0722"/>
<path transform="matrix(1.00005,0,0,-1.00003,17.506173,94.54439)" stroke-width=".79701" stroke-linecap="butt" stroke-miterlimit="10" stroke-linejoin="miter" fill="none" stroke="#000000" d="M0 56.69362 170.08086-113.38724"/>
<path transform="matrix(1.00005,0,0,-1.00003,17.506173,94.54439)" stroke-width=".3985" stroke-linecap="butt" stroke-miterlimit="10" stroke-linejoin="miter" fill="none" stroke="#000000" d="M56.69362 42.5202"/>
<path transform="matrix(1.00005,0,0,-1.00003,17.506173,94.54439)" d="M30.0866 37.04068H83.30064V47.99973H30.0866Z" fill="#ffffff"/>
<use data-text="f" xlink:href="#font_2_1" transform="matrix(8.966848,0,0,-8.966669,48.590726,54.26418)"/>
<use data-text="(" xlink:href="#font_3_1" transform="matrix(8.966848,0,0,-8.966669,54.03899,54.26418)"/>
<use data-text="x" xlink:href="#font_2_2" transform="matrix(8.966848,0,0,-8.966669,57.623174,54.26418)"/>
<use data-text=")" xlink:href="#font_3_2" transform="matrix(8.966848,0,0,-8.966669,62.84643,54.26418)"/>
<use data-text="=" xlink:href="#font_3_8" transform="matrix(8.966848,0,0,-8.966669,68.97975,54.26418)"/>
<use data-text="2" xlink:href="#font_3_5" transform="matrix(8.966848,0,0,-8.966669,78.70877,54.26418)"/>
<use data-text="&#x2212;" xlink:href="#font_4_1" transform="matrix(8.966848,0,0,-8.966669,85.37454,54.26418)"/>
<use data-text="x" xlink:href="#font_2_2" transform="matrix(8.966848,0,0,-8.966669,94.59,54.26418)"/>
<path transform="matrix(1.00005,0,0,-1.00003,17.506173,94.54439)" stroke-width=".3985" stroke-linecap="butt" stroke-miterlimit="10" stroke-linejoin="miter" fill="none" stroke="#000000" d="M1.99255-113.38724H-1.99255"/>
<use data-text="&#x2212;" xlink:href="#font_4_1" transform="matrix(8.966848,0,0,-8.966669,.21730805,210.40888)"/>
<use data-text="4" xlink:href="#font_3_7" transform="matrix(8.966848,0,0,-8.966669,7.3846666,210.40888)"/>
<path transform="matrix(1.00005,0,0,-1.00003,17.506173,94.54439)" stroke-width=".3985" stroke-linecap="butt" stroke-miterlimit="10" stroke-linejoin="miter" fill="none" stroke="#000000" d="M1.99255-85.04042H-1.99255"/>
<use data-text="&#x2212;" xlink:href="#font_4_1" transform="matrix(8.966848,0,0,-8.966669,.21730805,182.06201)"/>
<use data-text="3" xlink:href="#font_3_6" transform="matrix(8.966848,0,0,-8.966669,7.3846666,182.06201)"/>
<path transform="matrix(1.00005,0,0,-1.00003,17.506173,94.54439)" stroke-width=".3985" stroke-linecap="butt" stroke-miterlimit="10" stroke-linejoin="miter" fill="none" stroke="#000000" d="M1.99255-56.69362H-1.99255"/>
<use data-text="&#x2212;" xlink:href="#font_4_1" transform="matrix(8.966848,0,0,-8.966669,.21730805,153.71417)"/>
<use data-text="2" xlink:href="#font_3_5" transform="matrix(8.966848,0,0,-8.966669,7.3846666,153.71417)"/>
<path transform="matrix(1.00005,0,0,-1.00003,17.506173,94.54439)" stroke-width=".3985" stroke-linecap="butt" stroke-miterlimit="10" stroke-linejoin="miter" fill="none" stroke="#000000" d="M1.99255-28.3468H-1.99255"/>
<use data-text="&#x2212;" xlink:href="#font_4_1" transform="matrix(8.966848,0,0,-8.966669,.21730805,125.36631)"/>
<use data-text="1" xlink:href="#font_3_4" transform="matrix(8.966848,0,0,-8.966669,7.3846666,125.36631)"/>
<path transform="matrix(1.00005,0,0,-1.00003,17.506173,94.54439)" stroke-width=".3985" stroke-linecap="butt" stroke-miterlimit="10" stroke-linejoin="miter" fill="none" stroke="#000000" d="M1.99255 0H-1.99255"/>
<use data-text="0" xlink:href="#font_3_3" transform="matrix(8.966848,0,0,-8.966669,7.385666,97.43347)"/>
<path transform="matrix(1.00005,0,0,-1.00003,17.506173,94.54439)" stroke-width=".3985" stroke-linecap="butt" stroke-miterlimit="10" stroke-linejoin="miter" fill="none" stroke="#000000" d="M1.99255 28.3468H-1.99255"/>
<use data-text="1" xlink:href="#font_3_4" transform="matrix(8.966848,0,0,-8.966669,7.385666,69.085628)"/>
<path transform="matrix(1.00005,0,0,-1.00003,17.506173,94.54439)" stroke-width=".3985" stroke-linecap="butt" stroke-miterlimit="10" stroke-linejoin="miter" fill="none" stroke="#000000" d="M1.99255 56.69362H-1.99255"/>
<use data-text="2" xlink:href="#font_3_5" transform="matrix(8.966848,0,0,-8.966669,7.385666,40.73877)"/>
<path transform="matrix(1.00005,0,0,-1.00003,17.506173,94.54439)" stroke-width=".3985" stroke-linecap="butt" stroke-miterlimit="10" stroke-linejoin="miter" fill="none" stroke="#000000" d="M1.99255 85.04042H-1.99255"/>
<use data-text="3" xlink:href="#font_3_6" transform="matrix(8.966848,0,0,-8.966669,7.385666,12.390923)"/>
</svg>
