<svg xmlns="http://www.w3.org/2000/svg" xmlns:xlink="http://www.w3.org/1999/xlink" xmlns:inkscape="http://www.inkscape.org/namespaces/inkscape" version="1.1" width="202" height="87" viewBox="0 0 202 87">
<defs>
<clipPath id="clip_1">
<path transform="matrix(1.00006,0,0,-1.00006,101.11492,71.819087)" d="M-99.21382-99.21382V99.21382H99.21382V-99.21382ZM99.21382 99.21382"/>
</clipPath>
<path id="font_2_2" d="M.48599244 .38136292C.48999024 .39537049 .48999024 .39736939 .48999024 .40437318 .48999024 .42237855 .47599793 .43138124 .46099855 .43138124 .45098878 .43138124 .43499757 .42536927 .42599488 .41036988 .42399598 .405365 .41600038 .37435914 .4119873 .35635377 .40499879 .33035279 .397995 .30334474 .3919983 .27633668L.34700013 .09628296C.34298707 .08126831 .2999878 .011245728 .23399353 .011245728 .18299866 .011245728 .17199707 .055267335 .17199707 .0922699 .17199707 .1382904 .18899536 .20030213 .22299195 .28833009 .23899842 .3293457 .24299622 .3403473 .24299622 .36035157 .24299622 .405365 .21099854 .4423828 .16099549 .4423828 .06599426 .4423828 .0289917 .29733277 .0289917 .28833009 .0289917 .27833558 .038986207 .27833558 .040985109 .27833558 .050994874 .27833558 .051986696 .28033448 .056991579 .29634095 .083999637 .3903656 .12399292 .42037965 .1579895 .42037965 .1659851 .42037965 .18299866 .42037965 .18299866 .3883667 .18299866 .36335755 .17298889 .3373413 .1659851 .31834413 .12599182 .21231079 .10798645 .1552887 .10798645 .10827637 .10798645 .019256592 .17098999-.0107421879 .22999573-.0107421879 .2689972-.0107421879 .30299378 .0062561037 .33099366 .03425598 .31799317-.017745972 .30599977-.06674194 .2659912-.11973572 .23999024-.15385437 .20199585-.18309021 .1559906-.18309021 .14199829-.18309021 .09700012-.18005371 .07998657-.14074707 .09599304-.14074707 .10899353-.14074707 .12298584-.1287384 .1329956-.11973572 .14299011-.10673523 .14299011-.08773804 .14299011-.056747438 .115997318-.052734376 .10598755-.052734376 .08299255-.052734376 .049987794-.068740848 .049987794-.11773682 .049987794-.16796875 .09399414-.20507813 .1559906-.20507813 .25898744-.20507813 .3619995-.11373901 .3899994-.00074768069L.48599244 .38136292Z"/>
<path id="font_3_3" d="M.68699648 .32714845C.70199587 .32714845 .72099307 .32714845 .72099307 .34713746 .72099307 .36714173 .70199587 .36714173 .6879883 .36714173H.08898926C.07499695 .36714173 .055999757 .36714173 .055999757 .34713746 .055999757 .32714845 .07499695 .32714845 .08999634 .32714845H.68699648M.6879883 .13284302C.70199587 .13284302 .72099307 .13284302 .72099307 .15284729 .72099307 .17285156 .70199587 .17285156 .68699648 .17285156H.08999634C.07499695 .17285156 .055999757 .17285156 .055999757 .15284729 .055999757 .13284302 .07499695 .13284302 .08898926 .13284302H.6879883Z"/>
<path id="font_3_2" d="M.2939911 .64004519C.2939911 .66400149 .2939911 .6660156 .2709961 .6660156 .20899964 .60227969 .12098694 .60227969 .08898926 .60227969V.57128909C.10899353 .57128909 .16799927 .57128909 .21998596 .5972748V.07902527C.21998596 .042999269 .21699524 .0309906 .1269989 .0309906H.09498596V0C.12998963 .0029907227 .21699524 .0029907227 .25698854 .0029907227 .29699708 .0029907227 .38398744 .0029907227 .4189911 0V.0309906H.3869934C.29699708 .0309906 .2939911 .041992189 .2939911 .07902527V.64004519Z"/>
<path id="font_3_1" d="M.40899659 .23046875H.6879883C.70199587 .23046875 .72099307 .23046875 .72099307 .25045777 .72099307 .27046205 .70199587 .27046205 .6879883 .27046205H.40899659V.5500183C.40899659 .56399539 .40899659 .5830078 .3889923 .5830078 .36898805 .5830078 .36898805 .56399539 .36898805 .5500183V.27046205H.08898926C.07499695 .27046205 .055999757 .27046205 .055999757 .25045777 .055999757 .23046875 .07499695 .23046875 .08898926 .23046875H.36898805V-.05000305C.36898805-.06401062 .36898805-.08300781 .3889923-.08300781 .40899659-.08300781 .40899659-.06401062 .40899659-.05000305V.23046875Z"/>
<path id="font_2_1" d="M.18699646 .23144531C.21598816 .23144531 .2899933 .23344422 .33999635 .2544403 .4099884 .28442384 .4149933 .34339906 .4149933 .35740663 .4149933 .40138246 .3769989 .4423828 .30799867 .4423828 .19699097 .4423828 .04598999 .34539796 .04598999 .17037964 .04598999 .06829834 .10499573-.0107421879 .20298767-.0107421879 .34599305-.0107421879 .42999269 .095321658 .42999269 .10733032 .42999269 .113342288 .42399598 .12034607 .41799928 .12034607 .41299439 .12034607 .41099549 .11834717 .40499879 .1103363 .32598878 .011245728 .21699524 .011245728 .20498657 .011245728 .1269989 .011245728 .117996219 .095321658 .117996219 .12734986 .117996219 .13935852 .11898804 .17037964 .13398743 .23144531H.18699646M.13999939 .25343324C.1789856 .40538026 .28199769 .42037965 .30799867 .42037965 .35499574 .42037965 .38198854 .39138795 .38198854 .35740663 .38198854 .25343324 .22200012 .25343324 .18099976 .25343324H.13999939Z"/>
<path id="font_4_1" d="M.74398806 .2263794C.7599945 .2263794 .7839966 .2263794 .7839966 .25038148 .7839966 .27539063 .7609863 .27539063 .74398806 .27539063H.147995C.13198853 .27539063 .10798645 .27539063 .10798645 .25138856 .10798645 .2263794 .1309967 .2263794 .147995 .2263794H.74398806Z"/>
<path id="font_5_1" d="M.24899292 .10601807C.23899842 .072021488 .20599365 .018234253 .15499878 .018234253 .1519928 .018234253 .12199402 .018234253 .100997928 .03215027 .14199829 .04508972 .14498902 .08100891 .14498902 .087020877 .14498902 .10900879 .12799073 .12402344 .10499573 .12402344 .07699585 .12402344 .04798889 .10002136 .04798889 .0630188 .04798889 .01322937 .10398865-.009765625 .15299988-.009765625 .19898987-.009765625 .23999024 .019226075 .2649994 .061019899 .2889862 .008224487 .34399415-.009765625 .38398744-.009765625 .49899293-.009765625 .55999758 .11502075 .55999758 .14305115 .55999758 .15608216 .5469971 .15608216 .5439911 .15608216 .5299988 .15608216 .5289917 .15107727 .5249939 .13905335 .5039978 .07002258 .44400025 .018234253 .3880005 .018234253 .34799195 .018234253 .32699586 .04508972 .32699586 .08302307 .32699586 .10900879 .35099793 .20018006 .3789978 .31140138 .39898683 .38841249 .44400025 .4133911 .47698976 .4133911 .47898866 .4133911 .5099945 .4133911 .5309906 .39941407 .49899293 .39041139 .4869995 .3624115 .4869995 .34440614 .4869995 .32240296 .5039978 .30740357 .5269928 .30740357 .5499878 .30740357 .58299258 .32640077 .58299258 .3684082 .58299258 .4243927 .5189972 .44140626 .47898866 .44140626 .42900086 .44140626 .3889923 .4084015 .36698915 .3704071 .34899903 .4113922 .30299378 .44140626 .24699402 .44140626 .1349945 .44140626 .070999149 .31840516 .070999149 .2883606 .070999149 .27534486 .084991458 .27534486 .08799744 .27534486 .100997928 .27534486 .101989749 .27934266 .10699463 .29237367 .13198853 .3704071 .19499207 .4133911 .24398804 .4133911 .2769928 .4133911 .3039856 .395401 .3039856 .3474121 .3039856 .32740785 .2919922 .27734376 .2829895 .24327088L.24899292 .10601807Z"/>
<path id="font_6_1" d="M.5019989 .38536073C.5029907 .3903656 .5049896 .39637757 .5049896 .40237428 .5049896 .41537477 .49598695 .43138124 .47399903 .43138124 .46099855 .43138124 .44299317 .42337037 .43499757 .40437318 .43399049 .40037538 .42399598 .35935975 .41799928 .33735658L.36799623 .13728333C.3600006 .10827637 .3600006 .106277469 .35798646 .09727478 .35699464 .09327698 .31498719 .014251709 .24299622 .014251709 .18099976 .014251709 .18099976 .07727051 .18099976 .09628296 .18099976 .14129639 .19400025 .19030762 .23699951 .30233766 .24499512 .3253479 .25099183 .33935548 .25099183 .35835267 .25099183 .40737916 .21398926 .4423828 .16499329 .4423828 .068984989 .4423828 .0289917 .30033876 .0289917 .28833009 .0289917 .2793274 .035995485 .27633668 .042999269 .27633668 .053985597 .27633668 .054992677 .28233338 .05899048 .29533387 .07998657 .3693695 .11999512 .41737367 .1619873 .41737367 .18598938 .41737367 .18598938 .39837647 .18598938 .3843689 .18598938 .36735536 .18199158 .34934999 .17298889 .3253479 .12599182 .2013092 .11299133 .15930176 .11299133 .11128235 .11299133 .00024414063 .20298767-.0107421879 .23999024-.0107421879 .2889862-.0107421879 .32398988 .01524353 .34199525 .0332489 .32899476-.017745972 .31799317-.0627594 .2789917-.11276245 .24899292-.15286255 .20899964-.18008423 .16499329-.18008423 .13699341-.18008423 .10398865-.16999817 .08999634-.14176941 .14299011-.14176941 .1499939-.09776306 .1499939-.087768558 .1499939-.06576538 .13398743-.051757814 .11199951-.051757814 .08799744-.051757814 .055999757-.07077026 .055999757-.116760257 .055999757-.16899109 .101989749-.20507813 .16499329-.20507813 .2669983-.20507813 .37599183-.117767337 .40499879-.00074768069L.5019989 .38536073Z"/>
<path id="font_7_2" d="M.70799258 .3310089C.7220001 .3310089 .7409973 .3310089 .7409973 .35202027 .7409973 .37402345 .71899417 .37402345 .70399478 .37402345H.09399414C.07899475 .37402345 .056991579 .37402345 .056991579 .35202027 .056991579 .3310089 .07699585 .3310089 .08999634 .3310089H.70799258M.70399478 .12695313C.71899417 .12695313 .7409973 .12695313 .7409973 .14894104 .7409973 .1699524 .7220001 .1699524 .70799258 .1699524H.08999634C.07699585 .1699524 .056991579 .1699524 .056991579 .14894104 .056991579 .12695313 .07899475 .12695313 .09399414 .12695313H.70399478Z"/>
<path id="font_7_1" d="M.3039856 .6392822C.3039856 .6642761 .30299378 .666275 .27799989 .666275 .21598816 .60227969 .12399292 .60227969 .09298706 .60227969V.57128909C.11199951 .57128909 .17298889 .57128909 .22698975 .5972748V.08001709C.22698975 .042999269 .22399903 .0309906 .1309967 .0309906H.09899902V0C.1349945 .0029907227 .22399903 .0029907227 .2649994 .0029907227 .30599977 .0029907227 .3959961 .0029907227 .43199159 0V.0309906H.3999939C.30699159 .0309906 .3039856 .042999269 .3039856 .08001709V.6392822Z"/>
<path id="font_8_1" d="M.44400025 .24998474C.44400025 .35688783 .35499574 .44381715 .25 .44381715 .14199829 .44381715 .054992677 .35488893 .054992677 .24998474 .054992677 .14407349 .14199829 .056137086 .25 .056137086 .35499574 .056137086 .44400025 .14308167 .44400025 .24998474Z"/>
</defs>
<g clip-path="url(#clip_1)">
<path transform="matrix(1.00006,0,0,-1.00006,101.11492,71.819087)" stroke-width=".79701" stroke-linecap="butt" stroke-miterlimit="10" stroke-linejoin="miter" fill="none" stroke="#000000" d="M-99.21382 0H98.50645"/>
<path transform="matrix(1.00006,0,0,-1.00006,199.62728,71.819087)" stroke-width=".6376" stroke-linecap="round" stroke-linejoin="round" fill="none" stroke="#000000" d="M-1.55415 2.0722C-1.42464 1.29512 0 .1295 .38852 0 0-.1295-1.42464-1.29512-1.55415-2.0722"/>
<path transform="matrix(1.00006,0,0,-1.00006,101.11492,71.819087)" stroke-width=".79701" stroke-linecap="butt" stroke-miterlimit="10" stroke-linejoin="miter" fill="none" stroke="#000000" d="M0-14.17339V70.15965"/>
<path transform="matrix(0,-1.00006,-1.00006,-0,101.11492,1.6552277)" stroke-width=".6376" stroke-linecap="round" stroke-linejoin="round" fill="none" stroke="#000000" d="M-1.55415 2.0722C-1.42464 1.29512 0 .1295 .38852 0 0-.1295-1.42464-1.29512-1.55415-2.0722"/>
<path transform="matrix(1.00006,0,0,-1.00006,101.11492,71.819087)" stroke-width=".3985" stroke-linecap="butt" stroke-miterlimit="10" stroke-linejoin="miter" fill="none" stroke="#0000ff" d="M-99.21382 .83089C-99.21382 .83089-97.76593 .8728-97.20987 .88972-96.6538 .90663-95.762 .93475-95.20592 .95287-94.64986 .971-93.75804 1.00102-93.20197 1.02036-92.64589 1.03967-91.7541 1.07156-91.19803 1.09215-90.64195 1.11273-89.75015 1.14676-89.19408 1.1687-88.638 1.19066-87.7462 1.22699-87.19014 1.25044-86.63406 1.27391-85.74225 1.3128-85.18617 1.33783-84.63011 1.36285-83.73831 1.40419-83.18224 1.43082-82.62616 1.45746-81.73438 1.50143-81.17828 1.52988-80.6222 1.55832-79.73041 1.6056-79.17433 1.63585-78.61826 1.66608-77.72646 1.71571-77.1704 1.74786-76.61432 1.78003-75.7225 1.8334-75.16643 1.86768-74.61037 1.90195-73.71857 1.9585-73.16249 1.99486-72.60641 2.03122-71.71461 2.09116-71.15854 2.1298-70.60246 2.16844-69.71068 2.23236-69.1546 2.2734-68.59853 2.31445-67.70673 2.38214-67.15065 2.42564-66.59456 2.46916-65.70276 2.54085-65.14668 2.58699-64.5906 2.63313-63.69882 2.70938-63.14275 2.75829-62.58667 2.80719-61.69487 2.88785-61.1388 2.93951-60.58272 2.99117-59.69092 3.07608-59.13486 3.13069-58.57878 3.18529-57.68697 3.27533-57.13089 3.33311-56.57483 3.3909-55.68303 3.48631-55.12695 3.54723-54.57088 3.60814-53.67908 3.708-53.123 3.77216-52.56693 3.8363-51.67514 3.94203-51.11906 4.0096-50.56299 4.07718-49.67119 4.1882-49.11511 4.25919-48.55902 4.33018-47.66722 4.44676-47.11115 4.5213-46.55508 4.59584-45.66328 4.71822-45.10721 4.7964-44.55113 4.87459-43.65933 5.00305-43.10326 5.0849-42.54718 5.16675-41.6554 5.30075-41.09932 5.38638-40.54324 5.47202-39.65143 5.61278-39.09537 5.70213-38.53929 5.79149-37.64749 5.93736-37.09142 6.03044-36.53535 6.1235-35.64355 6.27614-35.08746 6.373-34.53137 6.46985-33.63959 6.62784-33.08351 6.72855-32.52744 6.82924-31.63565 6.99432-31.07957 7.0988-30.5235 7.20328-29.63168 7.3736-29.07562 7.4816-28.51955 7.58961-27.62775 7.76582-27.07167 7.87737-26.51561 7.98892-25.6238 8.1707-25.06772 8.28568-24.51164 8.40065-23.61986 8.58781-23.06378 8.7061-22.5077 8.82439-21.6159 9.01682-21.05983 9.13821-20.50375 9.25963-19.61195 9.45673-19.05588 9.58113-18.49982 9.70552-17.60802 9.90782-17.05193 10.03487-16.49583 10.16191-15.60405 10.36731-15.04797 10.49683-14.4919 10.62633-13.60011 10.83632-13.04404 10.96828-12.48796 11.10025-11.59615 11.31421-11.04008 11.44797-10.48401 11.58173-9.59221 11.79683-9.03613 11.9324-8.48007 12.06798-7.58826 12.28836-7.03218 12.42506-6.4761 12.56178-5.58432 12.78018-5.02824 12.91774-4.47217 13.05528-3.58037 13.27765-3.02429 13.41646-2.46822 13.55527-1.57642 13.77933-1.02036 13.9182-.46428 14.05707 .4275 14.27888 .98358 14.41734 1.53964 14.55579 2.43146 14.77766 2.98753 14.91605 3.54361 15.05443 4.4354 15.27675 4.99147 15.41476 5.54755 15.55278 6.43935 15.77402 6.99542 15.9109 7.5515 16.04778 8.4433 16.26607 8.99936 16.4014 9.55544 16.53671 10.44725 16.75258 11.00333 16.88628 11.55939 17.01997 12.45119 17.23259 13.00726 17.3651 13.56334 17.49759 14.45512 17.71152 15.01122 17.84131 15.5673 17.9711 16.45909 18.17398 17.01517 18.30066 17.57124 18.42734 18.46304 18.63013 19.0191 18.7544 19.57518 18.87868 20.467 19.07494 21.02307 19.19646 21.57915 19.31798 22.47093 19.51154 23.02701 19.6303 23.58308 19.74905 24.47488 19.93724 25.03096 20.05244 25.58704 20.16766 26.47884 20.34944 27.0349 20.46075 27.59097 20.57208 28.48279 20.74667 29.03886 20.85481 29.59492 20.96294 30.48672 21.1356 31.0428 21.2402 31.59888 21.34479 32.49066 21.50845 33.04675 21.60872 33.60284 21.709 34.49463 21.8658 35.0507 21.96297 35.60678 22.06012 36.49858 22.2154 37.05464 22.309 37.61072 22.40262 38.50253 22.5485 39.05861 22.63773 39.61467 22.72696 40.50647 22.86642 41.06255 22.95218 41.61862 23.03793 42.51042 23.17361 43.0665 23.25583 43.62257 23.33804 44.51436 23.4665 45.07043 23.54475 45.62651 23.623 46.51833 23.7455 47.07439 23.81985 47.63046 23.89421 48.52226 24.00908 49.07834 24.08067 49.6344 24.15225 50.5262 24.26823 51.08229 24.33586 51.63838 24.4035 52.53017 24.50404 53.08624 24.56813 53.64232 24.63223 54.5341 24.73686 55.09018 24.79782 55.64626 24.85878 56.53807 24.95018 57.09413 25.0076 57.6502 25.06502 58.542 25.15672 59.09808 25.21176 59.65414 25.26678 60.54596 25.35274 61.10204 25.40424 61.65811 25.45572 62.5499 25.53366 63.10597 25.58287 63.66205 25.63208 64.55383 25.71289 65.10992 25.75893 65.66602 25.80496 66.55782 25.87143 67.11389 25.91464 67.66995 25.95784 68.56175 26.02866 69.11783 26.07036 69.6739 26.11205 70.5657 26.17667 71.12178 26.21524 71.67786 26.25383 72.56964 26.31229 73.12572 26.34846 73.6818 26.38466 74.57361 26.44186 75.12967 26.47606 75.68575 26.51027 76.57755 26.56238 77.13362 26.59502 77.68968 26.62766 78.5815 26.68108 79.13757 26.71138 79.69365 26.74167 80.58543 26.78519 81.14151 26.81346 81.69759 26.84172 82.58937 26.88797 83.14546 26.9151 83.70155 26.94221 84.59335 26.98418 85.14941 27.00896 85.70549 27.03374 86.59729 27.07016 87.15337 27.09373 87.70943 27.11731 88.60124 27.15692 89.15732 27.17894 89.7134 27.20096 90.60518 27.23201 91.16125 27.25247 91.71733 27.27293 92.60913 27.30717 93.1652 27.32643 93.72128 27.34569 94.61308 27.37361 95.16914 27.39131 95.72522 27.40901 96.61702 27.43712 97.17311 27.45404 97.72919 27.47096 99.17706 27.51329 99.17706 27.51329"/>
<path transform="matrix(1.00006,0,0,-1.00006,101.11492,71.819087)" stroke-width=".3985" stroke-linecap="butt" stroke-miterlimit="10" stroke-linejoin="miter" fill="none" stroke="#000000" d="M-36.85092 45.35506"/>
<use data-text="y" xlink:href="#font_2_2" transform="matrix(9.963197,0,0,-9.963197,37.28209,29.20953)"/>
<use data-text="=" xlink:href="#font_3_3" transform="matrix(9.963197,0,0,-9.963197,45.291566,29.20953)"/>
<use data-text="1" xlink:href="#font_3_2" transform="matrix(9.963197,0,0,-9.963197,71.0341,22.469128)"/>
<path transform="matrix(1.00006,0,0,-1.00006,-144.83783,-55.620557)" stroke-width=".3985" stroke-linecap="butt" stroke-miterlimit="10" stroke-linejoin="miter" fill="none" stroke="#000000" d="M201.83-82.334H234.869"/>
<use data-text="1" xlink:href="#font_3_2" transform="matrix(9.963197,0,0,-9.963197,57.004274,36.043935)"/>
<use data-text="+" xlink:href="#font_3_1" transform="matrix(9.963197,0,0,-9.963197,64.19769,36.043935)"/>
<use data-text="e" xlink:href="#font_2_1" transform="matrix(9.963197,0,0,-9.963197,74.163318,36.043935)"/>
<use data-text="&#x2212;" xlink:href="#font_4_1" transform="matrix(6.9742186,0,0,-6.9742186,78.8026,33.16477)"/>
<use data-text="x" xlink:href="#font_5_1" transform="matrix(6.9742186,0,0,-6.9742186,85.02896,33.16477)"/>
<path transform="matrix(1.00006,0,0,-1.00006,101.11492,71.819087)" stroke-width=".3985" stroke-linecap="butt" stroke-dasharray="2.98883,2.98883" stroke-miterlimit="10" stroke-linejoin="miter" fill="none" stroke="#ff0000" d="M-99.21382 28.3468H99.21382"/>
<use data-text="y" xlink:href="#font_6_1" transform="matrix(8.966938,0,0,-8.966938,175.05835,38.20707)" fill="#ff0000"/>
<use data-text="=" xlink:href="#font_7_2" transform="matrix(8.966938,0,0,-8.966938,182.47879,38.20707)" fill="#ff0000"/>
<use data-text="1" xlink:href="#font_7_1" transform="matrix(8.966938,0,0,-8.966938,192.19895,38.20707)" fill="#ff0000"/>
<path transform="matrix(1.00006,0,0,-1.00006,101.11492,71.819087)" stroke-width=".3985" stroke-linecap="butt" stroke-miterlimit="10" stroke-linejoin="miter" fill="none" stroke="#0000ff" d="M0 14.17339"/>
<use data-text="&#x2022;" xlink:href="#font_8_1" transform="matrix(9.963197,0,0,-9.963197,98.62377,59.859369)" fill="#0000ff"/>
</g>
</svg>
