<svg xmlns="http://www.w3.org/2000/svg" xmlns:xlink="http://www.w3.org/1999/xlink" xmlns:inkscape="http://www.inkscape.org/namespaces/inkscape" version="1.1" width="202" height="201" viewBox="0 0 202 201">
<defs>
<clipPath id="clip_1">
<path transform="matrix(1.00006,0,0,-1.00006,101.11492,100.819087)" d="M-99.21382-99.21382V99.21382H99.21382V-99.21382ZM99.21382 99.21382"/>
</clipPath>
<path id="font_2_2" d="M.48599244 .38136292C.48999024 .39537049 .48999024 .39736939 .48999024 .40437318 .48999024 .42237855 .47599793 .43138124 .46099855 .43138124 .45098878 .43138124 .43499757 .42536927 .42599488 .41036988 .42399598 .405365 .41600038 .37435914 .4119873 .35635377 .40499879 .33035279 .397995 .30334474 .3919983 .27633668L.34700013 .09628296C.34298707 .08126831 .2999878 .011245728 .23399353 .011245728 .18299866 .011245728 .17199707 .055267335 .17199707 .0922699 .17199707 .1382904 .18899536 .20030213 .22299195 .28833009 .23899842 .3293457 .24299622 .3403473 .24299622 .36035157 .24299622 .405365 .21099854 .4423828 .16099549 .4423828 .06599426 .4423828 .0289917 .29733277 .0289917 .28833009 .0289917 .27833558 .038986207 .27833558 .040985109 .27833558 .050994874 .27833558 .051986696 .28033448 .056991579 .29634095 .083999637 .3903656 .12399292 .42037965 .1579895 .42037965 .1659851 .42037965 .18299866 .42037965 .18299866 .3883667 .18299866 .36335755 .17298889 .3373413 .1659851 .31834413 .12599182 .21231079 .10798645 .1552887 .10798645 .10827637 .10798645 .019256592 .17098999-.0107421879 .22999573-.0107421879 .2689972-.0107421879 .30299378 .0062561037 .33099366 .03425598 .31799317-.017745972 .30599977-.06674194 .2659912-.11973572 .23999024-.15385437 .20199585-.18309021 .1559906-.18309021 .14199829-.18309021 .09700012-.18005371 .07998657-.14074707 .09599304-.14074707 .10899353-.14074707 .12298584-.1287384 .1329956-.11973572 .14299011-.10673523 .14299011-.08773804 .14299011-.056747438 .115997318-.052734376 .10598755-.052734376 .08299255-.052734376 .049987794-.068740848 .049987794-.11773682 .049987794-.16796875 .09399414-.20507813 .1559906-.20507813 .25898744-.20507813 .3619995-.11373901 .3899994-.00074768069L.48599244 .38136292Z"/>
<path id="font_3_1" d="M.68699648 .32714845C.70199587 .32714845 .72099307 .32714845 .72099307 .34713746 .72099307 .36714173 .70199587 .36714173 .6879883 .36714173H.08898926C.07499695 .36714173 .055999757 .36714173 .055999757 .34713746 .055999757 .32714845 .07499695 .32714845 .08999634 .32714845H.68699648M.6879883 .13284302C.70199587 .13284302 .72099307 .13284302 .72099307 .15284729 .72099307 .17285156 .70199587 .17285156 .68699648 .17285156H.08999634C.07499695 .17285156 .055999757 .17285156 .055999757 .15284729 .055999757 .13284302 .07499695 .13284302 .08898926 .13284302H.6879883Z"/>
<path id="font_3_2" d="M.1769867 .69433596 .032989503 .68333438V.6523285C.102996829 .6523285 .11099243 .6453247 .11099243 .5962982V.07601929C.11099243 .0309906 .099990848 .0309906 .032989503 .0309906V0C.06599426 .0009918213 .11898804 .0029907227 .14399719 .0029907227 .16899109 .0029907227 .21798706 .0009918213 .25498963 0V.0309906C.18798828 .0309906 .1769867 .0309906 .1769867 .07601929V.69433596Z"/>
<path id="font_3_3" d="M.10998535 .34429933V.076034549C.10998535 .0309906 .09899902 .0309906 .03199768 .0309906V0C.066986087 .0009918213 .117996219 .0029907227 .14498902 .0029907227 .17098999 .0029907227 .22299195 .0009918213 .25698854 0V.0309906C.18998719 .0309906 .1789856 .0309906 .1789856 .076034549V.2602234C.1789856 .36431886 .25 .42037965 .31399537 .42037965 .3769989 .42037965 .3880005 .36631776 .3880005 .30926515V.076034549C.3880005 .0309906 .3769989 .0309906 .30999757 .0309906V0C.34498597 .0009918213 .3959961 .0029907227 .4229889 .0029907227 .44898988 .0029907227 .5009918 .0009918213 .5349884 0V.0309906C.48298646 .0309906 .45799256 .0309906 .45700074 .061019899V.25221253C.45700074 .3383026 .45700074 .36932374 .42599488 .405365 .4119873 .42237855 .3789978 .4423828 .32099916 .4423828 .24798584 .4423828 .20098877 .39935304 .17298889 .33729554V.4423828L.03199768 .43138124V.40037538C.101989749 .4003601 .10998535 .39335633 .10998535 .34429933Z"/>
<path id="font_2_1" d="M.33399964 .30233766C.33999635 .32835389 .36299134 .42037965 .43299867 .42037965 .43798829 .42037965 .46199037 .42037965 .48298646 .40734864 .45498658 .402359 .43499757 .37734986 .43499757 .35334779 .43499757 .33735658 .44599916 .31835938 .47299195 .31835938 .49499513 .31835938 .5269928 .3363495 .5269928 .37635804 .5269928 .42837525 .46798707 .4423828 .43399049 .4423828 .37599183 .4423828 .34098817 .38935853 .32899476 .36634828 .3039856 .43237306 .25 .4423828 .22099304 .4423828 .116989139 .4423828 .05999756 .3133545 .05999756 .28834535 .05999756 .27833558 .069992069 .27833558 .07199097 .27833558 .07998657 .27833558 .08299255 .28033448 .084991458 .28933717 .11898804 .39535523 .18499756 .42037965 .21899414 .42037965 .23799134 .42037965 .272995 .4113617 .272995 .35334779 .272995 .32235719 .2559967 .25532533 .21899414 .11528015 .20298767 .053268434 .16799927 .011245728 .12399292 .011245728 .117996219 .011245728 .09498596 .011245728 .07398987 .024276734 .09899902 .029266358 .12098694 .05027771 .12098694 .07827759 .12098694 .105270389 .09899902 .11328125 .083999637 .11328125 .053985597 .11328125 .0289917 .08728027 .0289917 .055267335 .0289917 .009246826 .07899475-.0107421879 .12298584-.0107421879 .18899536-.0107421879 .22499085 .059280397 .22799683 .0652771 .23999024 .028274537 .27598573-.0107421879 .33599855-.0107421879 .43899537-.0107421879 .49598695 .118270877 .49598695 .14328003 .49598695 .1532898 .4869995 .1532898 .48399354 .1532898 .47499085 .1532898 .47299195 .14929199 .47099305 .14228821 .43798829 .03527832 .36999513 .011245728 .33799745 .011245728 .29899598 .011245728 .2829895 .043273927 .2829895 .07727051 .2829895 .09927368 .2889862 .121276859 .2999878 .16529846L.33399964 .30233766Z"/>
</defs>
<g clip-path="url(#clip_1)">
<path transform="matrix(1.00006,0,0,-1.00006,101.11492,100.819087)" stroke-width=".79701" stroke-linecap="butt" stroke-miterlimit="10" stroke-linejoin="miter" fill="none" stroke="#000000" d="M-99.21382 0H98.50645"/>
<path transform="matrix(1.00006,0,0,-1.00006,199.62728,100.819087)" stroke-width=".6376" stroke-linecap="round" stroke-linejoin="round" fill="none" stroke="#000000" d="M-1.55415 2.0722C-1.42464 1.29512 0 .1295 .38852 0 0-.1295-1.42464-1.29512-1.55415-2.0722"/>
<path transform="matrix(1.00006,0,0,-1.00006,101.11492,100.819087)" stroke-width=".79701" stroke-linecap="butt" stroke-miterlimit="10" stroke-linejoin="miter" fill="none" stroke="#000000" d="M0-99.21382V98.50645"/>
<path transform="matrix(0,-1.00006,-1.00006,-0,101.11492,2.3067322)" stroke-width=".6376" stroke-linecap="round" stroke-linejoin="round" fill="none" stroke="#000000" d="M-1.55415 2.0722C-1.42464 1.29512 0 .1295 .38852 0 0-.1295-1.42464-1.29512-1.55415-2.0722"/>
<path transform="matrix(1.00006,0,0,-1.00006,101.11492,100.819087)" stroke-width=".79701" stroke-linecap="butt" stroke-miterlimit="10" stroke-linejoin="miter" fill="none" stroke="#0000ff" d="M.56705-110.6739C.56705-110.6739 1.28676-88.04274 1.56319-82.13246 1.8396-76.2222 2.28288-71.41046 2.55931-68.0767 2.83572-64.74294 3.27902-60.38579 3.55545-58.10498 3.83186-55.82416 4.27516-53.29088 4.55159-51.6381 4.828-49.98532 5.27129-47.59245 5.54771-46.19287 5.82413-44.7933 6.26744-42.75145 6.54385-41.55087 6.82027-40.3503 7.26358-38.58455 7.54-37.53996 7.8164-36.49536 8.2597-34.94429 8.53612-34.02213 8.81253-33.09996 9.25584-31.7184 9.53226-30.89357 9.80867-30.06874 10.25198-28.82364 10.5284-28.07732 10.80481-27.331 11.24811-26.19617 11.52452-25.51454 11.80093-24.83292 12.24425-23.79134 12.52066-23.16455 12.79707-22.53778 13.24039-21.5781 13.5168-20.9971 13.79321-20.4161 14.23651-19.5184 14.51292-18.97716 14.78934-18.4359 15.23265-17.6019 15.50906-17.09604 15.78548-16.5902 16.22879-15.80672 16.5052-15.3313 16.78162-14.85587 17.22491-14.11761 17.50133-13.6695 17.77776-13.22136 18.22105-12.5254 18.49747-12.10153 18.7739-11.67766 19.2172-11.01666 19.4936-10.61447 19.77003-10.21227 20.21332-9.58524 20.48973-9.20267 20.76616-8.82008 21.20946-8.22198 21.48587-7.85704 21.7623-7.49211 22.2056-6.92131 22.48201-6.5724 22.75844-6.22348 23.20172-5.67628 23.47813-5.34225 23.75456-5.00822 24.19786-4.48518 24.47427-4.16489 24.7507-3.8446 25.194-3.34161 25.47041-3.0338 25.74684-2.726 26.19012-2.24226 26.46655-1.94641 26.74297-1.65054 27.18626-1.18694 27.46269-.9014 27.7391-.61586 28.1824-.16422 28.45883 .11157 28.73524 .38739 29.17853 .8205 29.45496 1.08652 29.73137 1.35255 30.17467 1.77164 30.4511 2.02902 30.72751 2.2864 31.1708 2.69238 31.44724 2.94168 31.72365 3.19098 32.16693 3.58412 32.44336 3.82579 32.71977 4.06744 33.16307 4.44905 33.4395 4.6835 33.71591 4.91797 34.15923 5.28809 34.43564 5.51572 34.71205 5.74333 35.15535 6.10292 35.43176 6.32413 35.70818 6.54532 36.15149 6.89497 36.4279 7.11005 36.70432 7.32512 37.14763 7.66502 37.42404 7.87434 37.70045 8.08366 38.14375 8.41489 38.42017 8.61874 38.69658 8.8226 39.1399 9.14497 39.4163 9.34367 39.69272 9.54237 40.13603 9.85696 40.41245 10.05087 40.68886 10.24477 41.13216 10.55185 41.40857 10.7412 41.68498 10.93053 42.1283 11.23068 42.40471 11.41553 42.68112 11.60036 43.12444 11.89296 43.40085 12.07343 43.67726 12.25388 44.12056 12.53973 44.39697 12.71617 44.67339 12.89261 45.1167 13.17255 45.39311 13.34508 45.66953 13.51761 46.11284 13.79079 46.38925 13.95972 46.66568 14.12863 47.10896 14.39732 47.38538 14.56267 47.6618 14.728 48.1051 14.98938 48.38152 15.15137 48.65794 15.31334 49.10124 15.57149 49.37766 15.73009 49.65408 15.88869 50.09737 16.13913 50.37378 16.29456 50.6502 16.44998 51.0935 16.69788 51.36992 16.85037 51.64635 17.00285 52.08965 17.24434 52.36606 17.39365 52.64249 17.54294 53.08577 17.7796 53.36218 17.92651 53.63861 18.07343 54.08191 18.30841 54.35832 18.45248 54.63475 18.59657 55.07805 18.82376 55.35448 18.96504 55.63089 19.10631 56.07417 19.33092 56.3506 19.47069 56.62701 19.61046 57.07031 19.83513 57.34674 19.97243 57.62315 20.10973 58.06645 20.32602 58.34288 20.46034 58.6193 20.59465 59.06258 20.80836 59.339 20.94044 59.61542 21.07253 60.05872 21.28247 60.33514 21.41234 60.61156 21.54222 61.05486 21.7487 61.33128 21.87646 61.6077 22.00421 62.05098 22.20744 62.32741 22.33322 62.60382 22.459 63.04713 22.65932 63.32355 22.78307 63.59996 22.9068 64.04327 23.1033 64.31969 23.22511 64.5961 23.34694 65.0394 23.54103 65.31581 23.66112 65.59222 23.78119 66.03554 23.9724 66.31195 24.09062 66.58836 24.20885 67.03168 24.39679 67.30809 24.51321 67.5845 24.62962 68.0278 24.815 68.30421 24.92975 68.58063 25.0445 69.02394 25.22722 69.30035 25.34021 69.57677 25.45322 70.02008 25.63283 70.2965 25.7442 70.5729 25.85559 71.0162 26.03308 71.29262 26.14302 71.56903 26.25296 72.01234 26.42819 72.28876 26.53662 72.56517 26.64507 73.00848 26.81769 73.2849 26.9246 73.56131 27.03154 74.00462 27.20197 74.28104 27.30742 74.55745 27.41286 75.00075 27.58046 75.27716 27.68457 75.55359 27.7887 75.99689 27.95525 76.2733 28.05786 76.54973 28.16048 76.99303 28.32288 77.26944 28.42422 77.54587 28.52557 77.98915 28.68832 78.26556 28.78842 78.54199 28.8885 78.98529 29.04698 79.2617 29.14569 79.53813 29.24442 79.98143 29.40237 80.25784 29.49995 80.53427 29.59753 80.97755 29.75262 81.25397 29.849 81.5304 29.94539 81.9737 30.09937 82.2501 30.1946 82.52654 30.28984 82.96983 30.44128 83.24626 30.53543 83.52267 30.62958 83.96596 30.78012 84.24239 30.87325 84.5188 30.96637 84.9621 31.11479 85.23853 31.20674 85.51494 31.29868 85.95824 31.44511 86.23466 31.5359 86.51108 31.6267 86.95436 31.7714 87.23079 31.86116 87.5072 31.95093 87.9505 32.09416 88.22693 32.18298 88.50334 32.27179 88.94664 32.4134 89.22307 32.50133 89.49948 32.58923 89.94276 32.72987 90.2192 32.81664 90.4956 32.90341 90.9389 33.0409 91.21533 33.12677 91.49174 33.21265 91.93506 33.35075 92.21147 33.43561 92.48788 33.52046 92.93118 33.6545 93.2076 33.73839 93.48401 33.82227 93.92732 33.95706 94.20374 34.0403 94.48015 34.12352 94.92346 34.25592 95.19987 34.33832 95.47629 34.4207 95.91959 34.55244 96.196 34.63417 96.47241 34.7159 96.91573 34.84691 97.19214 34.92743 97.46855 35.00797 97.91187 35.13483 98.18828 35.21463 98.46469 35.29443 99.1844 35.5027 99.1844 35.5027"/>
<use data-text="y" xlink:href="#font_2_2" transform="matrix(9.963197,0,0,-9.963197,120.87611,57.952516)"/>
<use data-text="=" xlink:href="#font_3_1" transform="matrix(9.963197,0,0,-9.963197,128.88559,57.952516)"/>
<use data-text="l" xlink:href="#font_3_2" transform="matrix(9.963197,0,0,-9.963197,139.38678,57.952516)"/>
<use data-text="n" xlink:href="#font_3_3" transform="matrix(9.963197,0,0,-9.963197,142.1466,57.952516)"/>
<use data-text="x" xlink:href="#font_2_1" transform="matrix(9.963197,0,0,-9.963197,149.36582,57.952516)"/>
</g>
</svg>
