<svg xmlns="http://www.w3.org/2000/svg" xmlns:xlink="http://www.w3.org/1999/xlink" xmlns:inkscape="http://www.inkscape.org/namespaces/inkscape" version="1.1" width="270" height="165" viewBox="0 0 270 165">
<defs>
<path id="font_1_3" d="M.20599365 .3996582H.2999878C.31999208 .3996582 .32998658 .3996582 .32998658 .41966249 .32998658 .43066407 .31999208 .43066407 .3019867 .43066407H.21398926C.25 .5724945 .25498963 .59246829 .25498963 .59846499 .25498963 .61546328 .24299622 .62545779 .22599793 .62545779 .22299195 .62545779 .19499207 .62446597 .18598938 .58947756L.14698792 .43066407H.052993776C.032989503 .43066407 .022994996 .43066407 .022994996 .4116516 .022994996 .3996582 .0309906 .3996582 .050994874 .3996582H.13899231C.066986087 .11608887 .06298828 .099121097 .06298828 .08114624 .06298828 .02722168 .100997928-.0107421879 .15499878-.0107421879 .25698854-.0107421879 .31399537 .13505554 .31399537 .14305115 .31399537 .1530304 .30599977 .1530304 .3019867 .1530304 .29299928 .1530304 .2919922 .15003968 .2869873 .13905335 .24398804 .035217287 .19099427 .011245728 .15699768 .011245728 .13598633 .011245728 .12599182 .024230957 .12599182 .057174684 .12599182 .08114624 .12799073 .088134769 .13198853 .10510254L.20599365 .3996582Z"/>
<path id="font_1_1" d="M.36698915 .3996582H.45298768C.47299195 .3996582 .48298646 .3996582 .48298646 .41966249 .48298646 .43066407 .47299195 .43066407 .45599366 .43066407H.37298585L.3939972 .5449524C.397995 .5660095 .4119873 .6370239 .41799928 .6490326 .4269867 .66804507 .44400025 .68307498 .46499635 .68307498 .46899415 .68307498 .49499513 .68307498 .5139923 .66503909 .46998597 .661026 .45999146 .6260376 .45999146 .6110382 .45999146 .58802798 .47799684 .57603457 .49699403 .57603457 .522995 .57603457 .5519867 .5980377 .5519867 .6360321 .5519867 .6820679 .5059967 .7050781 .46499635 .7050781 .43099977 .7050781 .36799623 .68707278 .33799745 .58802798 .33198548 .56700137 .32899476 .5569763 .30499269 .43066407H.23599243C.21699524 .43066407 .20599365 .43066407 .20599365 .4116516 .20599365 .3996582 .21499634 .3996582 .23399353 .3996582H.2999878L.22499085 .0048828127C.20698548-.09207153 .18998719-.18309021 .13798523-.18309021 .13398743-.18309021 .10899353-.18309021 .08999634-.16506958 .13598633-.1620636 .14498902-.12606812 .14498902-.111068729 .14498902-.08807373 .1269989-.07606506 .10798645-.07606506 .08198547-.07606506 .052993776-.09806824 .052993776-.13606262 .052993776-.18109131 .09700012-.20507813 .13798523-.20507813 .19299317-.20507813 .23298645-.14607239 .25099183-.108062747 .2829895-.04508972 .30599977 .07583618 .30699159 .082839969L.36698915 .3996582Z"/>
<path id="font_2_1" d="M.33099366-.2400055C.33099366-.23701477 .33099366-.23500061 .31399537-.21800232 .18899536-.0920105 .15699768 .09700012 .15699768 .25 .15699768 .42399598 .19499207 .59799197 .31799317 .72299197 .33099366 .73498538 .33099366 .7369995 .33099366 .73999026 .33099366 .746994 .32699586 .75 .32099916 .75 .31098939 .75 .22099304 .6819916 .1619873 .5549927 .11099243 .44499208 .09899902 .33399964 .09899902 .25 .09899902 .17199707 .10998535 .050994874 .16499329-.06201172 .22499085-.18501282 .31098939-.25 .32099916-.25 .32699586-.25 .33099366-.24700928 .33099366-.2400055Z"/>
<path id="font_2_2" d="M.2889862 .25C.2889862 .32798768 .27799989 .44898988 .22299195 .56199648 .16299439 .68499758 .07699585 .75 .066986087 .75 .06098938 .75 .056991579 .74598696 .056991579 .73999026 .056991579 .7369995 .056991579 .73498538 .07598877 .71699526 .17399597 .6179962 .23098755 .45899964 .23098755 .25 .23098755 .07899475 .19400025-.09700012 .069992069-.2230072 .056991579-.23500061 .056991579-.23701477 .056991579-.2400055 .056991579-.2460022 .06098938-.25 .066986087-.25 .07699585-.25 .16699219-.18200684 .22599793-.055007936 .2769928 .054992677 .2889862 .16600037 .2889862 .25Z"/>
<clipPath id="clip_3">
<path transform="matrix(1.00005,0,0,-1.00005,74.99249,151.24082)" d="M-187.0891 0V150.23816H300.47633V0ZM300.47633 150.23816"/>
</clipPath>
<path id="font_4_37" d="M.15899658-.2170105V.71699526C.15899658 .73098757 .15899658 .75 .13899231 .75 .11898804 .75 .11898804 .73098757 .11898804 .71699526V-.2170105C.11898804-.23100281 .11898804-.25 .13899231-.25 .15899658-.25 .15899658-.23100281 .15899658-.2170105Z"/>
<path id="font_1_2" d="M.2869873 .68333438C.2869873 .6843262 .2869873 .69433596 .27398683 .69433596 .25099183 .69433596 .17799378 .6863251 .1519928 .6843262 .14399719 .68333438 .1329956 .6823273 .1329956 .6643219 .1329956 .6523285 .14199829 .6523285 .15699768 .6523285 .20498657 .6523285 .20698548 .6453247 .20698548 .6353302L.20399475 .6153412 .05899048 .039260866C.054992677 .025253296 .054992677 .023254395 .054992677 .01725769 .054992677-.0057525637 .07499695-.0107421879 .083999637-.0107421879 .099990848-.0107421879 .115997318 .0012512207 .12098694 .015258789L.13999939 .091278079 .1619873 .18130493C.16799927 .2033081 .17399597 .22531128 .1789856 .24832154 .18099976 .25431825 .18899536 .28733827 .18998719 .29333497 .19299317 .30233766 .22399903 .35835267 .2579956 .38536073 .27999879 .4013672 .31098939 .42037965 .35398866 .42037965 .39698792 .42037965 .4079895 .3863678 .4079895 .35035707 .4079895 .29634095 .36999513 .18730164 .34599305 .12628174 .33799745 .103271488 .33299256 .091278079 .33299256 .0712738 .33299256 .024261475 .36799623-.0107421879 .4149933-.0107421879 .5089874-.0107421879 .54599 .13528443 .54599 .14329529 .54599 .1532898 .5369873 .1532898 .5339966 .1532898 .5239868 .1532898 .5239868 .15029907 .5189972 .13528443 .5039978 .08227539 .47200013 .011245728 .4169922 .011245728 .3999939 .011245728 .3929901 .021255494 .3929901 .044265748 .3929901 .0692749 .4019928 .09327698 .41099549 .11528015 .4269867 .15829468 .47200013 .2773285 .47200013 .3353424 .47200013 .4003601 .43199159 .4423828 .35699464 .4423828 .2939911 .4423828 .24598694 .41137696 .20899964 .36535646L.2869873 .68333438Z"/>
<path id="font_1_4" d="M.33399964 .30233766C.33999635 .32835389 .36299134 .42037965 .43299867 .42037965 .43798829 .42037965 .46199037 .42037965 .48298646 .40734864 .45498658 .402359 .43499757 .37734986 .43499757 .35334779 .43499757 .33735658 .44599916 .31835938 .47299195 .31835938 .49499513 .31835938 .5269928 .3363495 .5269928 .37635804 .5269928 .42837525 .46798707 .4423828 .43399049 .4423828 .37599183 .4423828 .34098817 .38935853 .32899476 .36634828 .3039856 .43237306 .25 .4423828 .22099304 .4423828 .116989139 .4423828 .05999756 .3133545 .05999756 .28834535 .05999756 .27833558 .069992069 .27833558 .07199097 .27833558 .07998657 .27833558 .08299255 .28033448 .084991458 .28933717 .11898804 .39535523 .18499756 .42037965 .21899414 .42037965 .23799134 .42037965 .272995 .4113617 .272995 .35334779 .272995 .32235719 .2559967 .25532533 .21899414 .11528015 .20298767 .053268434 .16799927 .011245728 .12399292 .011245728 .117996219 .011245728 .09498596 .011245728 .07398987 .024276734 .09899902 .029266358 .12098694 .05027771 .12098694 .07827759 .12098694 .105270389 .09899902 .11328125 .083999637 .11328125 .053985597 .11328125 .0289917 .08728027 .0289917 .055267335 .0289917 .009246826 .07899475-.0107421879 .12298584-.0107421879 .18899536-.0107421879 .22499085 .059280397 .22799683 .0652771 .23999024 .028274537 .27598573-.0107421879 .33599855-.0107421879 .43899537-.0107421879 .49598695 .118270877 .49598695 .14328003 .49598695 .1532898 .4869995 .1532898 .48399354 .1532898 .47499085 .1532898 .47299195 .14929199 .47099305 .14228821 .43798829 .03527832 .36999513 .011245728 .33799745 .011245728 .29899598 .011245728 .2829895 .043273927 .2829895 .07727051 .2829895 .09927368 .2889862 .121276859 .2999878 .16529846L.33399964 .30233766Z"/>
<path id="font_5_2" d="M.49198915 .40434266C.45498658 .39733888 .44400025 .3653412 .44400025 .3503418 .44400025 .33132936 .45799256 .31433106 .48298646 .31433106 .5109863 .31433106 .5379944 .33833314 .5379944 .3733368 .5379944 .41937257 .48799134 .4423828 .44099427 .4423828 .3809967 .4423828 .34599305 .38934327 .33399964 .3683319 .31498719 .41737367 .2709961 .4423828 .22299195 .4423828 .115997318 .4423828 .057998659 .31433106 .057998659 .28833009 .057998659 .2793274 .06498718 .2763214 .07199097 .2763214 .08099365 .2763214 .083999637 .2813263 .085998538 .287323 .116989139 .38633729 .18299866 .41737367 .22099304 .41737367 .25 .41737367 .27598573 .3983307 .27598573 .35133363 .27598573 .31533814 .23298645 .15530396 .21998596 .107284549 .21199036 .076293949 .18199158 .014251709 .1269989 .014251709 .10699463 .014251709 .085998538 .021270752 .07598877 .027282715 .102996829 .032287599 .12298584 .055282594 .12298584 .08128357 .12298584 .106292728 .10398865 .11729431 .084991458 .11729431 .055999757 .11729431 .02999878 .092285159 .02999878 .058288576 .02999878 .009246826 .083999637-.0107421879 .12599182-.0107421879 .18399048-.0107421879 .21798706 .03729248 .23298645 .06428528 .2579956-.0017547608 .31698609-.0107421879 .34399415-.0107421879 .45199586-.0107421879 .5089874 .11929321 .5089874 .14329529 .5089874 .14830017 .5059967 .15530396 .49598695 .15530396 .4850006 .15530396 .48399354 .1512909 .47898866 .1362915 .45700074 .06428528 .39898683 .014251709 .34700013 .014251709 .31799317 .014251709 .29100038 .032287599 .29100038 .08029175 .29100038 .10229492 .30499269 .15730286 .31399537 .1953125 .31799317 .21331787 .34498597 .32133485 .34700013 .32833863 .35899354 .3643341 .3889923 .41737367 .43998719 .41737367 .45799256 .41737367 .47698976 .41436769 .49198915 .40434266Z"/>
<path id="font_6_1" d="M.70599368 .22944641C.7200012 .22944641 .7409973 .22944641 .7409973 .25045777 .7409973 .27246095 .7220001 .27246095 .70599368 .27246095H.42099V.5578003C.42099 .573761 .42099 .59277346 .39898683 .59277346 .37799073 .59277346 .37799073 .57177737 .37799073 .5578003V.27246095H.09199524C.07798767 .27246095 .056991579 .27246095 .056991579 .25144959 .056991579 .22944641 .07598877 .22944641 .09199524 .22944641H.37799073V-.056793214C.37799073-.07279968 .37799073-.091796878 .3999939-.091796878 .42099-.091796878 .42099-.07080078 .42099-.056793214V.22944641H.70599368Z"/>
<path id="font_5_1" d="M.2869873 .6603241C.29100038 .67433169 .29100038 .67633059 .29100038 .68032839 .29100038 .68933108 .2849884 .69433596 .27598573 .69433596 .2619934 .69433596 .17399597 .6863251 .1539917 .6843262 .14399719 .68333438 .1329956 .6823273 .1329956 .665329 .1329956 .6523285 .14399719 .6523285 .1599884 .6523285 .20698548 .6523285 .20698548 .6453247 .20698548 .6363373 .20698548 .6323395 .20698548 .6303406 .20199585 .6123352L.05899048 .037261964C.054992677 .023254395 .054992677 .021255494 .054992677 .018249512 .054992677 .002243042 .067993167-.0107421879 .085998538-.0107421879 .102996829-.0107421879 .116989139-.00074768069 .12399292 .013244629 .12599182 .018249512 .1349945 .054260255 .13999939 .07527161L.16299439 .16429138C.1659851 .17930603 .17599488 .21731568 .1789856 .23231507L.19099427 .27633668C.19599915 .29934693 .25299073 .41737367 .36099244 .41737367 .4149933 .41737367 .4149933 .36436463 .4149933 .34735108 .4149933 .28633119 .36799623 .16429138 .35699464 .13328552 .34498597 .10227966 .34098817 .0922699 .34098817 .073272708 .34098817 .019256592 .38198854-.0107421879 .4269867-.0107421879 .522995-.0107421879 .56199648 .1322937 .56199648 .14329529 .56199648 .14828491 .5589905 .1552887 .548996 .1552887 .5379944 .1552887 .5369873 .15029907 .5329895 .13728333 .5079956 .052261354 .46598817 .014251709 .42999269 .014251709 .4229889 .014251709 .40499879 .014251709 .40499879 .04626465 .40499879 .0712738 .4149933 .09727478 .4229889 .119277957 .44299317 .17030335 .48298646 .27633668 .48298646 .33235169 .48298646 .42137147 .4169922 .4423828 .3639984 .4423828 .3039856 .4423828 .25299073 .41438294 .21299744 .36535646L.2869873 .6603241Z"/>
<clipPath id="clip_7">
<path transform="matrix(1.00005,0,0,-1.00005,74.99249,151.24082)" d="M113.38724 0V73.70099H136.06433V0ZM136.06433 73.70099"/>
</clipPath>
</defs>
<path transform="matrix(1.00005,0,0,-1.00005,74.99249,151.24082)" d="M113.38724 73.70099C113.38724 73.70099 114.06976 74.24825 114.33188 74.45966 114.594 74.67108 115.01442 75.01166 115.27654 75.22482 115.53865 75.43799 115.9591 75.7811 116.22122 75.99605 116.48332 76.21101 116.90375 76.55748 117.16586 76.77419 117.42798 76.99089 117.8484 77.3395 118.11052 77.55794 118.37263 77.77637 118.79309 78.12843 119.05519 78.34862 119.3173 78.5688 119.73773 78.92307 119.99985 79.14493 120.26196 79.36679 120.68242 79.72404 120.94453 79.94771 121.20665 80.17139 121.62708 80.53152 121.88918 80.75699 122.15129 80.98245 122.57172 81.34555 122.83383 81.57275 123.09595 81.79997 123.5164 82.16563 123.77852 82.39458 124.04062 82.62352 124.46106 82.9922 124.72316 83.22289 124.98528 83.45358 125.40573 83.82489 125.66785 84.05725 125.92996 84.28961 126.35039 84.6635 126.6125 84.89767 126.8746 85.13185 127.29503 85.50911 127.55714 85.74503 127.81926 85.98093 128.23972 86.36034 128.50183 86.59799 128.76395 86.83563 129.18437 87.21843 129.44649 87.45787 129.70859 87.69731 130.12905 88.08267 130.39116 88.3238 130.65328 88.56494 131.0737 88.95294 131.33582 89.1958 131.59793 89.43867 132.01836 89.82962 132.28046 90.0743 132.54257 90.31897 132.96303 90.71286 133.22515 90.95926 133.48726 91.20567 133.90769 91.6022 134.1698 91.85028 134.43192 92.09837 134.85237 92.49748 135.11447 92.74738 135.37659 92.99725 136.05913 93.65138 136.05913 93.65138L136.06433 0H113.38724Z" fill="#ccccff"/>
<path transform="matrix(1.00005,0,0,-1.00005,74.99249,151.24082)" stroke-width=".79701" stroke-linecap="butt" stroke-miterlimit="10" stroke-linejoin="miter" fill="none" stroke="#000000" d="M-73.70186 0H186.38173"/>
<path transform="matrix(1.00005,0,0,-1.00005,261.38356,151.24082)" stroke-width=".6376" stroke-linecap="round" stroke-linejoin="round" fill="none" stroke="#000000" d="M-1.55415 2.0722C-1.42464 1.29512 0 .1295 .38852 0 0-.1295-1.42464-1.29512-1.55415-2.0722"/>
<use data-text="t" xlink:href="#font_1_3" transform="matrix(9.963098,0,0,-9.963098,265.81004,154.30496)"/>
<path transform="matrix(1.00005,0,0,-1.00005,74.99249,151.24082)" stroke-width=".79701" stroke-linecap="butt" stroke-miterlimit="10" stroke-linejoin="miter" fill="none" stroke="#000000" d="M0-8.50412V149.5308"/>
<path transform="matrix(0,-1.00005,-1.00005,-0,74.99249,1.7025452)" stroke-width=".6376" stroke-linecap="round" stroke-linejoin="round" fill="none" stroke="#000000" d="M-1.55415 2.0722C-1.42464 1.29512 0 .1295 .38852 0 0-.1295-1.42464-1.29512-1.55415-2.0722"/>
<path transform="matrix(1.00005,0,0,-1.00005,74.99249,151.24082)" stroke-width=".3985" stroke-linecap="butt" stroke-miterlimit="10" stroke-linejoin="miter" fill="none" stroke="#000000" d="M-39.68533 48.18947"/>
<use data-text="f" xlink:href="#font_1_1" transform="matrix(9.963098,0,0,-9.963098,26.656083,105.539539)"/>
<use data-text="(" xlink:href="#font_2_1" transform="matrix(9.963098,0,0,-9.963098,32.6064,105.539539)"/>
<use data-text="t" xlink:href="#font_1_3" transform="matrix(9.963098,0,0,-9.963098,36.481584,105.539539)"/>
<use data-text=")" xlink:href="#font_2_2" transform="matrix(9.963098,0,0,-9.963098,40.07875,105.539539)"/>
<g clip-path="url(#clip_3)">
<path transform="matrix(1.00005,0,0,-1.00005,74.99249,151.24082)" stroke-width="1.19553" stroke-linecap="butt" stroke-miterlimit="10" stroke-linejoin="miter" fill="none" stroke="#000000" d="M-56.69362 39.68535C-56.69362 39.68535-49.86713 37.0947-47.24525 36.22072-44.62337 35.34674-40.41876 34.08545-37.79689 33.38629-35.175 32.68713-30.9704 31.70604-28.34853 31.18166-25.72664 30.65726-21.52203 29.9564-18.90016 29.60677-16.27827 29.25714-12.07368 28.83649-9.4518 28.66168-6.82991 28.48688-2.62529 28.34685-.00343 28.3468 2.61841 28.34676 6.82303 28.48657 9.44489 28.66125 12.06674 28.83594 16.27136 29.2564 18.89322 29.60591 21.51508 29.95541 25.7197 30.65607 28.34158 31.18034 30.96347 31.70462 35.16806 32.6856 37.78995 33.38457 40.41183 34.08354 44.61642 35.34433 47.23831 36.21812 49.8602 37.09192 54.06479 38.63371 56.68668 39.68233 59.30856 40.73094 63.51315 42.55247 66.13504 43.77585 68.75693 44.99924 72.96155 47.10141 75.5834 48.4996 78.20526 49.89781 82.40988 52.28017 85.03174 53.85312 87.6536 55.42607 91.85822 58.08871 94.4801 59.83643 97.10199 61.58414 101.30658 64.52702 103.92847 66.4495 106.55035 68.37196 110.75494 71.59505 113.37683 73.69234 115.99872 75.78964 120.20331 79.29335 122.8252 81.5654 125.44708 83.83746 129.65167 87.62099 132.27356 90.06781 134.89545 92.51463 139.10004 96.57877 141.72193 99.20041 144.34381 101.82205 148.54843 106.16638 151.17029 108.96278 153.79215 111.75919 157.99677 116.38379 160.61862 119.35495 163.24048 122.32611 170.06699 130.37689 170.06699 130.37689"/>
<path transform="matrix(1.00005,0,0,-1.00005,74.99249,151.24082)" stroke-width=".3985" stroke-linecap="butt" stroke-dasharray="2.98883,2.98883" stroke-miterlimit="10" stroke-linejoin="miter" fill="none" stroke="#000000" d="M113.38724 113.38724H136.06433"/>
<use data-text="|" xlink:href="#font_4_37" transform="matrix(9.963098,0,0,-9.963098,187.00009,40.338274)"/>
<use data-text="|" xlink:href="#font_4_37" transform="matrix(9.963098,0,0,-9.963098,209.67823,40.338274)"/>
<use data-text="h" xlink:href="#font_1_2" transform="matrix(9.963098,0,0,-9.963098,196.85459,34.32798)"/>
<path transform="matrix(1.00005,0,0,-1.00005,74.99249,151.24082)" stroke-width=".3985" stroke-linecap="butt" stroke-miterlimit="10" stroke-linejoin="miter" fill="none" stroke="#000000" d="M113.38724 0V73.70099H136.06433V0"/>
<use data-text="f" xlink:href="#font_1_1" transform="matrix(9.963098,0,0,-9.963098,165.47202,116.8791)"/>
<use data-text="(" xlink:href="#font_2_1" transform="matrix(9.963098,0,0,-9.963098,171.42234,116.8791)"/>
<use data-text="x" xlink:href="#font_1_4" transform="matrix(9.963098,0,0,-9.963098,175.29752,116.8791)"/>
<use data-text=")" xlink:href="#font_2_2" transform="matrix(9.963098,0,0,-9.963098,180.99179,116.8791)"/>
</g>
<path transform="matrix(1.00005,0,0,-1.00005,74.99249,151.24082)" stroke-width=".3985" stroke-linecap="butt" stroke-miterlimit="10" stroke-linejoin="miter" fill="none" stroke="#000000" d="M113.38724 1.99255V-1.99255"/>
<use data-text="x" xlink:href="#font_1_4" transform="matrix(9.963098,0,0,-9.963098,185.53803,161.0433)"/>
<path transform="matrix(1.00005,0,0,-1.00005,74.99249,151.24082)" stroke-width=".3985" stroke-linecap="butt" stroke-miterlimit="10" stroke-linejoin="miter" fill="none" stroke="#000000" d="M136.06433 1.99255V-1.99255"/>
<use data-text="x" xlink:href="#font_5_2" transform="matrix(8.966848,0,0,-8.966848,200.16474,162.98041)"/>
<use data-text="+" xlink:href="#font_6_1" transform="matrix(8.966848,0,0,-8.966848,207.4371,162.98041)"/>
<use data-text="h" xlink:href="#font_5_1" transform="matrix(8.966848,0,0,-8.966848,216.65256,162.98041)"/>
<g clip-path="url(#clip_7)">
<path transform="matrix(1.00005,0,0,-1.00005,74.99249,151.24082)" stroke-width=".3985" stroke-linecap="butt" stroke-miterlimit="10" stroke-linejoin="miter" fill="none" stroke="#0000ff" d="M113.38724 0C113.38724 0 114.06976-.68251 114.33188-.94464 114.594-1.20677 115.01442-1.62718 115.27654-1.88931 115.53865-2.15144 115.9591-2.57185 116.22122-2.83397 116.48332-3.0961 116.90375-3.51651 117.16586-3.77864 117.42798-4.04077 117.8484-4.46117 118.11052-4.7233 118.37263-4.98543 118.79309-5.40584 119.05519-5.66795 119.3173-5.93008 119.73773-6.3505 119.99985-6.61263 120.26196-6.87476 120.68242-7.29517 120.94453-7.5573 121.20665-7.81941 121.62708-8.23982 121.88918-8.50195 122.15129-8.76408 122.57172-9.18448 122.83383-9.44661 123.09595-9.70874 123.5164-10.12915 123.77852-10.39128 124.04062-10.6534 124.46106-11.0738 124.72316-11.33594 124.98528-11.59807 125.40573-12.01848 125.66785-12.28061 125.92996-12.54274 126.35039-12.96315 126.6125-13.22527 126.8746-13.4874 127.29503-13.90779 127.55714-14.16992 127.81926-14.43205 128.23972-14.85246 128.50183-15.1146 128.76395-15.37672 129.18437-15.79713 129.44649-16.05925 129.70859-16.32138 130.12905-16.74179 130.39116-17.00392 130.65328-17.26605 131.0737-17.68646 131.33582-17.9486 131.59793-18.21071 132.01836-18.63112 132.28046-18.89323 132.54257-19.15536 132.96303-19.57578 133.22515-19.8379 133.48726-20.10004 133.90769-20.52045 134.1698-20.78258 134.43192-21.0447 134.85237-21.4651 135.11447-21.72723 135.37659-21.98936 136.05913-22.6719 136.05913-22.6719"/>
<path transform="matrix(1.00005,0,0,-1.00005,74.99249,151.24082)" stroke-width=".3985" stroke-linecap="butt" stroke-miterlimit="10" stroke-linejoin="miter" fill="none" stroke="#0000ff" d="M113.38724 4.53558C113.38724 4.53558 114.06976 3.85304 114.33188 3.59091 114.594 3.32878 115.01442 2.90837 115.27654 2.64624 115.53865 2.38412 115.9591 1.96373 116.22122 1.7016 116.48332 1.43947 116.90375 1.01906 117.16586 .75693 117.42798 .4948 117.8484 .0744 118.11052-.18771 118.37263-.44983 118.79309-.87024 119.05519-1.13237 119.3173-1.3945 119.73773-1.81491 119.99985-2.07704 120.26196-2.33917 120.68242-2.75957 120.94453-3.02168 121.20665-3.28381 121.62708-3.70422 121.88918-3.96635 122.15129-4.22849 122.57172-4.6489 122.83383-4.91103 123.09595-5.17316 123.5164-5.59357 123.77852-5.85568 124.04062-6.11781 124.46106-6.53822 124.72316-6.80035 124.98528-7.06248 125.40573-7.48288 125.66785-7.74501 125.92996-8.00713 126.35039-8.42754 126.6125-8.68967 126.8746-8.9518 127.29503-9.37221 127.55714-9.63434 127.81926-9.89647 128.23972-10.31688 128.50183-10.57901 128.76395-10.84113 129.18437-11.26152 129.44649-11.52365 129.70859-11.78578 130.12905-12.20619 130.39116-12.46832 130.65328-12.73045 131.0737-13.15086 131.33582-13.41298 131.59793-13.67511 132.01836-14.09552 132.28046-14.35765 132.54257-14.61978 132.96303-15.04019 133.22515-15.30232 133.48726-15.56445 133.90769-15.98485 134.1698-16.24696 134.43192-16.5091 134.85237-16.9295 135.11447-17.19164 135.37659-17.45377 136.05913-18.1363 136.05913-18.1363"/>
<path transform="matrix(1.00005,0,0,-1.00005,74.99249,151.24082)" stroke-width=".3985" stroke-linecap="butt" stroke-miterlimit="10" stroke-linejoin="miter" fill="none" stroke="#0000ff" d="M113.38724 9.07117C113.38724 9.07117 114.06976 8.38864 114.33188 8.12651 114.594 7.86438 115.01442 7.44397 115.27654 7.18185 115.53865 6.91972 115.9591 6.49931 116.22122 6.23718 116.48332 5.97505 116.90375 5.55464 117.16586 5.29251 117.42798 5.03038 117.8484 4.60997 118.11052 4.34785 118.37263 4.08572 118.79309 3.66533 119.05519 3.4032 119.3173 3.14107 119.73773 2.72066 119.99985 2.45853 120.26196 2.19641 120.68242 1.776 120.94453 1.51387 121.20665 1.25174 121.62708 .83133 121.88918 .5692 122.15129 .30707 122.57172-.1133 122.83383-.37543 123.09595-.63754 123.5164-1.05795 123.77852-1.32008 124.04062-1.58221 124.46106-2.00262 124.72316-2.26476 124.98528-2.52689 125.40573-2.9473 125.66785-3.20941 125.92996-3.47154 126.35039-3.89195 126.6125-4.15408 126.8746-4.41621 127.29503-4.83661 127.55714-5.09874 127.81926-5.36087 128.23972-5.78128 128.50183-6.0434 128.76395-6.30553 129.18437-6.72594 129.44649-6.98807 129.70859-7.2502 130.12905-7.67061 130.39116-7.93274 130.65328-8.19485 131.0737-8.61528 131.33582-8.8774 131.59793-9.13953 132.01836-9.55992 132.28046-9.82205 132.54257-10.08418 132.96303-10.5046 133.22515-10.76672 133.48726-11.02884 133.90769-11.44925 134.1698-11.71138 134.43192-11.97351 134.85237-12.39392 135.11447-12.65605 135.37659-12.91818 136.05913-13.60072 136.05913-13.60072"/>
<path transform="matrix(1.00005,0,0,-1.00005,74.99249,151.24082)" stroke-width=".3985" stroke-linecap="butt" stroke-miterlimit="10" stroke-linejoin="miter" fill="none" stroke="#0000ff" d="M113.38724 13.60677C113.38724 13.60677 114.06976 12.92422 114.33188 12.6621 114.594 12.39998 115.01442 11.97957 115.27654 11.71744 115.53865 11.4553 115.9591 11.03491 116.22122 10.77278 116.48332 10.51065 116.90375 10.09024 117.16586 9.82811 117.42798 9.566 117.8484 9.14558 118.11052 8.88345 118.37263 8.62132 118.79309 8.20091 119.05519 7.93878 119.3173 7.67665 119.73773 7.25624 119.99985 6.99413 120.26196 6.732 120.68242 6.3116 120.94453 6.04947 121.20665 5.78734 121.62708 5.36693 121.88918 5.1048 122.15129 4.84267 122.57172 4.42226 122.83383 4.16014 123.09595 3.89801 123.5164 3.4776 123.77852 3.21547 124.04062 2.95334 124.46106 2.53293 124.72316 2.2708 124.98528 2.00868 125.40573 1.58829 125.66785 1.32616 125.92996 1.06403 126.35039 .64362 126.6125 .38148 126.8746 .11935 127.29503-.30103 127.55714-.56316 127.81926-.82527 128.23972-1.24568 128.50183-1.50781 128.76395-1.76994 129.18437-2.19035 129.44649-2.45248 129.70859-2.71461 130.12905-3.13501 130.39116-3.39714 130.65328-3.65926 131.0737-4.07967 131.33582-4.3418 131.59793-4.60393 132.01836-5.02434 132.28046-5.28647 132.54257-5.5486 132.96303-5.96901 133.22515-6.23112 133.48726-6.49326 133.90769-6.91367 134.1698-7.1758 134.43192-7.43793 134.85237-7.85832 135.11447-8.12045 135.37659-8.38258 136.05913-9.06511 136.05913-9.06511"/>
<path transform="matrix(1.00005,0,0,-1.00005,74.99249,151.24082)" stroke-width=".3985" stroke-linecap="butt" stroke-miterlimit="10" stroke-linejoin="miter" fill="none" stroke="#0000ff" d="M113.38724 18.14235C113.38724 18.14235 114.06976 17.45982 114.33188 17.19771 114.594 16.93558 115.01442 16.51517 115.27654 16.25304 115.53865 15.9909 115.9591 15.5705 116.22122 15.30836 116.48332 15.04623 116.90375 14.62582 117.16586 14.36371 117.42798 14.10158 117.8484 13.68117 118.11052 13.41904 118.37263 13.1569 118.79309 12.73651 119.05519 12.47438 119.3173 12.21227 119.73773 11.79185 119.99985 11.52972 120.26196 11.2676 120.68242 10.84718 120.94453 10.58505 121.20665 10.32292 121.62708 9.90251 121.88918 9.64038 122.15129 9.37827 122.57172 8.95786 122.83383 8.69572 123.09595 8.4336 123.5164 8.0132 123.77852 7.75107 124.04062 7.48894 124.46106 7.06853 124.72316 6.80641 124.98528 6.54428 125.40573 6.12387 125.66785 5.86174 125.92996 5.59961 126.35039 5.1792 126.6125 4.91707 126.8746 4.65494 127.29503 4.23453 127.55714 3.97241 127.81926 3.71028 128.23972 3.28989 128.50183 3.02776 128.76395 2.76563 129.18437 2.34521 129.44649 2.08308 129.70859 1.82097 130.12905 1.40054 130.39116 1.13843 130.65328 .8763 131.0737 .45589 131.33582 .19376 131.59793-.06836 132.01836-.48874 132.28046-.75087 132.54257-1.01299 132.96303-1.4334 133.22515-1.69553 133.48726-1.95766 133.90769-2.37807 134.1698-2.6402 134.43192-2.90233 134.85237-3.32274 135.11447-3.58487 135.37659-3.84698 136.05913-4.52953 136.05913-4.52953"/>
<path transform="matrix(1.00005,0,0,-1.00005,74.99249,151.24082)" stroke-width=".3985" stroke-linecap="butt" stroke-miterlimit="10" stroke-linejoin="miter" fill="none" stroke="#0000ff" d="M113.38724 22.67795C113.38724 22.67795 114.06976 21.99542 114.33188 21.73329 114.594 21.47116 115.01442 21.05075 115.27654 20.78862 115.53865 20.52649 115.9591 20.10608 116.22122 19.84395 116.48332 19.58183 116.90375 19.16144 117.16586 18.8993 117.42798 18.63718 117.8484 18.21677 118.11052 17.95464 118.37263 17.6925 118.79309 17.2721 119.05519 17.00998 119.3173 16.74785 119.73773 16.32744 119.99985 16.0653 120.26196 15.80318 120.68242 15.38278 120.94453 15.12065 121.20665 14.85852 121.62708 14.43811 121.88918 14.176 122.15129 13.91386 122.57172 13.49345 122.83383 13.23132 123.09595 12.9692 123.5164 12.54878 123.77852 12.28665 124.04062 12.02454 124.46106 11.60413 124.72316 11.342 124.98528 11.07986 125.40573 10.65947 125.66785 10.39734 125.92996 10.13521 126.35039 9.7148 126.6125 9.45267 126.8746 9.19055 127.29503 8.77014 127.55714 8.50801 127.81926 8.24588 128.23972 7.82547 128.50183 7.56334 128.76395 7.30121 129.18437 6.8808 129.44649 6.61868 129.70859 6.35655 130.12905 5.93616 130.39116 5.67403 130.65328 5.4119 131.0737 4.99149 131.33582 4.72935 131.59793 4.46722 132.01836 4.04681 132.28046 3.7847 132.54257 3.52257 132.96303 3.10216 133.22515 2.84003 133.48726 2.5779 133.90769 2.15749 134.1698 1.89536 134.43192 1.63324 134.85237 1.21283 135.11447 .95071 135.37659 .68858 136.05913 .00604 136.05913 .00604"/>
<path transform="matrix(1.00005,0,0,-1.00005,74.99249,151.24082)" stroke-width=".3985" stroke-linecap="butt" stroke-miterlimit="10" stroke-linejoin="miter" fill="none" stroke="#0000ff" d="M113.38724 27.21355C113.38724 27.21355 114.06976 26.53102 114.33188 26.26889 114.594 26.00676 115.01442 25.58635 115.27654 25.32422 115.53865 25.06209 115.9591 24.64168 116.22122 24.37956 116.48332 24.11743 116.90375 23.69702 117.16586 23.43489 117.42798 23.17276 117.8484 22.75235 118.11052 22.49022 118.37263 22.2281 118.79309 21.80771 119.05519 21.54558 119.3173 21.28345 119.73773 20.86304 119.99985 20.6009 120.26196 20.33878 120.68242 19.91837 120.94453 19.65623 121.20665 19.39412 121.62708 18.97371 121.88918 18.71158 122.15129 18.44945 122.57172 18.02904 122.83383 17.7669 123.09595 17.50478 123.5164 17.08438 123.77852 16.82227 124.04062 16.56013 124.46106 16.13972 124.72316 15.8776 124.98528 15.61546 125.40573 15.19505 125.66785 14.93292 125.92996 14.67079 126.35039 14.25038 126.6125 13.98827 126.8746 13.72614 127.29503 13.30573 127.55714 13.0436 127.81926 12.78146 128.23972 12.36107 128.50183 12.09894 128.76395 11.83682 129.18437 11.4164 129.44649 11.15428 129.70859 10.89215 130.12905 10.47174 130.39116 10.20961 130.65328 9.94748 131.0737 9.52707 131.33582 9.26494 131.59793 9.00282 132.01836 8.58241 132.28046 8.32028 132.54257 8.05815 132.96303 7.63776 133.22515 7.37563 133.48726 7.1135 133.90769 6.69308 134.1698 6.43095 134.43192 6.16884 134.85237 5.74843 135.11447 5.4863 135.37659 5.22417 136.05913 4.54163 136.05913 4.54163"/>
<path transform="matrix(1.00005,0,0,-1.00005,74.99249,151.24082)" stroke-width=".3985" stroke-linecap="butt" stroke-miterlimit="10" stroke-linejoin="miter" fill="none" stroke="#0000ff" d="M113.38724 31.74915C113.38724 31.74915 114.06976 31.0666 114.33188 30.80447 114.594 30.54234 115.01442 30.12193 115.27654 29.8598 115.53865 29.59769 115.9591 29.17728 116.22122 28.91515 116.48332 28.65302 116.90375 28.23262 117.16586 27.97049 117.42798 27.70836 117.8484 27.28795 118.11052 27.02583 118.37263 26.7637 118.79309 26.34329 119.05519 26.08116 119.3173 25.81903 119.73773 25.39862 119.99985 25.13649 120.26196 24.87436 120.68242 24.45395 120.94453 24.19183 121.20665 23.9297 121.62708 23.50931 121.88918 23.24718 122.15129 22.98505 122.57172 22.56464 122.83383 22.3025 123.09595 22.04039 123.5164 21.61998 123.77852 21.35785 124.04062 21.09572 124.46106 20.67531 124.72316 20.41318 124.98528 20.15105 125.40573 19.73064 125.66785 19.4685 125.92996 19.20639 126.35039 18.786 126.6125 18.52386 126.8746 18.26173 127.29503 17.84132 127.55714 17.5792 127.81926 17.31706 128.23972 16.89665 128.50183 16.63454 128.76395 16.3724 129.18437 15.952 129.44649 15.68987 129.70859 15.42773 130.12905 15.00734 130.39116 14.74521 130.65328 14.48308 131.0737 14.06267 131.33582 13.80055 131.59793 13.53842 132.01836 13.11801 132.28046 12.85588 132.54257 12.59375 132.96303 12.17334 133.22515 11.91121 133.48726 11.64908 133.90769 11.22867 134.1698 10.96655 134.43192 10.70442 134.85237 10.28403 135.11447 10.0219 135.37659 9.75977 136.05913 9.07722 136.05913 9.07722"/>
<path transform="matrix(1.00005,0,0,-1.00005,74.99249,151.24082)" stroke-width=".3985" stroke-linecap="butt" stroke-miterlimit="10" stroke-linejoin="miter" fill="none" stroke="#0000ff" d="M113.38724 36.28473C113.38724 36.28473 114.06976 35.60219 114.33188 35.34006 114.594 35.07793 115.01442 34.65753 115.27654 34.39542 115.53865 34.13329 115.9591 33.71288 116.22122 33.45074 116.48332 33.18861 116.90375 32.7682 117.16586 32.50607 117.42798 32.24396 117.8484 31.82355 118.11052 31.56142 118.37263 31.29929 118.79309 30.87888 119.05519 30.61674 119.3173 30.35461 119.73773 29.93422 119.99985 29.67209 120.26196 29.40997 120.68242 28.98956 120.94453 28.72743 121.20665 28.4653 121.62708 28.04489 121.88918 27.78276 122.15129 27.52063 122.57172 27.10022 122.83383 26.8381 123.09595 26.57597 123.5164 26.15558 123.77852 25.89345 124.04062 25.63132 124.46106 25.2109 124.72316 24.94878 124.98528 24.68665 125.40573 24.26624 125.66785 24.00412 125.92996 23.74199 126.35039 23.32158 126.6125 23.05945 126.8746 22.79732 127.29503 22.3769 127.55714 22.11478 127.81926 21.85266 128.23972 21.43225 128.50183 21.17014 128.76395 20.908 129.18437 20.4876 129.44649 20.22546 129.70859 19.96333 130.12905 19.54292 130.39116 19.28079 130.65328 19.01868 131.0737 18.59827 131.33582 18.33614 131.59793 18.074 132.01836 17.6536 132.28046 17.39146 132.54257 17.12933 132.96303 16.70894 133.22515 16.44681 133.48726 16.1847 133.90769 15.76428 134.1698 15.50215 134.43192 15.24002 134.85237 14.81961 135.11447 14.55748 135.37659 14.29535 136.05913 13.61282 136.05913 13.61282"/>
<path transform="matrix(1.00005,0,0,-1.00005,74.99249,151.24082)" stroke-width=".3985" stroke-linecap="butt" stroke-miterlimit="10" stroke-linejoin="miter" fill="none" stroke="#0000ff" d="M113.38724 40.82033C113.38724 40.82033 114.06976 40.13779 114.33188 39.87566 114.594 39.61354 115.01442 39.19313 115.27654 38.931 115.53865 38.66887 115.9591 38.24846 116.22122 37.98633 116.48332 37.7242 116.90375 37.3038 117.16586 37.04169 117.42798 36.77956 117.8484 36.35915 118.11052 36.09702 118.37263 35.83488 118.79309 35.41447 119.05519 35.15234 119.3173 34.89021 119.73773 34.4698 119.99985 34.20769 120.26196 33.94556 120.68242 33.52515 120.94453 33.26302 121.20665 33.00089 121.62708 32.58049 121.88918 32.31836 122.15129 32.05624 122.57172 31.63583 122.83383 31.3737 123.09595 31.11157 123.5164 30.69116 123.77852 30.42903 124.04062 30.1669 124.46106 29.74649 124.72316 29.48436 124.98528 29.22224 125.40573 28.80183 125.66785 28.5397 125.92996 28.27757 126.35039 27.85718 126.6125 27.59505 126.8746 27.33292 127.29503 26.9125 127.55714 26.65039 127.81926 26.38826 128.23972 25.96785 128.50183 25.70572 128.76395 25.44359 129.18437 25.02318 129.44649 24.76105 129.70859 24.49892 130.12905 24.0785 130.39116 23.81639 130.65328 23.55426 131.0737 23.13387 131.33582 22.87173 131.59793 22.6096 132.01836 22.1892 132.28046 21.92706 132.54257 21.66493 132.96303 21.24452 133.22515 20.9824 133.48726 20.72028 133.90769 20.29987 134.1698 20.03773 134.43192 19.7756 134.85237 19.35521 135.11447 19.09308 135.37659 18.83096 136.05913 18.14842 136.05913 18.14842"/>
<path transform="matrix(1.00005,0,0,-1.00005,74.99249,151.24082)" stroke-width=".3985" stroke-linecap="butt" stroke-miterlimit="10" stroke-linejoin="miter" fill="none" stroke="#0000ff" d="M113.38724 45.35591C113.38724 45.35591 114.06976 44.67337 114.33188 44.41125 114.594 44.14912 115.01442 43.72873 115.27654 43.4666 115.53865 43.20447 115.9591 42.78406 116.22122 42.52193 116.48332 42.25981 116.90375 41.8394 117.16586 41.57727 117.42798 41.31514 117.8484 40.89473 118.11052 40.6326 118.37263 40.37047 118.79309 39.95006 119.05519 39.68793 119.3173 39.42581 119.73773 39.00542 119.99985 38.74329 120.26196 38.48116 120.68242 38.06075 120.94453 37.79861 121.20665 37.53648 121.62708 37.11607 121.88918 36.85396 122.15129 36.59183 122.57172 36.17142 122.83383 35.90929 123.09595 35.64716 123.5164 35.22675 123.77852 34.96461 124.04062 34.70248 124.46106 34.28209 124.72316 34.01997 124.98528 33.75784 125.40573 33.33743 125.66785 33.0753 125.92996 32.81317 126.35039 32.39276 126.6125 32.13063 126.8746 31.86852 127.29503 31.44809 127.55714 31.18597 127.81926 30.92384 128.23972 30.50345 128.50183 30.24132 128.76395 29.97919 129.18437 29.55878 129.44649 29.29665 129.70859 29.03453 130.12905 28.61412 130.39116 28.35199 130.65328 28.08986 131.0737 27.66945 131.33582 27.40732 131.59793 27.14519 132.01836 26.72478 132.28046 26.46265 132.54257 26.20053 132.96303 25.78014 133.22515 25.518 133.48726 25.25587 133.90769 24.83546 134.1698 24.57333 134.43192 24.3112 134.85237 23.8908 135.11447 23.62868 135.37659 23.36655 136.05913 22.684 136.05913 22.684"/>
<path transform="matrix(1.00005,0,0,-1.00005,74.99249,151.24082)" stroke-width=".3985" stroke-linecap="butt" stroke-miterlimit="10" stroke-linejoin="miter" fill="none" stroke="#0000ff" d="M113.38724 49.89151C113.38724 49.89151 114.06976 49.20898 114.33188 48.94685 114.594 48.68472 115.01442 48.26431 115.27654 48.00218 115.53865 47.74005 115.9591 47.31964 116.22122 47.05753 116.48332 46.7954 116.90375 46.37498 117.16586 46.11285 117.42798 45.85072 117.8484 45.43033 118.11052 45.1682 118.37263 44.90607 118.79309 44.48566 119.05519 44.22354 119.3173 43.96141 119.73773 43.541 119.99985 43.27887 120.26196 43.01674 120.68242 42.59633 120.94453 42.3342 121.20665 42.07208 121.62708 41.65169 121.88918 41.38956 122.15129 41.12743 122.57172 40.70702 122.83383 40.44489 123.09595 40.18275 123.5164 39.76234 123.77852 39.50021 124.04062 39.2381 124.46106 38.81769 124.72316 38.55556 124.98528 38.29343 125.40573 37.87302 125.66785 37.61089 125.92996 37.34875 126.35039 36.92836 126.6125 36.66624 126.8746 36.40411 127.29503 35.9837 127.55714 35.72157 127.81926 35.45944 128.23972 35.03903 128.50183 34.7769 128.76395 34.51477 129.18437 34.09436 129.44649 33.83224 129.70859 33.57011 130.12905 33.1497 130.39116 32.88757 130.65328 32.62544 131.0737 32.20505 131.33582 31.94292 131.59793 31.68079 132.01836 31.26038 132.28046 30.99826 132.54257 30.73613 132.96303 30.31572 133.22515 30.05359 133.48726 29.79146 133.90769 29.37105 134.1698 29.10892 134.43192 28.8468 134.85237 28.42639 135.11447 28.16426 135.37659 27.90213 136.05913 27.2196 136.05913 27.2196"/>
<path transform="matrix(1.00005,0,0,-1.00005,74.99249,151.24082)" stroke-width=".3985" stroke-linecap="butt" stroke-miterlimit="10" stroke-linejoin="miter" fill="none" stroke="#0000ff" d="M113.38724 54.42711C113.38724 54.42711 114.06976 53.74457 114.33188 53.48244 114.594 53.2203 115.01442 52.79991 115.27654 52.53778 115.53865 52.27567 115.9591 51.85526 116.22122 51.59312 116.48332 51.331 116.90375 50.91058 117.16586 50.64845 117.42798 50.38632 117.8484 49.96591 118.11052 49.70378 118.37263 49.44167 118.79309 49.02126 119.05519 48.75912 119.3173 48.497 119.73773 48.0766 119.99985 47.81447 120.26196 47.55234 120.68242 47.13193 120.94453 46.86981 121.20665 46.60768 121.62708 46.18727 121.88918 45.92514 122.15129 45.66301 122.57172 45.2426 122.83383 44.98047 123.09595 44.71834 123.5164 44.29793 123.77852 44.03581 124.04062 43.77368 124.46106 43.35329 124.72316 43.09116 124.98528 42.82903 125.40573 42.40862 125.66785 42.14648 125.92996 41.88437 126.35039 41.46394 126.6125 41.20183 126.8746 40.9397 127.29503 40.51929 127.55714 40.25716 127.81926 39.99503 128.23972 39.57462 128.50183 39.31248 128.76395 39.05037 129.18437 38.62997 129.44649 38.36784 129.70859 38.10571 130.12905 37.6853 130.39116 37.42317 130.65328 37.16104 131.0737 36.74063 131.33582 36.4785 131.59793 36.21638 132.01836 35.79597 132.28046 35.53384 132.54257 35.27171 132.96303 34.8513 133.22515 34.58917 133.48726 34.32704 133.90769 33.90665 134.1698 33.64453 134.43192 33.3824 134.85237 32.96199 135.11447 32.69986 135.37659 32.43773 136.05913 31.75519 136.05913 31.75519"/>
<path transform="matrix(1.00005,0,0,-1.00005,74.99249,151.24082)" stroke-width=".3985" stroke-linecap="butt" stroke-miterlimit="10" stroke-linejoin="miter" fill="none" stroke="#0000ff" d="M113.38724 58.9627C113.38724 58.9627 114.06976 58.28017 114.33188 58.01804 114.594 57.7559 115.01442 57.3355 115.27654 57.07338 115.53865 56.81125 115.9591 56.39084 116.22122 56.12871 116.48332 55.86658 116.90375 55.44617 117.16586 55.18404 117.42798 54.9219 117.8484 54.50151 118.11052 54.2394 118.37263 53.97726 118.79309 53.55685 119.05519 53.29472 119.3173 53.0326 119.73773 52.61218 119.99985 52.35005 120.26196 52.08794 120.68242 51.66753 120.94453 51.4054 121.20665 51.14326 121.62708 50.72285 121.88918 50.46072 122.15129 50.1986 122.57172 49.7782 122.83383 49.51607 123.09595 49.25395 123.5164 48.83354 123.77852 48.57141 124.04062 48.30928 124.46106 47.88887 124.72316 47.62674 124.98528 47.36461 125.40573 46.9442 125.66785 46.68208 125.92996 46.41995 126.35039 45.99956 126.6125 45.73743 126.8746 45.4753 127.29503 45.05489 127.55714 44.79276 127.81926 44.53062 128.23972 44.11021 128.50183 43.8481 128.76395 43.58597 129.18437 43.16556 129.44649 42.90343 129.70859 42.6413 130.12905 42.22089 130.39116 41.95876 130.65328 41.69662 131.0737 41.27623 131.33582 41.01411 131.59793 40.75198 132.01836 40.33157 132.28046 40.06944 132.54257 39.80731 132.96303 39.3869 133.22515 39.12477 133.48726 38.86266 133.90769 38.44225 134.1698 38.18011 134.43192 37.91798 134.85237 37.49757 135.11447 37.23544 135.37659 36.97331 136.05913 36.29079 136.05913 36.29079"/>
<path transform="matrix(1.00005,0,0,-1.00005,74.99249,151.24082)" stroke-width=".3985" stroke-linecap="butt" stroke-miterlimit="10" stroke-linejoin="miter" fill="none" stroke="#0000ff" d="M113.38724 63.49829C113.38724 63.49829 114.06976 62.81575 114.33188 62.55362 114.594 62.2915 115.01442 61.8711 115.27654 61.60896 115.53865 61.34683 115.9591 60.92644 116.22122 60.6643 116.48332 60.40218 116.90375 59.98177 117.16586 59.71964 117.42798 59.45752 117.8484 59.03711 118.11052 58.77498 118.37263 58.51285 118.79309 58.09244 119.05519 57.8303 119.3173 57.56818 119.73773 57.14778 119.99985 56.88567 120.26196 56.62354 120.68242 56.20313 120.94453 55.941 121.20665 55.67886 121.62708 55.25845 121.88918 54.99632 122.15129 54.73419 122.57172 54.31378 122.83383 54.05167 123.09595 53.78954 123.5164 53.36913 123.77852 53.107 124.04062 52.84486 124.46106 52.42447 124.72316 52.16234 124.98528 51.90022 125.40573 51.4798 125.66785 51.21768 125.92996 50.95555 126.35039 50.53514 126.6125 50.27301 126.8746 50.01088 127.29503 49.59047 127.55714 49.32834 127.81926 49.06622 128.23972 48.64581 128.50183 48.38368 128.76395 48.12155 129.18437 47.70116 129.44649 47.43903 129.70859 47.1769 130.12905 46.75648 130.39116 46.49435 130.65328 46.23224 131.0737 45.81183 131.33582 45.5497 131.59793 45.28757 132.01836 44.86716 132.28046 44.60503 132.54257 44.3429 132.96303 43.92249 133.22515 43.66037 133.48726 43.39824 133.90769 42.97784 134.1698 42.71571 134.43192 42.45358 134.85237 42.03317 135.11447 41.77104 135.37659 41.50891 136.05913 40.82639 136.05913 40.82639"/>
<path transform="matrix(1.00005,0,0,-1.00005,74.99249,151.24082)" stroke-width=".3985" stroke-linecap="butt" stroke-miterlimit="10" stroke-linejoin="miter" fill="none" stroke="#0000ff" d="M113.38724 68.03389C113.38724 68.03389 114.06976 67.35135 114.33188 67.08923 114.594 66.8271 115.01442 66.4067 115.27654 66.14456 115.53865 65.88243 115.9591 65.46202 116.22122 65.19989 116.48332 64.93776 116.90375 64.51735 117.16586 64.25523 117.42798 63.9931 117.8484 63.57271 118.11052 63.31058 118.37263 63.04845 118.79309 62.62804 119.05519 62.3659 119.3173 62.10379 119.73773 61.68338 119.99985 61.42125 120.26196 61.15912 120.68242 60.73871 120.94453 60.47658 121.20665 60.21445 121.62708 59.79404 121.88918 59.5319 122.15129 59.26979 122.57172 58.8494 122.83383 58.58727 123.09595 58.32513 123.5164 57.90472 123.77852 57.6426 124.04062 57.38046 124.46106 56.96005 124.72316 56.69794 124.98528 56.4358 125.40573 56.0154 125.66785 55.75327 125.92996 55.49113 126.35039 55.07072 126.6125 54.8086 126.8746 54.54646 127.29503 54.12607 127.55714 53.86395 127.81926 53.60182 128.23972 53.18141 128.50183 52.91928 128.76395 52.65715 129.18437 52.23674 129.44649 51.97461 129.70859 51.71248 130.12905 51.29207 130.39116 51.02995 130.65328 50.76782 131.0737 50.34741 131.33582 50.08528 131.59793 49.82315 132.01836 49.40276 132.28046 49.14063 132.54257 48.87851 132.96303 48.4581 133.22515 48.19597 133.48726 47.93384 133.90769 47.51343 134.1698 47.2513 134.43192 46.98917 134.85237 46.56876 135.11447 46.30663 135.37659 46.04451 136.05913 45.36198 136.05913 45.36198"/>
<path transform="matrix(1.00005,0,0,-1.00005,74.99249,151.24082)" stroke-width=".3985" stroke-linecap="butt" stroke-miterlimit="10" stroke-linejoin="miter" fill="none" stroke="#0000ff" d="M113.38724 72.56947C113.38724 72.56947 114.06976 71.88695 114.33188 71.62482 114.594 71.36269 115.01442 70.94228 115.27654 70.68015 115.53865 70.41801 115.9591 69.99762 116.22122 69.73549 116.48332 69.47337 116.90375 69.05296 117.16586 68.79083 117.42798 68.5287 117.8484 68.10829 118.11052 67.84616 118.37263 67.58403 118.79309 67.16362 119.05519 66.9015 119.3173 66.63937 119.73773 66.21896 119.99985 65.95683 120.26196 65.6947 120.68242 65.2743 120.94453 65.01218 121.20665 64.75005 121.62708 64.32964 121.88918 64.06752 122.15129 63.80539 122.57172 63.38498 122.83383 63.12285 123.09595 62.86072 123.5164 62.4403 123.77852 62.17818 124.04062 61.91606 124.46106 61.49564 124.72316 61.23352 124.98528 60.97139 125.40573 60.551 125.66785 60.28886 125.92996 60.02673 126.35039 59.60632 126.6125 59.3442 126.8746 59.08208 127.29503 58.66167 127.55714 58.39954 127.81926 58.1374 128.23972 57.717 128.50183 57.45486 128.76395 57.19273 129.18437 56.77234 129.44649 56.51021 129.70859 56.2481 130.12905 55.82768 130.39116 55.56555 130.65328 55.30342 131.0737 54.88301 131.33582 54.62088 131.59793 54.35875 132.01836 53.93834 132.28046 53.67622 132.54257 53.4141 132.96303 52.99368 133.22515 52.73155 133.48726 52.46942 133.90769 52.04903 134.1698 51.7869 134.43192 51.52477 134.85237 51.10435 135.11447 50.84224 135.37659 50.58011 136.05913 49.89757 136.05913 49.89757"/>
<path transform="matrix(1.00005,0,0,-1.00005,74.99249,151.24082)" stroke-width=".3985" stroke-linecap="butt" stroke-miterlimit="10" stroke-linejoin="miter" fill="none" stroke="#0000ff" d="M113.38724 77.10507C113.38724 77.10507 114.06976 76.42255 114.33188 76.16042 114.594 75.89828 115.01442 75.47787 115.27654 75.21574 115.53865 74.95361 115.9591 74.5332 116.22122 74.27109 116.48332 74.00896 116.90375 73.58855 117.16586 73.32642 117.42798 73.06429 117.8484 72.64389 118.11052 72.38176 118.37263 72.11964 118.79309 71.69923 119.05519 71.4371 119.3173 71.17497 119.73773 70.75456 119.99985 70.49243 120.26196 70.2303 120.68242 69.80989 120.94453 69.54776 121.20665 69.28564 121.62708 68.86523 121.88918 68.6031 122.15129 68.34097 122.57172 67.92058 122.83383 67.65845 123.09595 67.39632 123.5164 66.9759 123.77852 66.71379 124.04062 66.45166 124.46106 66.03125 124.72316 65.76912 124.98528 65.50699 125.40573 65.08658 125.66785 64.82445 125.92996 64.56232 126.35039 64.1419 126.6125 63.87979 126.8746 63.61766 127.29503 63.19727 127.55714 62.93513 127.81926 62.673 128.23972 62.2526 128.50183 61.99046 128.76395 61.72833 129.18437 61.30792 129.44649 61.0458 129.70859 60.78368 130.12905 60.36327 130.39116 60.10114 130.65328 59.839 131.0737 59.4186 131.33582 59.15646 131.59793 58.89435 132.01836 58.47395 132.28046 58.21182 132.54257 57.94969 132.96303 57.52928 133.22515 57.26715 133.48726 57.00502 133.90769 56.58461 134.1698 56.32248 134.43192 56.06036 134.85237 55.63995 135.11447 55.37782 135.37659 55.11569 136.05913 54.43315 136.05913 54.43315"/>
<path transform="matrix(1.00005,0,0,-1.00005,74.99249,151.24082)" stroke-width=".3985" stroke-linecap="butt" stroke-miterlimit="10" stroke-linejoin="miter" fill="none" stroke="#0000ff" d="M113.38724 81.64067C113.38724 81.64067 114.06976 80.95813 114.33188 80.696 114.594 80.43387 115.01442 80.01346 115.27654 79.75133 115.53865 79.48921 115.9591 79.06882 116.22122 78.80669 116.48332 78.54456 116.90375 78.12415 117.16586 77.86201 117.42798 77.59988 117.8484 77.17947 118.11052 76.91736 118.37263 76.65523 118.79309 76.23482 119.05519 75.97269 119.3173 75.71056 119.73773 75.29015 119.99985 75.02802 120.26196 74.76588 120.68242 74.34549 120.94453 74.08337 121.20665 73.82124 121.62708 73.40083 121.88918 73.1387 122.15129 72.87657 122.57172 72.45616 122.83383 72.19403 123.09595 71.93192 123.5164 71.51149 123.77852 71.24937 124.04062 70.98724 124.46106 70.56683 124.72316 70.3047 124.98528 70.04257 125.40573 69.62218 125.66785 69.36005 125.92996 69.09793 126.35039 68.67752 126.6125 68.41539 126.8746 68.15326 127.29503 67.73285 127.55714 67.47072 127.81926 67.20859 128.23972 66.78818 128.50183 66.52605 128.76395 66.26393 129.18437 65.84352 129.44649 65.58139 129.70859 65.31926 130.12905 64.89886 130.39116 64.63673 130.65328 64.3746 131.0737 63.9542 131.33582 63.69208 131.59793 63.42995 132.01836 63.00954 132.28046 62.7474 132.54257 62.48528 132.96303 62.06487 133.22515 61.80273 133.48726 61.5406 133.90769 61.12021 134.1698 60.8581 134.43192 60.59596 134.85237 60.17555 135.11447 59.91342 135.37659 59.65129 136.05913 58.96875 136.05913 58.96875"/>
<path transform="matrix(1.00005,0,0,-1.00005,74.99249,151.24082)" stroke-width=".3985" stroke-linecap="butt" stroke-miterlimit="10" stroke-linejoin="miter" fill="none" stroke="#0000ff" d="M113.38724 86.17625C113.38724 86.17625 114.06976 85.49373 114.33188 85.2316 114.594 84.96947 115.01442 84.54906 115.27654 84.28694 115.53865 84.02481 115.9591 83.6044 116.22122 83.34227 116.48332 83.08014 116.90375 82.65973 117.16586 82.3976 117.42798 82.13548 117.8484 81.71507 118.11052 81.45294 118.37263 81.19081 118.79309 80.77042 119.05519 80.50829 119.3173 80.24615 119.73773 79.82574 119.99985 79.56361 120.26196 79.3015 120.68242 78.88109 120.94453 78.61896 121.20665 78.35683 121.62708 77.93642 121.88918 77.67429 122.15129 77.41216 122.57172 76.99174 122.83383 76.72963 123.09595 76.4675 123.5164 76.0471 123.77852 75.78497 124.04062 75.52284 124.46106 75.10243 124.72316 74.8403 124.98528 74.57817 125.40573 74.15776 125.66785 73.89565 125.92996 73.63351 126.35039 73.2131 126.6125 72.95097 126.8746 72.68884 127.29503 72.26845 127.55714 72.00632 127.81926 71.74419 128.23972 71.32378 128.50183 71.06166 128.76395 70.79953 129.18437 70.37912 129.44649 70.11699 129.70859 69.85486 130.12905 69.43445 130.39116 69.17232 130.65328 68.9102 131.0737 68.48979 131.33582 68.22766 131.59793 67.96553 132.01836 67.54514 132.28046 67.283 132.54257 67.02087 132.96303 66.60046 133.22515 66.33833 133.48726 66.07622 133.90769 65.6558 134.1698 65.39368 134.43192 65.13155 134.85237 64.71114 135.11447 64.449 135.37659 64.18687 136.05913 63.50435 136.05913 63.50435"/>
<path transform="matrix(1.00005,0,0,-1.00005,74.99249,151.24082)" stroke-width=".3985" stroke-linecap="butt" stroke-miterlimit="10" stroke-linejoin="miter" fill="none" stroke="#0000ff" d="M113.38724 90.71185C113.38724 90.71185 114.06976 90.02931 114.33188 89.76718 114.594 89.50507 115.01442 89.08466 115.27654 88.82253 115.53865 88.5604 115.9591 88.13998 116.22122 87.87785 116.48332 87.61572 116.90375 87.19533 117.16586 86.93321 117.42798 86.67108 117.8484 86.25067 118.11052 85.98854 118.37263 85.72641 118.79309 85.306 119.05519 85.04387 119.3173 84.78174 119.73773 84.36133 119.99985 84.09921 120.26196 83.83708 120.68242 83.41669 120.94453 83.15456 121.20665 82.89243 121.62708 82.47202 121.88918 82.20988 122.15129 81.94777 122.57172 81.52734 122.83383 81.26523 123.09595 81.0031 123.5164 80.58269 123.77852 80.32056 124.04062 80.05843 124.46106 79.63802 124.72316 79.37589 124.98528 79.11377 125.40573 78.69337 125.66785 78.43124 125.92996 78.16911 126.35039 77.7487 126.6125 77.48657 126.8746 77.22444 127.29503 76.80403 127.55714 76.5419 127.81926 76.27979 128.23972 75.85938 128.50183 75.59724 128.76395 75.33511 129.18437 74.9147 129.44649 74.65257 129.70859 74.39044 130.12905 73.97005 130.39116 73.70793 130.65328 73.4458 131.0737 73.02539 131.33582 72.76326 131.59793 72.50113 132.01836 72.08072 132.28046 71.81859 132.54257 71.55646 132.96303 71.13605 133.22515 70.87393 133.48726 70.6118 133.90769 70.19139 134.1698 69.92926 134.43192 69.66713 134.85237 69.24673 135.11447 68.9846 135.37659 68.72249 136.05913 68.03995 136.05913 68.03995"/>
<path transform="matrix(1.00005,0,0,-1.00005,74.99249,151.24082)" stroke-width=".3985" stroke-linecap="butt" stroke-miterlimit="10" stroke-linejoin="miter" fill="none" stroke="#0000ff" d="M113.38724 95.24744C113.38724 95.24744 114.06976 94.56491 114.33188 94.3028 114.594 94.04066 115.01442 93.62025 115.27654 93.35812 115.53865 93.096 115.9591 92.67558 116.22122 92.41345 116.48332 92.15134 116.90375 91.73093 117.16586 91.4688 117.42798 91.20667 117.8484 90.78625 118.11052 90.52412 118.37263 90.262 118.79309 89.8416 119.05519 89.57947 119.3173 89.31735 119.73773 88.89694 119.99985 88.63481 120.26196 88.37268 120.68242 87.95227 120.94453 87.69014 121.20665 87.42801 121.62708 87.0076 121.88918 86.74548 122.15129 86.48335 122.57172 86.06294 122.83383 85.80081 123.09595 85.53868 123.5164 85.11829 123.77852 84.85616 124.04062 84.59402 124.46106 84.17361 124.72316 83.9115 124.98528 83.64937 125.40573 83.22896 125.66785 82.96683 125.92996 82.7047 126.35039 82.28429 126.6125 82.02216 126.8746 81.76003 127.29503 81.33961 127.55714 81.0775 127.81926 80.81537 128.23972 80.39497 128.50183 80.13284 128.76395 79.87071 129.18437 79.4503 129.44649 79.18817 129.70859 78.92606 130.12905 78.50565 130.39116 78.24352 130.65328 77.98138 131.0737 77.56097 131.33582 77.29884 131.59793 77.03671 132.01836 76.61632 132.28046 76.35419 132.54257 76.09207 132.96303 75.67166 133.22515 75.40953 133.48726 75.1474 133.90769 74.72699 134.1698 74.46486 134.43192 74.20273 134.85237 73.78232 135.11447 73.5202 135.37659 73.25807 136.05913 72.57553 136.05913 72.57553"/>
<path transform="matrix(1.00005,0,0,-1.00005,74.99249,151.24082)" stroke-width=".3985" stroke-linecap="butt" stroke-miterlimit="10" stroke-linejoin="miter" fill="none" stroke="#0000ff" d="M113.38724 99.78304C113.38724 99.78304 114.06976 99.10051 114.33188 98.83838 114.594 98.57625 115.01442 98.15584 115.27654 97.8937 115.53865 97.63158 115.9591 97.21117 116.22122 96.94905 116.48332 96.68692 116.90375 96.26653 117.16586 96.0044 117.42798 95.74226 117.8484 95.32185 118.11052 95.05972 118.37263 94.79759 118.79309 94.37718 119.05519 94.11507 119.3173 93.85294 119.73773 93.43253 119.99985 93.1704 120.26196 92.90826 120.68242 92.48785 120.94453 92.22572 121.20665 91.96361 121.62708 91.5432 121.88918 91.28108 122.15129 91.01895 122.57172 90.59854 122.83383 90.33641 123.09595 90.07428 123.5164 89.65387 123.77852 89.39174 124.04062 89.12962 124.46106 88.70921 124.72316 88.44708 124.98528 88.18495 125.40573 87.76456 125.66785 87.50243 125.92996 87.2403 126.35039 86.81989 126.6125 86.55775 126.8746 86.29564 127.29503 85.87523 127.55714 85.6131 127.81926 85.35097 128.23972 84.93056 128.50183 84.66843 128.76395 84.4063 129.18437 83.98589 129.44649 83.72377 129.70859 83.46164 130.12905 83.04124 130.39116 82.77911 130.65328 82.51698 131.0737 82.09657 131.33582 81.83444 131.59793 81.57231 132.01836 81.1519 132.28046 80.88979 132.54257 80.62766 132.96303 80.20724 133.22515 79.94511 133.48726 79.68298 133.90769 79.26257 134.1698 79.00044 134.43192 78.73833 134.85237 78.31793 135.11447 78.0558 135.37659 77.79367 136.05913 77.11113 136.05913 77.11113"/>
<path transform="matrix(1.00005,0,0,-1.00005,74.99249,151.24082)" stroke-width=".3985" stroke-linecap="butt" stroke-miterlimit="10" stroke-linejoin="miter" fill="none" stroke="#0000ff" d="M113.38724 104.31863C113.38724 104.31863 114.06976 103.6361 114.33188 103.37396 114.594 103.11183 115.01442 102.69144 115.27654 102.4293 115.53865 102.16719 115.9591 101.74678 116.22122 101.48465 116.48332 101.22252 116.90375 100.80211 117.16586 100.53998 117.42798 100.27785 117.8484 99.85744 118.11052 99.5953 118.37263 99.33319 118.79309 98.9128 119.05519 98.65067 119.3173 98.38853 119.73773 97.96812 119.99985 97.706 120.26196 97.44386 120.68242 97.02345 120.94453 96.76134 121.20665 96.4992 121.62708 96.0788 121.88918 95.81667 122.15129 95.55453 122.57172 95.13412 122.83383 94.872 123.09595 94.60986 123.5164 94.18947 123.77852 93.92735 124.04062 93.66522 124.46106 93.24481 124.72316 92.98268 124.98528 92.72055 125.40573 92.30014 125.66785 92.03801 125.92996 91.77588 126.35039 91.35547 126.6125 91.09335 126.8746 90.83122 127.29503 90.41081 127.55714 90.14868 127.81926 89.88655 128.23972 89.46616 128.50183 89.20403 128.76395 88.94191 129.18437 88.5215 129.44649 88.25937 129.70859 87.99724 130.12905 87.57683 130.39116 87.3147 130.65328 87.05257 131.0737 86.63216 131.33582 86.37003 131.59793 86.10791 132.01836 85.6875 132.28046 85.42537 132.54257 85.16324 132.96303 84.74284 133.22515 84.48071 133.48726 84.21858 133.90769 83.79817 134.1698 83.53606 134.43192 83.27393 134.85237 82.85352 135.11447 82.59138 135.37659 82.32925 136.05913 81.64671 136.05913 81.64671"/>
<path transform="matrix(1.00005,0,0,-1.00005,74.99249,151.24082)" stroke-width=".3985" stroke-linecap="butt" stroke-miterlimit="10" stroke-linejoin="miter" fill="none" stroke="#0000ff" d="M113.38724 108.85423C113.38724 108.85423 114.06976 108.17169 114.33188 107.90956 114.594 107.64743 115.01442 107.22702 115.27654 106.9649 115.53865 106.70277 115.9591 106.28236 116.22122 106.02023 116.48332 105.7581 116.90375 105.3377 117.16586 105.07558 117.42798 104.81345 117.8484 104.39304 118.11052 104.13092 118.37263 103.86879 118.79309 103.44838 119.05519 103.18625 119.3173 102.92412 119.73773 102.50371 119.99985 102.24158 120.26196 101.97946 120.68242 101.55904 120.94453 101.29692 121.20665 101.03479 121.62708 100.6144 121.88918 100.35226 122.15129 100.09013 122.57172 99.66972 122.83383 99.4076 123.09595 99.14548 123.5164 98.72507 123.77852 98.46294 124.04062 98.2008 124.46106 97.7804 124.72316 97.51826 124.98528 97.25613 125.40573 96.83572 125.66785 96.5736 125.92996 96.31148 126.35039 95.89108 126.6125 95.62895 126.8746 95.36682 127.29503 94.94641 127.55714 94.68428 127.81926 94.42215 128.23972 94.00174 128.50183 93.73962 128.76395 93.4775 129.18437 93.05708 129.44649 92.79495 129.70859 92.53282 130.12905 92.11241 130.39116 91.85028 130.65328 91.58815 131.0737 91.16776 131.33582 90.90564 131.59793 90.64351 132.01836 90.2231 132.28046 89.96097 132.54257 89.69884 132.96303 89.27843 133.22515 89.0163 133.48726 88.75418 133.90769 88.33377 134.1698 88.07164 134.43192 87.80951 134.85237 87.38911 135.11447 87.12698 135.37659 86.86485 136.05913 86.18231 136.05913 86.18231"/>
<path transform="matrix(1.00005,0,0,-1.00005,74.99249,151.24082)" stroke-width=".3985" stroke-linecap="butt" stroke-miterlimit="10" stroke-linejoin="miter" fill="none" stroke="#0000ff" d="M113.38724 113.38982C113.38724 113.38982 114.06976 112.70728 114.33188 112.44514 114.594 112.18303 115.01442 111.76263 115.27654 111.5005 115.53865 111.23837 115.9591 110.81796 116.22122 110.55583 116.48332 110.2937 116.90375 109.87329 117.16586 109.61116 117.42798 109.34904 117.8484 108.92863 118.11052 108.6665 118.37263 108.40437 118.79309 107.98396 119.05519 107.72183 119.3173 107.4597 119.73773 107.0393 119.99985 106.77719 120.26196 106.51506 120.68242 106.09465 120.94453 105.83252 121.20665 105.57039 121.62708 105.14998 121.88918 104.88785 122.15129 104.62572 122.57172 104.2053 122.83383 103.94319 123.09595 103.68106 123.5164 103.26067 123.77852 102.99854 124.04062 102.7364 124.46106 102.316 124.72316 102.05386 124.98528 101.79173 125.40573 101.37132 125.66785 101.1092 125.92996 100.84708 126.35039 100.42667 126.6125 100.16454 126.8746 99.9024 127.29503 99.482 127.55714 99.21986 127.81926 98.95775 128.23972 98.53735 128.50183 98.27522 128.76395 98.01309 129.18437 97.59268 129.44649 97.33055 129.70859 97.06842 130.12905 96.64801 130.39116 96.38588 130.65328 96.12376 131.0737 95.70335 131.33582 95.44122 131.59793 95.1791 132.01836 94.75868 132.28046 94.49655 132.54257 94.23442 132.96303 93.81403 133.22515 93.55191 133.48726 93.28978 133.90769 92.86937 134.1698 92.60724 134.43192 92.34511 134.85237 91.9247 135.11447 91.66257 135.37659 91.40044 136.05913 90.71791 136.05913 90.71791"/>
<path transform="matrix(1.00005,0,0,-1.00005,74.99249,151.24082)" stroke-width=".3985" stroke-linecap="butt" stroke-miterlimit="10" stroke-linejoin="miter" fill="none" stroke="#0000ff" d="M113.38724 117.92542C113.38724 117.92542 114.06976 117.24287 114.33188 116.98076 114.594 116.71863 115.01442 116.29822 115.27654 116.03609 115.53865 115.77396 115.9591 115.35355 116.22122 115.09142 116.48332 114.82928 116.90375 114.40889 117.16586 114.14677 117.42798 113.88464 117.8484 113.46423 118.11052 113.2021 118.37263 112.93997 118.79309 112.51956 119.05519 112.25743 119.3173 111.99532 119.73773 111.57489 119.99985 111.31277 120.26196 111.05064 120.68242 110.63023 120.94453 110.3681 121.20665 110.10597 121.62708 109.68558 121.88918 109.42345 122.15129 109.16133 122.57172 108.74092 122.83383 108.47879 123.09595 108.21666 123.5164 107.79625 123.77852 107.53412 124.04062 107.27199 124.46106 106.85158 124.72316 106.58945 124.98528 106.32733 125.40573 105.90692 125.66785 105.64479 125.92996 105.38266 126.35039 104.96227 126.6125 104.70013 126.8746 104.438 127.29503 104.0176 127.55714 103.75548 127.81926 103.49335 128.23972 103.07294 128.50183 102.8108 128.76395 102.54868 129.18437 102.12827 129.44649 101.86613 129.70859 101.604 130.12905 101.1836 130.39116 100.92148 130.65328 100.65935 131.0737 100.23895 131.33582 99.97682 131.59793 99.71469 132.01836 99.29428 132.28046 99.03215 132.54257 98.77003 132.96303 98.34962 133.22515 98.0875 133.48726 97.82536 133.90769 97.40495 134.1698 97.14282 134.43192 96.88069 134.85237 96.46028 135.11447 96.19815 135.37659 95.93604 136.05913 95.25351 136.05913 95.25351"/>
<path transform="matrix(1.00005,0,0,-1.00005,74.99249,151.24082)" stroke-width=".3985" stroke-linecap="butt" stroke-miterlimit="10" stroke-linejoin="miter" fill="none" stroke="#0000ff" d="M113.38724 122.461C113.38724 122.461 114.06976 121.77847 114.33188 121.51634 114.594 121.25421 115.01442 120.83382 115.27654 120.57169 115.53865 120.30956 115.9591 119.88914 116.22122 119.62701 116.48332 119.3649 116.90375 118.94449 117.16586 118.68236 117.42798 118.42023 117.8484 117.99982 118.11052 117.73769 118.37263 117.47556 118.79309 117.05515 119.05519 116.79303 119.3173 116.5309 119.73773 116.1105 119.99985 115.84837 120.26196 115.58624 120.68242 115.16583 120.94453 114.9037 121.20665 114.64157 121.62708 114.22116 121.88918 113.95905 122.15129 113.69691 122.57172 113.2765 122.83383 113.01437 123.09595 112.75224 123.5164 112.33183 123.77852 112.0697 124.04062 111.80757 124.46106 111.38718 124.72316 111.12506 124.98528 110.86293 125.40573 110.44252 125.66785 110.18039 125.92996 109.91826 126.35039 109.49785 126.6125 109.23572 126.8746 108.9736 127.29503 108.55319 127.55714 108.29106 127.81926 108.02893 128.23972 107.60852 128.50183 107.34639 128.76395 107.08426 129.18437 106.66386 129.44649 106.40173 129.70859 106.13962 130.12905 105.71921 130.39116 105.45708 130.65328 105.19495 131.0737 104.77454 131.33582 104.5124 131.59793 104.25027 132.01836 103.82986 132.28046 103.56775 132.54257 103.30562 132.96303 102.88522 133.22515 102.6231 133.48726 102.36096 133.90769 101.94055 134.1698 101.67842 134.43192 101.41629 134.85237 100.99588 135.11447 100.73376 135.37659 100.47163 136.05913 99.7891 136.05913 99.7891"/>
<path transform="matrix(1.00005,0,0,-1.00005,74.99249,151.24082)" stroke-width=".3985" stroke-linecap="butt" stroke-miterlimit="10" stroke-linejoin="miter" fill="none" stroke="#0000ff" d="M113.38724 126.99661C113.38724 126.99661 114.06976 126.31407 114.33188 126.05194 114.594 125.78981 115.01442 125.3694 115.27654 125.10727 115.53865 124.84514 115.9591 124.42473 116.22122 124.16261 116.48332 123.90048 116.90375 123.48007 117.16586 123.21794 117.42798 122.95581 117.8484 122.53542 118.11052 122.27328 118.37263 122.01117 118.79309 121.59074 119.05519 121.32863 119.3173 121.0665 119.73773 120.64609 119.99985 120.38396 120.26196 120.12183 120.68242 119.70142 120.94453 119.43929 121.20665 119.17717 121.62708 118.75676 121.88918 118.49463 122.15129 118.2325 122.57172 117.8121 122.83383 117.54997 123.09595 117.28784 123.5164 116.86743 123.77852 116.6053 124.04062 116.34319 124.46106 115.92278 124.72316 115.66064 124.98528 115.39851 125.40573 114.9781 125.66785 114.71597 125.92996 114.45384 126.35039 114.03345 126.6125 113.77133 126.8746 113.5092 127.29503 113.08879 127.55714 112.82666 127.81926 112.56453 128.23972 112.14412 128.50183 111.88199 128.76395 111.61986 129.18437 111.19945 129.44649 110.93733 129.70859 110.6752 130.12905 110.25479 130.39116 109.99266 130.65328 109.73053 131.0737 109.31013 131.33582 109.048 131.59793 108.78589 132.01836 108.36548 132.28046 108.10335 132.54257 107.84122 132.96303 107.4208 133.22515 107.15868 133.48726 106.89655 133.90769 106.47614 134.1698 106.214 134.43192 105.95189 134.85237 105.53148 135.11447 105.26935 135.37659 105.00722 136.05913 104.32469 136.05913 104.32469"/>
<path transform="matrix(1.00005,0,0,-1.00005,74.99249,151.24082)" stroke-width=".3985" stroke-linecap="butt" stroke-miterlimit="10" stroke-linejoin="miter" fill="none" stroke="#0000ff" d="M113.38724 131.5322C113.38724 131.5322 114.06976 130.84966 114.33188 130.58753 114.594 130.3254 115.01442 129.905 115.27654 129.64287 115.53865 129.38076 115.9591 128.96035 116.22122 128.69821 116.48332 128.43608 116.90375 128.01567 117.16586 127.75354 117.42798 127.49141 117.8484 127.071 118.11052 126.80888 118.37263 126.54675 118.79309 126.12634 119.05519 125.86421 119.3173 125.60208 119.73773 125.18169 119.99985 124.91956 120.26196 124.65742 120.68242 124.23701 120.94453 123.9749 121.20665 123.71277 121.62708 123.29236 121.88918 123.03023 122.15129 122.7681 122.57172 122.34769 122.83383 122.08556 123.09595 121.82343 123.5164 121.40302 123.77852 121.1409 124.04062 120.87877 124.46106 120.45837 124.72316 120.19624 124.98528 119.93411 125.40573 119.5137 125.66785 119.25157 125.92996 118.98946 126.35039 118.56905 126.6125 118.30692 126.8746 118.04478 127.29503 117.62437 127.55714 117.36224 127.81926 117.10011 128.23972 116.6797 128.50183 116.41757 128.76395 116.15546 129.18437 115.73506 129.44649 115.47293 129.70859 115.2108 130.12905 114.79039 130.39116 114.52826 130.65328 114.26613 131.0737 113.84572 131.33582 113.5836 131.59793 113.32147 132.01836 112.90106 132.28046 112.63893 132.54257 112.3768 132.96303 111.95639 133.22515 111.69426 133.48726 111.43213 133.90769 111.01173 134.1698 110.74962 134.43192 110.48749 134.85237 110.06708 135.11447 109.80495 135.37659 109.54282 136.05913 108.86028 136.05913 108.86028"/>
</g>
</svg>
