<svg xmlns="http://www.w3.org/2000/svg" xmlns:xlink="http://www.w3.org/1999/xlink" xmlns:inkscape="http://www.inkscape.org/namespaces/inkscape" version="1.1" width="202" height="201" viewBox="0 0 202 201">
<defs>
<clipPath id="clip_1">
<path transform="matrix(1.00006,0,0,-1.00006,101.11492,100.819087)" d="M-99.21382-99.21382V99.21382H99.21382V-99.21382ZM99.21382 99.21382"/>
</clipPath>
<path id="font_2_2" d="M.48599244 .38136292C.48999024 .39537049 .48999024 .39736939 .48999024 .40437318 .48999024 .42237855 .47599793 .43138124 .46099855 .43138124 .45098878 .43138124 .43499757 .42536927 .42599488 .41036988 .42399598 .405365 .41600038 .37435914 .4119873 .35635377 .40499879 .33035279 .397995 .30334474 .3919983 .27633668L.34700013 .09628296C.34298707 .08126831 .2999878 .011245728 .23399353 .011245728 .18299866 .011245728 .17199707 .055267335 .17199707 .0922699 .17199707 .1382904 .18899536 .20030213 .22299195 .28833009 .23899842 .3293457 .24299622 .3403473 .24299622 .36035157 .24299622 .405365 .21099854 .4423828 .16099549 .4423828 .06599426 .4423828 .0289917 .29733277 .0289917 .28833009 .0289917 .27833558 .038986207 .27833558 .040985109 .27833558 .050994874 .27833558 .051986696 .28033448 .056991579 .29634095 .083999637 .3903656 .12399292 .42037965 .1579895 .42037965 .1659851 .42037965 .18299866 .42037965 .18299866 .3883667 .18299866 .36335755 .17298889 .3373413 .1659851 .31834413 .12599182 .21231079 .10798645 .1552887 .10798645 .10827637 .10798645 .019256592 .17098999-.0107421879 .22999573-.0107421879 .2689972-.0107421879 .30299378 .0062561037 .33099366 .03425598 .31799317-.017745972 .30599977-.06674194 .2659912-.11973572 .23999024-.15385437 .20199585-.18309021 .1559906-.18309021 .14199829-.18309021 .09700012-.18005371 .07998657-.14074707 .09599304-.14074707 .10899353-.14074707 .12298584-.1287384 .1329956-.11973572 .14299011-.10673523 .14299011-.08773804 .14299011-.056747438 .115997318-.052734376 .10598755-.052734376 .08299255-.052734376 .049987794-.068740848 .049987794-.11773682 .049987794-.16796875 .09399414-.20507813 .1559906-.20507813 .25898744-.20507813 .3619995-.11373901 .3899994-.00074768069L.48599244 .38136292Z"/>
<path id="font_3_1" d="M.68699648 .32714845C.70199587 .32714845 .72099307 .32714845 .72099307 .34713746 .72099307 .36714173 .70199587 .36714173 .6879883 .36714173H.08898926C.07499695 .36714173 .055999757 .36714173 .055999757 .34713746 .055999757 .32714845 .07499695 .32714845 .08999634 .32714845H.68699648M.6879883 .13284302C.70199587 .13284302 .72099307 .13284302 .72099307 .15284729 .72099307 .17285156 .70199587 .17285156 .68699648 .17285156H.08999634C.07499695 .17285156 .055999757 .17285156 .055999757 .15284729 .055999757 .13284302 .07499695 .13284302 .08898926 .13284302H.6879883Z"/>
<path id="font_3_2" d="M.33299256 .076156619C.33699037 .036132814 .3639984-.005859375 .41099549-.005859375 .43199159-.005859375 .49299623 .008132935 .49299623 .089157108V.14518738H.46798707V.089157108C.46798707 .031143189 .44299317 .025131226 .43199159 .025131226 .39898683 .025131226 .394989 .07015991 .394989 .075149539V.27514649C.394989 .31707765 .394989 .3560791 .35899354 .39312745 .31999208 .43223573 .269989 .4482422 .22200012 .4482422 .13999939 .4482422 .070999149 .40115357 .070999149 .335083 .070999149 .30508424 .09098816 .28808595 .116989139 .28808595 .14498902 .28808595 .16299439 .30807496 .16299439 .33407594 .16299439 .3460846 .1579895 .3790741 .11199951 .38008119 .13899231 .41519166 .18798828 .426239 .21998596 .426239 .2689972 .426239 .32598878 .38710023 .32598878 .29808045V.26123048C.2749939 .2582245 .20498657 .25523377 .14199829 .22523499 .066986087 .1912384 .041992189 .13923645 .041992189 .09524536 .041992189 .014251709 .13899231-.0107421879 .20199585-.0107421879 .2679901-.010864258 .31399537 .029129029 .33299256 .076156619M.32598878 .24023438V.1401825C.32598878 .045135499 .2539978 .011138916 .20899964 .011138916 .1599884 .011138916 .11898804 .046142579 .11898804 .09616089 .11898804 .15118408 .16099549 .23422241 .32598878 .24023438Z"/>
<path id="font_3_5" d="M.16699219 .3323059V.4423828L.027999878 .43138124V.40037538C.09799194 .40037538 .10598755 .39337159 .10598755 .34431459V.076034549C.10598755 .0309906 .09498596 .0309906 .027999878 .0309906V0C.066986087 .0009918213 .11399841 .0029907227 .14199829 .0029907227 .18199158 .0029907227 .22898865 .0029907227 .2689972 0V.0309906H.24798584C.17399597 .0309906 .17199707 .042007448 .17199707 .07803345V.232193C.17199707 .33128358 .21398926 .42037965 .2899933 .42037965 .29699708 .42037965 .29899598 .42037965 .30099488 .41937257 .2979889 .41838075 .27799989 .4063568 .27799989 .38034059 .27799989 .35231019 .29899598 .33729554 .32099916 .33729554 .33898927 .33729554 .3639984 .3493042 .3639984 .3813324 .3639984 .41337586 .33299256 .4423828 .2899933 .4423828 .21699524 .4423828 .18099976 .37535096 .16699219 .3323059Z"/>
<path id="font_3_3" d="M.116989139 .21801758C.116989139 .38093568 .19898987 .42323304 .2519989 .42323304 .26098634 .42323304 .32398988 .42222596 .35899354 .38594056 .31799317 .38293458 .31199647 .3529358 .31199647 .3399353 .31199647 .31393434 .32998658 .2939453 .35798646 .2939453 .38398744 .2939453 .4039917 .3109436 .4039917 .34094239 .4039917 .40911866 .32798768 .4482422 .25099183 .4482422 .12599182 .4482422 .033996583 .3399353 .033996583 .21601868 .033996583 .08816528 .1329956-.0107421879 .24899292-.0107421879 .3829956-.0107421879 .4149933 .10914612 .4149933 .119140628 .4149933 .12911988 .40499879 .12911988 .4019928 .12911988 .3929901 .12911988 .3909912 .12512207 .3889923 .119140628 .3600006 .026229859 .29499818 .014251709 .2579956 .014251709 .20498657 .014251709 .116989139 .0572052 .116989139 .21801758Z"/>
<path id="font_3_6" d="M.17298889 .3996582H.31599427V.43066407H.17298889V.6147156H.147995C.14698792 .5326996 .116989139 .42565919 .018997193 .42166139V.3996582H.10398865V.12416077C.10398865 .0012512207 .19699097-.0107421879 .23298645-.0107421879 .3039856-.0107421879 .33198548 .06021118 .33198548 .12416077V.18112183H.30699159V.12615967C.30699159 .052215578 .2769928 .014251709 .23999024 .014251709 .17298889 .014251709 .17298889 .10517883 .17298889 .122161868V.3996582Z"/>
<path id="font_3_4" d="M.10998535 .34429933V.076034549C.10998535 .0309906 .09899902 .0309906 .03199768 .0309906V0C.066986087 .0009918213 .117996219 .0029907227 .14498902 .0029907227 .17098999 .0029907227 .22299195 .0009918213 .25698854 0V.0309906C.18998719 .0309906 .1789856 .0309906 .1789856 .076034549V.2602234C.1789856 .36431886 .25 .42037965 .31399537 .42037965 .3769989 .42037965 .3880005 .36631776 .3880005 .30926515V.076034549C.3880005 .0309906 .3769989 .0309906 .30999757 .0309906V0C.34498597 .0009918213 .3959961 .0029907227 .4229889 .0029907227 .44898988 .0029907227 .5009918 .0009918213 .5349884 0V.0309906C.48298646 .0309906 .45799256 .0309906 .45700074 .061019899V.25221253C.45700074 .3383026 .45700074 .36932374 .42599488 .405365 .4119873 .42237855 .3789978 .4423828 .32099916 .4423828 .24798584 .4423828 .20098877 .39935304 .17298889 .33729554V.4423828L.03199768 .43138124V.40037538C.101989749 .4003601 .10998535 .39335633 .10998535 .34429933Z"/>
<path id="font_2_1" d="M.33399964 .30233766C.33999635 .32835389 .36299134 .42037965 .43299867 .42037965 .43798829 .42037965 .46199037 .42037965 .48298646 .40734864 .45498658 .402359 .43499757 .37734986 .43499757 .35334779 .43499757 .33735658 .44599916 .31835938 .47299195 .31835938 .49499513 .31835938 .5269928 .3363495 .5269928 .37635804 .5269928 .42837525 .46798707 .4423828 .43399049 .4423828 .37599183 .4423828 .34098817 .38935853 .32899476 .36634828 .3039856 .43237306 .25 .4423828 .22099304 .4423828 .116989139 .4423828 .05999756 .3133545 .05999756 .28834535 .05999756 .27833558 .069992069 .27833558 .07199097 .27833558 .07998657 .27833558 .08299255 .28033448 .084991458 .28933717 .11898804 .39535523 .18499756 .42037965 .21899414 .42037965 .23799134 .42037965 .272995 .4113617 .272995 .35334779 .272995 .32235719 .2559967 .25532533 .21899414 .11528015 .20298767 .053268434 .16799927 .011245728 .12399292 .011245728 .117996219 .011245728 .09498596 .011245728 .07398987 .024276734 .09899902 .029266358 .12098694 .05027771 .12098694 .07827759 .12098694 .105270389 .09899902 .11328125 .083999637 .11328125 .053985597 .11328125 .0289917 .08728027 .0289917 .055267335 .0289917 .009246826 .07899475-.0107421879 .12298584-.0107421879 .18899536-.0107421879 .22499085 .059280397 .22799683 .0652771 .23999024 .028274537 .27598573-.0107421879 .33599855-.0107421879 .43899537-.0107421879 .49598695 .118270877 .49598695 .14328003 .49598695 .1532898 .4869995 .1532898 .48399354 .1532898 .47499085 .1532898 .47299195 .14929199 .47099305 .14228821 .43798829 .03527832 .36999513 .011245728 .33799745 .011245728 .29899598 .011245728 .2829895 .043273927 .2829895 .07727051 .2829895 .09927368 .2889862 .121276859 .2999878 .16529846L.33399964 .30233766Z"/>
<path id="font_4_1" d="M.5019989 .38536073C.5029907 .3903656 .5049896 .39637757 .5049896 .40237428 .5049896 .41537477 .49598695 .43138124 .47399903 .43138124 .46099855 .43138124 .44299317 .42337037 .43499757 .40437318 .43399049 .40037538 .42399598 .35935975 .41799928 .33735658L.36799623 .13728333C.3600006 .10827637 .3600006 .106277469 .35798646 .09727478 .35699464 .09327698 .31498719 .014251709 .24299622 .014251709 .18099976 .014251709 .18099976 .07727051 .18099976 .09628296 .18099976 .14129639 .19400025 .19030762 .23699951 .30233766 .24499512 .3253479 .25099183 .33935548 .25099183 .35835267 .25099183 .40737916 .21398926 .4423828 .16499329 .4423828 .068984989 .4423828 .0289917 .30033876 .0289917 .28833009 .0289917 .2793274 .035995485 .27633668 .042999269 .27633668 .053985597 .27633668 .054992677 .28233338 .05899048 .29533387 .07998657 .3693695 .11999512 .41737367 .1619873 .41737367 .18598938 .41737367 .18598938 .39837647 .18598938 .3843689 .18598938 .36735536 .18199158 .34934999 .17298889 .3253479 .12599182 .2013092 .11299133 .15930176 .11299133 .11128235 .11299133 .00024414063 .20298767-.0107421879 .23999024-.0107421879 .2889862-.0107421879 .32398988 .01524353 .34199525 .0332489 .32899476-.017745972 .31799317-.0627594 .2789917-.11276245 .24899292-.15286255 .20899964-.18008423 .16499329-.18008423 .13699341-.18008423 .10398865-.16999817 .08999634-.14176941 .14299011-.14176941 .1499939-.09776306 .1499939-.087768558 .1499939-.06576538 .13398743-.051757814 .11199951-.051757814 .08799744-.051757814 .055999757-.07077026 .055999757-.116760257 .055999757-.16899109 .101989749-.20507813 .16499329-.20507813 .2669983-.20507813 .37599183-.117767337 .40499879-.00074768069L.5019989 .38536073Z"/>
<path id="font_5_1" d="M.70799258 .3310089C.7220001 .3310089 .7409973 .3310089 .7409973 .35202027 .7409973 .37402345 .71899417 .37402345 .70399478 .37402345H.09399414C.07899475 .37402345 .056991579 .37402345 .056991579 .35202027 .056991579 .3310089 .07699585 .3310089 .08999634 .3310089H.70799258M.70399478 .12695313C.71899417 .12695313 .7409973 .12695313 .7409973 .14894104 .7409973 .1699524 .7220001 .1699524 .70799258 .1699524H.08999634C.07699585 .1699524 .056991579 .1699524 .056991579 .14894104 .056991579 .12695313 .07899475 .12695313 .09399414 .12695313H.70399478Z"/>
<path id="font_6_1" d="M.33999635 .35964967H.46299745C.44198609 .2718048 .42900086 .20690918 .42900086 .14201355 .42900086 .09109497 .44299317-.009765625 .48999024-.009765625 .5159912-.009765625 .5389862 .014221191 .5389862 .03617859 .5389862 .045166017 .5339966 .05316162 .5319977 .058151246 .49499513 .1240387 .4889984 .1879425 .4889984 .23886109 .4889984 .25482179 .4889984 .29875184 .5019989 .35964967H.6339874C.6459961 .35964967 .68899539 .35964967 .68899539 .40065003 .68899539 .43066407 .6609955 .43066407 .6439972 .43066407H.24598694C.22599793 .43066407 .18099976 .43066407 .1269989 .380661 .09599304 .3516693 .05999756 .30374146 .05999756 .2937622 .05999756 .27978517 .07398987 .27978517 .07798767 .27978517 .08898926 .27978517 .09098816 .28178407 .09799194 .29077149 .114990238 .31472779 .1539917 .35964967 .23599243 .35964967H.30099488C.2669983 .2358551 .19898987 .10107422 .18598938 .07511902 .1769867 .059143068 .1639862 .034194948 .1639862 .02420044 .1639862 .0032196046 .17999268-.009765625 .19999695-.009765625 .23498535-.009765625 .24699402 .02520752 .2579956 .057144166 .27799989 .12004089 .27799989 .122039798 .2919922 .1759491L.33999635 .35964967Z"/>
<path id="font_7_1" d="M.5379944 .18702698H.5009918C.49899293 .17301941 .4889984 .10699463 .47399903 .09599304 .46699525 .08999634 .38598634 .08999634 .37199403 .08999634H.18499756L.31298829 .19403076C.34700013 .22103882 .43598939 .28504945 .46699525 .31506349 .49699403 .3450775 .5379944 .39608766 .5379944 .46710206 .5379944 .5920563 .4249878 .66503909 .29100038 .66503909 .1619873 .66503909 .07199097 .58006289 .07199097 .48609925 .07199097 .43510438 .114990238 .42910768 .12599182 .42910768 .15098572 .42910768 .17999268 .44709779 .17999268 .48310853 .17999268 .50509646 .16699219 .5371094 .12298584 .5371094 .1459961 .5880585 .20698548 .6260376 .27598573 .6260376 .3809967 .6260376 .43699647 .5480957 .43699647 .46710206 .43699647 .39608766 .3899994 .32305909 .31999208 .25904847L.08299255 .041992189C.07299805 .03199768 .07199097 .0309906 .07199097 0H.5069885L.5379944 .18702698Z"/>
<path id="font_8_1" d="M.6749878 .22944641C.69299319 .22944641 .71199038 .22944641 .71199038 .25144959 .71199038 .27246095 .69200137 .27246095 .6749878 .27246095H.12298584C.10598755 .27246095 .085998538 .27246095 .085998538 .25144959 .085998538 .22944641 .10499573 .22944641 .12298584 .22944641H.6749878Z"/>
</defs>
<g clip-path="url(#clip_1)">
<path transform="matrix(1.00006,0,0,-1.00006,101.11492,100.819087)" stroke-width=".79701" stroke-linecap="butt" stroke-miterlimit="10" stroke-linejoin="miter" fill="none" stroke="#000000" d="M-99.21382 0H98.50645"/>
<path transform="matrix(1.00006,0,0,-1.00006,199.62728,100.819087)" stroke-width=".6376" stroke-linecap="round" stroke-linejoin="round" fill="none" stroke="#000000" d="M-1.55415 2.0722C-1.42464 1.29512 0 .1295 .38852 0 0-.1295-1.42464-1.29512-1.55415-2.0722"/>
<path transform="matrix(1.00006,0,0,-1.00006,101.11492,100.819087)" stroke-width=".79701" stroke-linecap="butt" stroke-miterlimit="10" stroke-linejoin="miter" fill="none" stroke="#000000" d="M0-99.21382V98.50645"/>
<path transform="matrix(0,-1.00006,-1.00006,-0,101.11492,2.3067322)" stroke-width=".6376" stroke-linecap="round" stroke-linejoin="round" fill="none" stroke="#000000" d="M-1.55415 2.0722C-1.42464 1.29512 0 .1295 .38852 0 0-.1295-1.42464-1.29512-1.55415-2.0722"/>
<path transform="matrix(1.00006,0,0,-1.00006,101.11492,100.819087)" stroke-width=".79701" stroke-linecap="butt" stroke-miterlimit="10" stroke-linejoin="miter" fill="none" stroke="#0000ff" d="M-99.21382-40.50456C-99.21382-40.50456-98.49347-40.47452-98.21681-40.46349-97.94016-40.45244-97.49648-40.43614-97.21982-40.42499-96.94316-40.41383-96.49948-40.39502-96.22281-40.38303-95.94615-40.37103-95.50249-40.35083-95.22583-40.33847-94.94916-40.32611-94.50548-40.30617-94.22882-40.29393-93.95216-40.2817-93.50848-40.26248-93.23183-40.25024-92.95517-40.238-92.51147-40.2184-92.23482-40.20569-91.95816-40.19298-91.51448-40.17162-91.23781-40.15854-90.96115-40.14546-90.51749-40.12483-90.24081-40.1114-89.96416-40.09796-89.52048-40.07545-89.24382-40.06166-88.96715-40.04787-88.52348-40.02573-88.24683-40.01192-87.97017-39.99811-87.52647-39.97638-87.24982-39.96216-86.97316-39.94795-86.52948-39.92392-86.25282-39.9094-85.97617-39.89488-85.53249-39.87238-85.25581-39.8575-84.97916-39.84262-84.53548-39.81743-84.25882-39.80212-83.98215-39.78683-83.53848-39.76248-83.26183-39.7472-82.98515-39.7319-82.54147-39.70792-82.26482-39.69183-81.98816-39.67577-81.54448-39.64764-81.26782-39.63127-80.99117-39.6149-80.54747-39.59012-80.27081-39.57375-79.99416-39.55737-79.55049-39.53036-79.27382-39.5132-78.99716-39.49603-78.55348-39.46797-78.27682-39.45004-78.00015-39.4321-77.55647-39.40216-77.27982-39.38387-77.00316-39.36555-76.55948-39.3363-76.28282-39.31812-76.00616-39.29993-75.56247-39.27133-75.28581-39.2528-75.00916-39.23428-74.56549-39.20384-74.28882-39.18446-74.01216-39.16508-73.56848-39.13326-73.29181-39.1131-73.01515-39.09294-72.57149-39.05965-72.29483-39.03912-72.01816-39.0186-71.57448-38.98634-71.29782-38.96516-71.02116-38.944-70.57747-38.9083-70.30081-38.88646-70.02415-38.86461-69.58047-38.82964-69.30382-38.80772-69.02716-38.78581-68.58348-38.75119-68.30681-38.72856-68.03015-38.70595-67.58649-38.66841-67.30983-38.64465-67.03316-38.6209-66.58948-38.5814-66.31282-38.55728-66.03615-38.53316-65.59247-38.49554-65.31581-38.47078-65.03915-38.446-64.59547-38.40451-64.31882-38.37865-64.04216-38.35278-63.59846-38.31093-63.32181-38.28435-63.04515-38.25778-62.60149-38.21439-62.32481-38.18703-62.04816-38.15967-61.60448-38.11508-61.32782-38.08713-61.05115-38.05916-60.60748-38.01408-60.33083-37.98546-60.05417-37.95683-59.61047-37.91057-59.33382-37.8808-59.05716-37.85103-58.61346-37.80177-58.3368-37.77094-58.06015-37.7401-57.61649-37.6904-57.33981-37.65846-57.06316-37.62654-56.61948-37.57376-56.3428-37.54082-56.06615-37.50787-55.62248-37.45497-55.34583-37.42102-55.06915-37.38705-54.62547-37.33136-54.34882-37.296-54.07216-37.26067-53.62848-37.20291-53.35182-37.16624-53.07516-37.12958-52.63147-37.06947-52.35481-37.03172-52.07816-36.99397-51.63448-36.93335-51.3578-36.89418-51.08115-36.855-50.63748-36.79007-50.36082-36.74927-50.08415-36.70847-49.64047-36.64217-49.36382-36.60005-49.08714-36.55792-48.64348-36.4895-48.36682-36.44565-48.09016-36.40178-47.64647-36.32935-47.36981-36.28386-47.09315-36.23837-46.64948-36.16481-46.37282-36.11777-46.09616-36.07071-45.65248-35.99384-45.37581-35.94475-45.09915-35.89566-44.65547-35.81538-44.37881-35.76395-44.10214-35.71252-43.65848-35.62735-43.38182-35.57407-43.10516-35.52078-42.66147-35.43542-42.38481-35.37987-42.10815-35.3243-41.66447-35.232-41.38782-35.17354-41.11116-35.11508-40.66748-35.01918-40.39081-34.95857-40.11415-34.89796-39.67049-34.80011-39.39381-34.73668-39.11716-34.67326-38.67348-34.56781-38.39682-34.50139-38.12015-34.43495-37.67647-34.32729-37.39981-34.25786-37.12315-34.18843-36.67947-34.07402-36.40282-34.00093-36.12616-33.92784-35.68246-33.8076-35.4058-33.73102-35.12915-33.65445-34.68549-33.52937-34.40881-33.449-34.13216-33.36865-33.68848-33.23624-33.41182-33.15186-33.13515-33.06749-32.69148-32.92963-32.41483-32.84087-32.13815-32.75212-31.69447-32.60587-31.41782-32.51213-31.14116-32.4184-30.69746-32.26378-30.4208-32.16524-30.14415-32.0667-29.70047-31.90596-29.42381-31.80191-29.14716-31.69785-28.70348-31.52574-28.4268-31.41522-28.15015-31.30469-27.70648-31.12213-27.42982-31.00517-27.15315-30.88821-26.70947-30.69589-26.43282-30.5722-26.15616-30.44852-25.71248-30.24477-25.43582-30.11371-25.15916-29.98265-24.71547-29.76694-24.43881-29.62753-24.16216-29.48814-23.71848-29.25714-23.4418-29.10892-23.16515-28.96071-22.72148-28.717-22.44481-28.55917-22.16815-28.40135-21.72447-28.13982-21.44781-27.97136-21.17114-27.8029-20.72748-27.5247-20.45082-27.34503-20.17416-27.16536-19.73047-26.86842-19.45381-26.67633-19.17715-26.48424-18.73347-26.16591-18.45682-25.96048-18.18016-25.75507-17.73648-25.41576-17.45981-25.19576-17.18315-24.97575-16.73947-24.61064-16.46281-24.3748-16.18614-24.13896-15.74248-23.7486-15.46582-23.49588-15.18915-23.24316-14.74547-22.82422-14.46881-22.55338-14.19215-22.28253-13.74847-21.83443-13.47182-21.54384-13.19516-21.25325-12.75148-20.77103-12.47481-20.45903-12.19815-20.14702-11.75449-19.62946-11.47781-19.29507-11.20116-18.9607-10.75748-18.40678-10.48082-18.04893-10.20415-17.69109-9.76047-17.09813-9.48381-16.71585-9.20715-16.33356-8.76347-15.70097-8.48682-15.29367-8.21016-14.88637-7.76646-14.21266-7.4898-13.78021-7.21315-13.34775-6.76949-12.63391-6.49281-12.17679-6.21616-11.71967-5.77248-10.96628-5.49582-10.48557-5.21915-10.00487-4.77547-9.21436-4.49881-8.71217-4.22214-8.20999-3.77847-7.38693-3.50182-6.86609-3.22516-6.34523-2.78146-5.49402-2.5048-4.95816-2.22815-4.4223-1.78447-3.55026-1.50781-3.00397-1.23116-2.45767-.78748-1.57234-.5108-1.02077-.23415-.46921 .20949 .41983 .48615 .97147 .76282 1.52309 1.2065 2.40855 1.48315 2.9551 1.75981 3.50163 2.2035 4.37442 2.48016 4.91058 2.75682 5.44675 3.2005 6.29816 3.47716 6.81937 3.75381 7.34059 4.1975 8.16446 4.47417 8.66719 4.75082 9.16992 5.19449 9.9615 5.47116 10.44275 5.74782 10.924 6.1915 11.67798 6.46815 12.1357 6.74483 12.59341 7.18849 13.3086 7.46515 13.74171 7.7418 14.17484 8.1855 14.84938 8.46216 15.25734 8.73882 15.6653 9.18251 16.29924 9.45917 16.68211 9.73582 17.06499 10.17949 17.65852 10.45616 18.01692 10.73282 18.37532 11.1765 18.9303 11.45316 19.26523 11.72983 19.60016 12.1735 20.11838 12.45015 20.43092 12.72682 20.74345 13.1705 21.22684 13.44716 21.5179 13.72382 21.80894 14.1675 22.2573 14.44415 22.52873 14.72081 22.80016 15.1645 23.22105 15.44116 23.47424 15.71782 23.72743 16.1615 24.11765 16.43817 24.3536 16.71483 24.58957 17.1585 24.95451 17.43515 25.175 17.71182 25.3955 18.1555 25.73672 18.43216 25.94275 18.70882 26.14876 19.1525 26.46744 19.42915 26.6599 19.70581 26.85236 20.1495 27.14986 20.42616 27.3299 20.70282 27.50993 21.14648 27.78894 21.42316 27.9575 21.69981 28.12608 22.1435 28.38689 22.42017 28.5449 22.69682 28.70291 23.1405 28.94792 23.41716 29.09637 23.69383 29.24484 24.1375 29.47536 24.41415 29.61499 24.69081 29.75464 25.1345 29.9716 25.41116 30.1029 25.68782 30.2342 26.1315 30.43747 26.40816 30.5614 26.68481 30.68532 27.1285 30.8792 27.40517 30.9961 27.68182 31.113 28.12549 31.29378 28.40215 31.40396 28.67882 31.51414 29.1225 31.68562 29.39915 31.79024 29.67583 31.89484 30.1195 32.05876 30.39616 32.1579 30.67282 32.25702 31.1165 32.411 31.39316 32.50479 31.66982 32.59859 32.11351 32.74513 32.39017 32.83394 32.66682 32.92274 33.11049 33.0607 33.38716 33.14494 33.66382 33.22919 34.1075 33.36058 34.38416 33.44122 34.66083 33.52188 35.10449 33.64963 35.38115 33.72627 35.6578 33.8029 36.1015 33.92085 36.37816 33.99358 36.65482 34.0663 37.09851 34.18071 37.37517 34.2505 37.65182 34.3203 38.09549 34.43019 38.37216 34.49663 38.64882 34.56306 39.0925 34.66595 39.36917 34.72932 39.64583 34.79268 40.0895 34.89247 40.36615 34.95338 40.64282 35.0143 41.0865 35.10997 41.36316 35.16835 41.63982 35.22675 42.0835 35.31831 42.36015 35.37424 42.63681 35.43016 43.0805 35.51808 43.35716 35.57149 43.63382 35.6249 44.0775 35.70813 44.35417 35.7592 44.63083 35.81026 45.0745 35.89053 45.35115 35.93956 45.62782 35.98859 46.0715 36.06512 46.34816 36.11258 46.62483 36.16003 47.0685 36.23586 47.34515 36.28171 47.62181 36.32755 48.0655 36.39925 48.34216 36.44304 48.61882 36.48683 49.06252 36.55534 49.33917 36.59746 49.61583 36.63959 50.0595 36.70625 50.33617 36.74669 50.61282 36.78712 51.0565 36.84988 51.33316 36.88899 51.60983 36.9281 52.0535 36.9906 52.33015 37.0287 52.60681 37.06679 53.0505 37.12729 53.32716 37.16365 53.60382 37.20001 54.0475 37.25583 54.32416 37.29082 54.60081 37.32579 55.0445 37.38148 55.32117 37.41582 55.59782 37.45015 56.0415 37.50493 56.31818 37.53822 56.59483 37.57152 57.0385 37.62401 57.31516 37.65587 57.59183 37.68773 58.0355 37.73712 58.31216 37.76791 58.58882 37.79869 59.0325 37.848 59.30916 37.87778 59.58582 37.90753 60.02951 37.9537 60.30617 37.98244 60.58282 38.01117 61.02649 38.05695 61.30316 38.08496 61.57982 38.11298 62.0235 38.15714 62.30016 38.18445 62.57683 38.21175 63.02051 38.25513 63.29716 38.28177 63.57384 38.3084 64.0175 38.35063 64.29416 38.3765 64.57082 38.40234 65.01451 38.4434 65.29117 38.46819 65.56783 38.49297 66.0115 38.53108 66.28816 38.55513 66.56482 38.57918 67.0085 38.61798 67.28517 38.64163 67.56183 38.66527 68.0055 38.70251 68.28215 38.72554 68.55882 38.74858 69.0025 38.7854 69.27916 38.80772 69.55582 38.83005 69.99951 38.86491 70.27617 38.88646 70.55283 38.90799 70.9965 38.9422 71.27316 38.96301 71.54982 38.98383 71.9935 39.01614 72.27017 39.03654 72.54683 39.05695 72.9905 39.08998 73.26717 39.11008 73.54382 39.13017 73.9875 39.16205 74.26416 39.18144 74.54083 39.20082 74.9845 39.23082 75.26115 39.24979 75.53781 39.26874 75.9815 39.29953 76.25816 39.31812 76.53482 39.3367 76.97852 39.36598 77.25517 39.38387 77.53183 39.40175 77.9755 39.42944 78.25217 39.447 78.52882 39.46458 78.9725 39.49344 79.24916 39.5106 79.52583 39.52777 79.9695 39.55399 80.24615 39.57072 80.52283 39.58746 80.9665 39.61484 81.24316 39.63127 81.51982 39.6477 81.9635 39.67317 82.24016 39.68924 82.51682 39.7053 82.9605 39.73154 83.23717 39.7472 83.51382 39.76285 83.9575 39.78683 84.23418 39.80212 84.51083 39.81743 84.9545 39.84262 85.23116 39.8575 85.50783 39.87238 85.9515 39.89488 86.22816 39.9094 86.50482 39.92392 86.9485 39.94795 87.22516 39.96216 87.50182 39.97638 87.94551 39.99811 88.22217 40.01192 88.49883 40.02573 88.94249 40.04828 89.21916 40.06166 89.49582 40.07504 89.9395 40.09494 90.21616 40.10837 90.49283 40.12181 90.93651 40.14546 91.21317 40.15854 91.48984 40.17162 91.9335 40.18996 92.21016 40.20265 92.48682 40.21536 92.93051 40.23758 93.20717 40.25024 93.48383 40.26291 93.9275 40.2817 94.20416 40.29393 94.48082 40.30617 94.9245 40.32648 95.20117 40.33847 95.47783 40.35046 95.9215 40.36885 96.19815 40.38043 96.47482 40.39201 96.9185 40.41045 97.19516 40.42197 97.47182 40.43347 97.91551 40.4519 98.19217 40.46349 98.46883 40.47505 99.18916 40.50543 99.18916 40.50543"/>
<use data-text="y" xlink:href="#font_2_2" transform="matrix(9.963197,0,0,-9.963197,37.4691,85.90519)"/>
<use data-text="=" xlink:href="#font_3_1" transform="matrix(9.963197,0,0,-9.963197,45.478578,85.90519)"/>
<use data-text="a" xlink:href="#font_3_2" transform="matrix(9.963197,0,0,-9.963197,55.979784,85.90519)"/>
<use data-text="r" xlink:href="#font_3_5" transform="matrix(9.963197,0,0,-9.963197,60.96138,85.90519)"/>
<use data-text="c" xlink:href="#font_3_3" transform="matrix(9.963197,0,0,-9.963197,64.85698,85.90519)"/>
<use data-text="t" xlink:href="#font_3_6" transform="matrix(9.963197,0,0,-9.963197,69.280658,85.90519)"/>
<use data-text="a" xlink:href="#font_3_2" transform="matrix(9.963197,0,0,-9.963197,73.14638,85.90519)"/>
<use data-text="n" xlink:href="#font_3_4" transform="matrix(9.963197,0,0,-9.963197,78.12796,85.90519)"/>
<use data-text="x" xlink:href="#font_2_1" transform="matrix(9.963197,0,0,-9.963197,85.35997,85.90519)"/>
<path transform="matrix(1.00006,0,0,-1.00006,101.11492,100.819087)" stroke-width=".3985" stroke-linecap="butt" stroke-dasharray="2.98883,2.98883" stroke-miterlimit="10" stroke-linejoin="miter" fill="none" stroke="#ff0000" d="M-99.21382 44.52673H99.21382"/>
<use data-text="y" xlink:href="#font_4_1" transform="matrix(8.966938,0,0,-8.966938,167.04587,49.72702)"/>
<use data-text="=" xlink:href="#font_5_1" transform="matrix(8.966938,0,0,-8.966938,174.46631,49.72702)"/>
<use data-text="&#x03c0;" xlink:href="#font_6_1" transform="matrix(5.9779589,0,0,-5.9779589,185.38999,46.052797)"/>
<path transform="matrix(1.00006,0,0,-1.00006,-15.074043,-35.103067)" stroke-width=".3786" stroke-linecap="butt" stroke-miterlimit="10" stroke-linejoin="miter" fill="none" stroke="#000000" d="M200.452-82.583H205.011"/>
<use data-text="2" xlink:href="#font_7_1" transform="matrix(5.9779589,0,0,-5.9779589,185.84299,52.769205)"/>
<path transform="matrix(1.00006,0,0,-1.00006,101.11492,100.819087)" stroke-width=".3985" stroke-linecap="butt" stroke-dasharray="2.98883,2.98883" stroke-miterlimit="10" stroke-linejoin="miter" fill="none" stroke="#ff0000" d="M-99.21382-44.52673H99.21382"/>
<use data-text="y" xlink:href="#font_4_1" transform="matrix(8.966938,0,0,-8.966938,159.87845,155.11634)"/>
<use data-text="=" xlink:href="#font_5_1" transform="matrix(8.966938,0,0,-8.966938,167.29889,155.11634)"/>
<use data-text="&#x2212;" xlink:href="#font_8_1" transform="matrix(8.966938,0,0,-8.966938,177.02747,155.11634)"/>
<use data-text="&#x03c0;" xlink:href="#font_6_1" transform="matrix(5.9779589,0,0,-5.9779589,185.39098,151.44211)"/>
<path transform="matrix(1.00006,0,0,-1.00006,-22.241475,70.286258)" stroke-width=".3786" stroke-linecap="butt" stroke-miterlimit="10" stroke-linejoin="miter" fill="none" stroke="#000000" d="M207.62-82.583H212.178"/>
<use data-text="2" xlink:href="#font_7_1" transform="matrix(5.9779589,0,0,-5.9779589,185.84302,158.15853)"/>
</g>
</svg>
